<?xml version="1.0" encoding="utf-8"?>
<!-- Generator: Adobe Illustrator 16.0.0, SVG Export Plug-In . SVG Version: 6.00 Build 0)  -->
<!DOCTYPE svg PUBLIC "-//W3C//DTD SVG 1.1//EN" "http://www.w3.org/Graphics/SVG/1.1/DTD/svg11.dtd">
<svg version="1.1" id="Vrstva_1" xmlns="http://www.w3.org/2000/svg" xmlns:xlink="http://www.w3.org/1999/xlink" x="0px" y="0px"
	 width="200px" height="44px" viewBox="0 0 200 44" enable-background="new 0 0 200 44" xml:space="preserve">
<path fill="#642983" d="M32.909,31.234c-2.63-1.607-5.16-2.438-6.246-2.129c-0.067,0.013-0.133,0.042-0.198,0.078
	c-0.066,0.033-0.123,0.074-0.173,0.123c-0.847,0.744-1.524,3.319-1.603,6.398c-0.072,2.954,0.426,5.473,1.182,6.368
	c0.006,0.011,0.01,0.022,0.016,0.034c0.512,0.945,3.554,0.283,6.789-1.478c3.048-1.659,5.18-3.702,4.985-4.724
	C37.527,34.812,35.606,32.881,32.909,31.234z"/>
<path fill="#A22B68" d="M7.984,38.482c0.031,1.196,2.93,2.969,6.765,4.082c4.07,1.185,7.647,1.18,7.995-0.011
	c0.003-0.013,0.006-0.028,0.008-0.042c0.629-1.19,0.571-4.143-0.24-7.445c-0.845-3.441-2.237-6.171-3.375-6.799
	c-0.066-0.041-0.142-0.074-0.225-0.096c-0.083-0.025-0.163-0.039-0.241-0.039c-1.296-0.081-3.936,1.476-6.495,3.929
	C9.552,34.578,7.865,37.221,7.984,38.482z"/>
<path fill="#007134" d="M29.281,15.972c-0.418,2.113-0.354,3.972,0.11,4.609c0.028,0.042,0.061,0.078,0.099,0.111
	c0.04,0.036,0.081,0.064,0.123,0.083c0.692,0.377,2.546,0.2,4.585-0.493c1.955-0.664,3.486-1.599,3.891-2.309
	c0.006-0.007,0.013-0.013,0.018-0.02c0.497-0.565-0.67-2.399-2.606-4.097c-1.823-1.6-3.68-2.505-4.303-2.13
	C30.515,12.079,29.712,13.804,29.281,15.972z"/>
<path fill="#95C022" d="M22.045,14.164c0.766,1.735,1.754,3.042,2.414,3.268c0.038,0.015,0.082,0.023,0.128,0.029
	c0.044,0.007,0.088,0.007,0.129-0.001c0.69-0.079,1.937-1.145,3.057-2.68c1.072-1.466,1.704-2.917,1.633-3.633
	c0.002-0.01,0.004-0.016,0.006-0.023c0.071-0.661-1.7-1.391-3.955-1.635c-2.125-0.23-3.922,0.058-4.181,0.642
	C20.96,10.732,21.257,12.384,22.045,14.164z"/>
<path fill="#1B7FC2" d="M34.04,21.798c-2.469,1.195-4.307,2.688-4.598,3.651c-0.021,0.057-0.034,0.117-0.037,0.186
	c-0.005,0.065-0.002,0.129,0.01,0.188c0.149,0.993,1.752,2.738,4.023,4.274c2.174,1.479,4.299,2.315,5.333,2.179
	c0.01,0.003,0.023,0.007,0.033,0.005c0.956,0.07,1.92-2.524,2.159-5.791c0.224-3.082-0.279-5.66-1.139-6.005
	C38.94,20.061,36.57,20.57,34.04,21.798z"/>
<path fill="#FCCE00" d="M18.498,17.315c1.181-0.612,1.548-4.377,0.802-8.756c-0.79-4.647-2.532-8.229-3.891-7.998
	c-0.015,0.003-0.031,0.01-0.048,0.012c-1.497-0.051-4.424,1.441-7.338,3.855c-3.037,2.516-5.091,5.237-5.168,6.679
	c-0.009,0.087-0.004,0.178,0.012,0.271c0.014,0.095,0.041,0.183,0.079,0.261c0.548,1.337,3.389,3.224,7.088,4.596
	C13.826,17.642,17.292,18.046,18.498,17.315z"/>
<path fill="#E20A16" d="M11.763,29.887c3.07-2.535,5.149-5.275,5.229-6.732c0.01-0.088,0.006-0.179-0.014-0.273
	c-0.011-0.095-0.04-0.184-0.077-0.263c-0.55-1.349-3.412-3.259-7.143-4.649c-3.577-1.335-6.864-1.786-8.272-1.238
	c-0.016,0.001-0.034,0.001-0.048,0.004c-1.373,0.23-1.843,4.222-1.054,8.913c0.742,4.422,2.341,7.887,3.672,8.08
	C5.447,34.023,8.612,32.488,11.763,29.887z"/>
<path d="M61.223,36.999c-6.21,0-10.549-4.778-10.549-10.71V6.901h5.294v11.068c1.554-1.633,3.583-2.388,5.972-2.388
	c5.414,0,9.792,4.816,9.792,10.708C71.732,32.221,67.394,36.999,61.223,36.999z M61.223,20.437c-2.906,0-5.255,2.627-5.255,5.893
	c0,3.184,2.349,5.771,5.255,5.771c2.907,0,5.256-2.508,5.256-5.771C66.479,22.945,64.13,20.437,61.223,20.437z"/>
<path d="M93.787,26.289c0,6.132-4.658,10.71-10.353,10.71c-5.691,0-10.309-4.578-10.309-10.71c0-6.13,4.618-10.788,10.309-10.788
	C89.129,15.501,93.787,20.159,93.787,26.289z M88.491,26.33c0-3.544-2.268-6.013-5.056-6.013c-2.786,0-5.055,2.469-5.055,6.013
	c0,3.463,2.27,5.852,5.055,5.852C86.223,32.182,88.491,29.793,88.491,26.33z"/>
<path d="M105.449,15.501c5.733,0,9.115,3.782,9.115,9.156v11.864h-5.254V24.538c0-1.154-0.397-3.901-3.861-3.901
	c-2.311,0-3.98,1.591-3.98,3.901v11.983h-5.256V24.657C96.213,19.442,99.876,15.501,105.449,15.501z"/>
<path d="M138.051,36.521h-4.975v-2.15c-1.553,1.711-3.783,2.587-6.252,2.587c-5.414,0-9.831-4.776-9.831-10.669
	c0-5.931,4.337-10.788,10.548-10.788c6.17,0,10.51,4.856,10.51,10.788V36.521z M127.541,20.437c-2.906,0-5.254,2.508-5.254,5.893
	c0,3.264,2.348,5.771,5.254,5.771s5.256-2.588,5.256-5.771C132.797,23.064,130.447,20.437,127.541,20.437z"/>
<path d="M172.923,36.521h-5.256V24.538c0-1.154-0.397-3.901-3.86-3.901c-2.309,0-3.98,1.591-3.98,3.901v11.983h-5.255V24.538
	c0-1.154-0.358-3.901-3.823-3.901c-2.348,0-3.98,1.591-3.98,3.901v11.983h-5.255V24.657c0-5.215,3.622-9.156,9.235-9.156
	c2.789,0,5.057,1.114,6.529,2.906c1.553-1.792,3.863-2.906,6.529-2.906c5.732,0,9.116,3.782,9.116,9.156V36.521z"/>
<path d="M176.664,13.789v-2.945c0-1.473,1.192-2.628,2.667-2.628c1.433,0,2.626,1.155,2.626,2.628v2.945H176.664z M181.957,36.521
	h-5.255V16.019h5.255V36.521z"/>
</svg>
