<?xml version="1.0" encoding="utf-8"?>
<!-- Generator: Adobe Illustrator 16.0.0, SVG Export Plug-In . SVG Version: 6.00 Build 0)  -->
<!DOCTYPE svg PUBLIC "-//W3C//DTD SVG 1.1//EN" "http://www.w3.org/Graphics/SVG/1.1/DTD/svg11.dtd">
<svg version="1.1" id="Vrstva_1" xmlns="http://www.w3.org/2000/svg" xmlns:xlink="http://www.w3.org/1999/xlink" x="0px" y="0px"
	 width="500px" height="500px" viewBox="0 0 500 500" enable-background="new 0 0 500 500" xml:space="preserve">
<path fill="#642983" d="M364.291,328.772c-24.555-15.009-48.18-22.753-58.318-19.881c-0.627,0.132-1.236,0.404-1.848,0.732
	c-0.619,0.319-1.154,0.704-1.613,1.154c-7.922,6.945-14.24,31.003-14.963,59.752c-0.684,27.596,3.971,51.117,11.029,59.471
	c0.057,0.104,0.084,0.216,0.141,0.319c4.797,8.832,33.199,2.646,63.402-13.788c28.479-15.496,48.387-34.578,46.566-44.124
	C407.428,362.205,389.473,344.165,364.291,328.772z"/>
<path fill="#A22B68" d="M131.526,396.474c0.29,11.17,27.369,27.727,63.177,38.117c38.005,11.058,71.428,11.02,74.664-0.094
	c0.029-0.121,0.047-0.263,0.066-0.394c5.885-11.123,5.332-38.7-2.244-69.533c-7.875-32.147-20.884-57.631-31.501-63.497
	c-0.629-0.385-1.327-0.685-2.098-0.9c-0.779-0.235-1.521-0.357-2.257-0.357c-12.109-0.751-36.751,13.779-60.648,36.69
	C146.168,360.009,130.413,384.686,131.526,396.474z"/>
<path fill="#007134" d="M330.424,186.25c-3.922,19.726-3.312,37.09,1.025,43.041c0.252,0.39,0.553,0.732,0.928,1.037
	c0.365,0.333,0.742,0.597,1.146,0.779c6.465,3.52,23.773,1.863,42.809-4.608c18.266-6.195,32.57-14.929,36.344-21.57
	c0.057-0.056,0.121-0.112,0.178-0.173c4.627-5.28-6.26-22.405-24.338-38.262c-17.025-14.938-34.361-23.391-40.182-19.894
	C341.941,149.889,334.441,166.005,330.424,186.25z"/>
<path fill="#95C022" d="M262.836,169.36c7.16,16.205,16.396,28.417,22.545,30.519c0.367,0.141,0.77,0.221,1.191,0.272
	c0.414,0.052,0.836,0.062,1.221-0.014c6.439-0.737,18.078-10.69,28.535-25.023c10.014-13.69,15.908-27.243,15.26-33.936
	c0.02-0.099,0.029-0.146,0.047-0.211c0.658-6.177-15.871-12.991-36.924-15.267c-19.852-2.154-36.625,0.531-39.047,5.998
	C252.721,137.32,255.477,152.738,262.836,169.36z"/>
<path fill="#1B7FC2" d="M374.85,240.658c-23.053,11.157-40.211,25.115-42.922,34.097c-0.207,0.525-0.32,1.098-0.35,1.728
	c-0.055,0.619-0.037,1.211,0.086,1.764c1.389,9.273,16.359,25.577,37.564,39.929c20.311,13.798,40.152,21.616,49.801,20.34
	c0.094,0.02,0.217,0.057,0.311,0.047c8.926,0.647,17.936-23.578,20.16-54.092c2.094-28.769-2.607-52.855-10.633-56.076
	C420.615,224.429,398.492,229.192,374.85,240.658z"/>
<path fill="#FCCE00" d="M229.709,198.795c11.033-5.721,14.459-40.876,7.495-81.771c-7.387-43.397-23.653-76.849-36.344-74.69
	c-0.14,0.028-0.286,0.089-0.441,0.112c-13.984-0.478-41.318,13.451-68.527,36.005c-28.355,23.499-47.551,48.897-48.264,62.371
	c-0.089,0.816-0.047,1.661,0.117,2.529c0.127,0.892,0.371,1.699,0.732,2.432c5.111,12.488,31.642,30.105,66.187,42.922
	C186.092,201.846,218.442,205.619,229.709,198.795z"/>
<path fill="#E20A16" d="M166.818,316.194c28.669-23.672,48.084-49.268,48.827-62.868c0.094-0.816,0.051-1.671-0.123-2.562
	c-0.112-0.885-0.375-1.711-0.722-2.452c-5.145-12.601-31.876-30.444-66.713-43.42c-33.396-12.46-64.088-16.67-77.252-11.559
	c-0.15,0.014-0.319,0.014-0.45,0.037c-12.821,2.159-17.219,39.436-9.851,83.244c6.941,41.299,21.87,73.662,34.292,75.455
	C107.84,354.828,137.396,340.485,166.818,316.194z"/>
</svg>
