<?xml version="1.0" standalone="no"?>
<!DOCTYPE svg PUBLIC "-//W3C//DTD SVG 1.1//EN" "http://www.w3.org/Graphics/SVG/1.1/DTD/svg11.dtd" >
<svg xmlns="http://www.w3.org/2000/svg" xmlns:xlink="http://www.w3.org/1999/xlink" version="1.1">
<metadata>
Created by FontForge 20150824 at Fri May 13 06:12:19 2016
 By Everything Fonts
Copyright (c) 2011 by Jos Buivenga. All rights reserved.
</metadata>
<defs>
<font id="bnmType300" horiz-adv-x="565" >
  <font-face 
    font-family="bnmType300"
    font-weight="400"
    font-stretch="normal"
    units-per-em="1000"
    panose-1="2 0 0 0 0 0 0 0 0 0"
    ascent="771"
    descent="-229"
    x-height="503"
    cap-height="703"
    bbox="-103.6 -214 1088 883"
    underline-thickness="50"
    underline-position="-150"
    unicode-range="U+0020-FB04"
  />
<missing-glyph horiz-adv-x="529" 
d="M14 25v650q0 25 25 25h451q24 0 24 -25v-650q0 -25 -24 -25h-451q-25 0 -25 25zM264 395l170 255h-340zM294 350l170 -255v510zM64 95l170 255l-170 255v-510zM94 50h340l-170 255z" />
    <glyph glyph-name=".notdef" horiz-adv-x="529" 
d="M14 25v650q0 25 25 25h451q24 0 24 -25v-650q0 -25 -24 -25h-451q-25 0 -25 25zM264 395l170 255h-340zM294 350l170 -255v510zM64 95l170 255l-170 255v-510zM94 50h340l-170 255z" />
    <glyph glyph-name=".null" horiz-adv-x="0" 
 />
    <glyph glyph-name="nonmarkingreturn" horiz-adv-x="333" 
 />
    <glyph glyph-name="space" unicode=" " horiz-adv-x="250" 
 />
    <glyph glyph-name="exclam" unicode="!" horiz-adv-x="249" 
d="M117 184q-25 0 -25 24l-3 470q0 25 25 25h21q24 0 24 -25l-3 -470q0 -24 -24 -24h-15zM86 25v29q0 25 24 25h30q24 0 24 -25v-29q0 -25 -24 -25h-30q-24 0 -24 25z" />
    <glyph glyph-name="quotedbl" unicode="&#x22;" horiz-adv-x="305" 
d="M208 512q-24 0 -24 25v152q0 24 24 24h10q24 0 24 -24v-152q0 -25 -24 -25h-10zM87 512q-25 0 -25 25v152q0 24 25 24h10q24 0 24 -24v-152q0 -25 -24 -25h-10z" />
    <glyph glyph-name="numbersign" unicode="#" horiz-adv-x="708" 
d="M155 26l30 169h-114q-28 0 -23 26l1 8q4 22 27 22h119l35 196h-115q-26 0 -23 26l2 8q3 22 26 22h119l31 178q4 22 27 22h11q28 0 23 -26l-31 -174h173l31 178q4 22 27 22h11q28 0 23 -26l-31 -174h113q28 0 23 -26l-1 -8q-4 -22 -27 -22h-117l-35 -196h113q27 0 22 -26
l-1 -8q-3 -22 -27 -22h-117l-30 -173q-3 -22 -27 -22h-11q-26 0 -23 26l30 169h-173l-30 -173q-3 -22 -27 -22h-11q-26 0 -23 26zM256 251h173l35 196h-173z" />
    <glyph glyph-name="dollar" unicode="$" horiz-adv-x="523" 
d="M72 62q-18 15 -3 34l12 15q14 18 34 4q75 -61 165 -61q60 0 100 33.5t40 88.5q0 47 -36.5 80.5t-88.5 56t-104 46.5t-88.5 66t-36.5 101q0 70 51 123t133 63v70q0 25 24 25h8q24 0 24 -23v-70q87 -5 149 -53q19 -12 6 -34l-9 -16q-12 -20 -34 -6q-62 44 -133 44
q-66 0 -107 -36t-41 -85q0 -44 36.5 -75.5t88.5 -53t104 -46t88.5 -68.5t36.5 -107q0 -74 -50 -127t-135 -61v-68q0 -25 -24 -25h-8q-24 0 -24 23v70q-106 8 -178 72z" />
    <glyph glyph-name="percent" unicode="%" horiz-adv-x="718" 
d="M190 437q-59 0 -100 40.5t-41 98.5q0 57 41.5 98t99.5 41t99 -41t41 -98q0 -58 -41 -98.5t-99 -40.5zM79 30l501 658q11 15 30 15h15q16 0 20.5 -8.5t-5.5 -21.5l-501 -658q-11 -15 -30 -15h-16q-15 0 -19.5 8.5t5.5 21.5zM190 493q34 0 57.5 24t23.5 59q0 34 -23.5 58.5
t-57.5 24.5t-57.5 -24.5t-23.5 -58.5q0 -35 23.5 -59t57.5 -24zM387 126q0 58 41.5 99t99.5 41t99.5 -41t41.5 -99q0 -57 -41.5 -97.5t-99.5 -40.5t-99.5 40.5t-41.5 97.5zM447 127q0 -35 23.5 -59t57.5 -24t57.5 24t23.5 59q0 34 -23.5 58.5t-57.5 24.5t-57.5 -24.5
t-23.5 -58.5z" />
    <glyph glyph-name="ampersand" unicode="&#x26;" horiz-adv-x="637" 
d="M51 194q0 63 34 115t94 70v2q-4 1 -10.5 4t-23 15t-29.5 28t-23.5 45t-10.5 64q0 81 57 129.5t153 48.5h50q24 0 24 -25v-11q0 -25 -24 -25h-49q-61 0 -100.5 -33.5t-39.5 -87.5q0 -21 5.5 -40t20 -40.5t47 -34t78.5 -12.5h148v75q0 24 25 24h19q25 0 25 -22v-77h71
q24 0 24 -24v-13q0 -25 -24 -25h-71v-103q0 -123 -62.5 -188t-170.5 -65q-105 0 -171 58.5t-66 147.5zM122 198q0 -62 45 -103.5t121 -41.5q164 0 164 190v101h-148q-89 0 -135.5 -39t-46.5 -107z" />
    <glyph glyph-name="quotesingle" unicode="'" horiz-adv-x="181" 
d="M85 545q-24 0 -24 24v120q0 24 24 24h11q24 0 24 -24v-120q0 -24 -24 -24h-11z" />
    <glyph glyph-name="parenleft" unicode="(" horiz-adv-x="265" 
d="M160 -80q-104 190 -104 417q0 200 103 376q9 17 29 17h11q14 0 19 -8t-2 -21q-97 -177 -97 -364q0 -214 98 -403q6 -13 1.5 -21t-17.5 -8h-12q-21 0 -29 15z" />
    <glyph glyph-name="parenright" unicode=")" horiz-adv-x="265" 
d="M51 -65q98 187 98 402q0 187 -97 364q-7 13 -2.5 21t17.5 8h13q20 0 29 -17q103 -176 103 -376q0 -227 -103 -415q-10 -17 -30 -17h-11q-14 0 -18.5 8.5t1.5 21.5z" />
    <glyph glyph-name="asterisk" unicode="*" horiz-adv-x="477" 
d="M138 352l-12 8q-21 14 -4 34l78 101v2l-123 36q-24 6 -16 30l4 14q8 24 31 15l121 -43l-4 129q-3 25 23 25h18q26 0 23 -25l-4 -129l122 43q23 10 31 -15l4 -14q9 -24 -16 -30l-123 -36v-2l78 -100q15 -21 -5 -35l-11 -8q-21 -15 -35 5l-72 106h-2l-71 -105
q-15 -20 -35 -6z" />
    <glyph glyph-name="plus" unicode="+" horiz-adv-x="606" 
d="M67 255q-25 0 -25 24v9q0 25 25 25h206v230q0 25 24 25h13q24 0 24 -25v-230h205q25 0 25 -25v-9q0 -24 -25 -24h-205v-230q0 -25 -24 -25h-13q-24 0 -24 25v230h-206z" />
    <glyph glyph-name="comma" unicode="," horiz-adv-x="230" 
d="M37 -102l54 163q6 21 29 21h24q14 0 19.5 -8t-0.5 -21l-67 -163q-8 -19 -29 -19h-9q-29 0 -21 27z" />
    <glyph glyph-name="hyphen" unicode="-" horiz-adv-x="423" 
d="M94 253q-24 0 -24 24v13q0 25 24 25h235q24 0 24 -25v-13q0 -24 -24 -24h-235z" />
    <glyph glyph-name="period" unicode="." horiz-adv-x="219" 
d="M69 25v34q0 24 24 24h33q24 0 24 -24v-34q0 -25 -24 -25h-33q-24 0 -24 25z" />
    <glyph glyph-name="slash" unicode="/" horiz-adv-x="385" 
d="M47 -14l238 736q7 20 28 20h14q13 0 18.5 -7.5t1.5 -20.5l-238 -736q-7 -20 -28 -20h-14q-13 0 -18.5 7.5t-1.5 20.5z" />
    <glyph glyph-name="zero" unicode="0" horiz-adv-x="620" 
d="M310 -12q-243 0 -243 364q0 107 21.5 185t77.5 128t144 50t144 -50t77.5 -128t21.5 -185q0 -364 -243 -364zM310 53q171 0 171 299q0 298 -171 298t-171 -298q0 -299 171 -299z" />
    <glyph glyph-name="one" unicode="1" horiz-adv-x="447" 
d="M46 25v12q0 25 25 25h133v516l1 39h-2q-8 -15 -34 -41l-59 -58q-16 -18 -34 0l-9 10q-19 16 -1 34l129 128q13 13 30 13h23q24 0 24 -25v-616h130q25 0 25 -25v-12q0 -25 -25 -25h-331q-25 0 -25 25z" />
    <glyph glyph-name="two" unicode="2" horiz-adv-x="551" 
d="M52 25v20q0 50 20 93.5t51.5 75t70 60t77 54.5t70 52.5t51.5 61t20 72.5q0 59 -40 97t-106 38q-87 0 -143 -76q-17 -20 -35 -6l-11 9q-19 14 -6 33q27 39 76.5 72.5t122.5 33.5q98 0 156.5 -56t58.5 -141q0 -55 -26.5 -102.5t-66 -79t-86 -65t-86 -61t-66.5 -66.5
t-27 -82h344q25 0 25 -25v-12q0 -25 -25 -25h-392q-27 0 -27 25z" />
    <glyph glyph-name="three" unicode="3" horiz-adv-x="552" 
d="M68 68q-17 16 -2 35l12 15q14 17 34 2q75 -66 161 -66q65 0 113 43t48 109q0 71 -51.5 110.5t-125.5 39.5h-28q-20 0 -27 18l-3 5q-7 17 6 33l163 191l37 39v2q-20 -3 -57 -3h-239q-25 0 -25 25v12q0 25 25 25h361q25 0 25 -23v-5q0 -19 -11 -31l-199 -229q28 -2 56.5 -9
t58.5 -22.5t53 -38t37.5 -58t14.5 -79.5q0 -91 -66 -155.5t-165 -64.5q-111 0 -206 80z" />
    <glyph glyph-name="four" unicode="4" horiz-adv-x="588" 
d="M51 195q-24 0 -24 24v4q0 18 9 30l326 435q12 15 30 15h31q24 0 24 -25v-423h76q24 0 24 -24v-12q0 -24 -22 -24h-78v-170q0 -25 -24 -25h-20q-25 0 -25 25v170h-327zM110 255h268v295l4 67h-2q-17 -29 -35 -54l-235 -306v-2z" />
    <glyph glyph-name="five" unicode="5" horiz-adv-x="547" 
d="M79 70q-17 17 0 34l12 14q17 17 34 0q58 -64 142 -64q74 0 124.5 47t50.5 118q0 72 -51 119t-127 47q-52 0 -112 -30q-17 -9 -33 -3l-7 2q-20 8 -18 29l33 297q3 23 26 23h292q25 0 25 -25v-12q0 -25 -25 -25h-255l-20 -180l-7 -40h2q44 27 107 27q105 0 173.5 -66.5
t68.5 -162.5q0 -97 -70.5 -164t-173.5 -67q-112 0 -191 82z" />
    <glyph glyph-name="six" unicode="6" horiz-adv-x="585" 
d="M60 317q0 55 11 110t35.5 107t59.5 92t87.5 64.5t115.5 24.5q59 0 106 -19q23 -9 14 -32l-7 -16q-9 -20 -32 -14q-39 16 -80 16q-103 0 -163.5 -84t-71.5 -200h2q26 38 74.5 61t106.5 23q95 0 156 -62.5t61 -162.5q0 -107 -63 -172t-158 -65q-113 0 -183.5 93t-70.5 236z
M135 266q0 -74 51.5 -143.5t126.5 -69.5q70 0 111 47t41 123q0 75 -44 120t-117 45q-68 0 -118.5 -38t-50.5 -84z" />
    <glyph glyph-name="seven" unicode="7" horiz-adv-x="503" 
d="M102 29l270 547l38 65v2q-17 -2 -52 -2h-304q-25 0 -25 25v12q0 25 25 25h407q25 0 25 -23v-9q0 -16 -7 -31l-310 -622q-9 -18 -29 -18h-20q-14 0 -19 8t1 21z" />
    <glyph glyph-name="eight" unicode="8" horiz-adv-x="593" 
d="M59 198q0 42 14.5 78.5t38.5 61.5t37 36t27 20q-89 58 -89 143q0 74 55.5 126t157.5 52q97 0 156 -50t59 -131q0 -46 -22 -94t-37 -66.5t-28 -31.5q103 -58 103 -152q0 -83 -66.5 -142.5t-166.5 -59.5q-99 0 -169 58.5t-70 151.5zM371 369q75 75 75 158q0 58 -40 91.5
t-106 33.5t-104.5 -33t-38.5 -82q0 -22 10 -42t22 -32.5t38 -27.5t42 -22.5t51.5 -22.5t50.5 -21zM130 203q0 -67 50 -109.5t117 -42.5q64 0 113.5 39.5t49.5 97.5q0 28 -11 49t-37.5 39t-47.5 28.5t-66 29.5t-67 29q-101 -71 -101 -160z" />
    <glyph glyph-name="nine" unicode="9" horiz-adv-x="585" 
d="M97 38l7 18q7 20 31 13q41 -16 80 -16q71 0 124 43.5t79 105.5t32 135h-2q-26 -38 -75.5 -61t-106.5 -23q-94 0 -155 63.5t-61 162.5q0 107 63 171.5t158 64.5q113 0 183.5 -93t70.5 -236q0 -69 -18.5 -137t-54 -127.5t-97 -96.5t-139.5 -37q-56 0 -106 19q-23 9 -13 31z
M282 315q68 0 118 38t50 84q0 74 -51.5 143.5t-126.5 69.5q-70 0 -110.5 -47t-40.5 -123q0 -75 43.5 -120t117.5 -45z" />
    <glyph glyph-name="colon" unicode=":" horiz-adv-x="219" 
d="M96 423q-25 0 -25 25v30q0 25 25 25h29q24 0 24 -25v-30q0 -25 -24 -25h-29zM71 25v30q0 25 25 25h29q24 0 24 -25v-30q0 -25 -24 -25h-29q-25 0 -25 25z" />
    <glyph glyph-name="semicolon" unicode=";" horiz-adv-x="270" 
d="M138 420q-25 0 -25 24v34q0 25 25 25h31q25 0 25 -25v-34q0 -24 -25 -24h-31zM66 -102l46 163q5 21 28 21h25q13 0 18.5 -8t0.5 -21l-59 -163q-7 -19 -29 -19h-9q-28 0 -21 27z" />
    <glyph glyph-name="less" unicode="&#x3c;" horiz-adv-x="606" 
d="M80 250q-19 9 -19 29v10q0 21 19 28l405 181q13 6 20.5 1t7.5 -19v-16q0 -21 -19 -28l-348 -151v-2l348 -151q19 -7 19 -28v-16q0 -14 -7.5 -19t-20.5 0z" />
    <glyph glyph-name="equal" unicode="=" horiz-adv-x="606" 
d="M95 342q-25 0 -25 24v9q0 25 25 25h416q25 0 25 -25v-9q0 -24 -25 -24h-416zM95 168q-25 0 -25 24v9q0 25 25 25h416q25 0 25 -25v-9q0 -24 -25 -24h-416z" />
    <glyph glyph-name="greater" unicode="&#x3e;" horiz-adv-x="606" 
d="M93 88v16q0 21 19 28l348 151v2l-348 151q-19 7 -19 28v16q0 14 7.5 19t20.5 -1l405 -181q19 -7 19 -28v-10q0 -20 -19 -29l-405 -180q-13 -6 -20.5 -1t-7.5 19z" />
    <glyph glyph-name="question" unicode="?" horiz-adv-x="444" 
d="M187 184q-25 0 -25 25v23q0 42 18 77t43.5 59t51.5 47t44 54t18 67q0 49 -37 82t-94 33q-53 0 -101 -29q-23 -12 -34 6l-8 12q-16 21 5 34q63 42 141 42q86 0 143 -50t57 -127q0 -45 -18 -81.5t-44 -61.5t-52 -48t-45 -53t-20 -66l-1 -24q-1 -21 -23 -21h-19zM157 25v29
q0 25 24 25h30q24 0 24 -25v-29q0 -25 -24 -25h-30q-24 0 -24 25z" />
    <glyph glyph-name="at" unicode="@" horiz-adv-x="777" 
d="M57 242q0 153 104 260t252 107q126 0 185.5 -54t59.5 -135v-315h46q24 0 24 -25v-6q0 -25 -24 -25h-244q-86 0 -143 56.5t-57 135.5t57 135.5t143 56.5h130q-2 51 -45.5 84.5t-126.5 33.5q-122 0 -206.5 -91t-84.5 -218q0 -122 77 -209.5t195 -95.5q24 -3 24 -25v-11
q0 -26 -25 -24q-146 9 -243.5 113.5t-97.5 251.5zM330 242q0 -57 39.5 -97t96.5 -40h124v275h-122q-59 0 -98.5 -40.5t-39.5 -97.5z" />
    <glyph glyph-name="A" unicode="A" horiz-adv-x="609" 
d="M27 29l242 654q6 20 27 20h33q21 0 27 -20l242 -654q8 -29 -20 -29h-22q-22 0 -28 20l-75 204h-282l-74 -204q-6 -20 -28 -20h-21q-29 0 -21 29zM191 284h242l-93 255l-26 92h-2q-16 -59 -27 -92z" />
    <glyph glyph-name="B" unicode="B" horiz-adv-x="611" 
d="M98 25v653q0 25 24 25h216q85 0 138 -48t53 -129q0 -108 -90 -153v-2q54 -15 86 -62.5t32 -111.5q0 -91 -60 -144t-151 -53h-224q-24 0 -24 25zM167 398h171q53 0 86 34t33 89t-32 87.5t-88 32.5h-170v-243zM167 62h180q64 0 101 37t37 100t-38.5 101t-100.5 38h-179
v-276z" />
    <glyph glyph-name="C" unicode="C" horiz-adv-x="710" 
d="M51 356q0 154 99.5 256.5t253.5 102.5q140 0 236 -75q17 -14 4 -35l-9 -13q-14 -18 -34 -4q-89 62 -195 62q-126 0 -204.5 -83.5t-78.5 -209.5q0 -128 79 -216t207 -88q115 0 209 76q19 16 34 -3l9 -11q15 -18 -2 -35q-108 -92 -252 -92q-158 0 -257 105.5t-99 262.5z
" />
    <glyph glyph-name="D" unicode="D" horiz-adv-x="731" 
d="M98 25v653q0 25 24 25h203q160 0 256.5 -93.5t96.5 -257.5q0 -166 -96 -259t-257 -93h-203q-24 0 -24 25zM167 62h151q132 0 210 75.5t78 214.5q0 138 -78 213.5t-210 75.5h-151v-579z" />
    <glyph glyph-name="E" unicode="E" horiz-adv-x="553" 
d="M98 25v653q0 25 24 25h347q25 0 25 -25v-12q0 -25 -25 -25h-302v-256h242q25 0 25 -24v-13q0 -25 -25 -25h-242v-261h320q25 0 25 -25v-12q0 -25 -25 -25h-365q-24 0 -24 25z" />
    <glyph glyph-name="F" unicode="F" horiz-adv-x="498" 
d="M98 25v653q0 25 24 25h321q25 0 25 -25v-12q0 -25 -25 -25h-276v-264h234q24 0 24 -24v-13q0 -25 -24 -25h-234v-290q0 -25 -24 -25h-21q-24 0 -24 25z" />
    <glyph glyph-name="G" unicode="G" horiz-adv-x="748" 
d="M51 351q0 154 101.5 259t253.5 105q135 0 231 -67q20 -15 4 -34l-9 -13q-14 -20 -34 -6q-87 55 -190 55q-126 0 -205.5 -85.5t-79.5 -211.5q0 -129 79.5 -214.5t199.5 -85.5q39 0 76.5 10.5t63 25.5t45 30.5t28.5 26.5l9 10v118h-96q-24 0 -24 25v12q0 25 24 25h137
q24 0 24 -25v-286q0 -25 -24 -25h-14q-25 0 -25 22v36l1 26h-2q-3 -4 -9.5 -10.5t-28.5 -23t-46.5 -29t-63.5 -23t-81 -10.5q-146 0 -245.5 104t-99.5 259z" />
    <glyph glyph-name="H" unicode="H" horiz-adv-x="742" 
d="M98 25v653q0 25 24 25h21q24 0 24 -25v-295h408v295q0 25 24 25h20q25 0 25 -25v-653q0 -25 -25 -25h-20q-24 0 -24 25v296h-408v-296q0 -25 -24 -25h-21q-24 0 -24 25z" />
    <glyph glyph-name="I" unicode="I" horiz-adv-x="265" 
d="M98 25v653q0 25 24 25h21q24 0 24 -25v-653q0 -25 -24 -25h-21q-24 0 -24 25z" />
    <glyph glyph-name="J" unicode="J" horiz-adv-x="510" 
d="M26 201q0 24 24 24h22q12 0 16.5 -5.5t6.5 -21.5q7 -145 128 -145q54 0 91 34.5t37 109.5v444h-147q-24 0 -24 25v12q0 25 24 25h192q25 0 25 -25v-481q0 -106 -58 -157.5t-140 -51.5t-139.5 52.5t-57.5 160.5z" />
    <glyph glyph-name="K" unicode="K" horiz-adv-x="583" 
d="M98 25v653q0 25 24 25h21q24 0 24 -25v-280h119l179 288q10 17 29 17h25q15 0 20 -8.5t-3 -21.5l-192 -302v-2l206 -340q8 -12 3 -20.5t-19 -8.5h-28q-19 0 -29 17l-191 319h-119v-311q0 -25 -24 -25h-21q-24 0 -24 25z" />
    <glyph glyph-name="L" unicode="L" horiz-adv-x="499" 
d="M98 25v653q0 25 24 25h21q24 0 24 -25v-616h301q25 0 25 -25v-12q0 -25 -25 -25h-346q-24 0 -24 25z" />
    <glyph glyph-name="M" unicode="M" horiz-adv-x="837" 
d="M75 26l53 654q2 23 25 23h27q22 0 29 -19l176 -394l35 -86h2q18 50 34 86l176 394q9 19 29 19h27q23 0 25 -23l53 -654q2 -26 -24 -26h-20q-23 0 -25 23l-37 469l-3 98h-2q-20 -62 -36 -98l-158 -342q-7 -19 -28 -19h-24q-22 0 -29 19l-157 342l-37 100h-2q0 -62 -3 -100
l-37 -469q-2 -23 -25 -23h-20q-26 0 -24 26z" />
    <glyph glyph-name="N" unicode="N" horiz-adv-x="745" 
d="M98 25v653q0 25 24 25h24q18 0 30 -16l348 -490l58 -95h2q-6 58 -6 95v481q0 25 25 25h20q24 0 24 -25v-653q0 -25 -24 -25h-24q-19 0 -29 16l-349 490l-58 95h-2q6 -58 6 -95v-481q0 -25 -24 -25h-21q-24 0 -24 25z" />
    <glyph glyph-name="O" unicode="O" horiz-adv-x="817" 
d="M50 356q0 152 102.5 255.5t255.5 103.5q154 0 256 -103.5t102 -255.5q0 -156 -102 -262t-256 -106q-153 0 -255.5 106.5t-102.5 261.5zM122 356q0 -129 81.5 -216t204.5 -87t204.5 87t81.5 216q0 126 -81.5 210t-204.5 84t-204.5 -84t-81.5 -210z" />
    <glyph glyph-name="P" unicode="P" horiz-adv-x="589" 
d="M98 25v653q0 25 24 25h219q96 0 156.5 -58t60.5 -154q0 -97 -60.5 -156t-156.5 -59h-174v-251q0 -25 -24 -25h-21q-24 0 -24 25zM167 338h165q71 0 113 41t42 112q0 70 -41.5 110t-112.5 40h-166v-303z" />
    <glyph glyph-name="Q" unicode="Q" horiz-adv-x="817" 
d="M51 356q0 152 102.5 255.5t254.5 103.5q155 0 257 -103t102 -256q0 -143 -88 -242l69 -70q19 -17 1 -35l-8 -8q-18 -18 -33 -1l-70 71q-97 -83 -230 -83q-153 0 -255 106.5t-102 261.5zM123 356q0 -128 82 -215.5t203 -87.5q106 0 182 65l-69 71q-18 17 -1 34l8 8
q17 19 34 2l68 -71q65 81 65 194q0 126 -82.5 210t-204.5 84q-121 0 -203 -84t-82 -210z" />
    <glyph glyph-name="R" unicode="R" horiz-adv-x="609" 
d="M98 25v653q0 25 24 25h190q85 0 128 -20q104 -50 104 -176q0 -71 -36.5 -124t-96.5 -70v-2q7 -9 18 -28l137 -254q7 -13 2 -21t-19 -8h-26q-20 0 -29 17l-150 279h-177v-271q0 -25 -24 -25h-21q-24 0 -24 25zM167 358h167q63 0 101 40.5t38 106.5q0 42 -19.5 74.5
t-54.5 48.5q-29 13 -92 13h-140v-283z" />
    <glyph glyph-name="S" unicode="S" horiz-adv-x="526" 
d="M72 62q-16 16 -3 35l12 15q15 18 35 3q73 -61 162 -61q64 0 103.5 33t39.5 87q0 36 -19.5 63.5t-50 46t-68 35t-75 34.5t-68 39.5t-50 56t-19.5 78.5q0 85 63 136.5t157 51.5q100 0 171 -55q18 -14 6 -33l-9 -16q-13 -21 -35 -7q-66 45 -135 45q-62 0 -104.5 -32
t-42.5 -86q0 -34 19.5 -60.5t50 -43.5t68 -33t75 -34t68 -40t50 -57.5t19.5 -81.5q0 -83 -58 -138t-156 -55q-117 0 -206 74z" />
    <glyph glyph-name="T" unicode="T" horiz-adv-x="586" 
d="M258 25v616h-227q-25 0 -25 25v12q0 25 25 25h524q25 0 25 -25v-12q0 -25 -25 -25h-228v-616q0 -25 -24 -25h-20q-25 0 -25 25z" />
    <glyph glyph-name="U" unicode="U" horiz-adv-x="715" 
d="M88 245v433q0 25 25 25h20q25 0 25 -25v-432q0 -90 54 -141.5t145 -51.5q92 0 146 52t54 143v430q0 25 25 25h20q24 0 24 -25v-433q0 -116 -74 -186.5t-194 -70.5q-121 0 -195.5 70.5t-74.5 186.5z" />
    <glyph glyph-name="V" unicode="V" horiz-adv-x="610" 
d="M271 20l-243 654q-10 29 20 29h23q22 0 28 -20l187 -514l27 -91h2q15 55 27 91l189 514q6 20 27 20h24q28 0 20 -29l-243 -654q-7 -20 -28 -20h-33q-21 0 -27 20z" />
    <glyph glyph-name="W" unicode="W" horiz-adv-x="930" 
d="M219 22l-170 654q-6 27 22 27h22q21 0 27 -22l131 -524l16 -75h2q7 39 17 75l145 525q6 21 27 21h23q21 0 27 -21l144 -525l18 -75h2q6 39 15 75l137 524q6 22 27 22h22q13 0 19 -7t2 -20l-174 -655q-6 -21 -28 -21h-38q-22 0 -28 21l-130 474l-25 105h-3
q-12 -60 -25 -105l-131 -474q-6 -21 -27 -21h-39q-21 0 -27 22z" />
    <glyph glyph-name="X" unicode="X" horiz-adv-x="566" 
d="M37 29l206 338l-186 307q-8 12 -3 20.5t20 8.5h27q18 0 29 -17l113 -191l46 -81h2q21 45 43 81l114 191q10 17 29 17h27q15 0 20 -8.5t-3 -20.5l-188 -307l206 -338q9 -12 4 -20.5t-20 -8.5h-25q-19 0 -29 17l-137 226l-44 78h-2q-21 -42 -43 -79l-135 -225
q-10 -17 -29 -17h-25q-15 0 -20 8.5t3 20.5z" />
    <glyph glyph-name="Y" unicode="Y" horiz-adv-x="554" 
d="M248 25v277l-221 372q-8 12 -3 20.5t20 8.5h25q20 0 29 -17l140 -238l43 -84h2q22 47 43 84l140 238q9 17 28 17h26q14 0 19 -8.5t-2 -20.5l-220 -372v-277q0 -25 -25 -25h-20q-24 0 -24 25z" />
    <glyph glyph-name="Z" unicode="Z" horiz-adv-x="575" 
d="M33 25v7q0 17 10 31l354 514q11 17 23.5 33t19.5 24l6 7v2q-17 -2 -52 -2h-317q-24 0 -24 25v12q0 25 24 25h430q25 0 25 -24v-8q0 -17 -10 -31l-354 -514q-11 -17 -23.5 -33t-18.5 -23l-7 -8v-2q17 2 52 2h340q24 0 24 -25v-12q0 -25 -24 -25h-453q-25 0 -25 25z" />
    <glyph glyph-name="bracketleft" unicode="[" horiz-adv-x="267" 
d="M87 -70v775q0 25 24 25h87q24 0 24 -25v-6q0 -25 -24 -25h-48v-713h48q24 0 24 -25v-6q0 -25 -24 -25h-87q-24 0 -24 25z" />
    <glyph glyph-name="backslash" unicode="\" horiz-adv-x="385" 
d="M288 -22l-238 736q-8 28 21 28h13q21 0 28 -20l238 -736q4 -13 -1.5 -20.5t-18.5 -7.5h-13q-22 0 -29 20z" />
    <glyph glyph-name="bracketright" unicode="]" horiz-adv-x="267" 
d="M45 -64q0 25 25 25h47v713h-47q-25 0 -25 25v6q0 25 25 25h86q24 0 24 -25v-775q0 -25 -24 -25h-86q-25 0 -25 25v6z" />
    <glyph glyph-name="asciicircum" unicode="^" horiz-adv-x="606" 
d="M116 250q-30 0 -19 29l177 405q9 19 29 19h6q20 0 29 -19l177 -405q11 -29 -19 -29h-14q-21 0 -28 19l-148 351l-148 -351q-9 -19 -29 -19h-13z" />
    <glyph glyph-name="underscore" unicode="_" horiz-adv-x="538" 
d="M11 -25q0 25 24 25h467q25 0 25 -25v-8q0 -25 -25 -25h-467q-24 0 -24 25v8z" />
    <glyph glyph-name="grave" unicode="`" horiz-adv-x="504" 
d="M286 752q-18 0 -30 16l-53 73q-9 13 -5.5 21.5t19.5 8.5h23q19 0 29 -17l44 -74q7 -11 3.5 -19.5t-16.5 -8.5h-14z" />
    <glyph glyph-name="a" unicode="a" horiz-adv-x="508" 
d="M34 135q0 173 307 173h29v16q0 130 -124 130q-64 0 -122 -35q-21 -11 -34 8l-6 10q-13 22 7 34q71 44 160 44q90 0 138.5 -49.5t48.5 -143.5v-297q0 -25 -24 -25h-16q-25 0 -25 25v40l3 38h-2q1 0 -5 -12t-19 -28.5t-31.5 -33.5t-49 -29t-65.5 -12q-69 0 -119.5 39
t-50.5 108zM104 141q0 -38 29.5 -67t82.5 -29q69 0 111.5 58t42.5 130v24h-28q-26 0 -45.5 -1t-50.5 -4t-53 -11t-44 -20t-33.5 -32.5t-11.5 -47.5z" />
    <glyph glyph-name="b" unicode="b" horiz-adv-x="581" 
d="M78 25v653q0 25 24 25h19q25 0 25 -25v-225l-4 -41h2l5.5 11t18 25t32.5 31.5t49.5 24.5t67.5 11q100 0 159.5 -72.5t59.5 -190.5q0 -119 -63.5 -191.5t-163.5 -72.5q-34 0 -64 11t-48 26t-31.5 30.5t-19.5 26.5l-5 11h-2q4 -15 4 -37v-33q0 -23 -25 -23h-16
q-24 0 -24 25zM144 251q0 -83 41.5 -142.5t117.5 -59.5q70 0 116.5 54.5t46.5 147.5q0 91 -44.5 146.5t-114.5 55.5q-69 0 -116 -51t-47 -151z" />
    <glyph glyph-name="c" unicode="c" horiz-adv-x="532" 
d="M43 251q0 115 75.5 189.5t188.5 74.5q96 0 167 -57q18 -14 3 -34l-7 -11q-12 -19 -34 -5q-60 46 -127 46q-84 0 -140 -57t-56 -146q0 -88 56.5 -145t140.5 -57q78 0 142 53q20 15 33 -6l7 -10q11 -18 -6 -34q-79 -64 -179 -64q-114 0 -189 73.5t-75 189.5z" />
    <glyph glyph-name="d" unicode="d" horiz-adv-x="581" 
d="M45 252q0 118 63 190.5t163 72.5q34 0 63.5 -10.5t47.5 -25.5t31 -29.5t18 -25.5l5 -10h2q-3 17 -3 38v226q0 25 25 25h19q24 0 24 -25v-653q0 -25 -24 -25h-17q-25 0 -25 24v38l4 31h-2l-5.5 -11t-18 -25.5t-32.5 -32t-50 -25t-69 -11.5q-100 0 -159.5 73t-59.5 191z
M115 252q0 -92 44 -147.5t115 -55.5q69 0 116 51t47 152q0 83 -41.5 142t-118.5 59q-69 0 -115.5 -54.5t-46.5 -146.5z" />
    <glyph glyph-name="e" unicode="e" horiz-adv-x="544" 
d="M44 251q0 120 71.5 192t176.5 72q99 0 154.5 -65.5t55.5 -174.5q0 -11 -7.5 -18t-18.5 -7h-362q2 -93 58 -147t137 -54q73 0 132 46q21 13 33 -6l8 -12q11 -19 -7 -33q-76 -56 -168 -56q-113 0 -188 74t-75 189zM117 301h316q-3 76 -43.5 117t-99.5 41q-65 0 -113 -42
t-60 -116z" />
    <glyph glyph-name="f" unicode="f" horiz-adv-x="305" 
d="M95 25v417h-40q-24 0 -24 24v8q0 25 24 25h40v23q0 56 18.5 95.5t48 57.5t54.5 25.5t48 7.5h11q24 0 24 -25v-12q0 -23 -27 -24q-20 -1 -35.5 -5t-34 -16t-29 -38.5t-10.5 -66.5v-22h104q24 0 24 -25v-8q0 -24 -24 -24h-104v-417q0 -25 -25 -25h-19q-24 0 -24 25z" />
    <glyph glyph-name="g" unicode="g" horiz-adv-x="574" 
d="M107 -134q10 19 32 11q57 -26 117 -26q75 0 124 39.5t49 118.5v52l3 36h-2q-49 -94 -160 -94q-101 0 -162.5 72t-61.5 189q0 113 59.5 182t162.5 69q36 0 66.5 -9.5t47.5 -23t29 -27t17 -23.5l4 -9h2q-2 7 -2 17v41q0 22 24 22h16q25 0 25 -25v-466q0 -112 -69.5 -167
t-169.5 -55q-79 0 -145 30q-22 10 -12 32zM280 64q66 0 108 46.5t42 148.5q0 104 -43 149.5t-113 45.5q-76 0 -117 -50t-41 -138q0 -94 44.5 -148t119.5 -54z" />
    <glyph glyph-name="h" unicode="h" horiz-adv-x="585" 
d="M78 25v653q0 25 24 25h19q25 0 25 -25v-251l-4 -41h2q18 46 71.5 87.5t129.5 41.5q91 0 130 -49t39 -146v-295q0 -25 -24 -25h-19q-25 0 -25 25v277q0 34 -3.5 57.5t-14.5 46t-34 34t-58 11.5q-80 0 -135 -59t-55 -149v-218q0 -25 -25 -25h-19q-24 0 -24 25z" />
    <glyph glyph-name="i" unicode="i" horiz-adv-x="223" 
d="M99 618q-24 0 -24 24v36q0 25 24 25h25q24 0 24 -25v-36q0 -24 -24 -24h-25zM77 25v453q0 25 25 25h19q24 0 24 -25v-453q0 -25 -24 -25h-19q-25 0 -25 25z" />
    <glyph glyph-name="j" unicode="j" horiz-adv-x="223" 
d="M99 618q-24 0 -24 24v36q0 25 24 25h25q24 0 24 -25v-36q0 -24 -24 -24h-25zM78 -16v494q0 25 24 25h19q25 0 25 -25v-496q0 -57 -19 -97.5t-49 -58.5t-54.5 -25t-47.5 -7h-10q-25 0 -25 25v11q0 22 25 24q20 1 36 6t35.5 17.5t30 39.5t10.5 67z" />
    <glyph glyph-name="k" unicode="k" horiz-adv-x="486" 
d="M78 25v653q0 25 24 25h19q25 0 25 -25v-367h81l139 177q12 15 30 15h25q15 0 19.5 -9t-5.5 -21l-152 -189v-2l174 -252q8 -13 3.5 -21.5t-20.5 -8.5h-26q-19 0 -29 17l-157 234h-82v-226q0 -25 -25 -25h-19q-24 0 -24 25z" />
    <glyph glyph-name="l" unicode="l" horiz-adv-x="244" 
d="M78 119v559q0 25 24 25h19q25 0 25 -25v-547q0 -29 9.5 -46t18.5 -21t24 -6q21 -2 21 -22v-15q0 -25 -26 -25q-15 0 -28 2t-30 9.5t-28.5 20.5t-20 36.5t-8.5 54.5z" />
    <glyph glyph-name="m" unicode="m" horiz-adv-x="906" 
d="M77 25v453q0 25 25 25h18q24 0 24 -25v-58l-4 -36h2q19 52 73 91.5t112 39.5q134 0 155 -126h2q22 51 73.5 88.5t111.5 37.5q89 0 128 -49t39 -146v-295q0 -25 -25 -25h-18q-25 0 -25 25v278q0 71 -22.5 110.5t-85.5 39.5q-73 0 -121 -64t-48 -146v-218q0 -25 -24 -25
h-19q-25 0 -25 25v278q0 33 -3.5 56t-13.5 46.5t-32.5 35.5t-56.5 12q-73 0 -122.5 -64.5t-49.5 -145.5v-218q0 -25 -24 -25h-19q-25 0 -25 25z" />
    <glyph glyph-name="n" unicode="n" horiz-adv-x="584" 
d="M77 25v453q0 25 25 25h18q24 0 24 -25v-58l-4 -36h2q19 46 71.5 88.5t131.5 42.5q91 0 130 -49t39 -146v-295q0 -25 -25 -25h-19q-24 0 -24 25v277q0 71 -22 110t-88 39q-81 0 -136 -59t-55 -146v-221q0 -25 -24 -25h-19q-25 0 -25 25z" />
    <glyph glyph-name="o" unicode="o" horiz-adv-x="615" 
d="M42 254q0 111 77.5 186t187.5 75q111 0 188.5 -75t77.5 -186q0 -113 -77.5 -189.5t-187.5 -76.5q-111 0 -188.5 76.5t-77.5 189.5zM112 254q0 -87 57 -146t139 -59q81 0 138 59t57 146q0 85 -57 142.5t-138 57.5q-82 0 -139 -57.5t-57 -142.5z" />
    <glyph glyph-name="p" unicode="p" horiz-adv-x="581" 
d="M78 -175v653q0 25 24 25h16q24 0 24 -23v-36l-3 -34h2l5.5 11t18 25.5t33 32t50.5 25t69 11.5q100 0 159.5 -73t59.5 -191t-63.5 -190.5t-162.5 -72.5q-34 0 -63.5 10.5t-47.5 25.5t-31 30t-18 26l-6 10h-2q4 -18 4 -44v-221q0 -25 -25 -25h-19q-24 0 -24 25zM144 250
q0 -81 43 -141t116 -60q70 0 116.5 54.5t46.5 147.5q0 91 -44.5 146.5t-114.5 55.5q-69 0 -116 -51t-47 -152z" />
    <glyph glyph-name="q" unicode="q" horiz-adv-x="581" 
d="M45 252q0 118 63 190.5t164 72.5q34 0 64 -10.5t48 -25.5t31 -30.5t19 -26.5l5 -10h2q-3 14 -3 34v35q0 22 25 22h16q24 0 24 -25v-653q0 -25 -24 -25h-19q-25 0 -25 25v223l4 44h-2l-5.5 -11t-18 -25t-32.5 -32t-49.5 -25t-68.5 -11q-100 0 -159 73t-59 191zM115 252
q0 -92 44 -147.5t115 -55.5q69 0 116 51t47 152q0 83 -41.5 142t-118.5 59q-69 0 -115.5 -54.5t-46.5 -146.5z" />
    <glyph glyph-name="r" unicode="r" horiz-adv-x="338" 
d="M77 25v453q0 25 25 25h18q24 0 24 -25v-68l-4 -40h2q19 58 62 97t100 39q26 0 26 -24v-18q0 -25 -28 -25q-74 0 -115.5 -69t-41.5 -157v-188q0 -25 -24 -25h-19q-25 0 -25 25z" />
    <glyph glyph-name="s" unicode="s" horiz-adv-x="431" 
d="M64 46q-18 14 -4 34l8 10q13 17 34 4q60 -46 133 -46q44 0 73 21.5t29 59.5q0 31 -27.5 52.5t-67 35.5t-79.5 31t-67.5 48.5t-27.5 77.5q0 67 49 104t122 37q81 0 138 -41q20 -12 7 -33l-7 -11q-11 -20 -34 -7q-47 32 -108 32q-43 0 -71 -19.5t-28 -58.5
q0 -32 27.5 -53.5t67 -36t79 -31t67 -48.5t27.5 -78q0 -62 -47.5 -102t-122.5 -40q-101 0 -170 58z" />
    <glyph glyph-name="t" unicode="t" horiz-adv-x="320" 
d="M97 181v261h-42q-24 0 -24 24v8q0 25 24 25h43v118q0 25 25 25h18q24 0 24 -25v-118h102q25 0 25 -25v-8q0 -24 -25 -24h-102v-252q0 -126 110 -132q15 -2 21 -7t6 -18v-13q0 -24 -28 -24q-83 0 -130 48.5t-47 136.5z" />
    <glyph glyph-name="u" unicode="u" horiz-adv-x="580" 
d="M71 183v295q0 25 24 25h19q25 0 25 -25v-277q0 -71 21.5 -110t87.5 -39q83 0 134.5 62t51.5 148v216q0 25 25 25h19q24 0 24 -25v-453q0 -25 -24 -25h-18q-24 0 -24 25v58l3 36h-2q-18 -47 -70.5 -89t-127.5 -42q-88 0 -128 47.5t-40 147.5z" />
    <glyph glyph-name="v" unicode="v" horiz-adv-x="478" 
d="M206 19l-175 455q-11 29 19 29h22q21 0 27 -20l133 -349l17 -61h2q8 35 18 61l132 349q6 20 27 20h21q30 0 20 -29l-175 -455q-6 -19 -27 -19h-33q-21 0 -28 19z" />
    <glyph glyph-name="w" unicode="w" horiz-adv-x="796" 
d="M185 21l-154 454q-8 28 21 28h21q22 0 28 -21l115 -354l15 -54h2q8 30 16 54l117 353q6 20 28 20h24q22 0 28 -20l117 -353l16 -54h2q6 29 15 54l115 354q6 21 28 21h21q28 0 20 -28l-154 -454q-6 -21 -28 -21h-31q-22 0 -28 21l-117 337l-15 54h-2q-7 -29 -16 -54
l-116 -337q-6 -21 -28 -21h-31q-22 0 -29 21z" />
    <glyph glyph-name="x" unicode="x" horiz-adv-x="468" 
d="M37 30l157 232l-142 211q-8 13 -3.5 21.5t19.5 8.5h25q19 0 28 -17l99 -152l17 -29h2l17 29l98 152q10 17 29 17h25q15 0 19.5 -8.5t-3.5 -21.5l-143 -211l157 -232q8 -13 3.5 -21.5t-19.5 -8.5h-24q-19 0 -29 17l-113 172l-17 28h-2q-8 -14 -17 -28l-113 -172
q-10 -17 -29 -17h-24q-16 0 -20.5 8.5t3.5 21.5z" />
    <glyph glyph-name="y" unicode="y" horiz-adv-x="491" 
d="M28 -149q10 19 30 12q29 -13 44 -13q58 0 94 83l30 71l-198 470q-5 13 0 21t19 8h23q21 0 28 -19l141 -348l18 -53h2q7 28 17 53l138 347q7 20 28 20h22q14 0 19 -8t1 -21l-237 -576q-20 -50 -58 -79t-87 -29q-33 0 -69 18q-22 10 -11 32z" />
    <glyph glyph-name="z" unicode="z" horiz-adv-x="491" 
d="M34 22v7q0 16 10 29l270 339l40 46v2q-17 -2 -50 -2h-234q-24 0 -24 24v11q0 25 24 25h352q24 0 24 -22v-7q0 -16 -10 -29l-271 -339l-41 -46v-2q18 2 51 2h257q24 0 24 -24v-11q0 -25 -24 -25h-374q-24 0 -24 22z" />
    <glyph glyph-name="braceleft" unicode="{" horiz-adv-x="307" 
d="M115 83v95q0 81 -65 108q-20 12 -20 27v20q0 15 20 27q65 24 65 109v82q0 56 15.5 94.5t39 55t42 23t35.5 6.5h8q24 0 24 -24v-9q0 -25 -24 -25q-11 0 -21.5 -3.5t-24.5 -15t-22.5 -38.5t-8.5 -68v-96q0 -27 -8 -50.5t-20 -37t-24 -23t-20 -12.5l-8 -4v-2q3 -1 8.5 -3.5
t19.5 -12t24.5 -22.5t19 -36.5t8.5 -52.5v-109q0 -41 8.5 -68t22.5 -38.5t24.5 -15t21.5 -3.5q24 0 24 -24v-9q0 -25 -24 -25h-8q-17 0 -35.5 6.5t-42 23t-39 55.5t-15.5 95z" />
    <glyph glyph-name="bar" unicode="|" horiz-adv-x="234" 
d="M86 -132v896q0 24 24 24h14q25 0 25 -24v-896q0 -25 -25 -25h-14q-24 0 -24 25z" />
    <glyph glyph-name="braceright" unicode="}" horiz-adv-x="308" 
d="M28 -63q0 24 25 24q11 0 21 3.5t24 15t22.5 38.5t8.5 68v109q0 29 8 52.5t20 36.5t24 22.5t20 12.5l8 3v2q-3 1 -8.5 3.5t-19.5 13t-24.5 23.5t-19 36.5t-8.5 50.5v96q0 41 -8.5 68t-22.5 38.5t-24 15t-21 3.5q-25 0 -25 25v9q0 24 25 24h7q13 0 27 -3t34 -14.5t35 -29.5
t25.5 -52.5t10.5 -79.5v-82q0 -85 66 -109q19 -11 19 -27v-20q0 -16 -20 -27q-65 -27 -65 -108v-95q0 -56 -15 -95t-39 -55.5t-42.5 -23t-35.5 -6.5h-7q-25 0 -25 25v9z" />
    <glyph glyph-name="asciitilde" unicode="~" horiz-adv-x="585" 
d="M93 209q-26 0 -23 34q14 121 125 121q30 0 54 -10.5t39.5 -26t30 -31t33.5 -26t42 -10.5q33 0 49 23.5t19 53.5q6 23 26 23h11q26 0 23 -26q-10 -129 -125 -129q-37 0 -65.5 16.5t-43.5 35.5t-38.5 35.5t-51.5 16.5q-34 0 -49.5 -23t-18.5 -54q-6 -23 -27 -23h-10z" />
    <glyph glyph-name="uni00A0" unicode="&#xa0;" horiz-adv-x="250" 
 />
    <glyph glyph-name="exclamdown" unicode="&#xa1;" horiz-adv-x="245" 
d="M129 318q25 0 25 -24l3 -470q0 -25 -25 -25h-21q-24 0 -24 25l3 470q0 24 24 24h15zM160 477v-29q0 -25 -24 -25h-30q-24 0 -24 25v29q0 25 24 25h30q24 0 24 -25z" />
    <glyph glyph-name="cent" unicode="&#xa2;" horiz-adv-x="555" 
d="M263 12v60q-100 11 -155 88.5t-55 191.5q0 113 55 190.5t155 88.5v59q0 25 24 25h8q24 0 24 -22v-62q57 -6 103 -39.5t73 -85.5q11 -22 -13 -32l-18 -7q-19 -7 -32 12q-50 88 -138 88q-83 0 -126.5 -60t-43.5 -156q0 -95 43 -154.5t127 -59.5q89 0 138 88q12 19 32 11
l18 -7q24 -10 13 -32q-28 -52 -73 -86t-103 -39v-60q0 -25 -24 -25h-8q-24 0 -24 25z" />
    <glyph glyph-name="sterling" unicode="&#xa3;" 
d="M54 25v12q0 25 25 25h39v264h-24q-24 0 -24 24v6q0 25 24 25h24v149q0 79 58.5 132t147.5 53q75 0 137 -42q21 -14 3 -34l-10 -13q-14 -16 -34 -4q-48 28 -95 28q-64 0 -100.5 -35.5t-36.5 -88.5v-145h167q24 0 24 -25v-6q0 -24 -24 -24h-167v-264h314q25 0 25 -25v-12
q0 -25 -25 -25h-423q-25 0 -25 25z" />
    <glyph glyph-name="yen" unicode="&#xa5;" horiz-adv-x="579" 
d="M122 211q-25 0 -25 23v6q0 22 25 22h138v39l-28 49h-110q-25 0 -25 22v6q0 23 23 23h83l-159 273q-7 12 -2 20.5t20 8.5h25q20 0 29 -18l135 -232l43 -89h2q21 49 43 89l135 232q9 18 28 18h26q15 0 20 -8.5t-2 -20.5l-160 -273h80q25 0 25 -23v-6q0 -22 -25 -22h-109
l-27 -49v-39h136q25 0 25 -22v-6q0 -23 -25 -23h-136v-186q0 -25 -24 -25h-21q-25 0 -25 25v186h-138z" />
    <glyph glyph-name="section" unicode="&#xa7;" horiz-adv-x="412" 
d="M152 107l-65 412q-3 18 -3 35q0 70 47.5 115.5t124.5 45.5q51 0 96 -27q21 -14 5 -35l-7 -8q-12 -17 -33 -6q-30 16 -61 16q-47 0 -78.5 -28.5t-31.5 -78.5q0 -15 3 -30l62 -406q5 -27 -22 -27h-10q-23 0 -27 22zM86 0l6 8q12 18 33 7q34 -17 62 -17q48 0 79 29.5
t31 79.5q0 17 -4 32l-60 402q-5 27 22 27h10q23 0 27 -22l64 -412q3 -19 3 -35q0 -70 -47.5 -115.5t-124.5 -45.5q-53 0 -96 28q-21 13 -5 34z" />
    <glyph glyph-name="dieresis" unicode="&#xa8;" horiz-adv-x="504" 
d="M321 785q-24 0 -24 24v37q0 25 24 25h13q25 0 25 -25v-37q0 -24 -25 -24h-13zM170 785q-24 0 -24 24v37q0 25 24 25h13q24 0 24 -25v-37q0 -24 -24 -24h-13z" />
    <glyph glyph-name="copyright" unicode="&#xa9;" horiz-adv-x="823" 
d="M56 352q0 151 103.5 257t250.5 106q149 0 253 -106t104 -257q0 -153 -104 -258.5t-253 -105.5q-147 0 -250.5 105.5t-103.5 258.5zM115 352q0 -131 85 -220.5t210 -89.5q127 0 213 89.5t86 220.5q0 130 -86.5 219.5t-212.5 89.5q-125 0 -210 -89.5t-85 -219.5zM213 350
q0 84 56 145t151 61q89 0 149 -72q13 -17 -3 -31l-10 -9q-16 -13 -31 5q-44 52 -103 52q-70 0 -110 -44t-40 -107q0 -61 40 -105t110 -44q60 0 104 52q16 17 30 4l9 -8q17 -14 4 -31q-63 -72 -149 -72q-96 0 -151.5 60t-55.5 144z" />
    <glyph glyph-name="ordfeminine" unicode="&#xaa;" horiz-adv-x="402" 
d="M181 382q-45 0 -77.5 25t-32.5 70q0 111 191 111h12v4q0 74 -70 74q-34 0 -66 -18q-20 -9 -30 7l-3 4q-12 19 10 30q43 24 94 24q59 0 89.5 -31.5t30.5 -91.5v-177q0 -25 -23 -25h-5q-23 0 -23 24v28h-2q-3 -6 -10 -16t-31.5 -26t-53.5 -16zM188 430q38 0 62 32.5
t24 72.5v9h-12q-135 0 -135 -62q0 -22 16 -37t45 -15zM93 264q-24 0 -24 22v3q0 22 24 22h215q24 0 24 -22v-3q0 -22 -24 -22h-215z" />
    <glyph glyph-name="guillemotleft" unicode="&#xab;" horiz-adv-x="493" 
d="M245 265q-15 17 0 34l138 175q11 14 30 14h17q16 0 20 -8.5t-6 -21.5l-140 -176l140 -175q10 -13 6.5 -21.5t-18.5 -8.5h-19q-19 0 -30 14zM203 91l-138 174q-15 17 0 34l138 175q11 14 30 14h17q16 0 20 -8.5t-6 -21.5l-140 -176l140 -175q10 -13 6.5 -21.5t-18.5 -8.5
h-19q-19 0 -30 14z" />
    <glyph glyph-name="logicalnot" unicode="&#xac;" horiz-adv-x="623" 
d="M102 342q-25 0 -25 24v9q0 25 25 25h417q24 0 24 -25v-193q0 -24 -24 -24h-12q-24 0 -24 24v160h-381z" />
    <glyph glyph-name="uni00AD" unicode="&#xad;" horiz-adv-x="423" 
d="M94 253q-24 0 -24 24v13q0 25 24 25h235q24 0 24 -25v-13q0 -24 -24 -24h-235z" />
    <glyph glyph-name="registered" unicode="&#xae;" horiz-adv-x="823" 
d="M56 352q0 151 103.5 257t250.5 106q149 0 253 -106t104 -257q0 -153 -104 -258.5t-253 -105.5q-147 0 -250.5 105.5t-103.5 258.5zM115 352q0 -131 85 -220.5t210 -89.5q127 0 213 89.5t86 220.5q0 130 -86.5 219.5t-212.5 89.5q-125 0 -210 -89.5t-85 -219.5zM291 182
v340q0 25 24 25h115q52 0 84.5 -32t32.5 -84q0 -41 -21.5 -68.5t-51.5 -34.5v-2q4 -5 13 -22l61 -118q7 -13 2.5 -21t-18.5 -8h-12q-20 0 -28 18l-70 140h-74v-133q0 -25 -24 -25h-9q-24 0 -24 25zM348 359h72q32 0 50.5 19t18.5 53q0 33 -18.5 51t-49.5 18h-73v-141z" />
    <glyph glyph-name="macron" unicode="&#xaf;" horiz-adv-x="504" 
d="M154 785q-25 0 -25 24v7q0 24 25 24h197q24 0 24 -24v-7q0 -24 -24 -24h-197z" />
    <glyph glyph-name="degree" unicode="&#xb0;" horiz-adv-x="372" 
d="M186 436q-59 0 -100 40.5t-41 98.5q0 57 41.5 98t99.5 41t99 -41t41 -98q0 -58 -41 -98.5t-99 -40.5zM186 492q34 0 57.5 24t23.5 59q0 34 -23.5 58.5t-57.5 24.5t-57.5 -24.5t-23.5 -58.5q0 -35 23.5 -59t57.5 -24z" />
    <glyph glyph-name="plusminus" unicode="&#xb1;" horiz-adv-x="606" 
d="M67 255q-25 0 -25 24v9q0 25 25 25h206v230q0 25 24 25h13q24 0 24 -25v-230h205q25 0 25 -25v-9q0 -24 -25 -24h-205v-230q0 -25 -24 -25h-13q-24 0 -24 25v230h-206zM85 -104h436q25 0 25 -25v-9q0 -24 -25 -24h-436q-25 0 -25 24v9q0 25 25 25z" />
    <glyph glyph-name="twosuperior" unicode="&#xb2;" horiz-adv-x="348" 
d="M57 423q-25 0 -25 30q0 40 16 72t40 52t52 40t52 36t40 38.5t16 48.5q0 32 -23 54.5t-59 22.5q-38 0 -72 -32q-18 -15 -34 -1l-2 2q-19 19 -2 34q48 48 112 48q62 0 99.5 -36t37.5 -91q0 -41 -21.5 -73t-52.5 -53t-62 -40t-54 -45t-24 -57h197q24 0 24 -23v-3
q0 -24 -24 -24h-231z" />
    <glyph glyph-name="threesuperior" unicode="&#xb3;" horiz-adv-x="353" 
d="M180 413q-77 0 -126 49q-18 15 -2 33l4 4q13 16 33 2q38 -36 90 -36q36 0 64.5 25.5t28.5 63.5t-29 61t-67 23h-16q-19 0 -25 15q-7 15 6 31l86 100l24 25v2q-18 -3 -37 -3h-129q-24 0 -24 24v3q0 23 24 23h214q25 0 25 -18v-4q0 -14 -12 -27l-107 -125q50 -6 87 -38
t37 -92q0 -58 -43 -99.5t-106 -41.5z" />
    <glyph glyph-name="acute" unicode="&#xb4;" horiz-adv-x="504" 
d="M215 752q-14 0 -19 8.5t3 19.5l44 74q10 17 29 17h23q16 0 19.5 -8.5t-5.5 -21.5l-53 -73q-12 -16 -30 -16h-11z" />
    <glyph glyph-name="mu" unicode="&#xb5;" horiz-adv-x="623" 
d="M92 -175v653q0 25 24 25h19q25 0 25 -25v-277q0 -71 21.5 -110t86.5 -39q84 0 135.5 62t51.5 148v216q0 25 25 25h19q24 0 24 -25v-453q0 -25 -24 -25h-18q-24 0 -24 25v54l1 36h-2q-5 -12 -14.5 -26t-33 -40.5t-62.5 -43.5t-87 -17q-36 0 -63.5 10.5t-36.5 21.5l-9 10
h-2q6 -51 6 -76v-129q0 -25 -24 -25h-14q-24 0 -24 25z" />
    <glyph glyph-name="paragraph" unicode="&#xb6;" horiz-adv-x="564" 
d="M277 -25v266q-98 0 -168.5 67.5t-70.5 164.5t70 163.5t168 66.5h215q24 0 24 -25v-12q0 -25 -24 -25h-157v-666q0 -25 -24 -25h-9q-24 0 -24 25zM396 -25v581q0 25 25 25h8q25 0 25 -25v-581q0 -25 -25 -25h-8q-25 0 -25 25z" />
    <glyph glyph-name="periodcentered" unicode="&#xb7;" horiz-adv-x="220" 
d="M95 247q-25 0 -25 24v34q0 25 25 25h31q24 0 24 -25v-34q0 -24 -24 -24h-31z" />
    <glyph glyph-name="cedilla" unicode="&#xb8;" horiz-adv-x="504" 
d="M206 -64l19 81h43l-13 -72q31 -5 50.5 -23.5t19.5 -47.5q0 -41 -27.5 -60t-68.5 -19q-48 0 -48 24q0 25 16 25q3 0 11 -1.5t15 -1.5q49 0 49 34q0 31 -49 35q-9 1 -14 8t-3 18z" />
    <glyph glyph-name="onesuperior" unicode="&#xb9;" horiz-adv-x="289" 
d="M57 423q-25 0 -25 24v3q0 23 23 23h72v289l1 24h-1q-4 -7 -20 -24l-27 -26q-14 -13 -28 1l-6 6q-15 17 3 34l68 69q13 12 31 12h10q24 0 24 -24v-361h68q24 0 24 -23v-3q0 -24 -24 -24h-193z" />
    <glyph glyph-name="ordmasculine" unicode="&#xba;" horiz-adv-x="459" 
d="M229 383q-70 0 -118.5 48t-48.5 119q0 69 48.5 116.5t117.5 47.5q70 0 119 -47.5t49 -116.5q0 -71 -48.5 -119t-118.5 -48zM229 434q47 0 79.5 33t32.5 83q0 49 -32.5 81.5t-79.5 32.5t-79.5 -32.5t-32.5 -81.5q0 -50 32.5 -83t79.5 -33zM103 264q-24 0 -24 22v3
q0 22 24 22h254q25 0 25 -22v-3q0 -22 -25 -22h-254z" />
    <glyph glyph-name="guillemotright" unicode="&#xbb;" horiz-adv-x="493" 
d="M247 107l140 175l-140 176q-10 13 -6 21.5t19 8.5h18q18 0 31 -14l138 -175q15 -17 0 -34l-138 -174q-13 -14 -31 -14h-16q-16 0 -20 8.5t5 21.5zM82 77q-16 0 -20 8.5t6 21.5l139 175l-139 176q-10 13 -6.5 21.5t19.5 8.5h18q17 0 30 -14l138 -175q15 -17 0 -34
l-138 -174q-13 -14 -30 -14h-17z" />
    <glyph glyph-name="onequarter" unicode="&#xbc;" horiz-adv-x="918" 
d="M786 0q-24 0 -24 25v89h-187q-25 0 -25 19v7q0 12 10 25l191 255q11 15 30 15h11q25 0 25 -24v-247h43q23 0 23 -23v-3q0 -24 -23 -24h-43v-89q0 -25 -25 -25h-6zM618 164h144v136l3 62h-2q-15 -27 -32 -49l-113 -147v-2zM315 19q-7 -19 -28 -19h-10q-13 0 -17 8t2 21
l313 655q9 19 29 19h9q13 0 17.5 -8t-2.5 -21zM79 268q-25 0 -25 24v3q0 23 23 23h72v289l1 24h-1q-4 -7 -20 -24l-27 -26q-14 -13 -28 1l-6 6q-15 17 3 34l68 69q13 12 31 12h10q24 0 24 -24v-361h68q24 0 24 -23v-3q0 -24 -24 -24h-193z" />
    <glyph glyph-name="onehalf" unicode="&#xbd;" horiz-adv-x="904" 
d="M603 0q-25 0 -25 30q0 40 16 72t40 52t52 40t52 36t40 38.5t16 48.5q0 32 -23 54.5t-59 22.5q-38 0 -72 -32q-18 -15 -34 -1l-2 2q-19 19 -2 34q48 48 112 48q62 0 99.5 -36t37.5 -91q0 -41 -21.5 -73t-52.5 -53t-62 -40t-54 -45t-24 -57h197q24 0 24 -23v-3
q0 -24 -24 -24h-231zM314 19q-7 -19 -28 -19h-10q-13 0 -17 8t2 21l313 655q9 19 29 19h9q13 0 17.5 -8t-2.5 -21zM77 268q-25 0 -25 24v3q0 23 23 23h72v289l1 24h-1q-4 -7 -20 -24l-27 -26q-14 -13 -28 1l-6 6q-15 17 3 34l68 69q14 12 31 12h10q24 0 24 -24v-361h68
q24 0 24 -23v-3q0 -24 -24 -24h-193z" />
    <glyph glyph-name="threequarters" unicode="&#xbe;" horiz-adv-x="937" 
d="M820 0q-24 0 -24 25v89h-187q-25 0 -25 19v7q0 12 10 25l191 255q11 15 30 15h11q25 0 25 -24v-247h43q23 0 23 -23v-3q0 -24 -23 -24h-43v-89q0 -25 -25 -25h-6zM652 164h144v136l3 62h-2q-15 -27 -32 -49l-113 -147v-2zM197 258q-77 0 -126 49q-18 15 -2 33l4 4
q13 16 33 2q38 -36 90 -36q36 0 64.5 25.5t28.5 63.5t-29 61t-67 23h-16q-19 0 -25 15q-7 15 6 31l86 100l24 25v2q-18 -3 -37 -3h-129q-24 0 -24 24v3q0 23 24 23h214q25 0 25 -18v-4q0 -13 -12 -27l-107 -125q50 -6 87 -38t37 -92q0 -58 -43 -99.5t-106 -41.5zM349 19
q-7 -19 -28 -19h-10q-13 0 -17 8t2 21l313 655q9 19 29 19h9q13 0 17.5 -8t-2.5 -21z" />
    <glyph glyph-name="questiondown" unicode="&#xbf;" horiz-adv-x="453" 
d="M293 318q25 0 25 -25v-23q0 -42 -18 -77t-44 -59t-51.5 -47t-43.5 -54t-18 -67q0 -49 37 -82t94 -33q53 0 101 29q23 12 34 -6l8 -12q16 -21 -5 -34q-63 -42 -141 -42q-86 0 -143 50t-57 127q0 45 18 81.5t44 61.5t52 48t45 53t20 66l1 24q1 21 23 21h19zM323 477v-29
q0 -25 -24 -25h-30q-24 0 -24 25v29q0 25 24 25h30q24 0 24 -25z" />
    <glyph glyph-name="Agrave" unicode="&#xc0;" horiz-adv-x="609" 
d="M27 29l242 654q6 20 27 20h33q21 0 27 -20l242 -654q8 -29 -20 -29h-22q-22 0 -28 20l-75 204h-282l-74 -204q-6 -20 -28 -20h-21q-29 0 -21 29zM191 284h242l-93 255l-26 92h-2q-16 -59 -27 -92zM301 752q-18 0 -30 16l-53 73q-9 13 -5.5 21.5t19.5 8.5h23q19 0 29 -17
l44 -74q7 -11 3.5 -19.5t-16.5 -8.5h-14z" />
    <glyph glyph-name="Aacute" unicode="&#xc1;" horiz-adv-x="609" 
d="M27 29l242 654q6 20 27 20h33q21 0 27 -20l242 -654q8 -29 -20 -29h-22q-22 0 -28 20l-75 204h-282l-74 -204q-6 -20 -28 -20h-21q-29 0 -21 29zM191 284h242l-93 255l-26 92h-2q-16 -59 -27 -92zM312 752q-14 0 -19 8.5t3 19.5l44 74q10 17 29 17h23q16 0 19.5 -8.5
t-5.5 -21.5l-53 -73q-12 -16 -30 -16h-11z" />
    <glyph glyph-name="Acircumflex" unicode="&#xc2;" horiz-adv-x="609" 
d="M27 29l242 654q6 20 27 20h33q21 0 27 -20l242 -654q8 -29 -20 -29h-22q-22 0 -28 20l-75 204h-282l-74 -204q-6 -20 -28 -20h-21q-29 0 -21 29zM191 284h242l-93 255l-26 92h-2q-16 -59 -27 -92zM224 752q-14 0 -17.5 8.5t4.5 21.5l52 73q12 16 30 16h37q18 0 31 -16
l51 -73q9 -13 6 -21.5t-17 -8.5h-17q-17 0 -27 17l-44 64h-2l-44 -64q-10 -17 -28 -17h-15z" />
    <glyph glyph-name="Atilde" unicode="&#xc3;" horiz-adv-x="609" 
d="M27 29l242 654q6 20 27 20h33q21 0 27 -20l242 -654q8 -29 -20 -29h-22q-22 0 -28 20l-75 204h-282l-74 -204q-6 -20 -28 -20h-21q-29 0 -21 29zM191 284h242l-93 255l-26 92h-2q-16 -59 -27 -92zM180 755q-22 0 -22 26q0 40 24.5 65.5t63.5 25.5q23 0 42.5 -11t31 -25
t26 -25t29.5 -11q18 0 28 14.5t11 35.5q0 19 23 19h8q21 0 21 -23q0 -43 -23.5 -68.5t-64.5 -25.5q-29 0 -52 18t-41 35.5t-36 17.5t-28.5 -15t-10.5 -36q-2 -17 -23 -17h-7z" />
    <glyph glyph-name="Adieresis" unicode="&#xc4;" horiz-adv-x="609" 
d="M27 29l242 654q6 20 27 20h33q21 0 27 -20l242 -654q8 -29 -20 -29h-22q-22 0 -28 20l-75 204h-282l-74 -204q-6 -20 -28 -20h-21q-29 0 -21 29zM191 284h242l-93 255l-26 92h-2q-16 -59 -27 -92zM381 785q-24 0 -24 24v37q0 25 24 25h13q25 0 25 -25v-37q0 -24 -25 -24
h-13zM230 785q-24 0 -24 24v37q0 25 24 25h13q24 0 24 -25v-37q0 -24 -24 -24h-13z" />
    <glyph glyph-name="Aring" unicode="&#xc5;" horiz-adv-x="609" 
d="M27 29l242 654q6 20 27 20h33q21 0 27 -20l242 -654q8 -29 -20 -29h-22q-22 0 -28 20l-75 204h-282l-74 -204q-6 -20 -28 -20h-21q-29 0 -21 29zM191 284h242l-93 255l-26 92h-2q-16 -59 -27 -92zM312 741q-31 0 -53 20t-22 51t22 51t53 20t53.5 -20t22.5 -51t-22.5 -51
t-53.5 -20zM312 779q15 0 24 9.5t9 23.5q0 15 -9 24.5t-24 9.5q-14 0 -23 -9.5t-9 -24.5q0 -14 9 -23.5t23 -9.5z" />
    <glyph glyph-name="AE" unicode="&#xc6;" horiz-adv-x="833" 
d="M20 29l270 655q7 19 28 19h436q25 0 25 -25v-12q0 -25 -25 -25h-302v-256h243q24 0 24 -24v-13q0 -25 -24 -25h-243v-261h320q25 0 25 -25v-12q0 -25 -25 -25h-364q-25 0 -25 25v299h-170l-124 -305q-7 -19 -28 -19h-22q-14 0 -19 8t0 21zM237 384h146v257h-41z" />
    <glyph glyph-name="Ccedilla" unicode="&#xc7;" horiz-adv-x="712" 
d="M361 -64l12 54q-144 12 -232.5 115t-88.5 251q0 154 99.5 256.5t253.5 102.5q140 0 236 -75q17 -14 4 -35l-9 -13q-14 -18 -34 -4q-89 62 -195 62q-126 0 -204.5 -83.5t-78.5 -209.5q0 -128 79 -216t207 -88q115 0 209 76q19 16 34 -3l9 -11q15 -18 -2 -35
q-101 -89 -242 -92l-8 -43q31 -5 50.5 -23.5t19.5 -47.5q0 -41 -27.5 -60t-68.5 -19q-48 0 -48 24q0 25 16 25q3 0 11 -1.5t15 -1.5q49 0 49 34q0 31 -49 35q-9 1 -14 8t-3 18z" />
    <glyph glyph-name="Egrave" unicode="&#xc8;" horiz-adv-x="553" 
d="M98 25v653q0 25 24 25h347q25 0 25 -25v-12q0 -25 -25 -25h-302v-256h242q25 0 25 -24v-13q0 -25 -25 -25h-242v-261h320q25 0 25 -25v-12q0 -25 -25 -25h-365q-24 0 -24 25zM296 752q-18 0 -30 16l-53 73q-9 13 -5.5 21.5t19.5 8.5h23q19 0 29 -17l44 -74
q7 -11 3.5 -19.5t-16.5 -8.5h-14z" />
    <glyph glyph-name="Eacute" unicode="&#xc9;" horiz-adv-x="553" 
d="M306 752q-14 0 -19 8.5t3 19.5l44 74q10 17 29 17h23q16 0 19.5 -8.5t-5.5 -21.5l-53 -73q-12 -16 -30 -16h-11zM98 25v653q0 25 24 25h347q25 0 25 -25v-12q0 -25 -25 -25h-302v-256h242q25 0 25 -24v-13q0 -25 -25 -25h-242v-261h320q25 0 25 -25v-12q0 -25 -25 -25
h-365q-24 0 -24 25z" />
    <glyph glyph-name="Ecircumflex" unicode="&#xca;" horiz-adv-x="553" 
d="M219 752q-14 0 -17.5 8.5t4.5 21.5l52 73q12 16 30 16h37q18 0 31 -16l51 -73q9 -13 6 -21.5t-17 -8.5h-17q-17 0 -27 17l-44 64h-2l-44 -64q-10 -17 -28 -17h-15zM98 25v653q0 25 24 25h347q25 0 25 -25v-12q0 -25 -25 -25h-302v-256h242q25 0 25 -24v-13q0 -25 -25 -25
h-242v-261h320q25 0 25 -25v-12q0 -25 -25 -25h-365q-24 0 -24 25z" />
    <glyph glyph-name="Edieresis" unicode="&#xcb;" horiz-adv-x="553" 
d="M376 785q-24 0 -24 24v37q0 25 24 25h13q25 0 25 -25v-37q0 -24 -25 -24h-13zM225 785q-24 0 -24 24v37q0 25 24 25h13q24 0 24 -25v-37q0 -24 -24 -24h-13zM98 25v653q0 25 24 25h347q25 0 25 -25v-12q0 -25 -25 -25h-302v-256h242q25 0 25 -24v-13q0 -25 -25 -25h-242
v-261h320q25 0 25 -25v-12q0 -25 -25 -25h-365q-24 0 -24 25z" />
    <glyph glyph-name="Igrave" unicode="&#xcc;" horiz-adv-x="265" 
d="M101 25v653q0 25 24 25h21q24 0 24 -25v-653q0 -25 -24 -25h-21q-24 0 -24 25zM125 752q-18 0 -30 16l-53 73q-9 13 -5.5 21.5t19.5 8.5h23q19 0 29 -17l44 -74q7 -11 3.5 -19.5t-16.5 -8.5h-14z" />
    <glyph glyph-name="Iacute" unicode="&#xcd;" horiz-adv-x="265" 
d="M98 25v653q0 25 24 25h21q24 0 24 -25v-653q0 -25 -24 -25h-21q-24 0 -24 25zM133 752q-14 0 -19 8.5t3 19.5l44 74q10 17 29 17h23q16 0 19.5 -8.5t-5.5 -21.5l-53 -73q-12 -16 -30 -16h-11z" />
    <glyph glyph-name="Icircumflex" unicode="&#xce;" horiz-adv-x="265" 
d="M101 25v653q0 25 24 25h21q24 0 24 -25v-653q0 -25 -24 -25h-21q-24 0 -24 25zM49 752q-14 0 -17.5 8.5t4.5 21.5l52 73q12 16 30 16h37q18 0 31 -16l51 -73q9 -13 6 -21.5t-17 -8.5h-17q-17 0 -27 17l-44 64h-2l-44 -64q-10 -17 -28 -17h-15z" />
    <glyph glyph-name="Idieresis" unicode="&#xcf;" horiz-adv-x="265" 
d="M98 25v653q0 25 24 25h21q24 0 24 -25v-653q0 -25 -24 -25h-21q-24 0 -24 25zM203 785q-24 0 -24 24v37q0 25 24 25h13q25 0 25 -25v-37q0 -24 -25 -24h-13zM52 785q-24 0 -24 24v37q0 25 24 25h13q24 0 24 -25v-37q0 -24 -24 -24h-13z" />
    <glyph glyph-name="Eth" unicode="&#xd0;" horiz-adv-x="731" 
d="M98 25v298h-35q-24 0 -24 25v11q0 24 19 24h40v295q0 25 25 25h202q160 0 256.5 -93.5t96.5 -257.5q0 -166 -96 -259t-257 -93h-202q-25 0 -25 25zM167 62h151q132 0 210 75.5t78 214.5q0 138 -78 213.5t-210 75.5h-151v-258h143q25 0 25 -24v-11q0 -25 -24 -25h-144
v-261z" />
    <glyph glyph-name="Ntilde" unicode="&#xd1;" horiz-adv-x="745" 
d="M98 25v653q0 25 24 25h24q18 0 30 -16l348 -490l58 -95h2q-6 58 -6 95v481q0 25 25 25h20q24 0 24 -25v-653q0 -25 -24 -25h-24q-19 0 -29 16l-349 490l-58 95h-2q6 -58 6 -95v-481q0 -25 -24 -25h-21q-24 0 -24 25zM240 755q-22 0 -22 26q0 40 24.5 65.5t63.5 25.5
q23 0 42.5 -11t31 -25t26 -25t29.5 -11q18 0 28 14.5t11 35.5q0 19 23 19h8q21 0 21 -23q0 -43 -23.5 -68.5t-64.5 -25.5q-29 0 -52 18t-41 35.5t-36 17.5t-28.5 -15t-10.5 -36q-2 -17 -23 -17h-7z" />
    <glyph glyph-name="Ograve" unicode="&#xd2;" horiz-adv-x="817" 
d="M50 356q0 152 102.5 255.5t255.5 103.5q154 0 256 -103.5t102 -255.5q0 -156 -102 -262t-256 -106q-153 0 -255.5 106.5t-102.5 261.5zM122 356q0 -129 81.5 -216t204.5 -87t204.5 87t81.5 216q0 126 -81.5 210t-204.5 84t-204.5 -84t-81.5 -210zM397 752q-18 0 -30 16
l-53 73q-9 13 -5.5 21.5t19.5 8.5h23q19 0 29 -17l44 -74q7 -11 3.5 -19.5t-16.5 -8.5h-14z" />
    <glyph glyph-name="Oacute" unicode="&#xd3;" horiz-adv-x="817" 
d="M407 752q-14 0 -19 8.5t3 19.5l44 74q10 17 29 17h23q16 0 19.5 -8.5t-5.5 -21.5l-53 -73q-12 -16 -30 -16h-11zM50 356q0 152 102.5 255.5t255.5 103.5q154 0 256 -103.5t102 -255.5q0 -156 -102 -262t-256 -106q-153 0 -255.5 106.5t-102.5 261.5zM122 356
q0 -129 81.5 -216t204.5 -87t204.5 87t81.5 216q0 126 -81.5 210t-204.5 84t-204.5 -84t-81.5 -210z" />
    <glyph glyph-name="Ocircumflex" unicode="&#xd4;" horiz-adv-x="817" 
d="M320 752q-14 0 -17.5 8.5t4.5 21.5l52 73q12 16 30 16h37q18 0 31 -16l51 -73q9 -13 6 -21.5t-17 -8.5h-17q-17 0 -27 17l-44 64h-2l-44 -64q-10 -17 -28 -17h-15zM50 356q0 152 102.5 255.5t255.5 103.5q154 0 256 -103.5t102 -255.5q0 -156 -102 -262t-256 -106
q-153 0 -255.5 106.5t-102.5 261.5zM122 356q0 -129 81.5 -216t204.5 -87t204.5 87t81.5 216q0 126 -81.5 210t-204.5 84t-204.5 -84t-81.5 -210z" />
    <glyph glyph-name="Otilde" unicode="&#xd5;" horiz-adv-x="817" 
d="M50 356q0 152 102.5 255.5t255.5 103.5q154 0 256 -103.5t102 -255.5q0 -156 -102 -262t-256 -106q-153 0 -255.5 106.5t-102.5 261.5zM122 356q0 -129 81.5 -216t204.5 -87t204.5 87t81.5 216q0 126 -81.5 210t-204.5 84t-204.5 -84t-81.5 -210zM276 755q-22 0 -22 26
q0 40 24.5 65.5t63.5 25.5q23 0 42.5 -11t31 -25t26 -25t29.5 -11q18 0 28 14.5t11 35.5q0 19 23 19h8q21 0 21 -23q0 -43 -23.5 -68.5t-64.5 -25.5q-29 0 -52 18t-41 35.5t-36 17.5t-28.5 -15t-10.5 -36q-2 -17 -23 -17h-7z" />
    <glyph glyph-name="Odieresis" unicode="&#xd6;" horiz-adv-x="817" 
d="M477 785q-24 0 -24 24v37q0 25 24 25h13q25 0 25 -25v-37q0 -24 -25 -24h-13zM326 785q-24 0 -24 24v37q0 25 24 25h13q24 0 24 -25v-37q0 -24 -24 -24h-13zM50 356q0 152 102.5 255.5t255.5 103.5q154 0 256 -103.5t102 -255.5q0 -156 -102 -262t-256 -106
q-153 0 -255.5 106.5t-102.5 261.5zM122 356q0 -129 81.5 -216t204.5 -87t204.5 87t81.5 216q0 126 -81.5 210t-204.5 84t-204.5 -84t-81.5 -210z" />
    <glyph glyph-name="multiply" unicode="&#xd7;" horiz-adv-x="606" 
d="M80 24q-16 16 -1 35l200 225l-200 225q-16 19 1 34l7 7q18 18 35 -1l197 -221l197 221q16 19 35 1l7 -7q17 -15 1 -34l-201 -225l201 -225q15 -19 -1 -35l-7 -6q-19 -18 -35 1l-197 221l-197 -221q-17 -19 -35 -1z" />
    <glyph glyph-name="Oslash" unicode="&#xd8;" horiz-adv-x="816" 
d="M139 23l37 51q-59 51 -92.5 124.5t-33.5 157.5q0 152 104 255.5t254 103.5q102 0 189 -54l33 47q15 20 36 5q20 -17 8 -31l-35 -50q60 -50 93.5 -121.5t33.5 -154.5q0 -154 -104 -261t-254 -107q-104 0 -191 56l-34 -48q-15 -20 -36 -6q-20 15 -8 33zM217 131l341 476
q-66 43 -150 43q-119 0 -202.5 -85t-83.5 -209q0 -138 95 -225zM255 98q68 -45 153 -45q120 0 203 87t83 215q0 136 -96 222z" />
    <glyph glyph-name="Ugrave" unicode="&#xd9;" horiz-adv-x="715" 
d="M88 245v433q0 25 25 25h20q25 0 25 -25v-432q0 -90 54 -141.5t145 -51.5q92 0 146 52t54 143v430q0 25 25 25h20q24 0 24 -25v-433q0 -116 -74 -186.5t-194 -70.5q-121 0 -195.5 70.5t-74.5 186.5zM345 752q-18 0 -30 16l-53 73q-9 13 -5.5 21.5t19.5 8.5h23q19 0 29 -17
l44 -74q7 -11 3.5 -19.5t-16.5 -8.5h-14z" />
    <glyph glyph-name="Uacute" unicode="&#xda;" horiz-adv-x="715" 
d="M356 752q-14 0 -19 8.5t3 19.5l44 74q10 17 29 17h23q16 0 19.5 -8.5t-5.5 -21.5l-53 -73q-12 -16 -30 -16h-11zM88 245v433q0 25 25 25h20q25 0 25 -25v-432q0 -90 54 -141.5t145 -51.5q92 0 146 52t54 143v430q0 25 25 25h20q24 0 24 -25v-433q0 -116 -74 -186.5
t-194 -70.5q-121 0 -195.5 70.5t-74.5 186.5z" />
    <glyph glyph-name="Ucircumflex" unicode="&#xdb;" horiz-adv-x="715" 
d="M269 752q-14 0 -17.5 8.5t4.5 21.5l52 73q12 16 30 16h37q18 0 31 -16l51 -73q9 -13 6 -21.5t-17 -8.5h-17q-17 0 -27 17l-44 64h-2l-44 -64q-10 -17 -28 -17h-15zM88 245v433q0 25 25 25h20q25 0 25 -25v-432q0 -90 54 -141.5t145 -51.5q92 0 146 52t54 143v430
q0 25 25 25h20q24 0 24 -25v-433q0 -116 -74 -186.5t-194 -70.5q-121 0 -195.5 70.5t-74.5 186.5z" />
    <glyph glyph-name="Udieresis" unicode="&#xdc;" horiz-adv-x="715" 
d="M426 785q-24 0 -24 24v37q0 25 24 25h13q25 0 25 -25v-37q0 -24 -25 -24h-13zM275 785q-24 0 -24 24v37q0 25 24 25h13q24 0 24 -25v-37q0 -24 -24 -24h-13zM88 245v433q0 25 25 25h20q25 0 25 -25v-432q0 -90 54 -141.5t145 -51.5q92 0 146 52t54 143v430q0 25 25 25h20
q24 0 24 -25v-433q0 -116 -74 -186.5t-194 -70.5q-121 0 -195.5 70.5t-74.5 186.5z" />
    <glyph glyph-name="Yacute" unicode="&#xdd;" horiz-adv-x="554" 
d="M248 25v277l-221 372q-8 12 -3 20.5t20 8.5h25q20 0 29 -17l140 -238l43 -84h2q22 47 43 84l140 238q9 17 28 17h26q14 0 19 -8.5t-2 -20.5l-220 -372v-277q0 -25 -25 -25h-20q-24 0 -24 25zM281 752q-14 0 -19 8.5t3 19.5l44 74q10 17 29 17h23q16 0 19.5 -8.5
t-5.5 -21.5l-53 -73q-12 -16 -30 -16h-11z" />
    <glyph glyph-name="Thorn" unicode="&#xde;" horiz-adv-x="591" 
d="M98 25v653q0 25 24 25h21q24 0 24 -24v-101h174q96 0 156.5 -58t60.5 -155t-61 -155.5t-157 -58.5h-173v-126q0 -25 -24 -25h-21q-24 0 -24 25zM167 213h165q71 0 113 40.5t42 111.5t-41.5 111t-112.5 40h-166v-303z" />
    <glyph glyph-name="germandbls" unicode="&#xdf;" horiz-adv-x="567" 
d="M78 25v506q0 85 60 134.5t141 49.5q78 0 126.5 -44t48.5 -105q0 -35 -17.5 -65.5t-38 -48.5t-38 -40t-17.5 -43q0 -22 30.5 -47.5t67 -47t67 -58.5t30.5 -80q0 -68 -47 -105.5t-115 -37.5q-71 0 -129 25q-19 6 -19 28v14q0 29 26 19q55 -25 117 -25q42 0 70 21t28 63
q0 31 -30.5 60.5t-67.5 49.5t-67.5 52t-30.5 67q0 29 17.5 56t38 45t38 44t17.5 53q0 35 -28.5 62t-79.5 27q-52 0 -91 -34.5t-39 -93.5v-501q0 -25 -25 -25h-19q-24 0 -24 25z" />
    <glyph glyph-name="agrave" unicode="&#xe0;" horiz-adv-x="508" 
d="M34 135q0 173 307 173h29v16q0 130 -124 130q-64 0 -122 -35q-21 -11 -34 8l-6 10q-13 22 7 34q71 44 160 44q90 0 138.5 -49.5t48.5 -143.5v-297q0 -25 -24 -25h-16q-25 0 -25 25v40l3 38h-2q1 0 -5 -12t-19 -28.5t-31.5 -33.5t-49 -29t-65.5 -12q-69 0 -119.5 39
t-50.5 108zM104 141q0 -38 29.5 -67t82.5 -29q69 0 111.5 58t42.5 130v24h-28q-26 0 -45.5 -1t-50.5 -4t-53 -11t-44 -20t-33.5 -32.5t-11.5 -47.5zM241 585q-18 0 -30 16l-53 73q-9 13 -5.5 21.5t19.5 8.5h23q19 0 29 -17l44 -74q7 -11 3.5 -19.5t-16.5 -8.5h-14z" />
    <glyph glyph-name="aacute" unicode="&#xe1;" horiz-adv-x="508" 
d="M34 135q0 173 307 173h29v16q0 130 -124 130q-64 0 -122 -35q-21 -11 -34 8l-6 10q-13 22 7 34q71 44 160 44q90 0 138.5 -49.5t48.5 -143.5v-297q0 -25 -24 -25h-16q-25 0 -25 25v40l3 38h-2q1 0 -5 -12t-19 -28.5t-31.5 -33.5t-49 -29t-65.5 -12q-69 0 -119.5 39
t-50.5 108zM104 141q0 -38 29.5 -67t82.5 -29q69 0 111.5 58t42.5 130v24h-28q-26 0 -45.5 -1t-50.5 -4t-53 -11t-44 -20t-33.5 -32.5t-11.5 -47.5zM250 585q-14 0 -19 8.5t3 19.5l44 74q10 17 29 17h23q16 0 19.5 -8.5t-5.5 -21.5l-53 -73q-12 -16 -30 -16h-11z" />
    <glyph glyph-name="acircumflex" unicode="&#xe2;" horiz-adv-x="508" 
d="M34 135q0 173 307 173h29v16q0 130 -124 130q-64 0 -122 -35q-21 -11 -34 8l-6 10q-13 22 7 34q71 44 160 44q90 0 138.5 -49.5t48.5 -143.5v-297q0 -25 -24 -25h-16q-25 0 -25 25v40l3 38h-2q1 0 -5 -12t-19 -28.5t-31.5 -33.5t-49 -29t-65.5 -12q-69 0 -119.5 39
t-50.5 108zM104 141q0 -38 29.5 -67t82.5 -29q69 0 111.5 58t42.5 130v24h-28q-26 0 -45.5 -1t-50.5 -4t-53 -11t-44 -20t-33.5 -32.5t-11.5 -47.5zM164 585q-14 0 -17.5 8.5t4.5 21.5l52 73q12 16 30 16h37q18 0 31 -16l51 -73q9 -13 6 -21.5t-17 -8.5h-17q-17 0 -27 17
l-44 64h-2l-44 -64q-10 -17 -28 -17h-15z" />
    <glyph glyph-name="atilde" unicode="&#xe3;" horiz-adv-x="508" 
d="M34 135q0 173 307 173h29v16q0 130 -124 130q-64 0 -122 -35q-21 -11 -34 8l-6 10q-13 22 7 34q71 44 160 44q90 0 138.5 -49.5t48.5 -143.5v-297q0 -25 -24 -25h-16q-25 0 -25 25v40l3 38h-2q1 0 -5 -12t-19 -28.5t-31.5 -33.5t-49 -29t-65.5 -12q-69 0 -119.5 39
t-50.5 108zM104 141q0 -38 29.5 -67t82.5 -29q69 0 111.5 58t42.5 130v24h-28q-26 0 -45.5 -1t-50.5 -4t-53 -11t-44 -20t-33.5 -32.5t-11.5 -47.5zM120 588q-22 0 -22 26q0 40 24.5 65.5t63.5 25.5q23 0 42.5 -11.5t31 -24.5t26 -24.5t29.5 -11.5q18 0 28 14.5t11 35.5
q0 19 23 19h8q21 0 21 -23q0 -43 -23.5 -68.5t-64.5 -25.5q-23 0 -42.5 11t-31 24.5t-26 24.5t-29.5 11q-18 0 -28.5 -15t-10.5 -36q-2 -17 -23 -17h-7z" />
    <glyph glyph-name="adieresis" unicode="&#xe4;" horiz-adv-x="508" 
d="M34 135q0 173 307 173h29v16q0 130 -124 130q-64 0 -122 -35q-21 -11 -34 8l-6 10q-13 22 7 34q71 44 160 44q90 0 138.5 -49.5t48.5 -143.5v-297q0 -25 -24 -25h-16q-25 0 -25 25v40l3 38h-2q1 0 -5 -12t-19 -28.5t-31.5 -33.5t-49 -29t-65.5 -12q-69 0 -119.5 39
t-50.5 108zM104 141q0 -38 29.5 -67t82.5 -29q69 0 111.5 58t42.5 130v24h-28q-26 0 -45.5 -1t-50.5 -4t-53 -11t-44 -20t-33.5 -32.5t-11.5 -47.5zM321 618q-24 0 -24 24v37q0 25 24 25h13q25 0 25 -25v-37q0 -24 -25 -24h-13zM170 618q-24 0 -24 24v37q0 25 24 25h13
q24 0 24 -25v-37q0 -24 -24 -24h-13z" />
    <glyph glyph-name="aring" unicode="&#xe5;" horiz-adv-x="508" 
d="M34 135q0 173 307 173h29v16q0 130 -124 130q-64 0 -122 -35q-21 -11 -34 8l-6 10q-13 22 7 34q71 44 160 44q90 0 138.5 -49.5t48.5 -143.5v-297q0 -25 -24 -25h-16q-25 0 -25 25v40l3 38h-2q1 0 -5 -12t-19 -28.5t-31.5 -33.5t-49 -29t-65.5 -12q-69 0 -119.5 39
t-50.5 108zM104 141q0 -38 29.5 -67t82.5 -29q69 0 111.5 58t42.5 130v24h-28q-26 0 -45.5 -1t-50.5 -4t-53 -11t-44 -20t-33.5 -32.5t-11.5 -47.5zM252 574q-31 0 -53 20t-22 51t22 51t53 20t53.5 -20t22.5 -51t-22.5 -51t-53.5 -20zM252 612q15 0 24 9.5t9 23.5
q0 15 -9 24.5t-24 9.5q-14 0 -23 -9.5t-9 -24.5q0 -14 9 -23.5t23 -9.5z" />
    <glyph glyph-name="ae" unicode="&#xe6;" horiz-adv-x="859" 
d="M36 137q0 34 11.5 60.5t28.5 44t44 30t51.5 18.5t58 10t56 4.5t52.5 0.5h32v19q0 130 -128 130q-63 0 -118 -35q-21 -11 -34 8l-6 10q-13 22 7 34q71 44 156 44q135 0 170 -104h2q60 104 189 104q98 0 153.5 -65t55.5 -171q0 -11 -7.5 -18t-18.5 -7h-354q1 -97 53.5 -151
t133.5 -54q73 0 132 46q23 13 34 -7l6 -10q12 -21 -6 -34q-76 -56 -169 -56q-77 0 -134.5 37t-86.5 103h-2q-4 -14 -14.5 -33.5t-32 -45.5t-59 -43.5t-84.5 -17.5q-73 0 -122.5 39.5t-49.5 109.5zM441 305h306q-3 74 -43 113t-98 39q-65 0 -109 -39.5t-56 -112.5zM105 141
q0 -39 30 -67.5t83 -28.5q69 0 111 58.5t42 130.5v20h-59q-207 0 -207 -113z" />
    <glyph glyph-name="ccedilla" unicode="&#xe7;" horiz-adv-x="534" 
d="M258 -64l13 55q-100 11 -163.5 82.5t-63.5 177.5q0 115 75.5 189.5t188.5 74.5q96 0 167 -57q18 -14 3 -34l-7 -11q-12 -19 -34 -5q-60 46 -127 46q-84 0 -140 -57t-56 -146q0 -88 56.5 -145t140.5 -57q78 0 142 53q19 15 33 -6l7 -10q11 -18 -6 -34q-77 -62 -172 -64
l-8 -43q31 -5 50.5 -23.5t19.5 -47.5q0 -41 -27.5 -60t-68.5 -19q-48 0 -48 24q0 25 16 25q3 0 11 -1.5t15 -1.5q49 0 49 34q0 31 -49 35q-9 1 -14 8t-3 18z" />
    <glyph glyph-name="egrave" unicode="&#xe8;" horiz-adv-x="544" 
d="M44 251q0 120 71.5 192t176.5 72q99 0 154.5 -65.5t55.5 -174.5q0 -11 -7.5 -18t-18.5 -7h-362q2 -93 58 -147t137 -54q73 0 132 46q21 13 33 -6l8 -12q11 -19 -7 -33q-76 -56 -168 -56q-113 0 -188 74t-75 189zM117 301h316q-3 76 -43.5 117t-99.5 41q-65 0 -113 -42
t-60 -116zM283 585q-18 0 -30 16l-53 73q-9 13 -5.5 21.5t19.5 8.5h23q19 0 29 -17l44 -74q7 -11 3.5 -19.5t-16.5 -8.5h-14z" />
    <glyph glyph-name="eacute" unicode="&#xe9;" horiz-adv-x="544" 
d="M291 585q-14 0 -19 8.5t3 19.5l44 74q10 17 29 17h23q16 0 19.5 -8.5t-5.5 -21.5l-53 -73q-12 -16 -30 -16h-11zM44 251q0 120 71.5 192t176.5 72q99 0 154.5 -65.5t55.5 -174.5q0 -11 -7.5 -18t-18.5 -7h-362q2 -93 58 -147t137 -54q73 0 132 46q21 13 33 -6l8 -12
q11 -19 -7 -33q-76 -56 -168 -56q-113 0 -188 74t-75 189zM117 301h316q-3 76 -43.5 117t-99.5 41q-65 0 -113 -42t-60 -116z" />
    <glyph glyph-name="ecircumflex" unicode="&#xea;" horiz-adv-x="544" 
d="M204 585q-14 0 -17.5 8.5t4.5 21.5l52 73q12 16 30 16h37q18 0 31 -16l51 -73q9 -13 6 -21.5t-17 -8.5h-17q-17 0 -27 17l-44 64h-2l-44 -64q-10 -17 -28 -17h-15zM44 251q0 120 71.5 192t176.5 72q99 0 154.5 -65.5t55.5 -174.5q0 -11 -7.5 -18t-18.5 -7h-362
q2 -93 58 -147t137 -54q73 0 132 46q21 13 33 -6l8 -12q11 -19 -7 -33q-76 -56 -168 -56q-113 0 -188 74t-75 189zM117 301h316q-3 76 -43.5 117t-99.5 41q-65 0 -113 -42t-60 -116z" />
    <glyph glyph-name="edieresis" unicode="&#xeb;" horiz-adv-x="544" 
d="M361 618q-24 0 -24 24v37q0 25 24 25h13q25 0 25 -25v-37q0 -24 -25 -24h-13zM210 618q-24 0 -24 24v37q0 25 24 25h13q24 0 24 -25v-37q0 -24 -24 -24h-13zM44 251q0 120 71.5 192t176.5 72q99 0 154.5 -65.5t55.5 -174.5q0 -11 -7.5 -18t-18.5 -7h-362q2 -93 58 -147
t137 -54q73 0 132 46q21 13 33 -6l8 -12q11 -19 -7 -33q-76 -56 -168 -56q-113 0 -188 74t-75 189zM117 301h316q-3 76 -43.5 117t-99.5 41q-65 0 -113 -42t-60 -116z" />
    <glyph glyph-name="igrave" unicode="&#xec;" horiz-adv-x="223" 
d="M80 25v453q0 25 25 25h19q24 0 24 -25v-453q0 -25 -24 -25h-19q-25 0 -25 25zM104 585q-18 0 -30 16l-53 73q-9 13 -5.5 21.5t19.5 8.5h23q19 0 29 -17l44 -74q7 -11 3.5 -19.5t-16.5 -8.5h-14z" />
    <glyph glyph-name="iacute" unicode="&#xed;" horiz-adv-x="223" 
d="M112 585q-14 0 -19 8.5t3 19.5l44 74q10 17 29 17h23q16 0 19.5 -8.5t-5.5 -21.5l-53 -73q-12 -16 -30 -16h-11zM77 25v453q0 25 25 25h19q24 0 24 -25v-453q0 -25 -24 -25h-19q-25 0 -25 25z" />
    <glyph glyph-name="icircumflex" unicode="&#xee;" horiz-adv-x="223" 
d="M28 585q-14 0 -17.5 8.5t4.5 21.5l52 73q12 16 30 16h37q18 0 31 -16l51 -73q9 -13 6 -21.5t-17 -8.5h-17q-17 0 -27 17l-44 64h-2l-44 -64q-10 -17 -28 -17h-15zM80 25v453q0 25 25 25h19q24 0 24 -25v-453q0 -25 -24 -25h-19q-25 0 -25 25z" />
    <glyph glyph-name="idieresis" unicode="&#xef;" horiz-adv-x="223" 
d="M182 618q-24 0 -24 24v37q0 25 24 25h13q25 0 25 -25v-37q0 -24 -25 -24h-13zM31 618q-24 0 -24 24v37q0 25 24 25h13q24 0 24 -25v-37q0 -24 -24 -24h-13zM77 25v453q0 25 25 25h19q24 0 24 -25v-453q0 -25 -24 -25h-19q-25 0 -25 25z" />
    <glyph glyph-name="eth" unicode="&#xf0;" horiz-adv-x="578" 
d="M45 232q0 96 63.5 165.5t175.5 69.5q44 0 80 -14t50 -28l15 -14h2q-34 99 -125 161l-152 -69q-20 -10 -29 9l-4 8q-8 18 13 29l117 54q-47 25 -117 45q-23 8 -16 31l3 10q8 23 31 17q102 -29 174 -71l106 48q22 10 29 -9l4 -9q8 -19 -13 -27l-79 -37q150 -119 150 -328
q0 -52 -14.5 -101t-43 -91t-77.5 -67.5t-112 -25.5q-106 0 -168.5 73t-62.5 171zM115 231q0 -74 44 -128t119 -54q85 0 130 64.5t45 146.5q0 65 -45 107t-118 42q-85 0 -130 -52.5t-45 -125.5z" />
    <glyph glyph-name="ntilde" unicode="&#xf1;" horiz-adv-x="584" 
d="M77 25v453q0 25 25 25h18q24 0 24 -25v-58l-4 -36h2q19 46 71.5 88.5t131.5 42.5q91 0 130 -49t39 -146v-295q0 -25 -25 -25h-19q-24 0 -24 25v277q0 71 -22 110t-88 39q-81 0 -136 -59t-55 -146v-221q0 -25 -24 -25h-19q-25 0 -25 25zM173 588q-22 0 -22 26
q0 40 24.5 65.5t63.5 25.5q23 0 42.5 -11.5t31 -24.5t26 -24.5t29.5 -11.5q18 0 28 14.5t11 35.5q0 19 23 19h8q21 0 21 -23q0 -43 -23.5 -68.5t-64.5 -25.5q-23 0 -42.5 11t-31 24.5t-26 24.5t-29.5 11q-18 0 -28.5 -15t-10.5 -36q-2 -17 -23 -17h-7z" />
    <glyph glyph-name="ograve" unicode="&#xf2;" horiz-adv-x="615" 
d="M42 254q0 111 77.5 186t187.5 75q111 0 188.5 -75t77.5 -186q0 -113 -77.5 -189.5t-187.5 -76.5q-111 0 -188.5 76.5t-77.5 189.5zM112 254q0 -87 57 -146t139 -59q81 0 138 59t57 146q0 85 -57 142.5t-138 57.5q-82 0 -139 -57.5t-57 -142.5zM296 585q-18 0 -30 16
l-53 73q-9 13 -5.5 21.5t19.5 8.5h23q19 0 29 -17l44 -74q7 -11 3.5 -19.5t-16.5 -8.5h-14z" />
    <glyph glyph-name="oacute" unicode="&#xf3;" horiz-adv-x="615" 
d="M307 585q-14 0 -19 8.5t3 19.5l44 74q10 17 29 17h23q16 0 19.5 -8.5t-5.5 -21.5l-53 -73q-12 -16 -30 -16h-11zM42 254q0 111 77.5 186t187.5 75q111 0 188.5 -75t77.5 -186q0 -113 -77.5 -189.5t-187.5 -76.5q-111 0 -188.5 76.5t-77.5 189.5zM112 254q0 -87 57 -146
t139 -59q81 0 138 59t57 146q0 85 -57 142.5t-138 57.5q-82 0 -139 -57.5t-57 -142.5z" />
    <glyph glyph-name="ocircumflex" unicode="&#xf4;" horiz-adv-x="615" 
d="M219 585q-14 0 -17.5 8.5t4.5 21.5l52 73q12 16 30 16h37q18 0 31 -16l51 -73q9 -13 6 -21.5t-17 -8.5h-17q-17 0 -27 17l-44 64h-2l-44 -64q-10 -17 -28 -17h-15zM42 254q0 111 77.5 186t187.5 75q111 0 188.5 -75t77.5 -186q0 -113 -77.5 -189.5t-187.5 -76.5
q-111 0 -188.5 76.5t-77.5 189.5zM112 254q0 -87 57 -146t139 -59q81 0 138 59t57 146q0 85 -57 142.5t-138 57.5q-82 0 -139 -57.5t-57 -142.5z" />
    <glyph glyph-name="otilde" unicode="&#xf5;" horiz-adv-x="615" 
d="M42 254q0 111 77.5 186t187.5 75q111 0 188.5 -75t77.5 -186q0 -113 -77.5 -189.5t-187.5 -76.5q-111 0 -188.5 76.5t-77.5 189.5zM112 254q0 -87 57 -146t139 -59q81 0 138 59t57 146q0 85 -57 142.5t-138 57.5q-82 0 -139 -57.5t-57 -142.5zM175 588q-22 0 -22 26
q0 40 24.5 65.5t63.5 25.5q23 0 42.5 -11.5t31 -24.5t26 -24.5t29.5 -11.5q18 0 28 14.5t11 35.5q0 19 23 19h8q21 0 21 -23q0 -43 -23.5 -68.5t-64.5 -25.5q-23 0 -42.5 11t-31 24.5t-26 24.5t-29.5 11q-18 0 -28.5 -15t-10.5 -36q-2 -17 -23 -17h-7z" />
    <glyph glyph-name="odieresis" unicode="&#xf6;" horiz-adv-x="615" 
d="M376 618q-24 0 -24 24v37q0 25 24 25h13q25 0 25 -25v-37q0 -24 -25 -24h-13zM225 618q-24 0 -24 24v37q0 25 24 25h13q24 0 24 -25v-37q0 -24 -24 -24h-13zM42 254q0 111 77.5 186t187.5 75q111 0 188.5 -75t77.5 -186q0 -113 -77.5 -189.5t-187.5 -76.5
q-111 0 -188.5 76.5t-77.5 189.5zM112 254q0 -87 57 -146t139 -59q81 0 138 59t57 146q0 85 -57 142.5t-138 57.5q-82 0 -139 -57.5t-57 -142.5z" />
    <glyph glyph-name="divide" unicode="&#xf7;" horiz-adv-x="606" 
d="M290 433q-25 0 -25 24v25q0 25 25 25h25q25 0 25 -25v-25q0 -24 -25 -24h-25zM83 255q-25 0 -25 24v9q0 25 25 25h440q25 0 25 -25v-9q0 -24 -25 -24h-440zM265 85v25q0 25 25 25h25q25 0 25 -25v-25q0 -24 -25 -24h-25q-25 0 -25 24z" />
    <glyph glyph-name="oslash" unicode="&#xf8;" horiz-adv-x="616" 
d="M113 14l25 35q-95 76 -95 205q0 111 77.5 186t187.5 75q74 0 137 -36l24 34q14 20 36 5q20 -14 7 -31l-26 -38q88 -77 88 -195q0 -113 -77.5 -189.5t-187.5 -76.5q-72 0 -129 33l-24 -34q-14 -20 -35 -5q-20 16 -8 32zM176 102l232 324q-48 28 -99 28q-82 0 -139 -57.5
t-57 -142.5q0 -91 63 -152zM217 73q43 -24 92 -24q81 0 138 59t57 146q0 84 -58 140z" />
    <glyph glyph-name="ugrave" unicode="&#xf9;" horiz-adv-x="580" 
d="M71 183v295q0 25 24 25h19q25 0 25 -25v-277q0 -71 21.5 -110t87.5 -39q83 0 134.5 62t51.5 148v216q0 25 25 25h19q24 0 24 -25v-453q0 -25 -24 -25h-18q-24 0 -24 25v58l3 36h-2q-18 -47 -70.5 -89t-127.5 -42q-88 0 -128 47.5t-40 147.5zM276 585q-18 0 -30 16l-53 73
q-9 13 -5.5 21.5t19.5 8.5h23q19 0 29 -17l44 -74q7 -11 3.5 -19.5t-16.5 -8.5h-14z" />
    <glyph glyph-name="uacute" unicode="&#xfa;" horiz-adv-x="580" 
d="M285 585q-14 0 -19 8.5t3 19.5l44 74q10 17 29 17h23q16 0 19.5 -8.5t-5.5 -21.5l-53 -73q-12 -16 -30 -16h-11zM71 183v295q0 25 24 25h19q25 0 25 -25v-277q0 -71 21.5 -110t87.5 -39q83 0 134.5 62t51.5 148v216q0 25 25 25h19q24 0 24 -25v-453q0 -25 -24 -25h-18
q-24 0 -24 25v58l3 36h-2q-18 -47 -70.5 -89t-127.5 -42q-88 0 -128 47.5t-40 147.5z" />
    <glyph glyph-name="ucircumflex" unicode="&#xfb;" horiz-adv-x="580" 
d="M198 585q-14 0 -17.5 8.5t4.5 21.5l52 73q12 16 30 16h37q18 0 31 -16l51 -73q9 -13 6 -21.5t-17 -8.5h-17q-17 0 -27 17l-44 64h-2l-44 -64q-10 -17 -28 -17h-15zM71 183v295q0 25 24 25h19q25 0 25 -25v-277q0 -71 21.5 -110t87.5 -39q83 0 134.5 62t51.5 148v216
q0 25 25 25h19q24 0 24 -25v-453q0 -25 -24 -25h-18q-24 0 -24 25v58l3 36h-2q-18 -47 -70.5 -89t-127.5 -42q-88 0 -128 47.5t-40 147.5z" />
    <glyph glyph-name="udieresis" unicode="&#xfc;" horiz-adv-x="580" 
d="M355 618q-24 0 -24 24v37q0 25 24 25h13q25 0 25 -25v-37q0 -24 -25 -24h-13zM204 618q-24 0 -24 24v37q0 25 24 25h13q24 0 24 -25v-37q0 -24 -24 -24h-13zM71 183v295q0 25 24 25h19q25 0 25 -25v-277q0 -71 21.5 -110t87.5 -39q83 0 134.5 62t51.5 148v216q0 25 25 25
h19q24 0 24 -25v-453q0 -25 -24 -25h-18q-24 0 -24 25v58l3 36h-2q-18 -47 -70.5 -89t-127.5 -42q-88 0 -128 47.5t-40 147.5z" />
    <glyph glyph-name="yacute" unicode="&#xfd;" horiz-adv-x="491" 
d="M28 -149q10 19 30 12q29 -13 44 -13q58 0 94 83l30 71l-198 470q-5 13 0 21t19 8h23q21 0 28 -19l141 -348l18 -53h2q7 28 17 53l138 347q7 20 28 20h22q14 0 19 -8t1 -21l-237 -576q-20 -50 -58 -79t-87 -29q-33 0 -69 18q-22 10 -11 32zM257 584q-14 0 -19 8.5t3 19.5
l44 74q10 17 29 17h23q16 0 19.5 -8.5t-5.5 -21.5l-53 -73q-12 -16 -30 -16h-11z" />
    <glyph glyph-name="thorn" unicode="&#xfe;" horiz-adv-x="582" 
d="M79 -175v853q0 25 24 25h19q25 0 25 -25v-219l-2 -40h2l7 12q8 12 20.5 25t30.5 27t47.5 23t64.5 9q100 0 160 -73t60 -190q0 -118 -63 -191t-162 -73q-35 0 -64.5 10t-47.5 24t-30.5 28t-17.5 24l-5 10h-2q2 -18 2 -44v-215q0 -25 -25 -25h-19q-24 0 -24 25zM145 251
q0 -85 43.5 -143.5t116.5 -58.5q69 0 115.5 55.5t46.5 147.5q0 90 -44 146t-115 56q-70 0 -116.5 -50.5t-46.5 -152.5z" />
    <glyph glyph-name="ydieresis" unicode="&#xff;" horiz-adv-x="491" 
d="M28 -149q10 19 30 12q29 -13 44 -13q58 0 94 83l30 71l-198 470q-5 13 0 21t19 8h23q21 0 28 -19l141 -348l18 -53h2q7 28 17 53l138 347q7 20 28 20h22q14 0 19 -8t1 -21l-237 -576q-20 -50 -58 -79t-87 -29q-33 0 -69 18q-22 10 -11 32zM328 617q-24 0 -24 24v37
q0 25 24 25h13q25 0 25 -25v-37q0 -24 -25 -24h-13zM177 617q-24 0 -24 24v37q0 25 24 25h13q24 0 24 -25v-37q0 -24 -24 -24h-13z" />
    <glyph glyph-name="Amacron" unicode="&#x100;" horiz-adv-x="609" 
d="M27 29l242 654q6 20 27 20h33q21 0 27 -20l242 -654q8 -29 -20 -29h-22q-22 0 -28 20l-75 204h-282l-74 -204q-6 -20 -28 -20h-21q-29 0 -21 29zM191 284h242l-93 255l-26 92h-2q-16 -59 -27 -92zM214 785q-25 0 -25 24v7q0 24 25 24h197q24 0 24 -24v-7q0 -24 -24 -24
h-197z" />
    <glyph glyph-name="amacron" unicode="&#x101;" horiz-adv-x="508" 
d="M34 135q0 173 307 173h29v16q0 130 -124 130q-64 0 -122 -35q-21 -11 -34 8l-6 10q-13 22 7 34q71 44 160 44q90 0 138.5 -49.5t48.5 -143.5v-297q0 -25 -24 -25h-16q-25 0 -25 25v40l3 38h-2q1 0 -5 -12t-19 -28.5t-31.5 -33.5t-49 -29t-65.5 -12q-69 0 -119.5 39
t-50.5 108zM104 141q0 -38 29.5 -67t82.5 -29q69 0 111.5 58t42.5 130v24h-28q-26 0 -45.5 -1t-50.5 -4t-53 -11t-44 -20t-33.5 -32.5t-11.5 -47.5zM154 618q-25 0 -25 24v7q0 24 25 24h197q24 0 24 -24v-7q0 -24 -24 -24h-197z" />
    <glyph glyph-name="Abreve" unicode="&#x102;" horiz-adv-x="609" 
d="M27 29l242 654q6 20 27 20h33q21 0 27 -20l242 -654q8 -29 -20 -29h-22q-22 0 -28 20l-75 204h-282l-74 -204q-6 -20 -28 -20h-21q-29 0 -21 29zM191 284h242l-93 255l-26 92h-2q-16 -59 -27 -92zM312 749q-45 0 -80 29.5t-35 73.5q0 19 23 19h10q20 0 23 -18
q6 -57 59 -57q54 0 60 57q4 18 23 18h10q23 0 23 -19q0 -43 -34.5 -73t-81.5 -30z" />
    <glyph glyph-name="abreve" unicode="&#x103;" horiz-adv-x="508" 
d="M34 135q0 173 307 173h29v16q0 130 -124 130q-64 0 -122 -35q-21 -11 -34 8l-6 10q-13 22 7 34q71 44 160 44q90 0 138.5 -49.5t48.5 -143.5v-297q0 -25 -24 -25h-16q-25 0 -25 25v40l3 38h-2q1 0 -5 -12t-19 -28.5t-31.5 -33.5t-49 -29t-65.5 -12q-69 0 -119.5 39
t-50.5 108zM104 141q0 -38 29.5 -67t82.5 -29q69 0 111.5 58t42.5 130v24h-28q-26 0 -45.5 -1t-50.5 -4t-53 -11t-44 -20t-33.5 -32.5t-11.5 -47.5zM252 582q-45 0 -80 29.5t-35 73.5q0 19 23 19h10q20 0 23 -18q6 -57 59 -57q54 0 60 57q4 18 23 18h10q23 0 23 -19
q0 -43 -34.5 -73t-81.5 -30z" />
    <glyph glyph-name="Aogonek" unicode="&#x104;" horiz-adv-x="609" 
d="M27 29l242 654q7 20 27 20h33q20 0 27 -20l242 -654q8 -27 -4 -38q-64 -54 -64 -91q0 -33 46 -48q17 -6 13 -25l-1 -11q-3 -22 -26 -18q-35 6 -64.5 27t-29.5 63q0 64 76 120q-15 6 -20 23l-71 193h-282l-74 -204q-6 -20 -28 -20h-21q-29 0 -21 29zM191 284h242l-93 255
l-26 92h-2q-16 -59 -27 -92z" />
    <glyph glyph-name="aogonek" unicode="&#x105;" horiz-adv-x="510" 
d="M34 135q0 173 307 173h29v16q0 130 -124 130q-64 0 -122 -35q-21 -11 -34 8l-6 10q-13 22 7 34q71 44 160 44q90 0 138.5 -49.5t48.5 -143.5v-297q0 -16 -19 -34.5t-38 -41.5t-19 -49q0 -33 46 -48q17 -6 13 -25l-1 -11q-5 -21 -26 -18q-35 6 -64.5 27t-29.5 63
q0 36 24.5 68t53.5 52q-5 4 -5 17v40l3 38h-2q1 0 -5 -12t-19 -28.5t-31.5 -33.5t-49 -29t-65.5 -12q-69 0 -119.5 39t-50.5 108zM104 141q0 -38 29.5 -67t82.5 -29q69 0 111.5 58t42.5 130v24h-28q-26 0 -45.5 -1t-50.5 -4t-53 -11t-44 -20t-33.5 -32.5t-11.5 -47.5z" />
    <glyph glyph-name="Cacute" unicode="&#x106;" horiz-adv-x="710" 
d="M397 752q-14 0 -19 8.5t3 19.5l44 74q10 17 29 17h23q16 0 19.5 -8.5t-5.5 -21.5l-53 -73q-12 -16 -30 -16h-11zM51 356q0 154 99.5 256.5t253.5 102.5q140 0 236 -75q17 -14 4 -35l-9 -13q-14 -18 -34 -4q-89 62 -195 62q-126 0 -204.5 -83.5t-78.5 -209.5
q0 -128 79 -216t207 -88q115 0 209 76q19 16 34 -3l9 -11q15 -18 -2 -35q-108 -92 -252 -92q-158 0 -257 105.5t-99 262.5z" />
    <glyph glyph-name="cacute" unicode="&#x107;" horiz-adv-x="532" 
d="M287 585q-14 0 -19 8.5t3 19.5l44 74q10 17 29 17h23q16 0 19.5 -8.5t-5.5 -21.5l-53 -73q-12 -16 -30 -16h-11zM43 251q0 115 75.5 189.5t188.5 74.5q96 0 167 -57q18 -14 3 -34l-7 -11q-12 -19 -34 -5q-60 46 -127 46q-84 0 -140 -57t-56 -146q0 -88 56.5 -145
t140.5 -57q78 0 142 53q20 15 33 -6l7 -10q11 -18 -6 -34q-79 -64 -179 -64q-114 0 -189 73.5t-75 189.5z" />
    <glyph glyph-name="Ccircumflex" unicode="&#x108;" horiz-adv-x="710" 
d="M309 752q-14 0 -17.5 8.5t4.5 21.5l52 73q12 16 30 16h37q18 0 31 -16l51 -73q9 -13 6 -21.5t-17 -8.5h-17q-17 0 -27 17l-44 64h-2l-44 -64q-10 -17 -28 -17h-15zM51 356q0 154 99.5 256.5t253.5 102.5q140 0 236 -75q17 -14 4 -35l-9 -13q-14 -18 -34 -4
q-89 62 -195 62q-126 0 -204.5 -83.5t-78.5 -209.5q0 -128 79 -216t207 -88q115 0 209 76q19 16 34 -3l9 -11q15 -18 -2 -35q-108 -92 -252 -92q-158 0 -257 105.5t-99 262.5z" />
    <glyph glyph-name="ccircumflex" unicode="&#x109;" horiz-adv-x="532" 
d="M200 585q-14 0 -17.5 8.5t4.5 21.5l52 73q12 16 30 16h37q18 0 31 -16l51 -73q9 -13 6 -21.5t-17 -8.5h-17q-17 0 -27 17l-44 64h-2l-44 -64q-10 -17 -28 -17h-15zM43 251q0 115 75.5 189.5t188.5 74.5q96 0 167 -57q18 -14 3 -34l-7 -11q-12 -19 -34 -5q-60 46 -127 46
q-84 0 -140 -57t-56 -146q0 -88 56.5 -145t140.5 -57q78 0 142 53q20 15 33 -6l7 -10q11 -18 -6 -34q-79 -64 -179 -64q-114 0 -189 73.5t-75 189.5z" />
    <glyph glyph-name="Cdotaccent" unicode="&#x10a;" horiz-adv-x="710" 
d="M51 356q0 154 99.5 256.5t253.5 102.5q140 0 236 -75q17 -14 4 -35l-9 -13q-14 -18 -34 -4q-89 62 -195 62q-126 0 -204.5 -83.5t-78.5 -209.5q0 -128 79 -216t207 -88q115 0 209 76q19 16 34 -3l9 -11q15 -18 -2 -35q-108 -92 -252 -92q-158 0 -257 105.5t-99 262.5z
M389 786q-24 0 -24 25v35q0 25 24 25h17q24 0 24 -25v-35q0 -25 -24 -25h-17z" />
    <glyph glyph-name="cdotaccent" unicode="&#x10b;" horiz-adv-x="532" 
d="M43 251q0 115 75.5 189.5t188.5 74.5q96 0 167 -57q18 -14 3 -34l-7 -11q-12 -19 -34 -5q-60 46 -127 46q-84 0 -140 -57t-56 -146q0 -88 56.5 -145t140.5 -57q78 0 142 53q20 15 33 -6l7 -10q11 -18 -6 -34q-79 -64 -179 -64q-114 0 -189 73.5t-75 189.5zM279 619
q-24 0 -24 25v35q0 25 24 25h17q24 0 24 -25v-35q0 -25 -24 -25h-17z" />
    <glyph glyph-name="Ccaron" unicode="&#x10c;" horiz-adv-x="710" 
d="M378 752q-18 0 -30 16l-52 73q-8 13 -4.5 21.5t17.5 8.5h15q18 0 28 -16l44 -64h2l44 64q10 16 27 16h16q14 0 17.5 -8.5t-5.5 -21.5l-51 -73q-13 -16 -31 -16h-37zM51 356q0 154 99.5 256.5t253.5 102.5q140 0 236 -75q17 -14 4 -35l-9 -13q-14 -18 -34 -4
q-89 62 -195 62q-126 0 -204.5 -83.5t-78.5 -209.5q0 -128 79 -216t207 -88q115 0 209 76q19 16 34 -3l9 -11q15 -18 -2 -35q-108 -92 -252 -92q-158 0 -257 105.5t-99 262.5z" />
    <glyph glyph-name="ccaron" unicode="&#x10d;" horiz-adv-x="532" 
d="M269 585q-18 0 -30 16l-52 73q-8 13 -4.5 21.5t17.5 8.5h15q18 0 28 -16l44 -64h2l44 64q10 16 27 16h16q14 0 17.5 -8.5t-5.5 -21.5l-51 -73q-13 -16 -31 -16h-37zM43 251q0 115 75.5 189.5t188.5 74.5q96 0 167 -57q18 -14 3 -34l-7 -11q-12 -19 -34 -5q-60 46 -127 46
q-84 0 -140 -57t-56 -146q0 -88 56.5 -145t140.5 -57q78 0 142 53q20 15 33 -6l7 -10q11 -18 -6 -34q-79 -64 -179 -64q-114 0 -189 73.5t-75 189.5z" />
    <glyph glyph-name="Dcaron" unicode="&#x10e;" horiz-adv-x="731" 
d="M318 752q-18 0 -30 16l-52 73q-8 13 -4.5 21.5t17.5 8.5h15q18 0 28 -16l44 -64h2l44 64q10 16 27 16h16q14 0 17.5 -8.5t-5.5 -21.5l-51 -73q-13 -16 -31 -16h-37zM98 25v653q0 25 24 25h203q160 0 256.5 -93.5t96.5 -257.5q0 -166 -96 -259t-257 -93h-203q-24 0 -24 25
zM167 62h151q132 0 210 75.5t78 214.5q0 138 -78 213.5t-210 75.5h-151v-579z" />
    <glyph glyph-name="dcaron" unicode="&#x10f;" horiz-adv-x="581" 
d="M567 685q0 17 22 17h15q29 0 29 -51q0 -31 -12 -61.5t-32 -30.5h-6q-22 0 -22 16q0 2 5 20.5t5 42.5q0 16 -2 28t-2 19zM45 252q0 118 63 190.5t163 72.5q34 0 63.5 -10.5t47.5 -25.5t31 -29.5t18 -25.5l5 -10h2q-3 17 -3 38v226q0 25 25 25h19q24 0 24 -25v-653
q0 -25 -24 -25h-17q-25 0 -25 24v38l4 31h-2l-5.5 -11t-18 -25.5t-32.5 -32t-50 -25t-69 -11.5q-100 0 -159.5 73t-59.5 191zM115 252q0 -92 44 -147.5t115 -55.5q69 0 116 51t47 152q0 83 -41.5 142t-118.5 59q-69 0 -115.5 -54.5t-46.5 -146.5z" />
    <glyph glyph-name="Dcroat" unicode="&#x110;" horiz-adv-x="731" 
d="M98 25v298h-35q-24 0 -24 25v11q0 24 19 24h40v295q0 25 25 25h202q160 0 256.5 -93.5t96.5 -257.5q0 -166 -96 -259t-257 -93h-202q-25 0 -25 25zM167 62h151q132 0 210 75.5t78 214.5q0 138 -78 213.5t-210 75.5h-151v-258h143q25 0 25 -24v-11q0 -25 -24 -25h-144
v-261z" />
    <glyph glyph-name="dcroat" unicode="&#x111;" horiz-adv-x="581" 
d="M45 252q0 118 63 190.5t163 72.5q34 0 63.5 -10t47 -24.5t30.5 -28.5t18 -24l5 -10h2q-2 17 -2 38v110h-107q-25 0 -25 23v6q0 22 25 22h107v61q0 25 25 25h19q24 0 24 -25v-61h55q25 0 25 -22v-6q0 -23 -20 -23h-60v-541q0 -25 -24 -25h-17q-25 0 -25 24v34l2 31h-2
l-5.5 -11t-17.5 -24.5t-32 -30.5t-49.5 -24t-68.5 -11q-100 0 -159.5 73t-59.5 191zM115 252q0 -92 44 -147.5t115 -55.5q69 0 116 51t47 152q0 83 -42 142.5t-118 59.5q-69 0 -115.5 -55t-46.5 -147z" />
    <glyph glyph-name="Emacron" unicode="&#x112;" horiz-adv-x="553" 
d="M98 25v653q0 25 24 25h347q25 0 25 -25v-12q0 -25 -25 -25h-302v-256h242q25 0 25 -24v-13q0 -25 -25 -25h-242v-261h320q25 0 25 -25v-12q0 -25 -25 -25h-365q-24 0 -24 25zM209 785q-25 0 -25 24v7q0 24 25 24h197q24 0 24 -24v-7q0 -24 -24 -24h-197z" />
    <glyph glyph-name="emacron" unicode="&#x113;" horiz-adv-x="544" 
d="M44 251q0 120 71.5 192t176.5 72q99 0 154.5 -65.5t55.5 -174.5q0 -11 -7.5 -18t-18.5 -7h-362q2 -93 58 -147t137 -54q73 0 132 46q21 13 33 -6l8 -12q11 -19 -7 -33q-76 -56 -168 -56q-113 0 -188 74t-75 189zM117 301h316q-3 76 -43.5 117t-99.5 41q-65 0 -113 -42
t-60 -116zM194 618q-25 0 -25 24v7q0 24 25 24h197q24 0 24 -24v-7q0 -24 -24 -24h-197z" />
    <glyph glyph-name="Ebreve" unicode="&#x114;" horiz-adv-x="553" 
d="M98 25v653q0 25 24 25h347q25 0 25 -25v-12q0 -25 -25 -25h-302v-256h242q25 0 25 -24v-13q0 -25 -25 -25h-242v-261h320q25 0 25 -25v-12q0 -25 -25 -25h-365q-24 0 -24 25zM306 749q-45 0 -80 29.5t-35 73.5q0 19 23 19h10q20 0 23 -18q6 -57 59 -57q54 0 60 57
q4 18 23 18h10q23 0 23 -19q0 -43 -34.5 -73t-81.5 -30z" />
    <glyph glyph-name="ebreve" unicode="&#x115;" horiz-adv-x="544" 
d="M44 251q0 120 71.5 192t176.5 72q99 0 154.5 -65.5t55.5 -174.5q0 -11 -7.5 -18t-18.5 -7h-362q2 -93 58 -147t137 -54q73 0 132 46q21 13 33 -6l8 -12q11 -19 -7 -33q-76 -56 -168 -56q-113 0 -188 74t-75 189zM117 301h316q-3 76 -43.5 117t-99.5 41q-65 0 -113 -42
t-60 -116zM291 582q-45 0 -80 29.5t-35 73.5q0 19 23 19h10q20 0 23 -18q6 -57 59 -57q54 0 60 57q4 18 23 18h10q23 0 23 -19q0 -43 -34.5 -73t-81.5 -30z" />
    <glyph glyph-name="Edotaccent" unicode="&#x116;" horiz-adv-x="553" 
d="M98 25v653q0 25 24 25h347q25 0 25 -25v-12q0 -25 -25 -25h-302v-256h242q25 0 25 -24v-13q0 -25 -25 -25h-242v-261h320q25 0 25 -25v-12q0 -25 -25 -25h-365q-24 0 -24 25zM298 786q-24 0 -24 25v35q0 25 24 25h17q24 0 24 -25v-35q0 -25 -24 -25h-17z" />
    <glyph glyph-name="edotaccent" unicode="&#x117;" horiz-adv-x="544" 
d="M44 251q0 120 71.5 192t176.5 72q99 0 154.5 -65.5t55.5 -174.5q0 -11 -7.5 -18t-18.5 -7h-362q2 -93 58 -147t137 -54q73 0 132 46q21 13 33 -6l8 -12q11 -19 -7 -33q-76 -56 -168 -56q-113 0 -188 74t-75 189zM117 301h316q-3 76 -43.5 117t-99.5 41q-65 0 -113 -42
t-60 -116zM283 619q-24 0 -24 25v35q0 25 24 25h17q24 0 24 -25v-35q0 -25 -24 -25h-17z" />
    <glyph glyph-name="Eogonek" unicode="&#x118;" horiz-adv-x="553" 
d="M98 25v653q0 25 24 25h347q25 0 25 -25v-12q0 -25 -25 -25h-302v-256h242q25 0 25 -24v-13q0 -25 -25 -25h-242v-261h320q25 0 25 -25v-14q0 -13 -20 -31.5t-40 -42t-20 -49.5q0 -33 46 -48q17 -6 14 -25l-2 -11q-3 -22 -26 -18q-35 6 -64.5 27t-29.5 63q0 59 65 112
h-313q-24 0 -24 25z" />
    <glyph glyph-name="eogonek" unicode="&#x119;" horiz-adv-x="544" 
d="M44 251q0 120 71.5 192t176.5 72q100 0 155 -67.5t55 -173.5q0 -11 -7 -17.5t-18 -6.5h-363q2 -93 58 -147t137 -54q73 0 132 46q22 14 34 -7l6 -10q11 -19 -5 -34q-7 -6 -37 -28.5t-45.5 -35.5t-31 -36t-15.5 -44q0 -33 46 -48q18 -6 14 -25l-2 -11q-5 -21 -26 -18
q-34 5 -64 27t-30 62q0 53 56 105q-22 -4 -34 -4q-113 0 -188 74t-75 189zM117 301h316q-3 76 -43 116.5t-100 40.5q-65 0 -113 -41.5t-60 -115.5z" />
    <glyph glyph-name="Ecaron" unicode="&#x11a;" horiz-adv-x="553" 
d="M288 752q-18 0 -30 16l-52 73q-8 13 -4.5 21.5t17.5 8.5h15q18 0 28 -16l44 -64h2l44 64q10 16 27 16h16q14 0 17.5 -8.5t-5.5 -21.5l-51 -73q-13 -16 -31 -16h-37zM98 25v653q0 25 24 25h347q25 0 25 -25v-12q0 -25 -25 -25h-302v-256h242q25 0 25 -24v-13
q0 -25 -25 -25h-242v-261h320q25 0 25 -25v-12q0 -25 -25 -25h-365q-24 0 -24 25z" />
    <glyph glyph-name="ecaron" unicode="&#x11b;" horiz-adv-x="544" 
d="M273 585q-18 0 -30 16l-52 73q-8 13 -4.5 21.5t17.5 8.5h15q18 0 28 -16l44 -64h2l44 64q10 16 27 16h16q14 0 17.5 -8.5t-5.5 -21.5l-51 -73q-13 -16 -31 -16h-37zM44 251q0 120 71.5 192t176.5 72q99 0 154.5 -65.5t55.5 -174.5q0 -11 -7.5 -18t-18.5 -7h-362
q2 -93 58 -147t137 -54q73 0 132 46q21 13 33 -6l8 -12q11 -19 -7 -33q-76 -56 -168 -56q-113 0 -188 74t-75 189zM117 301h316q-3 76 -43.5 117t-99.5 41q-65 0 -113 -42t-60 -116z" />
    <glyph glyph-name="Gcircumflex" unicode="&#x11c;" horiz-adv-x="748" 
d="M306 752q-14 0 -17.5 8.5t4.5 21.5l52 73q12 16 30 16h37q18 0 31 -16l51 -73q9 -13 6 -21.5t-17 -8.5h-17q-17 0 -27 17l-44 64h-2l-44 -64q-10 -17 -28 -17h-15zM51 351q0 154 101.5 259t253.5 105q135 0 231 -67q20 -15 4 -34l-9 -13q-14 -20 -34 -6q-87 55 -190 55
q-126 0 -205.5 -85.5t-79.5 -211.5q0 -129 79.5 -214.5t199.5 -85.5q39 0 76.5 10.5t63 25.5t45 30.5t28.5 26.5l9 10v118h-96q-24 0 -24 25v12q0 25 24 25h137q24 0 24 -25v-286q0 -25 -24 -25h-14q-25 0 -25 22v36l1 26h-2q-3 -4 -9.5 -10.5t-28.5 -23t-46.5 -29
t-63.5 -23t-81 -10.5q-146 0 -245.5 104t-99.5 259z" />
    <glyph glyph-name="gcircumflex" unicode="&#x11d;" horiz-adv-x="574" 
d="M192 585q-14 0 -17.5 8.5t4.5 21.5l52 73q12 16 30 16h37q18 0 31 -16l51 -73q9 -13 6 -21.5t-17 -8.5h-17q-17 0 -27 17l-44 64h-2l-44 -64q-10 -17 -28 -17h-15zM107 -134q10 19 32 11q57 -26 117 -26q75 0 124 39.5t49 118.5v52l3 36h-2q-49 -94 -160 -94
q-101 0 -162.5 72t-61.5 189q0 113 59.5 182t162.5 69q36 0 66.5 -9.5t47.5 -23t29 -27t17 -23.5l4 -9h2q-2 7 -2 17v41q0 22 24 22h16q25 0 25 -25v-466q0 -112 -69.5 -167t-169.5 -55q-79 0 -145 30q-22 10 -12 32zM280 64q66 0 108 46.5t42 148.5q0 104 -43 149.5
t-113 45.5q-76 0 -117 -50t-41 -138q0 -94 44.5 -148t119.5 -54z" />
    <glyph glyph-name="Gbreve" unicode="&#x11e;" horiz-adv-x="748" 
d="M51 351q0 154 101.5 259t253.5 105q135 0 231 -67q20 -15 4 -34l-9 -13q-14 -20 -34 -6q-87 55 -190 55q-126 0 -205.5 -85.5t-79.5 -211.5q0 -129 79.5 -214.5t199.5 -85.5q39 0 76.5 10.5t63 25.5t45 30.5t28.5 26.5l9 10v118h-96q-24 0 -24 25v12q0 25 24 25h137
q24 0 24 -25v-286q0 -25 -24 -25h-14q-25 0 -25 22v36l1 26h-2q-3 -4 -9.5 -10.5t-28.5 -23t-46.5 -29t-63.5 -23t-81 -10.5q-146 0 -245.5 104t-99.5 259zM394 749q-45 0 -80 29.5t-35 73.5q0 19 23 19h10q20 0 23 -18q6 -57 59 -57q54 0 60 57q4 18 23 18h10q23 0 23 -19
q0 -43 -34.5 -73t-81.5 -30z" />
    <glyph glyph-name="gbreve" unicode="&#x11f;" horiz-adv-x="574" 
d="M107 -134q10 19 32 11q57 -26 117 -26q75 0 124 39.5t49 118.5v52l3 36h-2q-49 -94 -160 -94q-101 0 -162.5 72t-61.5 189q0 113 59.5 182t162.5 69q36 0 66.5 -9.5t47.5 -23t29 -27t17 -23.5l4 -9h2q-2 7 -2 17v41q0 22 24 22h16q25 0 25 -25v-466q0 -112 -69.5 -167
t-169.5 -55q-79 0 -145 30q-22 10 -12 32zM280 64q66 0 108 46.5t42 148.5q0 104 -43 149.5t-113 45.5q-76 0 -117 -50t-41 -138q0 -94 44.5 -148t119.5 -54zM279 582q-45 0 -80 29.5t-35 73.5q0 19 23 19h10q20 0 23 -18q6 -57 59 -57q54 0 60 57q4 18 23 18h10
q23 0 23 -19q0 -43 -34.5 -73t-81.5 -30z" />
    <glyph glyph-name="Gdotaccent" unicode="&#x120;" horiz-adv-x="748" 
d="M51 351q0 154 101.5 259t253.5 105q135 0 231 -67q20 -15 4 -34l-9 -13q-14 -20 -34 -6q-87 55 -190 55q-126 0 -205.5 -85.5t-79.5 -211.5q0 -129 79.5 -214.5t199.5 -85.5q39 0 76.5 10.5t63 25.5t45 30.5t28.5 26.5l9 10v118h-96q-24 0 -24 25v12q0 25 24 25h137
q24 0 24 -25v-286q0 -25 -24 -25h-14q-25 0 -25 22v36l1 26h-2q-3 -4 -9.5 -10.5t-28.5 -23t-46.5 -29t-63.5 -23t-81 -10.5q-146 0 -245.5 104t-99.5 259zM386 786q-24 0 -24 25v35q0 25 24 25h17q24 0 24 -25v-35q0 -25 -24 -25h-17z" />
    <glyph glyph-name="gdotaccent" unicode="&#x121;" horiz-adv-x="574" 
d="M107 -134q10 19 32 11q57 -26 117 -26q75 0 124 39.5t49 118.5v52l3 36h-2q-49 -94 -160 -94q-101 0 -162.5 72t-61.5 189q0 113 59.5 182t162.5 69q36 0 66.5 -9.5t47.5 -23t29 -27t17 -23.5l4 -9h2q-2 7 -2 17v41q0 22 24 22h16q25 0 25 -25v-466q0 -112 -69.5 -167
t-169.5 -55q-79 0 -145 30q-22 10 -12 32zM280 64q66 0 108 46.5t42 148.5q0 104 -43 149.5t-113 45.5q-76 0 -117 -50t-41 -138q0 -94 44.5 -148t119.5 -54zM271 619q-24 0 -24 25v35q0 25 24 25h17q24 0 24 -25v-35q0 -25 -24 -25h-17z" />
    <glyph glyph-name="Gcommaaccent" unicode="&#x122;" horiz-adv-x="748" 
d="M363 -80q0 17 22 17h15q29 0 29 -51q0 -31 -12 -61.5t-32 -30.5h-6q-22 0 -22 16q0 2 5 20.5t5 42.5q0 17 -2 28.5t-2 18.5zM51 351q0 154 101.5 259t253.5 105q135 0 231 -67q20 -15 4 -34l-9 -13q-14 -20 -34 -6q-87 55 -190 55q-126 0 -205.5 -85.5t-79.5 -211.5
q0 -129 79.5 -214.5t199.5 -85.5q39 0 76.5 10.5t63 25.5t45 30.5t28.5 26.5l9 10v118h-96q-24 0 -24 25v12q0 25 24 25h137q24 0 24 -25v-286q0 -25 -24 -25h-14q-25 0 -25 22v36l1 26h-2q-3 -4 -9.5 -10.5t-28.5 -23t-46.5 -29t-63.5 -23t-81 -10.5q-146 0 -245.5 104
t-99.5 259z" />
    <glyph glyph-name="gcommaaccent" unicode="&#x123;" horiz-adv-x="574" 
d="M313 583q0 -17 -22 -17h-15q-29 0 -29 51q0 31 12 61.5t32 30.5h6q22 0 22 -16q0 -2 -5 -20.5t-5 -42.5q0 -16 2 -28t2 -19zM107 -134q10 19 32 11q57 -26 117 -26q75 0 124 39.5t49 118.5v52l3 36h-2q-49 -94 -160 -94q-101 0 -162.5 72t-61.5 189q0 113 59.5 182
t162.5 69q36 0 66.5 -9.5t47.5 -23t29 -27t17 -23.5l4 -9h2q-2 7 -2 17v41q0 22 24 22h16q25 0 25 -25v-466q0 -112 -69.5 -167t-169.5 -55q-79 0 -145 30q-22 10 -12 32zM280 64q66 0 108 46.5t42 148.5q0 104 -43 149.5t-113 45.5q-76 0 -117 -50t-41 -138
q0 -94 44.5 -148t119.5 -54z" />
    <glyph glyph-name="Hcircumflex" unicode="&#x124;" horiz-adv-x="742" 
d="M282 752q-14 0 -17.5 8.5t4.5 21.5l52 73q12 16 30 16h37q18 0 31 -16l51 -73q9 -13 6 -21.5t-17 -8.5h-17q-17 0 -27 17l-44 64h-2l-44 -64q-10 -17 -28 -17h-15zM98 25v653q0 25 24 25h21q24 0 24 -25v-295h408v295q0 25 24 25h20q25 0 25 -25v-653q0 -25 -25 -25h-20
q-24 0 -24 25v296h-408v-296q0 -25 -24 -25h-21q-24 0 -24 25z" />
    <glyph glyph-name="hcircumflex" unicode="&#x125;" horiz-adv-x="585" 
d="M28 752q-14 0 -17.5 8.5t4.5 21.5l52 73q12 16 30 16h37q18 0 31 -16l51 -73q9 -13 6 -21.5t-17 -8.5h-17q-17 0 -27 17l-44 64h-2l-44 -64q-10 -17 -28 -17h-15zM81 25v653q0 25 24 25h19q25 0 25 -25v-251l-4 -41h2q18 46 71.5 87.5t129.5 41.5q91 0 130 -49t39 -146
v-295q0 -25 -24 -25h-19q-25 0 -25 25v277q0 34 -3.5 57.5t-14.5 46t-34 34t-58 11.5q-80 0 -135 -59t-55 -149v-218q0 -25 -25 -25h-19q-24 0 -24 25z" />
    <glyph glyph-name="Hbar" unicode="&#x126;" horiz-adv-x="741" 
d="M99 25v487h-41q-25 0 -25 24v6q0 23 25 23h41v113q0 25 24 25h21q25 0 25 -23v-115h404v113q0 25 24 25h21q25 0 25 -23v-115h40q25 0 25 -23v-6q0 -24 -25 -24h-40v-487q0 -25 -25 -25h-21q-24 0 -24 25v296h-404v-296q0 -25 -25 -25h-21q-24 0 -24 25zM169 383h404v129
h-404v-129z" />
    <glyph glyph-name="hbar" unicode="&#x127;" horiz-adv-x="585" 
d="M78 25v541h-52q-25 0 -25 23v6q0 22 25 22h52v61q0 25 24 25h19q25 0 25 -20v-66h108q25 0 25 -22v-6q0 -23 -25 -23h-108v-135l-2 -41h2q18 45 70 85t129 40q91 0 130 -49t39 -146v-295q0 -25 -24 -25h-19q-25 0 -25 25v277q0 34 -3.5 57.5t-14.5 46t-34 34t-58 11.5
q-82 0 -136 -60t-54 -145v-221q0 -25 -25 -25h-19q-24 0 -24 25z" />
    <glyph glyph-name="Itilde" unicode="&#x128;" horiz-adv-x="265" 
d="M98 25v653q0 25 24 25h21q24 0 24 -25v-653q0 -25 -24 -25h-21q-24 0 -24 25zM2 755q-22 0 -22 26q0 40 24.5 65.5t63.5 25.5q23 0 42.5 -11t31 -25t26 -25t29.5 -11q18 0 28 14.5t11 35.5q0 19 23 19h8q21 0 21 -23q0 -43 -23.5 -68.5t-64.5 -25.5q-29 0 -52 18
t-41 35.5t-36 17.5t-28.5 -15t-10.5 -36q-2 -17 -23 -17h-7z" />
    <glyph glyph-name="itilde" unicode="&#x129;" horiz-adv-x="223" 
d="M77 25v453q0 25 25 25h19q24 0 24 -25v-453q0 -25 -24 -25h-19q-25 0 -25 25zM-19 588q-22 0 -22 26q0 40 24.5 65.5t63.5 25.5q23 0 42.5 -11.5t31 -24.5t26 -24.5t29.5 -11.5q18 0 28 14.5t11 35.5q0 19 23 19h8q21 0 21 -23q0 -43 -23.5 -68.5t-64.5 -25.5
q-23 0 -42.5 11t-31 24.5t-26 24.5t-29.5 11q-18 0 -28.5 -15t-10.5 -36q-2 -17 -23 -17h-7z" />
    <glyph glyph-name="Imacron" unicode="&#x12a;" horiz-adv-x="265" 
d="M98 25v653q0 25 24 25h21q24 0 24 -25v-653q0 -25 -24 -25h-21q-24 0 -24 25zM36 785q-25 0 -25 24v7q0 24 25 24h197q24 0 24 -24v-7q0 -24 -24 -24h-197z" />
    <glyph glyph-name="imacron" unicode="&#x12b;" horiz-adv-x="223" 
d="M77 25v453q0 25 25 25h19q24 0 24 -25v-453q0 -25 -24 -25h-19q-25 0 -25 25zM15 618q-25 0 -25 24v7q0 24 25 24h197q24 0 24 -24v-7q0 -24 -24 -24h-197z" />
    <glyph glyph-name="Ibreve" unicode="&#x12c;" horiz-adv-x="265" 
d="M98 25v653q0 25 24 25h21q24 0 24 -25v-653q0 -25 -24 -25h-21q-24 0 -24 25zM133 749q-45 0 -80 29.5t-35 73.5q0 19 23 19h10q20 0 23 -18q6 -57 59 -57q54 0 60 57q4 18 23 18h10q23 0 23 -19q0 -43 -34.5 -73t-81.5 -30z" />
    <glyph glyph-name="ibreve" unicode="&#x12d;" horiz-adv-x="223" 
d="M77 25v453q0 25 25 25h19q24 0 24 -25v-453q0 -25 -24 -25h-19q-25 0 -25 25zM112 582q-45 0 -80 29.5t-35 73.5q0 19 23 19h10q20 0 23 -18q6 -57 59 -57q54 0 60 57q4 18 23 18h10q23 0 23 -19q0 -43 -34.5 -73t-81.5 -30z" />
    <glyph glyph-name="Iogonek" unicode="&#x12e;" horiz-adv-x="265" 
d="M98 25v653q0 25 24 25h21q24 0 24 -25v-653q0 -12 -12 -27t-26.5 -27t-26.5 -31.5t-12 -39.5q0 -33 46 -48q18 -6 14 -25l-2 -11q-5 -21 -25 -18q-35 6 -64.5 27t-29.5 63q0 35 24.5 67t53.5 51q-9 5 -9 19z" />
    <glyph glyph-name="iogonek" unicode="&#x12f;" horiz-adv-x="224" 
d="M100 618q-25 0 -25 24v36q0 25 25 25h25q24 0 24 -25v-36q0 -24 -24 -24h-25zM78 25v453q0 25 25 25h19q24 0 24 -25v-453q0 -15 -19 -34t-38 -42t-19 -49q0 -33 45 -48q18 -6 14 -25l-1 -11q-5 -21 -26 -18q-35 6 -64.5 27t-29.5 63q0 35 24.5 67t53.5 51q-8 5 -8 19z
" />
    <glyph glyph-name="Idotaccent" unicode="&#x130;" horiz-adv-x="265" 
d="M98 25v653q0 25 24 25h21q24 0 24 -25v-653q0 -25 -24 -25h-21q-24 0 -24 25zM125 786q-24 0 -24 25v35q0 25 24 25h17q24 0 24 -25v-35q0 -25 -24 -25h-17z" />
    <glyph glyph-name="dotlessi" unicode="&#x131;" horiz-adv-x="223" 
d="M77 25v453q0 25 25 25h19q24 0 24 -25v-453q0 -25 -24 -25h-19q-25 0 -25 25z" />
    <glyph glyph-name="IJ" unicode="&#x132;" horiz-adv-x="574" 
d="M268 21v16q0 21 23 26q123 13 123 165v450q0 25 25 25h21q24 0 24 -25v-452q0 -64 -17.5 -111t-46.5 -71.5t-60.5 -35.5t-66.5 -11q-25 0 -25 24zM98 25v653q0 25 24 25h21q24 0 24 -25v-653q0 -25 -24 -25h-21q-24 0 -24 25z" />
    <glyph glyph-name="ij" unicode="&#x133;" horiz-adv-x="455" 
d="M99 618q-24 0 -24 24v36q0 25 24 25h25q24 0 24 -25v-36q0 -24 -24 -24h-25zM77 25v453q0 25 25 25h19q24 0 24 -25v-453q0 -25 -24 -25h-19q-25 0 -25 25zM330 618q-24 0 -24 24v36q0 25 24 25h25q24 0 24 -25v-36q0 -24 -24 -24h-25zM309 -16v494q0 25 24 25h19
q25 0 25 -25v-496q0 -57 -19 -97.5t-49 -58.5t-54.5 -25t-47.5 -7h-10q-25 0 -25 25v11q0 22 25 24q20 1 36 6t35.5 17.5t30 39.5t10.5 67z" />
    <glyph glyph-name="Jcircumflex" unicode="&#x134;" horiz-adv-x="511" 
d="M211 752q-14 0 -17.5 8.5t4.5 21.5l52 73q12 16 30 16h37q18 0 31 -16l51 -73q9 -13 6 -21.5t-17 -8.5h-17q-17 0 -27 17l-44 64h-2l-44 -64q-10 -17 -28 -17h-15zM26 201q0 24 24 24h22q12 0 16.5 -5.5t6.5 -21.5q7 -145 128 -145q54 0 91 34.5t37 109.5v444h-147
q-24 0 -24 25v12q0 25 24 25h192q25 0 25 -25v-481q0 -106 -58 -157.5t-140 -51.5t-139.5 52.5t-57.5 160.5z" />
    <glyph glyph-name="jcircumflex" unicode="&#x135;" horiz-adv-x="223" 
d="M21 584q-14 0 -17.5 8.5t4.5 21.5l52 73q12 16 30 16h37q18 0 30 -16l52 -73q8 -13 4.5 -21.5t-16.5 -8.5h-16q-17 0 -27 17l-44 64h-2l-45 -64q-10 -17 -27 -17h-15zM78 -16v494q0 25 24 25h19q25 0 25 -25v-496q0 -57 -19 -97.5t-49 -58.5t-54.5 -25t-47.5 -7h-10
q-25 0 -25 25v11q0 22 25 24q21 1 37 6t35 17.5t29.5 39.5t10.5 67z" />
    <glyph glyph-name="Kcommaaccent" unicode="&#x136;" horiz-adv-x="583" 
d="M273 -80q0 17 22 17h15q29 0 29 -51q0 -31 -12 -61.5t-32 -30.5h-6q-22 0 -22 16q0 2 5 20.5t5 42.5q0 17 -2 28.5t-2 18.5zM98 25v653q0 25 24 25h21q24 0 24 -25v-280h119l179 288q10 17 29 17h25q15 0 20 -8.5t-3 -21.5l-192 -302v-2l206 -340q8 -12 3 -20.5t-19 -8.5
h-28q-19 0 -29 17l-191 319h-119v-311q0 -25 -24 -25h-21q-24 0 -24 25z" />
    <glyph glyph-name="kcommaaccent" unicode="&#x137;" horiz-adv-x="486" 
d="M224 -80q0 17 22 17h15q29 0 29 -51q0 -31 -12 -61.5t-32 -30.5h-6q-22 0 -22 16q0 2 5 20.5t5 42.5q0 17 -2 28.5t-2 18.5zM78 25v653q0 25 24 25h19q25 0 25 -25v-367h81l139 177q12 15 30 15h25q15 0 19.5 -9t-5.5 -21l-152 -189v-2l174 -252q8 -13 3.5 -21.5
t-20.5 -8.5h-26q-19 0 -29 17l-157 234h-82v-226q0 -25 -25 -25h-19q-24 0 -24 25z" />
    <glyph glyph-name="kgreenlandic" unicode="&#x138;" horiz-adv-x="485" 
d="M77 25v453q0 25 25 25h19q24 0 24 -25v-181h79l149 190q12 16 30 16h26q16 0 20.5 -9t-4.5 -21l-162 -203v-2l164 -238q8 -13 3.5 -21.5t-19.5 -8.5h-29q-19 0 -29 17l-148 221h-80v-213q0 -25 -24 -25h-19q-25 0 -25 25z" />
    <glyph glyph-name="Lacute" unicode="&#x139;" horiz-adv-x="499" 
d="M133 752q-14 0 -19 8.5t3 19.5l44 74q10 17 29 17h23q16 0 19.5 -8.5t-5.5 -21.5l-53 -73q-12 -16 -30 -16h-11zM98 25v653q0 25 24 25h21q24 0 24 -25v-616h301q25 0 25 -25v-12q0 -25 -25 -25h-346q-24 0 -24 25z" />
    <glyph glyph-name="lacute" unicode="&#x13a;" horiz-adv-x="244" 
d="M114 752q-14 0 -19 8.5t3 19.5l44 74q10 17 29 17h23q16 0 19.5 -8.5t-5.5 -21.5l-53 -73q-12 -16 -30 -16h-11zM78 119v559q0 25 24 25h19q25 0 25 -25v-547q0 -29 9.5 -46t18.5 -21t24 -6q21 -2 21 -22v-15q0 -25 -26 -25q-15 0 -28 2t-30 9.5t-28.5 20.5t-20 36.5
t-8.5 54.5z" />
    <glyph glyph-name="Lcommaaccent" unicode="&#x13b;" horiz-adv-x="499" 
d="M269 -80q0 17 22 17h15q29 0 29 -51q0 -31 -12 -61.5t-32 -30.5h-6q-22 0 -22 16q0 2 5 20.5t5 42.5q0 17 -2 28.5t-2 18.5zM98 25v653q0 25 24 25h21q24 0 24 -25v-616h301q25 0 25 -25v-12q0 -25 -25 -25h-346q-24 0 -24 25z" />
    <glyph glyph-name="lcommaaccent" unicode="&#x13c;" horiz-adv-x="244" 
d="M114 -80q0 17 22 17h15q29 0 29 -51q0 -31 -12 -61.5t-32 -30.5h-6q-22 0 -22 16q0 2 5 20.5t5 42.5q0 17 -2 28.5t-2 18.5zM78 119v559q0 25 24 25h19q25 0 25 -25v-547q0 -29 9.5 -46t18.5 -21t24 -6q21 -2 21 -22v-15q0 -25 -26 -25q-15 0 -28 2t-30 9.5t-28.5 20.5
t-20 36.5t-8.5 54.5z" />
    <glyph glyph-name="Lcaron" unicode="&#x13d;" horiz-adv-x="499" 
d="M260 685q0 17 22 17h15q29 0 29 -51q0 -31 -12 -61.5t-32 -30.5h-6q-22 0 -22 16q0 2 5 20.5t5 42.5q0 16 -2 28t-2 19zM98 25v653q0 25 24 25h21q24 0 24 -25v-616h301q25 0 25 -25v-12q0 -25 -25 -25h-346q-24 0 -24 25z" />
    <glyph glyph-name="lcaron" unicode="&#x13e;" horiz-adv-x="244" 
d="M211 685q0 17 22 17h15q29 0 29 -51q0 -31 -12 -61.5t-32 -30.5h-6q-22 0 -22 16q0 2 5 20.5t5 42.5q0 16 -2 28t-2 19zM78 119v559q0 25 24 25h19q25 0 25 -25v-547q0 -29 9.5 -46t18.5 -21t24 -6q21 -2 21 -22v-15q0 -25 -26 -25q-15 0 -28 2t-30 9.5t-28.5 20.5
t-20 36.5t-8.5 54.5z" />
    <glyph glyph-name="Ldot" unicode="&#x13f;" horiz-adv-x="499" 
d="M98 25v653q0 25 24 25h21q24 0 24 -25v-616h301q25 0 25 -25v-12q0 -25 -25 -25h-346q-24 0 -24 25zM317 330q-25 0 -25 24v34q0 25 25 25h31q24 0 24 -25v-34q0 -24 -24 -24h-31z" />
    <glyph glyph-name="ldot" unicode="&#x140;" horiz-adv-x="277" 
d="M78 119v559q0 25 24 25h19q25 0 25 -25v-547q0 -29 9.5 -46t18.5 -21t24 -6q21 -2 21 -22v-15q0 -25 -26 -25q-15 0 -28 2t-30 9.5t-28.5 20.5t-20 36.5t-8.5 54.5zM235 330q-25 0 -25 24v34q0 25 25 25h31q24 0 24 -25v-34q0 -24 -24 -24h-31z" />
    <glyph glyph-name="Lslash" unicode="&#x141;" horiz-adv-x="499" 
d="M98 25v312l-37 -20q-10 -6 -17.5 -1t-7.5 19v17q0 20 15 29l47 27v270q0 25 25 25h20q24 0 24 -25v-230l84 48q12 8 20.5 3t8.5 -20v-17q0 -19 -17 -30l-96 -55v-315h302q24 0 24 -25v-12q0 -25 -24 -25h-346q-25 0 -25 25z" />
    <glyph glyph-name="lslash" unicode="&#x142;" horiz-adv-x="253" 
d="M85 119v233l-56 -31q-11 -7 -18 -1.5t-7 19.5v17q0 21 14 29l67 38v255q0 25 24 25h19q25 0 25 -25v-215l58 33q13 8 21 3t8 -20v-17q0 -20 -16 -30l-71 -41v-260q0 -29 9.5 -46t18.5 -21t24 -6q21 -2 21 -22v-15q0 -25 -26 -25q-15 0 -28 2t-30 9.5t-28.5 20.5t-20 36.5
t-8.5 54.5z" />
    <glyph glyph-name="Nacute" unicode="&#x143;" horiz-adv-x="745" 
d="M372 752q-14 0 -19 8.5t3 19.5l44 74q10 17 29 17h23q16 0 19.5 -8.5t-5.5 -21.5l-53 -73q-12 -16 -30 -16h-11zM98 25v653q0 25 24 25h24q18 0 30 -16l348 -490l58 -95h2q-6 58 -6 95v481q0 25 25 25h20q24 0 24 -25v-653q0 -25 -24 -25h-24q-19 0 -29 16l-349 490
l-58 95h-2q6 -58 6 -95v-481q0 -25 -24 -25h-21q-24 0 -24 25z" />
    <glyph glyph-name="nacute" unicode="&#x144;" horiz-adv-x="584" 
d="M305 585q-14 0 -19 8.5t3 19.5l44 74q10 17 29 17h23q16 0 19.5 -8.5t-5.5 -21.5l-53 -73q-12 -16 -30 -16h-11zM77 25v453q0 25 25 25h18q24 0 24 -25v-58l-4 -36h2q19 46 71.5 88.5t131.5 42.5q91 0 130 -49t39 -146v-295q0 -25 -25 -25h-19q-24 0 -24 25v277
q0 71 -22 110t-88 39q-81 0 -136 -59t-55 -146v-221q0 -25 -24 -25h-19q-25 0 -25 25z" />
    <glyph glyph-name="Ncommaaccent" unicode="&#x145;" horiz-adv-x="745" 
d="M339 -80q0 17 22 17h15q29 0 29 -51q0 -31 -12 -61.5t-32 -30.5h-6q-22 0 -22 16q0 2 5 20.5t5 42.5q0 17 -2 28.5t-2 18.5zM98 25v653q0 25 24 25h24q18 0 30 -16l348 -490l58 -95h2q-6 58 -6 95v481q0 25 25 25h20q24 0 24 -25v-653q0 -25 -24 -25h-24q-19 0 -29 16
l-349 490l-58 95h-2q6 -58 6 -95v-481q0 -25 -24 -25h-21q-24 0 -24 25z" />
    <glyph glyph-name="ncommaaccent" unicode="&#x146;" horiz-adv-x="584" 
d="M262 -80q0 17 22 17h15q29 0 29 -51q0 -31 -12 -61.5t-32 -30.5h-6q-22 0 -22 16q0 2 5 20.5t5 42.5q0 17 -2 28.5t-2 18.5zM77 25v453q0 25 25 25h18q24 0 24 -25v-58l-4 -36h2q19 46 71.5 88.5t131.5 42.5q91 0 130 -49t39 -146v-295q0 -25 -25 -25h-19q-24 0 -24 25
v277q0 71 -22 110t-88 39q-81 0 -136 -59t-55 -146v-221q0 -25 -24 -25h-19q-25 0 -25 25z" />
    <glyph glyph-name="Ncaron" unicode="&#x147;" horiz-adv-x="745" 
d="M353 752q-18 0 -30 16l-52 73q-8 13 -4.5 21.5t17.5 8.5h15q18 0 28 -16l44 -64h2l44 64q10 16 27 16h16q14 0 17.5 -8.5t-5.5 -21.5l-51 -73q-13 -16 -31 -16h-37zM98 25v653q0 25 24 25h24q18 0 30 -16l348 -490l58 -95h2q-6 58 -6 95v481q0 25 25 25h20q24 0 24 -25
v-653q0 -25 -24 -25h-24q-19 0 -29 16l-349 490l-58 95h-2q6 -58 6 -95v-481q0 -25 -24 -25h-21q-24 0 -24 25z" />
    <glyph glyph-name="ncaron" unicode="&#x148;" horiz-adv-x="584" 
d="M286 585q-18 0 -30 16l-52 73q-8 13 -4.5 21.5t17.5 8.5h15q18 0 28 -16l44 -64h2l44 64q10 16 27 16h16q14 0 17.5 -8.5t-5.5 -21.5l-51 -73q-13 -16 -31 -16h-37zM77 25v453q0 25 25 25h18q24 0 24 -25v-58l-4 -36h2q19 46 71.5 88.5t131.5 42.5q91 0 130 -49t39 -146
v-295q0 -25 -25 -25h-19q-24 0 -24 25v277q0 71 -22 110t-88 39q-81 0 -136 -59t-55 -146v-221q0 -25 -24 -25h-19q-25 0 -25 25z" />
    <glyph glyph-name="napostrophe" unicode="&#x149;" horiz-adv-x="584" 
d="M16 685q0 17 22 17h15q29 0 29 -51q0 -31 -12 -61.5t-32 -30.5h-6q-22 0 -22 16q0 2 5 20.5t5 42.5q0 16 -2 28t-2 19zM77 25v453q0 25 25 25h18q24 0 24 -25v-58l-4 -36h2q19 46 71.5 88.5t131.5 42.5q91 0 130 -49t39 -146v-295q0 -25 -25 -25h-19q-24 0 -24 25v277
q0 71 -22 110t-88 39q-81 0 -136 -59t-55 -146v-221q0 -25 -24 -25h-19q-25 0 -25 25z" />
    <glyph glyph-name="Eng" unicode="&#x14a;" horiz-adv-x="745" 
d="M98 25v653q0 25 24 25h24q18 0 30 -16l348 -490l58 -95h2q-6 58 -6 95v481q0 25 25 25h20q24 0 24 -25v-681q0 -102 -51.5 -150t-129.5 -52q-26 -2 -26 24v14q0 23 24 25q115 10 115 145l-358 503l-58 95h-2q6 -58 6 -95v-481q0 -25 -24 -25h-21q-24 0 -24 25z" />
    <glyph glyph-name="eng" unicode="&#x14b;" horiz-adv-x="586" 
d="M77 25v453q0 25 25 25h18q24 0 24 -25v-58l-4 -36h2q19 46 71.5 88.5t131.5 42.5q91 0 130 -49t39 -146v-338q0 -57 -19 -97.5t-49 -58.5t-54.5 -25t-47.5 -7h-10q-25 0 -25 25v11q0 22 25 24q21 1 37 6t35 17.5t29.5 39.5t10.5 67v318q0 71 -22 110t-88 39
q-81 0 -136 -59t-55 -146v-221q0 -25 -24 -25h-19q-25 0 -25 25z" />
    <glyph glyph-name="Omacron" unicode="&#x14c;" horiz-adv-x="817" 
d="M310 785q-25 0 -25 24v7q0 24 25 24h197q24 0 24 -24v-7q0 -24 -24 -24h-197zM50 356q0 152 102.5 255.5t255.5 103.5q154 0 256 -103.5t102 -255.5q0 -156 -102 -262t-256 -106q-153 0 -255.5 106.5t-102.5 261.5zM122 356q0 -129 81.5 -216t204.5 -87t204.5 87
t81.5 216q0 126 -81.5 210t-204.5 84t-204.5 -84t-81.5 -210z" />
    <glyph glyph-name="omacron" unicode="&#x14d;" horiz-adv-x="615" 
d="M209 618q-25 0 -25 24v7q0 24 25 24h197q24 0 24 -24v-7q0 -24 -24 -24h-197zM42 254q0 111 77.5 186t187.5 75q111 0 188.5 -75t77.5 -186q0 -113 -77.5 -189.5t-187.5 -76.5q-111 0 -188.5 76.5t-77.5 189.5zM112 254q0 -87 57 -146t139 -59q81 0 138 59t57 146
q0 85 -57 142.5t-138 57.5q-82 0 -139 -57.5t-57 -142.5z" />
    <glyph glyph-name="Obreve" unicode="&#x14e;" horiz-adv-x="817" 
d="M50 356q0 152 102.5 255.5t255.5 103.5q154 0 256 -103.5t102 -255.5q0 -156 -102 -262t-256 -106q-153 0 -255.5 106.5t-102.5 261.5zM122 356q0 -129 81.5 -216t204.5 -87t204.5 87t81.5 216q0 126 -81.5 210t-204.5 84t-204.5 -84t-81.5 -210zM407 749q-45 0 -80 29.5
t-35 73.5q0 19 23 19h10q20 0 23 -18q6 -57 59 -57q54 0 60 57q4 18 23 18h10q23 0 23 -19q0 -43 -34.5 -73t-81.5 -30z" />
    <glyph glyph-name="obreve" unicode="&#x14f;" horiz-adv-x="615" 
d="M42 254q0 111 77.5 186t187.5 75q111 0 188.5 -75t77.5 -186q0 -113 -77.5 -189.5t-187.5 -76.5q-111 0 -188.5 76.5t-77.5 189.5zM112 254q0 -87 57 -146t139 -59q81 0 138 59t57 146q0 85 -57 142.5t-138 57.5q-82 0 -139 -57.5t-57 -142.5zM307 582q-45 0 -80 29.5
t-35 73.5q0 19 23 19h10q20 0 23 -18q6 -57 59 -57q54 0 60 57q4 18 23 18h10q23 0 23 -19q0 -43 -34.5 -73t-81.5 -30z" />
    <glyph glyph-name="Ohungarumlaut" unicode="&#x150;" horiz-adv-x="817" 
d="M462 752q-15 0 -19.5 8.5t2.5 20.5l44 73q10 17 29 17h22q15 0 18.5 -8.5t-5.5 -21.5l-52 -73q-13 -16 -30 -16h-9zM328 752q-14 0 -19 8.5t2 20.5l40 72q9 18 29 18h15q15 0 19.5 -8.5t-3.5 -20.5l-41 -72q-10 -18 -29 -18h-13zM50 356q0 152 102.5 255.5t255.5 103.5
q154 0 256 -103.5t102 -255.5q0 -156 -102 -262t-256 -106q-153 0 -255.5 106.5t-102.5 261.5zM122 356q0 -129 81.5 -216t204.5 -87t204.5 87t81.5 216q0 126 -81.5 210t-204.5 84t-204.5 -84t-81.5 -210z" />
    <glyph glyph-name="ohungarumlaut" unicode="&#x151;" horiz-adv-x="615" 
d="M361 585q-15 0 -19.5 8.5t2.5 20.5l44 73q10 17 29 17h22q15 0 18.5 -8.5t-5.5 -21.5l-52 -73q-13 -16 -30 -16h-9zM227 585q-14 0 -19 8.5t2 20.5l40 72q9 18 29 18h15q15 0 19.5 -8.5t-3.5 -20.5l-41 -72q-11 -18 -29 -18h-13zM42 254q0 111 77.5 186t187.5 75
q111 0 188.5 -75t77.5 -186q0 -113 -77.5 -189.5t-187.5 -76.5q-111 0 -188.5 76.5t-77.5 189.5zM112 254q0 -87 57 -146t139 -59q81 0 138 59t57 146q0 85 -57 142.5t-138 57.5q-82 0 -139 -57.5t-57 -142.5z" />
    <glyph glyph-name="OE" unicode="&#x152;" horiz-adv-x="934" 
d="M50 352q0 153 102 257t257 104q22 0 63 -5t56 -5h323q24 0 24 -25v-12q0 -25 -24 -25h-303v-256h243q24 0 24 -24v-13q0 -25 -24 -25h-243v-261h321q24 0 24 -25v-12q0 -25 -24 -25h-340q-14 0 -56 -5t-64 -5q-155 0 -257 104t-102 258zM122 352q0 -128 80 -213.5
t207 -85.5q17 0 34.5 2t26.5 4l9 2v581q-32 8 -70 8q-127 0 -207 -85t-80 -213z" />
    <glyph glyph-name="oe" unicode="&#x153;" horiz-adv-x="1003" 
d="M43 250q0 117 76.5 191t186.5 74q75 0 135 -36t92 -99h2q30 64 86.5 99.5t129.5 35.5q99 0 155 -65.5t56 -174.5q0 -10 -7.5 -17.5t-18.5 -7.5h-362q4 -95 59.5 -148t135.5 -53q75 0 131 46q22 14 34 -6l6 -11q12 -21 -6 -34q-73 -56 -168 -56q-78 0 -138.5 36.5
t-90.5 100.5h-2q-32 -64 -92 -100.5t-137 -36.5q-110 0 -186.5 73t-76.5 189zM577 301h315q-3 75 -43 116t-99 41q-65 0 -113 -41.5t-60 -115.5zM113 250q0 -89 56.5 -145t137.5 -56q83 0 139.5 56.5t56.5 148.5q0 89 -57.5 144.5t-138.5 55.5t-137.5 -57t-56.5 -147z" />
    <glyph glyph-name="Racute" unicode="&#x154;" horiz-adv-x="609" 
d="M297 752q-14 0 -19 8.5t3 19.5l44 74q10 17 29 17h23q16 0 19.5 -8.5t-5.5 -21.5l-53 -73q-12 -16 -30 -16h-11zM98 25v653q0 25 24 25h190q85 0 128 -20q104 -50 104 -176q0 -71 -36.5 -124t-96.5 -70v-2q7 -9 18 -28l137 -254q7 -13 2 -21t-19 -8h-26q-20 0 -29 17
l-150 279h-177v-271q0 -25 -24 -25h-21q-24 0 -24 25zM167 358h167q63 0 101 40.5t38 106.5q0 42 -19.5 74.5t-54.5 48.5q-29 13 -92 13h-140v-283z" />
    <glyph glyph-name="racute" unicode="&#x155;" horiz-adv-x="338" 
d="M210 584q-14 0 -19 8.5t3 19.5l44 74q10 17 29 17h23q16 0 19.5 -8.5t-5.5 -21.5l-53 -73q-12 -16 -30 -16h-11zM77 25v453q0 25 25 25h18q24 0 24 -25v-68l-4 -40h2q19 58 62 97t100 39q26 0 26 -24v-18q0 -25 -28 -25q-74 0 -115.5 -69t-41.5 -157v-188q0 -25 -24 -25
h-19q-25 0 -25 25z" />
    <glyph glyph-name="Rcommaaccent" unicode="&#x156;" horiz-adv-x="608" 
d="M285 -80q0 17 22 17h15q29 0 29 -51q0 -31 -12 -61.5t-32 -30.5h-6q-22 0 -22 16q0 2 5 20.5t5 42.5q0 17 -2 28.5t-2 18.5zM98 25v653q0 25 24 25h190q85 0 128 -20q104 -50 104 -176q0 -71 -36.5 -124t-96.5 -70v-2q7 -9 18 -28l137 -254q7 -13 2 -21t-19 -8h-26
q-20 0 -29 17l-150 279h-177v-271q0 -25 -24 -25h-21q-24 0 -24 25zM167 358h167q63 0 101 40.5t38 106.5q0 42 -19.5 74.5t-54.5 48.5q-29 13 -92 13h-140v-283z" />
    <glyph glyph-name="rcommaaccent" unicode="&#x157;" horiz-adv-x="338" 
d="M81 -80q0 17 22 17h15q29 0 29 -51q0 -31 -12 -61.5t-32 -30.5h-6q-22 0 -22 16q0 2 5 20.5t5 42.5q0 17 -2 28.5t-2 18.5zM77 25v453q0 25 25 25h18q24 0 24 -25v-68l-4 -40h2q19 58 62 97t100 39q26 0 26 -24v-18q0 -25 -28 -25q-74 0 -115.5 -69t-41.5 -157v-188
q0 -25 -24 -25h-19q-25 0 -25 25z" />
    <glyph glyph-name="Rcaron" unicode="&#x158;" horiz-adv-x="609" 
d="M279 752q-18 0 -30 16l-52 73q-8 13 -4.5 21.5t17.5 8.5h15q18 0 28 -16l44 -64h2l44 64q10 16 27 16h16q14 0 17.5 -8.5t-5.5 -21.5l-51 -73q-13 -16 -31 -16h-37zM98 25v653q0 25 24 25h190q85 0 128 -20q104 -50 104 -176q0 -71 -36.5 -124t-96.5 -70v-2q7 -9 18 -28
l137 -254q7 -13 2 -21t-19 -8h-26q-20 0 -29 17l-150 279h-177v-271q0 -25 -24 -25h-21q-24 0 -24 25zM167 358h167q63 0 101 40.5t38 106.5q0 42 -19.5 74.5t-54.5 48.5q-29 13 -92 13h-140v-283z" />
    <glyph glyph-name="rcaron" unicode="&#x159;" horiz-adv-x="338" 
d="M192 584q-18 0 -30 16l-52 73q-8 13 -4.5 21.5t17.5 8.5h15q18 0 28 -16l44 -64h2l44 64q10 16 27 16h16q14 0 17.5 -8.5t-5.5 -21.5l-51 -73q-13 -16 -31 -16h-37zM77 25v453q0 25 25 25h18q24 0 24 -25v-68l-4 -40h2q19 58 62 97t100 39q26 0 26 -24v-18q0 -25 -28 -25
q-74 0 -115.5 -69t-41.5 -157v-188q0 -25 -24 -25h-19q-25 0 -25 25z" />
    <glyph glyph-name="Sacute" unicode="&#x15a;" horiz-adv-x="526" 
d="M277 752q-14 0 -19 8.5t3 19.5l44 74q10 17 29 17h23q16 0 19.5 -8.5t-5.5 -21.5l-53 -73q-12 -16 -30 -16h-11zM72 62q-16 16 -3 35l12 15q15 18 35 3q73 -61 162 -61q64 0 103.5 33t39.5 87q0 36 -19.5 63.5t-50 46t-68 35t-75 34.5t-68 39.5t-50 56t-19.5 78.5
q0 85 63 136.5t157 51.5q100 0 171 -55q18 -14 6 -33l-9 -16q-13 -21 -35 -7q-66 45 -135 45q-62 0 -104.5 -32t-42.5 -86q0 -34 19.5 -60.5t50 -43.5t68 -33t75 -34t68 -40t50 -57.5t19.5 -81.5q0 -83 -58 -138t-156 -55q-117 0 -206 74z" />
    <glyph glyph-name="sacute" unicode="&#x15b;" horiz-adv-x="431" 
d="M231 585q-14 0 -19 8.5t3 19.5l44 74q10 17 29 17h23q16 0 19.5 -8.5t-5.5 -21.5l-53 -73q-12 -16 -30 -16h-11zM64 46q-18 14 -4 34l8 10q13 17 34 4q60 -46 133 -46q44 0 73 21.5t29 59.5q0 31 -27.5 52.5t-67 35.5t-79.5 31t-67.5 48.5t-27.5 77.5q0 67 49 104t122 37
q81 0 138 -41q20 -12 7 -33l-7 -11q-11 -20 -34 -7q-47 32 -108 32q-43 0 -71 -19.5t-28 -58.5q0 -32 27.5 -53.5t67 -36t79 -31t67 -48.5t27.5 -78q0 -62 -47.5 -102t-122.5 -40q-101 0 -170 58z" />
    <glyph glyph-name="Scircumflex" unicode="&#x15c;" horiz-adv-x="526" 
d="M190 752q-14 0 -17.5 8.5t4.5 21.5l52 73q12 16 30 16h37q18 0 31 -16l51 -73q9 -13 6 -21.5t-17 -8.5h-17q-17 0 -27 17l-44 64h-2l-44 -64q-10 -17 -28 -17h-15zM72 62q-16 16 -3 35l12 15q15 18 35 3q73 -61 162 -61q64 0 103.5 33t39.5 87q0 36 -19.5 63.5t-50 46
t-68 35t-75 34.5t-68 39.5t-50 56t-19.5 78.5q0 85 63 136.5t157 51.5q100 0 171 -55q18 -14 6 -33l-9 -16q-13 -21 -35 -7q-66 45 -135 45q-62 0 -104.5 -32t-42.5 -86q0 -34 19.5 -60.5t50 -43.5t68 -33t75 -34t68 -40t50 -57.5t19.5 -81.5q0 -83 -58 -138t-156 -55
q-117 0 -206 74z" />
    <glyph glyph-name="scircumflex" unicode="&#x15d;" horiz-adv-x="431" 
d="M146 585q-14 0 -17.5 8.5t4.5 21.5l52 73q12 16 30 16h37q18 0 31 -16l51 -73q9 -13 6 -21.5t-17 -8.5h-17q-17 0 -27 17l-44 64h-2l-44 -64q-10 -17 -28 -17h-15zM64 46q-18 14 -4 34l8 10q13 17 34 4q60 -46 133 -46q44 0 73 21.5t29 59.5q0 31 -27.5 52.5t-67 35.5
t-79.5 31t-67.5 48.5t-27.5 77.5q0 67 49 104t122 37q81 0 138 -41q20 -12 7 -33l-7 -11q-11 -20 -34 -7q-47 32 -108 32q-43 0 -71 -19.5t-28 -58.5q0 -32 27.5 -53.5t67 -36t79 -31t67 -48.5t27.5 -78q0 -62 -47.5 -102t-122.5 -40q-101 0 -170 58z" />
    <glyph glyph-name="Scedilla" unicode="&#x15e;" horiz-adv-x="528" 
d="M242 -64l12 53q-105 8 -182 73q-16 16 -3 35l12 15q15 18 35 3q73 -61 162 -61q64 0 103.5 33t39.5 87q0 36 -19.5 63.5t-50 46t-68 35t-75 34.5t-68 39.5t-50 56t-19.5 78.5q0 85 63 136.5t157 51.5q100 0 171 -55q18 -14 6 -33l-9 -16q-13 -21 -35 -7q-66 45 -135 45
q-62 0 -104.5 -32t-42.5 -86q0 -34 19.5 -60.5t50 -43.5t68 -33t75 -34t68 -40t50 -57.5t19.5 -81.5q0 -78 -52 -132t-141 -60l-8 -44q31 -5 50.5 -23.5t19.5 -47.5q0 -41 -27.5 -60t-68.5 -19q-48 0 -48 24q0 25 16 25q3 0 11 -1.5t15 -1.5q49 0 49 34q0 31 -49 35
q-9 1 -14 8t-3 18z" />
    <glyph glyph-name="scedilla" unicode="&#x15f;" horiz-adv-x="433" 
d="M195 -64l12 53q-87 8 -143 57q-18 14 -4 34l8 10q13 17 34 4q60 -46 133 -46q44 0 73 21.5t29 59.5q0 31 -27.5 52.5t-67 35.5t-79.5 31t-67.5 48.5t-27.5 77.5q0 67 49 104t122 37q81 0 138 -41q20 -12 7 -33l-7 -11q-11 -20 -34 -7q-47 32 -108 32q-43 0 -71 -19.5
t-28 -58.5q0 -32 27.5 -53.5t67 -36t79 -31t67 -48.5t27.5 -78q0 -58 -42 -97t-110 -44l-8 -44q31 -5 50.5 -23.5t19.5 -47.5q0 -41 -27.5 -60t-68.5 -19q-48 0 -48 24q0 25 16 25q3 0 11 -1.5t15 -1.5q49 0 49 34q0 31 -49 35q-9 1 -14 8t-3 18z" />
    <glyph glyph-name="Scaron" unicode="&#x160;" horiz-adv-x="526" 
d="M259 752q-18 0 -30 16l-52 73q-8 13 -4.5 21.5t17.5 8.5h15q18 0 28 -16l44 -64h2l44 64q10 16 27 16h16q14 0 17.5 -8.5t-5.5 -21.5l-51 -73q-13 -16 -31 -16h-37zM72 62q-16 16 -3 35l12 15q15 18 35 3q73 -61 162 -61q64 0 103.5 33t39.5 87q0 36 -19.5 63.5t-50 46
t-68 35t-75 34.5t-68 39.5t-50 56t-19.5 78.5q0 85 63 136.5t157 51.5q100 0 171 -55q18 -14 6 -33l-9 -16q-13 -21 -35 -7q-66 45 -135 45q-62 0 -104.5 -32t-42.5 -86q0 -34 19.5 -60.5t50 -43.5t68 -33t75 -34t68 -40t50 -57.5t19.5 -81.5q0 -83 -58 -138t-156 -55
q-117 0 -206 74z" />
    <glyph glyph-name="scaron" unicode="&#x161;" horiz-adv-x="431" 
d="M215 585q-18 0 -30 16l-52 73q-8 13 -4.5 21.5t17.5 8.5h15q18 0 28 -16l44 -64h2l44 64q10 16 27 16h16q14 0 17.5 -8.5t-5.5 -21.5l-51 -73q-13 -16 -31 -16h-37zM64 46q-18 14 -4 34l8 10q13 17 34 4q60 -46 133 -46q44 0 73 21.5t29 59.5q0 31 -27.5 52.5t-67 35.5
t-79.5 31t-67.5 48.5t-27.5 77.5q0 67 49 104t122 37q81 0 138 -41q20 -12 7 -33l-7 -11q-11 -20 -34 -7q-47 32 -108 32q-43 0 -71 -19.5t-28 -58.5q0 -32 27.5 -53.5t67 -36t79 -31t67 -48.5t27.5 -78q0 -62 -47.5 -102t-122.5 -40q-101 0 -170 58z" />
    <glyph glyph-name="Tcommaaccent" unicode="&#x162;" horiz-adv-x="586" 
d="M254 -64l15 67q-11 6 -11 22v616h-227q-25 0 -25 25v12q0 25 25 25h524q25 0 25 -25v-12q0 -25 -25 -25h-228v-616q0 -19 -14 -24l-10 -56q31 -5 50.5 -23.5t19.5 -47.5q0 -41 -27.5 -60t-68.5 -19q-48 0 -48 24q0 25 16 25q3 0 11 -1.5t15 -1.5q49 0 49 34q0 31 -49 35
q-9 1 -14 8t-3 18z" />
    <glyph glyph-name="tcommaaccent" unicode="&#x163;" horiz-adv-x="322" 
d="M158 -64l19 83q-79 43 -79 162v261h-42q-24 0 -24 24v8q0 25 24 25h43v118q0 25 25 25h18q24 0 24 -25v-118h102q25 0 25 -25v-8q0 -24 -25 -24h-102v-252q0 -126 110 -132q15 -2 21 -7t6 -18v-13q0 -24 -28 -24q-27 0 -58 7l-10 -58q31 -5 50.5 -23.5t19.5 -47.5
q0 -41 -27.5 -60t-68.5 -19q-48 0 -48 24q0 25 16 25q3 0 11 -1.5t15 -1.5q49 0 49 34q0 31 -49 35q-9 1 -14 8t-3 18z" />
    <glyph glyph-name="Tcaron" unicode="&#x164;" horiz-adv-x="586" 
d="M273 752q-18 0 -30 16l-52 73q-8 13 -4.5 21.5t17.5 8.5h15q18 0 28 -16l44 -64h2l44 64q10 16 27 16h16q14 0 17.5 -8.5t-5.5 -21.5l-51 -73q-13 -16 -31 -16h-37zM258 25v616h-227q-25 0 -25 25v12q0 25 25 25h524q25 0 25 -25v-12q0 -25 -25 -25h-228v-616
q0 -25 -24 -25h-20q-25 0 -25 25z" />
    <glyph glyph-name="tcaron" unicode="&#x165;" horiz-adv-x="320" 
d="M233 685q0 17 22 17h15q29 0 29 -51q0 -31 -12 -61.5t-32 -30.5h-6q-22 0 -22 16q0 2 5 20.5t5 42.5q0 16 -2 28t-2 19zM97 181v261h-42q-24 0 -24 24v8q0 25 24 25h43v118q0 25 25 25h18q24 0 24 -25v-118h102q25 0 25 -25v-8q0 -24 -25 -24h-102v-252q0 -126 110 -132
q15 -2 21 -7t6 -18v-13q0 -24 -28 -24q-83 0 -130 48.5t-47 136.5z" />
    <glyph glyph-name="Tbar" unicode="&#x166;" horiz-adv-x="588" 
d="M259 25v299h-137q-24 0 -24 25v8q0 24 24 24h137v260h-228q-24 0 -24 25v12q0 25 24 25h525q25 0 25 -25v-12q0 -25 -25 -25h-228v-260h141q25 0 25 -24v-8q0 -25 -25 -25h-141v-299q0 -25 -24 -25h-20q-25 0 -25 25z" />
    <glyph glyph-name="tbar" unicode="&#x167;" horiz-adv-x="323" 
d="M97 181v98h-42q-24 0 -24 24v8q0 25 24 25h42v108h-42q-24 0 -24 24v6q0 25 24 25h43v118q0 25 25 25h18q24 0 24 -25v-118h102q25 0 25 -25v-6q0 -24 -24 -24h-103v-108h102q25 0 25 -25v-8q0 -24 -24 -24h-103v-91q0 -124 110 -130q15 -2 21 -7t6 -18v-13
q0 -24 -28 -24q-82 0 -129.5 48.5t-47.5 136.5z" />
    <glyph glyph-name="Utilde" unicode="&#x168;" horiz-adv-x="715" 
d="M88 245v433q0 25 25 25h20q25 0 25 -25v-432q0 -90 54 -141.5t145 -51.5q92 0 146 52t54 143v430q0 25 25 25h20q24 0 24 -25v-433q0 -116 -74 -186.5t-194 -70.5q-121 0 -195.5 70.5t-74.5 186.5zM225 755q-22 0 -22 26q0 40 24.5 65.5t63.5 25.5q23 0 42.5 -11t31 -25
t26 -25t29.5 -11q18 0 28 14.5t11 35.5q0 19 23 19h8q21 0 21 -23q0 -43 -23.5 -68.5t-64.5 -25.5q-29 0 -52 18t-41 35.5t-36 17.5t-28.5 -15t-10.5 -36q-2 -17 -23 -17h-7z" />
    <glyph glyph-name="utilde" unicode="&#x169;" horiz-adv-x="580" 
d="M71 183v295q0 25 24 25h19q25 0 25 -25v-277q0 -71 21.5 -110t87.5 -39q83 0 134.5 62t51.5 148v216q0 25 25 25h19q24 0 24 -25v-453q0 -25 -24 -25h-18q-24 0 -24 25v58l3 36h-2q-18 -47 -70.5 -89t-127.5 -42q-88 0 -128 47.5t-40 147.5zM154 588q-22 0 -22 26
q0 40 24.5 65.5t63.5 25.5q23 0 42.5 -11.5t31 -24.5t26 -24.5t29.5 -11.5q18 0 28 14.5t11 35.5q0 19 23 19h8q21 0 21 -23q0 -43 -23.5 -68.5t-64.5 -25.5q-23 0 -42.5 11t-31 24.5t-26 24.5t-29.5 11q-18 0 -28.5 -15t-10.5 -36q-2 -17 -23 -17h-7z" />
    <glyph glyph-name="Umacron" unicode="&#x16a;" horiz-adv-x="715" 
d="M88 245v433q0 25 25 25h20q25 0 25 -25v-432q0 -90 54 -141.5t145 -51.5q92 0 146 52t54 143v430q0 25 25 25h20q24 0 24 -25v-433q0 -116 -74 -186.5t-194 -70.5q-121 0 -195.5 70.5t-74.5 186.5zM259 785q-25 0 -25 24v7q0 24 25 24h197q24 0 24 -24v-7q0 -24 -24 -24
h-197z" />
    <glyph glyph-name="umacron" unicode="&#x16b;" horiz-adv-x="580" 
d="M71 183v295q0 25 24 25h19q25 0 25 -25v-277q0 -71 21.5 -110t87.5 -39q83 0 134.5 62t51.5 148v216q0 25 25 25h19q24 0 24 -25v-453q0 -25 -24 -25h-18q-24 0 -24 25v58l3 36h-2q-18 -47 -70.5 -89t-127.5 -42q-88 0 -128 47.5t-40 147.5zM188 618q-25 0 -25 24v7
q0 24 25 24h197q24 0 24 -24v-7q0 -24 -24 -24h-197z" />
    <glyph glyph-name="Ubreve" unicode="&#x16c;" horiz-adv-x="715" 
d="M88 245v433q0 25 25 25h20q25 0 25 -25v-432q0 -90 54 -141.5t145 -51.5q92 0 146 52t54 143v430q0 25 25 25h20q24 0 24 -25v-433q0 -116 -74 -186.5t-194 -70.5q-121 0 -195.5 70.5t-74.5 186.5zM356 749q-45 0 -80 29.5t-35 73.5q0 19 23 19h10q20 0 23 -18
q6 -57 59 -57q54 0 60 57q4 18 23 18h10q23 0 23 -19q0 -43 -34.5 -73t-81.5 -30z" />
    <glyph glyph-name="ubreve" unicode="&#x16d;" horiz-adv-x="580" 
d="M71 183v295q0 25 24 25h19q25 0 25 -25v-277q0 -71 21.5 -110t87.5 -39q83 0 134.5 62t51.5 148v216q0 25 25 25h19q24 0 24 -25v-453q0 -25 -24 -25h-18q-24 0 -24 25v58l3 36h-2q-18 -47 -70.5 -89t-127.5 -42q-88 0 -128 47.5t-40 147.5zM285 582q-45 0 -80 29.5
t-35 73.5q0 19 23 19h10q20 0 23 -18q6 -57 59 -57q54 0 60 57q4 18 23 18h10q23 0 23 -19q0 -43 -34.5 -73t-81.5 -30z" />
    <glyph glyph-name="Uring" unicode="&#x16e;" horiz-adv-x="715" 
d="M356 741q-31 0 -53 20t-22 51t22 51t53 20t53.5 -20t22.5 -51t-22.5 -51t-53.5 -20zM356 779q15 0 24 9.5t9 23.5q0 15 -9 24.5t-24 9.5q-14 0 -23 -9.5t-9 -24.5q0 -14 9 -23.5t23 -9.5zM88 245v433q0 25 25 25h20q25 0 25 -25v-432q0 -90 54 -141.5t145 -51.5
q92 0 146 52t54 143v430q0 25 25 25h20q24 0 24 -25v-433q0 -116 -74 -186.5t-194 -70.5q-121 0 -195.5 70.5t-74.5 186.5z" />
    <glyph glyph-name="uring" unicode="&#x16f;" horiz-adv-x="580" 
d="M285 574q-31 0 -53 20t-22 51t22 51t53 20t53.5 -20t22.5 -51t-22.5 -51t-53.5 -20zM285 612q15 0 24 9.5t9 23.5q0 15 -9 24.5t-24 9.5q-14 0 -23 -9.5t-9 -24.5q0 -14 9 -23.5t23 -9.5zM71 183v295q0 25 24 25h19q25 0 25 -25v-277q0 -71 21.5 -110t87.5 -39
q83 0 134.5 62t51.5 148v216q0 25 25 25h19q24 0 24 -25v-453q0 -25 -24 -25h-18q-24 0 -24 25v58l3 36h-2q-18 -47 -70.5 -89t-127.5 -42q-88 0 -128 47.5t-40 147.5z" />
    <glyph glyph-name="Uhungarumlaut" unicode="&#x170;" horiz-adv-x="715" 
d="M88 245v433q0 25 25 25h20q25 0 25 -25v-432q0 -90 54 -141.5t145 -51.5q92 0 146 52t54 143v430q0 25 25 25h20q24 0 24 -25v-433q0 -116 -74 -186.5t-194 -70.5q-121 0 -195.5 70.5t-74.5 186.5zM411 752q-15 0 -19.5 8.5t2.5 20.5l44 73q10 17 29 17h22
q15 0 18.5 -8.5t-5.5 -21.5l-52 -73q-13 -16 -30 -16h-9zM277 752q-14 0 -19 8.5t2 20.5l40 72q9 18 29 18h15q15 0 19.5 -8.5t-3.5 -20.5l-41 -72q-11 -18 -29 -18h-13z" />
    <glyph glyph-name="uhungarumlaut" unicode="&#x171;" horiz-adv-x="580" 
d="M71 183v295q0 25 24 25h19q25 0 25 -25v-277q0 -71 21.5 -110t87.5 -39q83 0 134.5 62t51.5 148v216q0 25 25 25h19q24 0 24 -25v-453q0 -25 -24 -25h-18q-24 0 -24 25v58l3 36h-2q-18 -47 -70.5 -89t-127.5 -42q-88 0 -128 47.5t-40 147.5zM340 585q-15 0 -19.5 8.5
t2.5 20.5l44 73q10 17 29 17h22q15 0 18.5 -8.5t-5.5 -21.5l-52 -73q-13 -16 -30 -16h-9zM206 585q-14 0 -19 8.5t2 20.5l40 72q9 18 29 18h15q15 0 19.5 -8.5t-3.5 -20.5l-41 -72q-10 -18 -29 -18h-13z" />
    <glyph glyph-name="Uogonek" unicode="&#x172;" horiz-adv-x="715" 
d="M88 245v433q0 25 25 25h20q25 0 25 -25v-432q0 -90 54 -141.5t145 -51.5q92 0 146 52t54 143v430q0 25 25 25h20q24 0 24 -25v-433q0 -85 -35 -136.5t-95 -88.5q-108 -65 -108 -120q0 -33 46 -48q18 -6 14 -25l-2 -11q-5 -21 -26 -18q-35 6 -64.5 27t-29.5 63
q0 53 54 101q-127 -7 -209.5 63.5t-82.5 192.5z" />
    <glyph glyph-name="uogonek" unicode="&#x173;" horiz-adv-x="580" 
d="M71 183v295q0 25 24 25h19q25 0 25 -25v-277q0 -71 21.5 -110t87.5 -39q83 0 134.5 62t51.5 148v216q0 25 25 25h19q24 0 24 -25v-453q0 -16 -19 -34.5t-38 -41.5t-19 -49q0 -33 46 -48q17 -6 13 -25l-1 -11q-5 -21 -26 -18q-35 6 -64.5 27t-29.5 63q0 35 25 67.5
t53 51.5q-6 6 -6 18v58l3 36h-2q-18 -47 -70.5 -89t-127.5 -42q-88 0 -128 47.5t-40 147.5z" />
    <glyph glyph-name="Wcircumflex" unicode="&#x174;" horiz-adv-x="930" 
d="M390 752q-14 0 -17.5 8.5t4.5 21.5l52 73q12 16 30 16h37q18 0 31 -16l51 -73q9 -13 6 -21.5t-17 -8.5h-17q-17 0 -27 17l-44 64h-2l-44 -64q-10 -17 -28 -17h-15zM219 22l-170 654q-6 27 22 27h22q21 0 27 -22l131 -524l16 -75h2q7 39 17 75l145 525q6 21 27 21h23
q21 0 27 -21l144 -525l18 -75h2q6 39 15 75l137 524q6 22 27 22h22q13 0 19 -7t2 -20l-174 -655q-6 -21 -28 -21h-38q-22 0 -28 21l-130 474l-25 105h-3q-12 -60 -25 -105l-131 -474q-6 -21 -27 -21h-39q-21 0 -27 22z" />
    <glyph glyph-name="wcircumflex" unicode="&#x175;" horiz-adv-x="796" 
d="M317 585q-14 0 -17.5 8.5t4.5 21.5l52 73q12 16 30 16h37q18 0 31 -16l51 -73q9 -13 6 -21.5t-17 -8.5h-17q-17 0 -27 17l-44 64h-2l-44 -64q-10 -17 -28 -17h-15zM185 21l-154 454q-8 28 21 28h21q22 0 28 -21l115 -354l15 -54h2q8 30 16 54l117 353q6 20 28 20h24
q22 0 28 -20l117 -353l16 -54h2q6 29 15 54l115 354q6 21 28 21h21q28 0 20 -28l-154 -454q-6 -21 -28 -21h-31q-22 0 -28 21l-117 337l-15 54h-2q-7 -29 -16 -54l-116 -337q-6 -21 -28 -21h-31q-22 0 -29 21z" />
    <glyph glyph-name="Ycircumflex" unicode="&#x176;" horiz-adv-x="554" 
d="M248 25v277l-221 372q-8 12 -3 20.5t20 8.5h25q20 0 29 -17l140 -238l43 -84h2q22 47 43 84l140 238q9 17 28 17h26q14 0 19 -8.5t-2 -20.5l-220 -372v-277q0 -25 -25 -25h-20q-24 0 -24 25zM194 752q-14 0 -17.5 8.5t4.5 21.5l52 73q12 16 30 16h37q18 0 31 -16l51 -73
q9 -13 6 -21.5t-17 -8.5h-17q-17 0 -27 17l-44 64h-2l-44 -64q-10 -17 -28 -17h-15z" />
    <glyph glyph-name="ycircumflex" unicode="&#x177;" horiz-adv-x="491" 
d="M28 -149q10 19 30 12q29 -13 44 -13q58 0 94 83l30 71l-198 470q-5 13 0 21t19 8h23q21 0 28 -19l141 -348l18 -53h2q7 28 17 53l138 347q7 20 28 20h22q14 0 19 -8t1 -21l-237 -576q-20 -50 -58 -79t-87 -29q-33 0 -69 18q-22 10 -11 32zM171 584q-14 0 -17.5 8.5
t4.5 21.5l52 73q12 16 30 16h37q18 0 31 -16l51 -73q9 -13 6 -21.5t-17 -8.5h-17q-17 0 -27 17l-44 64h-2l-44 -64q-10 -17 -28 -17h-15z" />
    <glyph glyph-name="Ydieresis" unicode="&#x178;" horiz-adv-x="554" 
d="M248 25v277l-221 372q-8 12 -3 20.5t20 8.5h25q20 0 29 -17l140 -238l43 -84h2q22 47 43 84l140 238q9 17 28 17h26q14 0 19 -8.5t-2 -20.5l-220 -372v-277q0 -25 -25 -25h-20q-24 0 -24 25zM346 785q-24 0 -24 24v37q0 25 24 25h13q25 0 25 -25v-37q0 -24 -25 -24h-13z
M195 785q-24 0 -24 24v37q0 25 24 25h13q24 0 24 -25v-37q0 -24 -24 -24h-13z" />
    <glyph glyph-name="Zacute" unicode="&#x179;" horiz-adv-x="575" 
d="M298 752q-14 0 -19 8.5t3 19.5l44 74q10 17 29 17h23q16 0 19.5 -8.5t-5.5 -21.5l-53 -73q-12 -16 -30 -16h-11zM33 25v7q0 17 10 31l354 514q11 17 23.5 33t19.5 24l6 7v2q-17 -2 -52 -2h-317q-24 0 -24 25v12q0 25 24 25h430q25 0 25 -24v-8q0 -17 -10 -31l-354 -514
q-11 -17 -23.5 -33t-18.5 -23l-7 -8v-2q17 2 52 2h340q24 0 24 -25v-12q0 -25 -24 -25h-453q-25 0 -25 25z" />
    <glyph glyph-name="zacute" unicode="&#x17a;" horiz-adv-x="491" 
d="M242 585q-14 0 -19 8.5t3 19.5l44 74q10 17 29 17h23q16 0 19.5 -8.5t-5.5 -21.5l-53 -73q-12 -16 -30 -16h-11zM34 22v7q0 16 10 29l270 339l40 46v2q-17 -2 -50 -2h-234q-24 0 -24 24v11q0 25 24 25h352q24 0 24 -22v-7q0 -16 -10 -29l-271 -339l-41 -46v-2q18 2 51 2
h257q24 0 24 -24v-11q0 -25 -24 -25h-374q-24 0 -24 22z" />
    <glyph glyph-name="Zdotaccent" unicode="&#x17b;" horiz-adv-x="575" 
d="M33 25v7q0 17 10 31l354 514q11 17 23.5 33t19.5 24l6 7v2q-17 -2 -52 -2h-317q-24 0 -24 25v12q0 25 24 25h430q25 0 25 -24v-8q0 -17 -10 -31l-354 -514q-11 -17 -23.5 -33t-18.5 -23l-7 -8v-2q17 2 52 2h340q24 0 24 -25v-12q0 -25 -24 -25h-453q-25 0 -25 25z
M290 786q-24 0 -24 25v35q0 25 24 25h17q24 0 24 -25v-35q0 -25 -24 -25h-17z" />
    <glyph glyph-name="zdotaccent" unicode="&#x17c;" horiz-adv-x="491" 
d="M34 22v7q0 16 10 29l270 339l40 46v2q-17 -2 -50 -2h-234q-24 0 -24 24v11q0 25 24 25h352q24 0 24 -22v-7q0 -16 -10 -29l-271 -339l-41 -46v-2q18 2 51 2h257q24 0 24 -24v-11q0 -25 -24 -25h-374q-24 0 -24 22zM236 619q-24 0 -24 25v35q0 25 24 25h17q24 0 24 -25
v-35q0 -25 -24 -25h-17z" />
    <glyph glyph-name="Zcaron" unicode="&#x17d;" horiz-adv-x="575" 
d="M279 752q-18 0 -30 16l-52 73q-8 13 -4.5 21.5t17.5 8.5h15q18 0 28 -16l44 -64h2l44 64q10 16 27 16h16q14 0 17.5 -8.5t-5.5 -21.5l-51 -73q-13 -16 -31 -16h-37zM33 25v7q0 17 10 31l354 514q11 17 23.5 33t19.5 24l6 7v2q-17 -2 -52 -2h-317q-24 0 -24 25v12
q0 25 24 25h430q25 0 25 -24v-8q0 -17 -10 -31l-354 -514q-11 -17 -23.5 -33t-18.5 -23l-7 -8v-2q17 2 52 2h340q24 0 24 -25v-12q0 -25 -24 -25h-453q-25 0 -25 25z" />
    <glyph glyph-name="zcaron" unicode="&#x17e;" horiz-adv-x="491" 
d="M226 585q-18 0 -30 16l-52 73q-8 13 -4.5 21.5t17.5 8.5h15q18 0 28 -16l44 -64h2l44 64q10 16 27 16h16q14 0 17.5 -8.5t-5.5 -21.5l-51 -73q-13 -16 -31 -16h-37zM34 22v7q0 16 10 29l270 339l40 46v2q-17 -2 -50 -2h-234q-24 0 -24 24v11q0 25 24 25h352q24 0 24 -22
v-7q0 -16 -10 -29l-271 -339l-41 -46v-2q18 2 51 2h257q24 0 24 -24v-11q0 -25 -24 -25h-374q-24 0 -24 22z" />
    <glyph glyph-name="longs" unicode="&#x17f;" horiz-adv-x="240" 
d="M95 25v417h-40q-24 0 -24 24v8q0 25 24 25h40v23q0 56 18.5 95.5t48 57.5t54.5 25.5t48 7.5h11q24 0 24 -25v-12q0 -23 -27 -24q-20 -1 -35.5 -5t-34 -16t-29 -38.5t-10.5 -66.5v-496q0 -25 -25 -25h-19q-24 0 -24 25z" />
    <glyph glyph-name="florin" unicode="&#x192;" horiz-adv-x="350" 
d="M-52 -43q27 -3 39 -3q18 0 35 4.5t37 17t33.5 40t17.5 67.5l24 282h-65q-24 0 -24 24v8q0 25 24 25h70l10 107q5 58 27 98t53.5 57.5t57.5 24t53 6.5q10 0 21 -0.5t22 -2t16 -1.5q23 -3 23 -26v-12q0 -12 -6 -17.5t-16 -4.5q-32 4 -59 4q-18 0 -34.5 -4.5t-36.5 -17
t-34 -40t-18 -67.5l-10 -104h101q24 0 24 -25v-8q0 -24 -24 -24h-106l-25 -285q-4 -47 -20 -82.5t-36.5 -54.5t-46.5 -31t-46 -15t-40 -3q-27 0 -43 3q-23 2 -23 26v11q0 26 25 23z" />
    <glyph glyph-name="Scommaaccent" unicode="&#x218;" horiz-adv-x="526" 
d="M242 -80q0 17 22 17h15q29 0 29 -51q0 -31 -12 -61.5t-32 -30.5h-6q-22 0 -22 16q0 2 5 20.5t5 42.5q0 17 -2 28.5t-2 18.5zM72 62q-16 16 -3 35l12 15q15 18 35 3q73 -61 162 -61q64 0 103.5 33t39.5 87q0 36 -19.5 63.5t-50 46t-68 35t-75 34.5t-68 39.5t-50 56
t-19.5 78.5q0 85 63 136.5t157 51.5q100 0 171 -55q18 -14 6 -33l-9 -16q-13 -21 -35 -7q-66 45 -135 45q-62 0 -104.5 -32t-42.5 -86q0 -34 19.5 -60.5t50 -43.5t68 -33t75 -34t68 -40t50 -57.5t19.5 -81.5q0 -83 -58 -138t-156 -55q-117 0 -206 74z" />
    <glyph glyph-name="scommaaccent" unicode="&#x219;" horiz-adv-x="431" 
d="M198 -80q0 17 22 17h15q29 0 29 -51q0 -31 -12 -61.5t-32 -30.5h-6q-22 0 -22 16q0 2 5 20.5t5 42.5q0 17 -2 28.5t-2 18.5zM64 46q-18 14 -4 34l8 10q13 17 34 4q60 -46 133 -46q44 0 73 21.5t29 59.5q0 31 -27.5 52.5t-67 35.5t-79.5 31t-67.5 48.5t-27.5 77.5
q0 67 49 104t122 37q81 0 138 -41q20 -12 7 -33l-7 -11q-11 -20 -34 -7q-47 32 -108 32q-43 0 -71 -19.5t-28 -58.5q0 -32 27.5 -53.5t67 -36t79 -31t67 -48.5t27.5 -78q0 -62 -47.5 -102t-122.5 -40q-101 0 -170 58z" />
    <glyph glyph-name="uni021A" unicode="&#x21a;" horiz-adv-x="587" 
d="M261 -80q0 17 22 17h15q29 0 29 -51q0 -31 -12 -61.5t-32 -30.5h-6q-22 0 -22 16q0 2 5 20.5t5 42.5q0 17 -2 28.5t-2 18.5zM258 25v616h-227q-25 0 -25 25v12q0 25 25 25h524q25 0 25 -25v-12q0 -25 -25 -25h-228v-616q0 -25 -24 -25h-20q-25 0 -25 25z" />
    <glyph glyph-name="uni021B" unicode="&#x21b;" horiz-adv-x="320" 
d="M141 -80q0 17 22 17h15q29 0 29 -51q0 -31 -12 -61.5t-32 -30.5h-6q-22 0 -22 16q0 2 5 20.5t5 42.5q0 17 -2 28.5t-2 18.5zM97 181v261h-42q-24 0 -24 24v8q0 25 24 25h43v118q0 25 25 25h18q24 0 24 -25v-118h102q25 0 25 -25v-8q0 -24 -25 -24h-102v-252
q0 -126 110 -132q15 -2 21 -7t6 -18v-13q0 -24 -28 -24q-83 0 -130 48.5t-47 136.5z" />
    <glyph glyph-name="circumflex" unicode="&#x2c6;" horiz-adv-x="504" 
d="M167 752q-14 0 -17.5 8.5t4.5 21.5l52 73q12 16 30 16h37q18 0 31 -16l51 -73q9 -13 6 -21.5t-17 -8.5h-17q-17 0 -27 17l-44 64h-2l-44 -64q-10 -17 -28 -17h-15z" />
    <glyph glyph-name="caron" unicode="&#x2c7;" horiz-adv-x="504" 
d="M236 752q-18 0 -30 16l-52 73q-8 13 -4.5 21.5t17.5 8.5h15q18 0 28 -16l44 -64h2l44 64q10 16 27 16h16q14 0 17.5 -8.5t-5.5 -21.5l-51 -73q-13 -16 -31 -16h-37z" />
    <glyph glyph-name="breve" unicode="&#x2d8;" horiz-adv-x="505" 
d="M252 749q-45 0 -80 29.5t-35 73.5q0 19 23 19h10q20 0 23 -18q6 -57 59 -57q54 0 60 57q4 18 23 18h10q23 0 23 -19q0 -43 -34.5 -73t-81.5 -30z" />
    <glyph glyph-name="dotaccent" unicode="&#x2d9;" horiz-adv-x="505" 
d="M244 786q-24 0 -24 25v35q0 25 24 25h17q24 0 24 -25v-35q0 -25 -24 -25h-17z" />
    <glyph glyph-name="ring" unicode="&#x2da;" horiz-adv-x="505" 
d="M252 741q-31 0 -53 20t-22 51t22 51t53 20t53.5 -20t22.5 -51t-22.5 -51t-53.5 -20zM252 779q15 0 24 9.5t9 23.5q0 15 -9 24.5t-24 9.5q-14 0 -23 -9.5t-9 -24.5q0 -14 9 -23.5t23 -9.5z" />
    <glyph glyph-name="ogonek" unicode="&#x2db;" horiz-adv-x="504" 
d="M178 -112q0 28 16.5 56t33.5 43t34 26q17 10 35 4q27 -8 6 -26q-63 -53 -63 -91q0 -33 46 -48q17 -6 13 -25l-1 -11q-3 -22 -26 -18q-35 6 -64.5 27t-29.5 63z" />
    <glyph glyph-name="tilde" unicode="&#x2dc;" horiz-adv-x="504" 
d="M120 755q-22 0 -22 26q0 40 24.5 65.5t63.5 25.5q23 0 42.5 -11t31 -25t26 -25t29.5 -11q18 0 28 14.5t11 35.5q0 19 23 19h8q21 0 21 -23q0 -43 -23.5 -68.5t-64.5 -25.5q-29 0 -52 18t-41 35.5t-36 17.5t-28.5 -15t-10.5 -36q-2 -17 -23 -17h-7z" />
    <glyph glyph-name="hungarumlaut" unicode="&#x2dd;" horiz-adv-x="504" 
d="M284 752q-15 0 -19.5 8.5t2.5 20.5l44 73q10 17 29 17h22q15 0 18.5 -8.5t-5.5 -21.5l-52 -73q-13 -16 -30 -16h-9zM150 752q-14 0 -19 8.5t2 20.5l40 72q9 18 29 18h15q15 0 19.5 -8.5t-3.5 -20.5l-41 -72q-11 -18 -29 -18h-13z" />
    <glyph glyph-name="uni1E9E" unicode="&#x1e9e;" horiz-adv-x="663" 
d="M90 25v491q0 79 54 133t134 54h280q25 0 25 -23v-10q0 -15 -10 -28l-147 -210l-26 -35v-2h31q76 -3 128.5 -60.5t52.5 -134.5q0 -83 -59 -141.5t-142 -58.5h-136q-24 0 -24 25v12q0 25 24 25h132q58 0 95.5 40.5t37.5 97.5t-37 97t-94 40h-66q-25 0 -25 24v11q0 14 9 28
l127 182q13 20 24 35t16 19l4 5v2q-12 -2 -43 -2h-172q-53 0 -88 -36t-35 -88v-492q0 -25 -24 -25h-21q-25 0 -25 25z" />
    <glyph glyph-name="thinspace" unicode="&#x2009;" horiz-adv-x="20" 
 />
    <glyph glyph-name="endash" unicode="&#x2013;" horiz-adv-x="640" 
d="M95 255q-25 0 -25 24v9q0 25 25 25h450q25 0 25 -25v-9q0 -24 -25 -24h-450z" />
    <glyph glyph-name="emdash" unicode="&#x2014;" horiz-adv-x="840" 
d="M95 255q-25 0 -25 24v9q0 25 25 25h650q25 0 25 -25v-9q0 -24 -25 -24h-650z" />
    <glyph glyph-name="quoteleft" unicode="&#x2018;" horiz-adv-x="201" 
d="M82 509q-30 0 -20 27l49 156q7 20 28 20h7q26 0 20 -27l-37 -155q-5 -21 -26 -21h-21z" />
    <glyph glyph-name="quoteright" unicode="&#x2019;" horiz-adv-x="199" 
d="M80 509q-27 0 -21 27l37 155q4 21 27 21h20q29 0 21 -27l-50 -156q-6 -20 -28 -20h-6z" />
    <glyph glyph-name="quotesinglbase" unicode="&#x201a;" horiz-adv-x="221" 
d="M48 -95l38 155q4 22 26 22h21q14 0 19 -7.5t1 -20.5l-49 -156q-8 -20 -28 -20h-7q-26 0 -21 27z" />
    <glyph glyph-name="quotedblleft" unicode="&#x201c;" horiz-adv-x="329" 
d="M209 509q-28 0 -20 27l50 156q6 20 27 20h7q26 0 21 -27l-37 -155q-5 -21 -27 -21h-21zM82 509q-30 0 -20 27l49 156q7 20 28 20h7q26 0 21 -27l-38 -155q-5 -21 -26 -21h-21z" />
    <glyph glyph-name="quotedblright" unicode="&#x201d;" horiz-adv-x="327" 
d="M207 509q-26 0 -20 27l37 155q5 21 26 21h21q30 0 20 -27l-49 -156q-7 -20 -28 -20h-7zM80 509q-27 0 -21 27l37 155q4 21 27 21h21q13 0 18.5 -7.5t1.5 -19.5l-50 -156q-6 -20 -27 -20h-7z" />
    <glyph glyph-name="quotedblbase" unicode="&#x201e;" horiz-adv-x="348" 
d="M177 -95l37 155q4 22 27 22h20q29 0 21 -28l-50 -156q-6 -20 -28 -20h-6q-27 0 -21 27zM49 -95l38 155q4 22 26 22h21q14 0 19 -7.5t1 -20.5l-49 -156q-8 -20 -28 -20h-7q-27 0 -21 27z" />
    <glyph glyph-name="dagger" unicode="&#x2020;" horiz-adv-x="400" 
d="M165 -25v470h-92q-25 0 -25 25v8q0 25 25 25h92v175q0 25 25 25h17q25 0 25 -25v-175h97q24 0 24 -25v-8q0 -25 -24 -25h-97v-470q0 -25 -25 -25h-17q-25 0 -25 25z" />
    <glyph glyph-name="daggerdbl" unicode="&#x2021;" horiz-adv-x="412" 
d="M171 -25v204h-93q-24 0 -24 24v9q0 25 24 25h93v208h-93q-24 0 -24 25v8q0 25 24 25h93v175q0 25 24 25h18q24 0 24 -25v-175h97q25 0 25 -25v-8q0 -25 -25 -25h-97v-208h97q25 0 25 -25v-9q0 -24 -25 -24h-97v-204q0 -25 -24 -25h-18q-24 0 -24 25z" />
    <glyph glyph-name="bullet" unicode="&#x2022;" horiz-adv-x="396" 
d="M198 148q-59 0 -101 42t-42 101t42 101t101 42t100.5 -42t41.5 -101t-41.5 -101t-100.5 -42z" />
    <glyph glyph-name="ellipsis" unicode="&#x2026;" horiz-adv-x="688" 
d="M539 25v34q0 24 24 24h32q24 0 24 -24v-34q0 -25 -24 -25h-32q-24 0 -24 25zM304 25v34q0 24 24 24h32q24 0 24 -24v-34q0 -25 -24 -25h-32q-24 0 -24 25zM69 25v34q0 24 24 24h32q24 0 24 -24v-34q0 -25 -24 -25h-32q-24 0 -24 25z" />
    <glyph glyph-name="perthousand" unicode="&#x2030;" horiz-adv-x="1042" 
d="M193 437q-59 0 -100 40.5t-41 98.5q0 57 41.5 98t99.5 41t99 -41t41 -98q0 -58 -41 -98.5t-99 -40.5zM82 30l501 658q11 15 30 15h15q16 0 20.5 -8.5t-5.5 -21.5l-501 -658q-11 -15 -30 -15h-16q-15 0 -19.5 8.5t5.5 21.5zM193 493q34 0 57.5 24t23.5 59q0 34 -23.5 58.5
t-57.5 24.5t-57.5 -24.5t-23.5 -58.5q0 -35 23.5 -59t57.5 -24zM727 126q0 58 41 99t99 41t99.5 -41t41.5 -99q0 -57 -41.5 -97.5t-99.5 -40.5t-99 40.5t-41 97.5zM390 126q0 58 41.5 99t99.5 41t99.5 -41t41.5 -99q0 -57 -41.5 -97.5t-99.5 -40.5t-99.5 40.5t-41.5 97.5z
M786 127q0 -35 23.5 -59t57.5 -24t57.5 24t23.5 59q0 34 -23.5 58.5t-57.5 24.5t-57.5 -24.5t-23.5 -58.5zM450 127q0 -35 23.5 -59t57.5 -24t57.5 24t23.5 59q0 34 -23.5 58.5t-57.5 24.5t-57.5 -24.5t-23.5 -58.5z" />
    <glyph glyph-name="guilsinglleft" unicode="&#x2039;" horiz-adv-x="313" 
d="M203 91l-138 174q-15 17 0 34l138 175q11 14 30 14h17q16 0 20 -8.5t-6 -21.5l-140 -176l140 -175q10 -13 6.5 -21.5t-18.5 -8.5h-19q-19 0 -30 14z" />
    <glyph glyph-name="guilsinglright" unicode="&#x203a;" horiz-adv-x="313" 
d="M82 77q-16 0 -20 8.5t6 21.5l139 175l-139 176q-10 13 -6.5 21.5t19.5 8.5h18q17 0 30 -14l138 -175q15 -17 0 -34l-138 -174q-13 -14 -30 -14h-17z" />
    <glyph glyph-name="fraction" unicode="&#x2044;" horiz-adv-x="158" 
d="M-47 19q-7 -19 -28 -19h-10q-13 0 -17 8t2 21l313 655q9 19 29 19h9q13 0 17.5 -8t-2.5 -21z" />
    <glyph glyph-name="zerosuperior" unicode="&#x2070;" horiz-adv-x="390" 
d="M195 413q-152 0 -152 228q0 227 152 227q153 0 153 -227q0 -228 -153 -228zM195 465q96 0 96 176t-96 176t-96 -176t96 -176z" />
    <glyph glyph-name="foursuperior" unicode="&#x2074;" horiz-adv-x="372" 
d="M253 423q-24 0 -24 25v89h-187q-25 0 -25 19v7q0 12 10 25l191 255q11 15 30 15h11q25 0 25 -24v-247h43q23 0 23 -23v-3q0 -24 -23 -24h-43v-89q0 -25 -25 -25h-6zM85 587h144v136l3 62h-2q-15 -27 -32 -49l-113 -147v-2z" />
    <glyph glyph-name="fivesuperior" unicode="&#x2075;" horiz-adv-x="351" 
d="M179 413q-65 0 -119 51q-17 15 1 35l3 2q15 15 33 0q34 -36 80 -36q42 0 71.5 27.5t29.5 67.5t-29.5 68t-72.5 28q-29 0 -61 -16q-22 -7 -33 -2q-16 7 -15 28l20 169q1 23 26 23h170q24 0 24 -23v-3q0 -24 -24 -24h-148l-8 -78l-6 -38h2q25 12 60 12q65 0 108.5 -42
t43.5 -102q0 -61 -45 -104t-111 -43z" />
    <glyph glyph-name="sixsuperior" unicode="&#x2076;" horiz-adv-x="373" 
d="M198 413q-71 0 -114.5 56t-43.5 145q0 44 11 87t33 81.5t61 62t88 23.5q35 0 63 -12q23 -8 13 -31l-2 -4q-9 -19 -27 -13q-27 9 -48 9q-54 0 -88 -44.5t-43 -108.5h2q15 17 42 28t54 11q62 0 101.5 -39t39.5 -102q0 -69 -40.5 -109t-101.5 -40zM198 465q40 0 63 27.5
t23 70.5q0 42 -25 68t-67 26q-37 0 -65.5 -21t-28.5 -47q0 -43 28.5 -83.5t71.5 -40.5z" />
    <glyph glyph-name="sevensuperior" unicode="&#x2077;" horiz-adv-x="327" 
d="M73 423q-15 0 -20 8t3 21l158 299l33 57v2q-19 -2 -50 -2h-150q-25 0 -25 24v3q0 23 25 23h241q24 0 24 -18v-4q0 -18 -7 -30l-195 -366q-8 -17 -28 -17h-9z" />
    <glyph glyph-name="eightsuperior" unicode="&#x2078;" horiz-adv-x="381" 
d="M191 413q-61 0 -106.5 36t-45.5 98q0 29 15.5 56t29.5 39.5t28 21.5q-54 37 -54 92q0 53 40 82.5t95 29.5t96 -30.5t41 -84.5q0 -59 -57 -116q67 -37 67 -99q0 -53 -43.5 -89t-105.5 -36zM231 658q44 44 44 93q0 32 -24.5 49.5t-58.5 17.5q-32 0 -55.5 -16.5t-23.5 -47.5
q0 -13 5.5 -24t11.5 -18t21 -16t23 -13t29 -13zM191 463q35 0 63.5 22t28.5 54q0 16 -7 28.5t-22.5 23t-28.5 17.5t-37.5 17.5t-36.5 16.5q-57 -44 -57 -93q0 -39 29.5 -62.5t67.5 -23.5z" />
    <glyph glyph-name="ninesuperior" unicode="&#x2079;" horiz-adv-x="373" 
d="M77 425q-23 9 -12 31l2 4q8 18 27 14q25 -9 47 -9q54 0 88 44t44 109h-2q-16 -17 -43.5 -28.5t-53.5 -11.5q-62 0 -101.5 39.5t-39.5 101.5q0 69 40.5 109t101.5 40q71 0 114.5 -56t43.5 -144q0 -44 -11 -87.5t-33 -82t-60.5 -62t-87.5 -23.5q-30 0 -64 12zM181 624
q37 0 65.5 21.5t28.5 46.5q0 43 -28.5 84t-71.5 41q-40 0 -63 -28t-23 -70t25.5 -68.5t66.5 -26.5z" />
    <glyph glyph-name="zeroinferior" unicode="&#x2080;" horiz-adv-x="390" 
d="M195 -167q-152 0 -152 228q0 227 152 227q153 0 153 -227q0 -228 -153 -228zM195 -115q96 0 96 176t-96 176t-96 -176t96 -176z" />
    <glyph glyph-name="oneinferior" unicode="&#x2081;" horiz-adv-x="289" 
d="M57 -157q-25 0 -25 24v3q0 23 23 23h72v289l1 24h-1q-4 -7 -20 -24l-27 -26q-14 -13 -28 1l-6 6q-15 17 3 34l68 69q13 12 31 12h10q24 0 24 -24v-361h68q24 0 24 -23v-3q0 -24 -24 -24h-193z" />
    <glyph glyph-name="twoinferior" unicode="&#x2082;" horiz-adv-x="348" 
d="M57 -157q-25 0 -25 30q0 40 16 72t40 52t52 40t52 36t40 38.5t16 48.5q0 32 -23 54.5t-59 22.5q-38 0 -72 -32q-18 -15 -34 -1l-2 2q-19 19 -2 34q48 48 112 48q62 0 99.5 -36t37.5 -91q0 -41 -21.5 -73t-52.5 -53t-62 -40t-54 -45t-24 -57h197q24 0 24 -23v-3
q0 -24 -24 -24h-231z" />
    <glyph glyph-name="threeinferior" unicode="&#x2083;" horiz-adv-x="352" 
d="M180 -167q-77 0 -126 49q-18 15 -2 33l4 4q13 16 33 2q38 -36 90 -36q36 0 64.5 25.5t28.5 63.5t-29 61t-67 23h-16q-19 0 -25 15q-7 15 6 31l86 100l24 25v2q-18 -3 -37 -3h-129q-24 0 -24 24v3q0 23 24 23h214q25 0 25 -18v-4q0 -14 -12 -27l-107 -125q50 -6 87 -38
t37 -92q0 -58 -43 -99.5t-106 -41.5z" />
    <glyph glyph-name="fourinferior" unicode="&#x2084;" horiz-adv-x="372" 
d="M253 -157q-24 0 -24 25v89h-187q-25 0 -25 19v7q0 12 10 25l191 255q11 15 30 15h11q25 0 25 -24v-247h43q23 0 23 -23v-3q0 -24 -23 -24h-43v-89q0 -25 -25 -25h-6zM85 7h144v136l3 62h-2q-15 -27 -32 -49l-113 -147v-2z" />
    <glyph glyph-name="fiveinferior" unicode="&#x2085;" horiz-adv-x="351" 
d="M179 -167q-65 0 -119 51q-17 15 1 35l3 2q15 15 33 0q34 -36 80 -36q42 0 71.5 27.5t29.5 67.5t-29.5 68t-72.5 28q-29 0 -61 -16q-22 -7 -33 -2q-16 7 -15 28l20 169q1 23 26 23h170q24 0 24 -23v-3q0 -24 -24 -24h-148l-8 -78l-6 -38h2q25 12 60 12q65 0 108.5 -42
t43.5 -102q0 -61 -45 -104t-111 -43z" />
    <glyph glyph-name="sixinferior" unicode="&#x2086;" horiz-adv-x="373" 
d="M198 -167q-71 0 -114.5 56t-43.5 145q0 44 11 87t33 81.5t61 62t88 23.5q35 0 63 -12q23 -8 13 -31l-2 -4q-9 -19 -27 -13q-27 9 -48 9q-54 0 -88 -44.5t-43 -108.5h2q15 17 42 28t54 11q62 0 101.5 -39t39.5 -102q0 -69 -40.5 -109t-101.5 -40zM198 -115q40 0 63 27.5
t23 70.5q0 42 -25 68t-67 26q-37 0 -65.5 -21t-28.5 -47q0 -43 28.5 -83.5t71.5 -40.5z" />
    <glyph glyph-name="seveninferior" unicode="&#x2087;" horiz-adv-x="327" 
d="M73 -157q-15 0 -20 8t3 21l158 299l33 57v2q-19 -2 -50 -2h-150q-25 0 -25 24v3q0 23 25 23h241q24 0 24 -18v-4q0 -18 -7 -30l-195 -366q-8 -17 -28 -17h-9z" />
    <glyph glyph-name="eightinferior" unicode="&#x2088;" horiz-adv-x="381" 
d="M191 -166q-61 0 -106.5 36t-45.5 98q0 29 15.5 56t29.5 39.5t28 21.5q-54 37 -54 92q0 53 40 82.5t95 29.5t96 -30.5t41 -84.5q0 -59 -57 -116q67 -37 67 -99q0 -53 -43.5 -89t-105.5 -36zM231 79q44 44 44 93q0 32 -24.5 49.5t-58.5 17.5q-32 0 -55.5 -16.5t-23.5 -47.5
q0 -13 5.5 -24t11.5 -18t21 -16t23 -13t29 -13zM191 -116q35 0 63.5 22t28.5 54q0 16 -7 28.5t-22.5 23t-28.5 17.5t-37.5 17.5t-36.5 16.5q-57 -44 -57 -93q0 -39 29.5 -62.5t67.5 -23.5z" />
    <glyph glyph-name="nineinferior" unicode="&#x2089;" horiz-adv-x="373" 
d="M77 -155q-23 9 -12 31l2 4q8 18 27 14q25 -9 47 -9q54 0 88 44t44 109h-2q-16 -17 -43.5 -28.5t-53.5 -11.5q-62 0 -101.5 39.5t-39.5 101.5q0 69 40.5 109t101.5 40q71 0 114.5 -56t43.5 -144q0 -44 -11 -87.5t-33 -82t-60.5 -62t-87.5 -23.5q-30 0 -64 12zM181 44
q37 0 65.5 21.5t28.5 46.5q0 43 -28.5 84t-71.5 41q-40 0 -63 -28t-23 -70t25.5 -68.5t66.5 -26.5z" />
    <glyph glyph-name="Euro" unicode="&#x20ac;" horiz-adv-x="595" 
d="M66 266q-24 0 -24 25q0 26 24 26h31q-6 37 1 81h-32q-24 0 -24 25q0 26 24 26h41q29 118 121 192t214 74q22 0 70 -6q25 -5 19 -30l-5 -17q-6 -22 -27 -19q-28 6 -58 6q-95 0 -164.5 -54.5t-95.5 -145.5h278q28 0 22 -27q-4 -24 -28 -24h-283q-7 -33 -1 -81h266
q28 0 22 -27q-5 -24 -28 -24h-249q23 -95 94.5 -153.5t168.5 -58.5q29 0 66 7q25 5 29 -17l4 -18q7 -23 -18 -29q-40 -9 -82 -9q-126 0 -218.5 77.5t-118.5 200.5h-39z" />
    <glyph glyph-name="trademark" unicode="&#x2122;" horiz-adv-x="953" 
d="M449 291l32 389q2 23 25 23h7q20 0 29 -19l107 -232l14 -41h2q5 22 14 41l107 232q7 19 29 19h7q23 0 25 -23l32 -389q0 -26 -24 -26h-7q-23 0 -25 23l-23 274l1 29h-2l-104 -225q-7 -19 -28 -19h-6q-21 0 -29 19l-103 225h-2l1 -29l-24 -274q-2 -23 -25 -23h-6
q-26 0 -24 26zM222 265q-25 0 -25 24v362h-131q-25 0 -25 24v4q0 24 25 24h320q25 0 25 -24v-4q0 -24 -25 -24h-132v-362q0 -24 -25 -24h-7z" />
    <glyph glyph-name="minus" unicode="&#x2212;" horiz-adv-x="606" 
d="M75 255q-25 0 -25 24v9q0 25 25 25h456q25 0 25 -25v-9q0 -24 -25 -24h-456z" />
    <glyph glyph-name="infinity" unicode="&#x221e;" horiz-adv-x="469" 
d="M235 176q-71 0 -122 51t-51 122q0 72 50.5 122t122.5 50t122 -50t50 -122t-50 -122.5t-122 -50.5z" />
    <glyph glyph-name="approxequal" unicode="&#x2248;" horiz-adv-x="606" 
d="M89 341l-3 5q-14 21 3 34q62 54 129 54q50 0 107.5 -35t90.5 -35q46 0 94 39q19 15 34 -3l4 -5q13 -21 -4 -35q-63 -53 -128 -53q-50 0 -107.5 35t-90.5 35q-48 0 -94 -39q-20 -15 -35 3zM89 167l-3 5q-14 21 3 35q63 53 129 53q50 0 107.5 -35t90.5 -35q46 0 94 39
q19 15 34 -3l4 -5q13 -21 -4 -34q-62 -54 -128 -54q-50 0 -107.5 35t-90.5 35q-48 0 -94 -39q-20 -15 -35 3z" />
    <glyph glyph-name="notequal" unicode="&#x2260;" horiz-adv-x="606" 
d="M147 69q-21 14 -7 34l48 65h-94q-24 0 -24 24v9q0 25 24 25h135l85 116h-220q-24 0 -24 24v9q0 25 24 25h261l72 96q15 21 35 5q20 -14 9 -30l-53 -71h93q25 0 25 -25v-9q0 -24 -25 -24h-133l-86 -116h219q25 0 25 -25v-9q0 -24 -25 -24h-260l-69 -94q-15 -21 -35 -5z
" />
    <glyph glyph-name="lessequal" unicode="&#x2264;" horiz-adv-x="606" 
d="M82 250q-19 9 -19 29v10q0 21 19 28l404 181q13 6 21 1t8 -19v-16q0 -21 -19 -28l-349 -151v-2l349 -151q19 -7 19 -28v-16q0 -14 -8 -19t-21 0zM88 -104h402q25 0 25 -25v-9q0 -24 -25 -24h-402q-24 0 -24 24v9q0 25 24 25z" />
    <glyph glyph-name="greaterequal" unicode="&#x2265;" horiz-adv-x="606" 
d="M91 88v16q0 21 19 28l349 151v2l-349 151q-19 7 -19 28v16q0 14 8 19t21 -1l404 -181q19 -7 19 -28v-10q0 -20 -19 -29l-404 -180q-13 -6 -21 -1t-8 19zM115 -104h402q25 0 25 -25v-9q0 -24 -25 -24h-402q-25 0 -25 24v9q0 25 25 25z" />
    <glyph glyph-name="commaaccent" unicode="&#xf6c3;" horiz-adv-x="335" 
d="M136 -80q0 17 22 17h15q29 0 29 -51q0 -31 -12 -61.5t-32 -30.5h-6q-22 0 -22 16q0 2 5 20.5t5 42.5q0 17 -2 28.5t-2 18.5z" />
    <glyph glyph-name="apple" unicode="&#xf8ff;" horiz-adv-x="1130" 
d="M168 -5v152l-126 72v278l126 71v151l265 142l134 -71l132 71l265 -142v-151l124 -71v-278l-124 -72v-152l-265 -141l-132 71l-134 -71zM208 30l238 -126l121 66l118 -66l238 126v139l114 64v249l-114 66v136l-238 126l-118 -64l-121 64l-238 -126v-136l-114 -66v-249
l114 -64v-139zM242 64v121l-99 60v225l99 58v123l215 114l110 -59l107 59l214 -114v-123l100 -58v-225l-100 -60v-121l-214 -114l-107 58l-110 -58zM443 91h60v217h218v53h-218v179h176q16 0 21.5 -6t5.5 -21v-38h56v64q0 29 -12.5 42t-43.5 13h-325v-54h62v-449z" />
    <glyph glyph-name="f_f" unicode="&#xfb00;" horiz-adv-x="611" 
d="M96 25v421h-40q-24 0 -24 24v8q0 25 24 25h40v19q0 56 18.5 95.5t47.5 57.5t54 25.5t49 7.5h11q24 0 24 -25v-12q0 -23 -27 -24q-20 -1 -35.5 -5t-34 -16t-29 -38.5t-10.5 -66.5v-18h237v19q0 56 18.5 95.5t48 57.5t54.5 25.5t49 7.5h10q25 0 25 -25v-12q0 -22 -28 -24
q-20 -1 -35.5 -5t-34 -16t-29 -38.5t-10.5 -66.5v-18h104q25 0 25 -25v-8q0 -24 -23 -24h-106v-421q0 -25 -24 -25h-19q-25 0 -25 25v421h-237v-421q0 -25 -25 -25h-19q-24 0 -24 25z" />
    <glyph glyph-name="fi" unicode="&#xfb01;" horiz-adv-x="528" 
d="M95 25v421h-40q-24 0 -24 24v8q0 25 24 25h40v19q0 56 18.5 95.5t48 57.5t54.5 25.5t48 7.5h11q24 0 24 -25v-12q0 -23 -27 -24q-20 -1 -35.5 -5t-34 -16t-29 -38.5t-10.5 -66.5v-18h263q25 0 25 -25v-453q0 -25 -25 -25h-19q-24 0 -24 25v421h-220v-421q0 -25 -25 -25
h-19q-24 0 -24 25zM405 618q-25 0 -25 24v36q0 25 25 25h24q25 0 25 -25v-36q0 -24 -25 -24h-24z" />
    <glyph glyph-name="fl" unicode="&#xfb02;" horiz-adv-x="550" 
d="M383 119v559q0 25 24 25h19q25 0 25 -25v-547q0 -29 9.5 -46t18.5 -21t24 -6q21 -2 21 -22v-15q0 -25 -26 -25q-15 0 -28 2t-30 9.5t-28.5 20.5t-20 36.5t-8.5 54.5zM95 25v417h-40q-24 0 -24 24v8q0 25 24 25h40v23q0 56 18.5 95.5t48 57.5t54.5 25.5t48 7.5h11
q24 0 24 -25v-12q0 -23 -27 -24q-20 -1 -35.5 -5t-34 -16t-29 -38.5t-10.5 -66.5v-22h104q24 0 24 -25v-8q0 -24 -24 -24h-104v-417q0 -25 -25 -25h-19q-24 0 -24 25z" />
    <glyph glyph-name="f_f_i" unicode="&#xfb03;" horiz-adv-x="834" 
d="M95 25l-1 421h-39q-24 0 -24 24v8q0 25 24 25h39l1 19q0 56 18.5 95.5t48 57.5t54.5 25.5t48 7.5h11q24 0 24 -25v-12q0 -23 -27 -24q-20 -1 -35.5 -5t-34 -16t-29 -38.5t-10.5 -66.5v-18h237v19q0 56 18.5 95.5t48 57.5t54.5 25.5t49 7.5h10q25 0 25 -25v-12
q0 -23 -28 -24q-20 -1 -35.5 -5t-34 -16t-29 -38.5t-10.5 -66.5v-18h264q24 0 24 -25v-453q0 -25 -24 -25h-19q-25 0 -25 25v421h-220v-421q0 -25 -24 -25h-19q-25 0 -25 25v421h-237v-421q0 -25 -25 -25h-19q-24 0 -24 25zM686 642v36q0 25 24 25h25q24 0 24 -25v-36
q0 -24 -24 -24h-25q-24 0 -24 24z" />
    <glyph glyph-name="f_f_l" unicode="&#xfb04;" horiz-adv-x="856" 
d="M96 25l-1 421h-39q-24 0 -24 24v8q0 25 24 25h39l1 19q0 56 18.5 95.5t47.5 57.5t54 25.5t49 7.5h11q24 0 24 -25v-12q0 -23 -27 -24q-20 -1 -35.5 -5t-34 -16t-29 -38.5t-10.5 -66.5v-18h237v19q0 56 18.5 95.5t48 57.5t54.5 25.5t49 7.5h10q25 0 25 -25v-12
q0 -22 -28 -24q-20 -1 -35.5 -5t-34 -16t-29 -38.5t-10.5 -66.5v-18h104q25 0 25 -25v-8q0 -24 -23 -24h-106v-421q0 -25 -24 -25h-19q-25 0 -25 25v421h-237v-421q0 -25 -25 -25h-19q-24 0 -24 25zM690 119v559q0 25 24 25h19q25 0 25 -25v-547q0 -29 9 -46t18.5 -21
t24.5 -6q21 -2 21 -22v-15q0 -25 -26 -25q-15 0 -28 2t-30 9.5t-28.5 20.5t-20 36.5t-8.5 54.5z" />
    <glyph glyph-name="f_j" horiz-adv-x="530" 
d="M96 25v421h-40q-24 0 -24 24v8q0 25 24 25h40v19q0 56 18.5 95.5t47.5 57.5t54 25.5t49 7.5h11q24 0 24 -25v-12q0 -23 -27 -24q-20 -1 -35.5 -5t-34 -16t-29 -38.5t-10.5 -66.5v-18h264q24 0 24 -25v-496q0 -57 -19 -97.5t-49 -58.5t-54.5 -25t-47.5 -7h-10
q-24 0 -24 25v11q0 22 24 24q21 1 37 6t35 17.5t29.5 39.5t10.5 67v462h-220v-421q0 -25 -25 -25h-19q-24 0 -24 25zM406 618q-25 0 -25 24v36q0 25 25 25h24q25 0 25 -25v-36q0 -24 -25 -24h-24z" />
    <glyph glyph-name="zero.tnum" 
d="M283 -12q-243 0 -243 364q0 107 21.5 185t77.5 128t144 50t144 -50t77.5 -128t21.5 -185q0 -364 -243 -364zM283 53q171 0 171 299q0 298 -171 298t-171 -298q0 -299 171 -299z" />
    <glyph glyph-name="one.tnum" 
d="M104 25v12q0 25 25 25h133v516l1 39h-2q-8 -15 -34 -41l-59 -58q-16 -18 -34 0l-9 10q-19 16 -1 34l129 128q13 13 30 13h23q24 0 24 -25v-616h130q25 0 25 -25v-12q0 -25 -25 -25h-331q-25 0 -25 25z" />
    <glyph glyph-name="two.tnum" 
d="M58 25v20q0 50 20 93.5t51.5 75t70 60t77 54.5t70 52.5t51.5 61t20 72.5q0 59 -40 97t-106 38q-87 0 -143 -76q-17 -20 -35 -6l-11 9q-19 14 -6 33q27 39 76.5 72.5t122.5 33.5q98 0 156.5 -56t58.5 -141q0 -55 -26.5 -102.5t-66 -79t-86 -65t-86 -61t-66.5 -66.5
t-27 -82h344q25 0 25 -25v-12q0 -25 -25 -25h-392q-27 0 -27 25z" />
    <glyph glyph-name="three.tnum" 
d="M74 68q-17 16 -2 35l12 15q14 17 34 2q75 -66 161 -66q65 0 113 43t48 109q0 71 -51.5 110.5t-125.5 39.5h-28q-20 0 -27 18l-3 5q-7 17 6 33l163 191l37 39v2q-20 -3 -57 -3h-239q-25 0 -25 25v12q0 25 25 25h361q25 0 25 -23v-5q0 -19 -11 -31l-199 -229q28 -2 56.5 -9
t58.5 -22.5t53 -38t37.5 -58t14.5 -79.5q0 -91 -66 -155.5t-165 -64.5q-111 0 -206 80z" />
    <glyph glyph-name="four.tnum" 
d="M39 195q-24 0 -24 24v4q0 18 9 30l326 435q12 15 30 15h31q24 0 24 -25v-423h76q24 0 24 -24v-12q0 -24 -22 -24h-78v-170q0 -25 -24 -25h-20q-25 0 -25 25v170h-327zM98 255h268v295l4 67h-2q-17 -29 -35 -54l-235 -306v-2z" />
    <glyph glyph-name="five.tnum" 
d="M88 70q-17 17 0 34l12 14q17 17 34 0q58 -64 142 -64q74 0 124.5 47t50.5 118q0 72 -51 119t-127 47q-52 0 -112 -30q-16 -9 -33 -3l-7 2q-20 8 -18 29l33 297q3 23 26 23h292q25 0 25 -25v-12q0 -25 -25 -25h-255l-20 -180l-7 -40h2q44 27 107 27q105 0 173.5 -66.5
t68.5 -162.5q0 -97 -70.5 -164t-173.5 -67q-112 0 -191 82z" />
    <glyph glyph-name="six.tnum" 
d="M50 317q0 55 11 110t35.5 107t59.5 92t87.5 64.5t115.5 24.5q59 0 106 -19q23 -9 14 -32l-7 -16q-9 -20 -32 -14q-39 16 -80 16q-103 0 -163.5 -84t-71.5 -200h2q26 38 74.5 61t106.5 23q95 0 156 -62.5t61 -162.5q0 -107 -63 -172t-158 -65q-113 0 -183.5 93t-70.5 236z
M125 266q0 -74 51.5 -143.5t126.5 -69.5q70 0 111 47t41 123q0 75 -44 120t-117 45q-68 0 -118.5 -38t-50.5 -84z" />
    <glyph glyph-name="seven.tnum" 
d="M133 29l270 547l38 65v2q-17 -2 -52 -2h-304q-25 0 -25 25v12q0 25 25 25h407q25 0 25 -23v-9q0 -16 -7 -31l-310 -622q-9 -18 -29 -18h-20q-14 0 -19 8t1 21z" />
    <glyph glyph-name="eight.tnum" 
d="M45 198q0 42 14.5 78.5t38.5 61.5t37 36t27 20q-89 58 -89 143q0 74 55.5 126t157.5 52q97 0 156 -50t59 -131q0 -46 -22 -94t-37 -66.5t-28 -31.5q103 -58 103 -152q0 -83 -66.5 -142.5t-166.5 -59.5q-99 0 -169 58.5t-70 151.5zM357 369q75 75 75 158q0 58 -40 91.5
t-106 33.5t-104.5 -33t-38.5 -82q0 -22 10 -42t22 -32.5t38 -27.5t42 -22.5t51.5 -22.5t50.5 -21zM116 203q0 -67 50 -109.5t117 -42.5q64 0 113.5 39.5t49.5 97.5q0 28 -11 49t-37.5 39t-47.5 28.5t-66 29.5t-67 29q-101 -71 -101 -160z" />
    <glyph glyph-name="nine.tnum" 
d="M87 38l7 18q7 20 31 13q41 -16 80 -16q71 0 124 43.5t79 105.5t32 135h-2q-26 -38 -75.5 -61t-106.5 -23q-94 0 -155 63.5t-61 162.5q0 107 63 171.5t158 64.5q113 0 183.5 -93t70.5 -236q0 -69 -18.5 -137t-54 -127.5t-97 -96.5t-139.5 -37q-56 0 -106 19q-23 9 -13 31z
M272 315q68 0 118 38t50 84q0 74 -51.5 143.5t-126.5 69.5q-70 0 -110.5 -47t-40.5 -123q0 -75 43.5 -120t117.5 -45z" />
    <glyph glyph-name="hyphen.case" horiz-adv-x="424" 
d="M94 318q-24 0 -24 24v13q0 25 24 25h235q24 0 24 -25v-13q0 -24 -24 -24h-235z" />
    <glyph glyph-name="parenleft.case" horiz-adv-x="265" 
d="M160 -50q-104 190 -104 417q0 200 103 376q9 17 29 17h11q14 0 19 -8t-2 -21q-97 -177 -97 -364q0 -214 98 -403q6 -13 1.5 -21t-17.5 -8h-12q-21 0 -29 15z" />
    <glyph glyph-name="parenright.case" horiz-adv-x="265" 
d="M51 -35q98 187 98 402q0 187 -97 364q-7 13 -2.5 21t17.5 8h13q20 0 29 -17q103 -176 103 -376q0 -227 -103 -415q-10 -17 -30 -17h-11q-14 0 -18.5 8.5t1.5 21.5z" />
    <glyph glyph-name="bracketleft.case" horiz-adv-x="267" 
d="M87 -40v775q0 25 24 25h87q24 0 24 -25v-6q0 -25 -24 -25h-48v-713h48q24 0 24 -25v-6q0 -25 -24 -25h-87q-24 0 -24 25z" />
    <glyph glyph-name="bracketright.case" horiz-adv-x="267" 
d="M45 -34q0 25 25 25h47v713h-47q-25 0 -25 25v6q0 25 25 25h86q24 0 24 -25v-775q0 -25 -24 -25h-86q-25 0 -25 25v6z" />
    <glyph glyph-name="braceleft.case" horiz-adv-x="308" 
d="M115 113v95q0 81 -65 108q-20 12 -20 27v20q0 15 20 27q65 24 65 109v82q0 56 15.5 94.5t39 55t42 23t35.5 6.5h8q24 0 24 -24v-9q0 -25 -24 -25q-11 0 -21.5 -3.5t-24.5 -15t-22.5 -38.5t-8.5 -68v-96q0 -27 -8 -50.5t-20 -37t-24 -23t-20 -12.5l-8 -4v-2q3 -1 8.5 -3.5
t19.5 -12t24.5 -22.5t19 -36.5t8.5 -52.5v-109q0 -41 8.5 -68t22.5 -38.5t24.5 -15t21.5 -3.5q24 0 24 -24v-9q0 -25 -24 -25h-8q-17 0 -35.5 6.5t-42 23t-39 55.5t-15.5 95z" />
    <glyph glyph-name="braceright.case" horiz-adv-x="308" 
d="M28 -33q0 24 25 24q11 0 21 3.5t24 15t22.5 38.5t8.5 68v109q0 29 8 52.5t20 36.5t24 22.5t20 12.5l8 3v2q-3 1 -8.5 3.5t-19.5 13t-24.5 23.5t-19 36.5t-8.5 50.5v96q0 41 -8.5 68t-22.5 38.5t-24 15t-21 3.5q-25 0 -25 25v9q0 24 25 24h7q13 0 27 -3t34 -14.5t35 -29.5
t25.5 -52.5t10.5 -79.5v-82q0 -85 66 -109q19 -11 19 -27v-20q0 -16 -20 -27q-65 -27 -65 -108v-95q0 -56 -15 -95t-39 -55.5t-42.5 -23t-35.5 -6.5h-7q-25 0 -25 25v9z" />
    <glyph glyph-name="at.case" horiz-adv-x="742" 
d="M41 350q0 153 104 260t252 107q126 0 185.5 -54t59.5 -135v-315h46q24 0 24 -25v-6q0 -25 -24 -25h-244q-86 0 -143 56.5t-57 135.5t57 135.5t143 56.5h130q-2 51 -45.5 84.5t-126.5 33.5q-122 0 -206.5 -91t-84.5 -218q0 -122 77 -209.5t195 -95.5q24 -3 24 -25v-11
q0 -26 -25 -24q-146 9 -243.5 113.5t-97.5 251.5zM314 350q0 -57 39.5 -97t96.5 -40h124v275h-122q-59 0 -98.5 -40.5t-39.5 -97.5z" />
    <glyph glyph-name="guillemotleft.case" horiz-adv-x="485" 
d="M236 325q-15 17 0 34l138 175q11 14 30 14h17q16 0 20 -8.5t-6 -21.5l-139 -176l139 -175q10 -13 6.5 -21.5t-18.5 -8.5h-19q-19 0 -30 14zM194 151l-138 174q-15 17 0 34l138 175q13 14 30 14h17q16 0 20 -8.5t-6 -21.5l-139 -176l139 -175q10 -13 6.5 -21.5t-18.5 -8.5
h-19q-17 0 -30 14z" />
    <glyph glyph-name="guillemotright.case" horiz-adv-x="486" 
d="M249 167l140 175l-140 176q-10 13 -6.5 21.5t19.5 8.5h18q19 0 30 -14l138 -175q15 -17 0 -34l-138 -174q-11 -14 -30 -14h-17q-16 0 -20 8.5t6 21.5zM84 137q-16 0 -20.5 8.5t5.5 21.5l140 175l-140 176q-10 13 -6 21.5t19 8.5h18q19 0 30 -14l139 -175q14 -17 0 -34
l-139 -174q-11 -14 -30 -14h-16z" />
    <glyph glyph-name="guilsinglleft.case" horiz-adv-x="305" 
d="M194 151l-138 174q-15 17 0 34l138 175q13 14 30 14h17q16 0 20 -8.5t-6 -21.5l-139 -176l139 -175q10 -13 6.5 -21.5t-18.5 -8.5h-19q-17 0 -30 14z" />
    <glyph glyph-name="guilsinglright.case" horiz-adv-x="306" 
d="M84 137q-16 0 -20.5 8.5t5.5 21.5l140 175l-140 176q-10 13 -6 21.5t19 8.5h18q19 0 30 -14l139 -175q14 -17 0 -34l-139 -174q-11 -14 -30 -14h-16z" />
    <glyph glyph-name="endash.case" horiz-adv-x="639" 
d="M94 315q-25 0 -25 24v9q0 25 25 25h451q24 0 24 -25v-9q0 -24 -24 -24h-451z" />
    <glyph glyph-name="emdash.case" horiz-adv-x="839" 
d="M94 315q-25 0 -25 24v9q0 25 25 25h651q24 0 24 -25v-9q0 -24 -24 -24h-651z" />
    <glyph glyph-name="periodcentered.case" horiz-adv-x="217" 
d="M94 306q-24 0 -24 25v31q0 24 24 24h28q25 0 25 -24v-31q0 -25 -25 -25h-28z" />
    <glyph glyph-name="questiondown.case" horiz-adv-x="411" 
d="M254 518q25 0 25 -25v-23q0 -42 -18 -77t-43.5 -59t-51.5 -47t-44 -54t-18 -67q0 -49 37 -82t94 -33q53 0 101 29q23 12 34 -6l8 -12q16 -21 -5 -34q-63 -42 -141 -42q-86 0 -143 50t-57 127q0 45 18 81.5t44 61.5t52 48t45 53t20 66l1 24q2 21 23 21h19zM284 677v-29
q0 -25 -24 -25h-30q-24 0 -24 25v29q0 25 24 25h30q24 0 24 -25z" />
    <glyph glyph-name="exclamdown.case" horiz-adv-x="248" 
d="M131 518q25 0 25 -24l3 -470q0 -25 -25 -25h-21q-24 0 -24 25l3 470q0 24 24 24h15zM162 677v-29q0 -25 -24 -25h-30q-24 0 -24 25v29q0 25 24 25h30q24 0 24 -25z" />
    <glyph glyph-name="bullet.case" horiz-adv-x="394" 
d="M198 208q-59 0 -101 42t-42 101t42 101t101 42t100.5 -42t41.5 -101t-41.5 -101t-100.5 -42z" />
    <glyph glyph-name="zero.p_osf" horiz-adv-x="606" 
d="M68 270q0 116 61.5 200.5t173.5 84.5t173.5 -84.5t61.5 -200.5t-61 -199t-174 -83t-174 83.5t-61 198.5zM138 272q0 -91 43 -157t122 -66t122.5 66t43.5 156q0 91 -43.5 157t-122.5 66t-122 -66t-43 -156z" />
    <glyph glyph-name="one.p_osf" horiz-adv-x="452" 
d="M79 25v11q0 24 24 24h131v360l1 53h-2q-15 -13 -38 -27l-85 -51q-19 -12 -33 8l-5 8q-14 20 8 33l144 90q15 9 31 9h22q24 0 24 -25v-458h115q24 0 24 -24v-11q0 -25 -24 -25h-313q-24 0 -24 25z" />
    <glyph glyph-name="two.p_osf" horiz-adv-x="538" 
d="M74 25v5q0 17 16 29q162 109 234 181.5t72 139.5q0 56 -38 84.5t-96 28.5q-72 0 -139 -61q-19 -14 -35 2l-7 10q-16 20 1 34q83 77 188 77q92 0 144 -49.5t52 -117.5q0 -85 -67 -159.5t-216 -169.5v-2q19 3 56 3h229q24 0 24 -24v-11q0 -25 -24 -25h-369q-25 0 -25 25z
" />
    <glyph glyph-name="three.p_osf" horiz-adv-x="511" 
d="M60 -9q16 17 35 1q65 -59 147 -59q65 0 112.5 39.5t47.5 103.5q0 67 -52 103t-124 36h-29q-21 0 -29 21q-8 20 4 36l157 175l37 36v2q-20 -2 -57 -2h-207q-24 0 -24 24v11q0 25 24 25h335q24 0 24 -21v-4q0 -18 -11 -30l-199 -216q37 -2 72 -12t70.5 -30.5t57 -59.5
t21.5 -91q0 -91 -65.5 -149t-164.5 -58q-109 0 -189 74q-18 15 -2 35z" />
    <glyph glyph-name="four.p_osf" horiz-adv-x="577" 
d="M28 60v8q0 14 10 27l310 433q10 15 29 15h32q24 0 24 -25v-421h83q25 0 25 -24v-11q0 -25 -22 -25h-86v-128q0 -25 -24 -25h-19q-25 0 -25 25v128h-312q-25 0 -25 23zM110 97h255v295l4 67h-2q-17 -34 -35 -59z" />
    <glyph glyph-name="five.p_osf" horiz-adv-x="520" 
d="M64 -11l10 10q15 16 34 0q60 -57 136 -57q71 0 123 41t52 112q0 70 -51 110.5t-121 40.5q-56 0 -112 -28q-17 -6 -33 -1l-5 2q-20 6 -18 28l33 273q3 23 26 23h280q25 0 25 -25v-11q0 -24 -25 -24h-245l-20 -164l-6 -38h2q46 24 109 24q97 0 164 -55.5t67 -151.5
q0 -99 -69 -158t-172 -59q-112 0 -183 74q-18 17 -1 34z" />
    <glyph glyph-name="six.p_osf" horiz-adv-x="586" 
d="M61 289q0 66 18 131.5t53.5 122.5t96.5 92.5t138 35.5q61 0 106 -18q24 -8 13 -32l-6 -13q-9 -20 -31 -12q-48 14 -80 14q-54 0 -98 -23.5t-72 -63.5t-44.5 -87t-21.5 -99h2q27 39 76 61t107 22q94 0 154.5 -58.5t60.5 -151.5q0 -101 -62.5 -161.5t-157.5 -60.5
q-113 0 -182.5 85t-69.5 216zM135 246q0 -69 50.5 -133t126.5 -64q70 0 111 44.5t41 114.5q0 69 -43.5 111t-117.5 42q-68 0 -118 -36t-50 -79z" />
    <glyph glyph-name="seven.p_osf" horiz-adv-x="510" 
d="M113 -87l257 510l35 60v2q-20 -2 -52 -2h-289q-25 0 -25 24v11q0 25 25 25h394q25 0 25 -22v-9q0 -13 -8 -29l-295 -581q-9 -18 -29 -18h-19q-15 0 -20 8t1 21z" />
    <glyph glyph-name="eight.p_osf" horiz-adv-x="586" 
d="M61 189q0 100 118 180q-89 51 -89 135q0 69 54.5 118.5t151.5 49.5q95 0 153 -47.5t58 -124.5q0 -89 -89 -178q104 -55 104 -143q0 -79 -65 -135t-164 -56q-97 0 -164.5 55t-67.5 146zM362 349q11 9 25.5 24.5t33 52t18.5 71.5q0 52 -40 82.5t-103 30.5t-100.5 -30.5
t-37.5 -76.5q0 -21 9.5 -38.5t21 -29.5t36.5 -26t40.5 -20.5t49 -20t47.5 -19.5zM130 192q0 -64 49 -103.5t114 -39.5q64 0 112 37t48 93q0 25 -12 45t-38 36.5t-47.5 27t-61.5 26.5t-60 25q-104 -62 -104 -147z" />
    <glyph glyph-name="nine.p_osf" horiz-adv-x="581" 
d="M100 -65q9 20 20 17l12 -4q11 -4 20.5 -7t26 -5.5t33.5 -2.5q104 0 164.5 81t70.5 192h-2q-26 -39 -75.5 -61t-107.5 -22q-94 0 -154.5 58.5t-60.5 151.5q0 101 62.5 161.5t157.5 60.5q113 0 182.5 -85t69.5 -216q0 -66 -18 -131.5t-53.5 -122.5t-96.5 -92.5t-138 -35.5
q-61 0 -106 18q-25 8 -12 32zM277 182q68 0 118.5 36t50.5 79q0 69 -51 133t-127 64q-70 0 -110.5 -44.5t-40.5 -114.5q0 -69 43.5 -111t116.5 -42z" />
    <glyph glyph-name="zero.t_osf" 
d="M48 270q0 116 61.5 200.5t173.5 84.5t173.5 -84.5t61.5 -200.5t-61 -199t-174 -83t-174 83.5t-61 198.5zM118 272q0 -91 43 -157t122 -66t122.5 66t43.5 156q0 91 -43.5 157t-122.5 66t-122 -66t-43 -156z" />
    <glyph glyph-name="one.t_osf" 
d="M133 25v11q0 24 24 24h131v360l1 53h-2q-15 -13 -38 -27l-85 -51q-19 -12 -33 8l-5 8q-14 20 8 33l144 90q15 9 31 9h22q24 0 24 -25v-458h115q24 0 24 -24v-11q0 -25 -24 -25h-313q-24 0 -24 25z" />
    <glyph glyph-name="two.t_osf" 
d="M85 25v5q0 17 16 29q162 109 234 181.5t72 139.5q0 56 -38 84.5t-96 28.5q-72 0 -139 -61q-19 -14 -35 2l-7 10q-16 20 1 34q83 77 188 77q92 0 144 -49.5t52 -117.5q0 -85 -67 -159.5t-216 -169.5v-2q19 3 56 3h229q24 0 24 -24v-11q0 -25 -24 -25h-369q-25 0 -25 25z
" />
    <glyph glyph-name="three.t_osf" 
d="M85 -9q16 17 35 1q65 -59 147 -59q65 0 112.5 39.5t47.5 103.5q0 67 -52 103t-124 36h-29q-21 0 -29 21q-8 20 4 36l157 175l37 36v2q-20 -2 -57 -2h-207q-24 0 -24 24v11q0 25 24 25h335q24 0 24 -21v-4q0 -18 -11 -30l-199 -216q37 -2 72 -12t70.5 -30.5t57 -59.5
t21.5 -91q0 -91 -65.5 -149t-164.5 -58q-109 0 -189 74q-18 15 -2 35z" />
    <glyph glyph-name="four.t_osf" 
d="M22 60v8q0 14 10 27l310 433q10 15 29 15h32q24 0 24 -25v-421h83q25 0 25 -24v-11q0 -25 -22 -25h-86v-128q0 -25 -24 -25h-19q-25 0 -25 25v128h-312q-25 0 -25 23zM104 97h255v295l4 67h-2q-17 -34 -35 -59z" />
    <glyph glyph-name="five.t_osf" 
d="M86 -11l10 10q15 16 34 0q60 -57 136 -57q71 0 123 41t52 112q0 70 -51 110.5t-121 40.5q-56 0 -112 -28q-17 -6 -33 -1l-5 2q-20 6 -18 28l33 273q3 23 26 23h280q25 0 25 -25v-11q0 -24 -25 -24h-245l-20 -164l-6 -38h2q46 24 109 24q97 0 164 -55.5t67 -151.5
q0 -99 -69 -158t-172 -59q-112 0 -183 74q-18 17 -1 34z" />
    <glyph glyph-name="six.t_osf" 
d="M51 289q0 66 18 131.5t53.5 122.5t96.5 92.5t138 35.5q61 0 106 -18q24 -8 13 -32l-6 -13q-9 -20 -31 -12q-48 14 -80 14q-54 0 -98 -23.5t-72 -63.5t-44.5 -87t-21.5 -99h2q27 39 76 61t107 22q94 0 154.5 -58.5t60.5 -151.5q0 -101 -62.5 -161.5t-157.5 -60.5
q-113 0 -182.5 85t-69.5 216zM125 246q0 -69 50.5 -133t126.5 -64q70 0 111 44.5t41 114.5q0 69 -43.5 111t-117.5 42q-68 0 -118 -36t-50 -79z" />
    <glyph glyph-name="seven.t_osf" 
d="M139 -87l257 510l35 60v2q-20 -2 -52 -2h-289q-25 0 -25 24v11q0 25 25 25h394q25 0 25 -22v-9q0 -13 -8 -29l-295 -581q-9 -18 -29 -18h-19q-15 0 -20 8t1 21z" />
    <glyph glyph-name="eight.t_osf" 
d="M51 189q0 100 118 180q-89 51 -89 135q0 69 54.5 118.5t151.5 49.5q95 0 153 -47.5t58 -124.5q0 -89 -89 -178q104 -55 104 -143q0 -79 -65 -135t-164 -56q-97 0 -164.5 55t-67.5 146zM352 349q11 9 25.5 24.5t33 52t18.5 71.5q0 52 -40 82.5t-103 30.5t-100.5 -30.5
t-37.5 -76.5q0 -21 9.5 -38.5t21 -29.5t36.5 -26t40.5 -20.5t49 -20t47.5 -19.5zM120 192q0 -64 49 -103.5t114 -39.5q64 0 112 37t48 93q0 25 -12 45t-38 36.5t-47.5 27t-61.5 26.5t-60 25q-104 -62 -104 -147z" />
    <glyph glyph-name="nine.t_osf" 
d="M91 -65q9 20 20 17l11 -4q12 -4 21.5 -7t26 -5.5t33.5 -2.5q104 0 164.5 81t70.5 192h-2q-26 -39 -75.5 -61t-107.5 -22q-94 0 -154.5 58.5t-60.5 151.5q0 101 62.5 161.5t157.5 60.5q113 0 182.5 -85t69.5 -216q0 -66 -18 -131.5t-53.5 -122.5t-96.5 -92.5t-138 -35.5
q-61 0 -106 18q-25 8 -12 32zM268 182q68 0 118.5 36t50.5 79q0 69 -51 133t-127 64q-70 0 -110.5 -44.5t-40.5 -114.5q0 -69 43.5 -111t116.5 -42z" />
    <glyph glyph-name="dollar.osf" horiz-adv-x="495" 
d="M71 68q-18 16 -2 35l11 13q16 16 34 1q69 -66 154 -66q53 0 87.5 25.5t34.5 71.5q0 35 -32 60.5t-77.5 42.5t-90.5 36.5t-77 55t-32 86.5q0 68 46 108.5t118 47.5v62q0 24 24 24h8q24 0 24 -22v-63q73 -7 128 -46q17 -13 6 -34l-8 -14q-13 -19 -34 -5q-52 37 -120 37
q-52 0 -86.5 -23t-34.5 -71q0 -35 32 -60.5t77 -42t90.5 -36t77.5 -55.5t32 -88q0 -65 -47 -109t-123 -49v-69q0 -24 -23 -24h-9q-24 0 -24 22v71q-93 10 -164 78z" />
    <glyph glyph-name="cent.osf" horiz-adv-x="545" 
d="M262 -1v58q-95 12 -155 78t-60 163t60.5 163t154.5 78v61q0 25 25 25h8q24 0 24 -21v-63q88 -6 153 -62q20 -16 5 -34l-9 -12q-14 -17 -33 -4q-55 50 -131 50q-80 0 -134 -50.5t-54 -129.5t54 -130t134 -51q76 0 131 50q20 15 33 -5l9 -12q12 -19 -5 -33
q-66 -58 -153 -63v-56q0 -25 -24 -25h-8q-25 0 -25 25z" />
    <glyph glyph-name="sterling.osf" horiz-adv-x="582" 
d="M59 25v11q0 24 23 24h40v185h-24q-22 0 -22 23v6q0 23 22 23h24v106q0 78 60 131t152 53q75 0 143 -39q24 -13 7 -34l-9 -12q-12 -18 -34 -7q-53 29 -107 29q-66 0 -104.5 -36t-38.5 -89v-102h206q24 0 24 -23v-6q0 -23 -24 -23h-206v-185h314q25 0 25 -24v-11
q0 -25 -25 -25h-422q-24 0 -24 25z" />
    <glyph glyph-name="yen.osf" horiz-adv-x="581" 
d="M118 149q-25 0 -25 23v6q0 22 25 22h142v27l-32 53h-110q-25 0 -25 23v6q0 22 25 22h80l-132 217q-8 12 -3.5 20.5t19.5 8.5h25q21 0 29 -17l114 -192l43 -83h2q22 46 43 83l115 192q9 17 28 17h25q15 0 20 -8.5t-3 -20.5l-131 -217h79q24 0 24 -22v-6q0 -23 -24 -23
h-110l-32 -53v-27h142q24 0 24 -22v-6q0 -23 -24 -23h-142v-124q0 -25 -24 -25h-20q-25 0 -25 25v124h-142z" />
    <glyph glyph-name="florin.osf" horiz-adv-x="351" 
d="M-54 -65q16 -2 42 -2q18 0 35 4.5t37.5 16.5t34 40t17.5 68l22 256h-65q-25 0 -25 25v8q0 24 25 24h70l9 110q5 58 27 98.5t53.5 58t57 24t52.5 6.5q22 0 60 -5q23 -2 23 -26v-11q0 -12 -6 -18t-16 -4q-24 3 -59 3q-19 0 -35.5 -4.5t-36.5 -16.5t-34 -39.5t-18 -68.5
l-10 -107h101q25 0 25 -24v-8q0 -25 -25 -25h-106l-22 -259q-5 -59 -27 -99t-53 -57.5t-56.5 -24t-52.5 -6.5q-26 0 -43 3q-23 2 -23 26v11q0 12 6 18t16 5z" />
    <glyph glyph-name="Euro.osf" horiz-adv-x="587" 
d="M71 203q-24 0 -24 21v7q0 21 24 21h41q-5 36 -1 68h-40q-24 0 -24 21v7q0 21 24 21h48q24 95 101.5 156.5t203.5 61.5q32 0 69 -7q24 -3 19 -29l-3 -13q-7 -21 -27 -18q-30 6 -59 6q-92 0 -150.5 -44t-80.5 -113h250q27 0 22 -24l-1 -5q-4 -20 -26 -20h-257q-6 -34 1 -68
h239q28 0 23 -23l-1 -6q-6 -20 -27 -20h-220q22 -68 81 -110.5t148 -42.5q20 0 65 6q24 6 29 -17l3 -13q5 -25 -18 -29q-31 -9 -79 -9q-121 0 -199 60t-104 155h-50z" />
    <glyph glyph-name="zero.numerator" horiz-adv-x="390" 
d="M195 258q-152 0 -152 228q0 227 152 227q153 0 153 -227q0 -228 -153 -228zM195 310q96 0 96 176t-96 176t-96 -176t96 -176z" />
    <glyph glyph-name="one.numerator" horiz-adv-x="289" 
d="M57 268q-25 0 -25 24v3q0 23 23 23h72v289l1 24h-1q-4 -7 -20 -24l-27 -26q-14 -13 -28 1l-6 6q-15 17 3 34l68 69q13 12 31 12h10q24 0 24 -24v-361h68q24 0 24 -23v-3q0 -24 -24 -24h-193z" />
    <glyph glyph-name="two.numerator" horiz-adv-x="348" 
d="M57 268q-25 0 -25 30q0 40 16 72t40 52t52 40t52 36t40 38.5t16 48.5q0 32 -23 54.5t-59 22.5q-38 0 -72 -32q-18 -15 -34 -1l-2 2q-19 19 -2 34q48 48 112 48q62 0 99.5 -36t37.5 -91q0 -41 -21.5 -73t-52.5 -53t-62 -40t-54 -45t-24 -57h197q24 0 24 -23v-3
q0 -24 -24 -24h-231z" />
    <glyph glyph-name="three.numerator" horiz-adv-x="352" 
d="M180 258q-77 0 -126 49q-18 15 -2 33l4 4q13 16 33 2q38 -36 90 -36q36 0 64.5 25.5t28.5 63.5t-29 61t-67 23h-16q-19 0 -25 15q-7 15 6 31l86 100l24 25v2q-18 -3 -37 -3h-129q-24 0 -24 24v3q0 23 24 23h214q25 0 25 -18v-4q0 -13 -12 -27l-107 -125q50 -6 87 -38
t37 -92q0 -58 -43 -99.5t-106 -41.5z" />
    <glyph glyph-name="four.numerator" horiz-adv-x="373" 
d="M253 268q-24 0 -24 25v89h-187q-25 0 -25 19v7q0 12 10 25l191 255q11 15 30 15h11q25 0 25 -24v-247h43q23 0 23 -23v-3q0 -24 -23 -24h-43v-89q0 -25 -25 -25h-6zM85 432h144v136l3 62h-2q-15 -27 -32 -49l-113 -147v-2z" />
    <glyph glyph-name="five.numerator" horiz-adv-x="351" 
d="M179 258q-65 0 -119 51q-17 15 1 35l3 2q15 15 33 0q34 -36 80 -36q42 0 71.5 27.5t29.5 67.5t-29.5 68t-72.5 28q-29 0 -61 -16q-22 -7 -33 -2q-16 7 -15 28l20 169q1 23 26 23h170q24 0 24 -23v-3q0 -24 -24 -24h-148l-8 -78l-6 -38h2q25 12 60 12q65 0 108.5 -42
t43.5 -102q0 -61 -45 -104t-111 -43z" />
    <glyph glyph-name="six.numerator" horiz-adv-x="373" 
d="M198 258q-71 0 -114.5 56t-43.5 145q0 44 11 87t33 81.5t61 62t88 23.5q35 0 63 -12q23 -8 13 -31l-2 -4q-9 -19 -27 -13q-27 9 -48 9q-54 0 -88 -44.5t-43 -108.5h2q15 17 42 28t54 11q62 0 101.5 -39t39.5 -102q0 -69 -40.5 -109t-101.5 -40zM198 310q40 0 63 27.5
t23 70.5q0 42 -25 68t-67 26q-37 0 -65.5 -21t-28.5 -47q0 -43 28.5 -83.5t71.5 -40.5z" />
    <glyph glyph-name="seven.numerator" horiz-adv-x="327" 
d="M73 268q-15 0 -20 8t3 21l158 299l33 57v2q-19 -2 -50 -2h-150q-25 0 -25 24v3q0 23 25 23h241q24 0 24 -18v-4q0 -18 -7 -30l-195 -366q-8 -17 -28 -17h-9z" />
    <glyph glyph-name="eight.numerator" horiz-adv-x="381" 
d="M191 257q-61 0 -106.5 36t-45.5 98q0 29 15.5 56t29.5 39.5t28 21.5q-54 37 -54 92q0 53 40 82.5t95 29.5t96 -30.5t41 -84.5q0 -59 -57 -116q67 -37 67 -99q0 -53 -43.5 -89t-105.5 -36zM231 502q44 44 44 93q0 32 -24.5 49.5t-58.5 17.5q-32 0 -55.5 -16.5t-23.5 -47.5
q0 -13 5.5 -24t11.5 -18t21 -16t23 -13t29 -13zM191 307q35 0 63.5 22t28.5 54q0 16 -7 28.5t-22.5 23t-28.5 17.5t-37.5 17.5t-36.5 16.5q-57 -44 -57 -93q0 -39 29.5 -62.5t67.5 -23.5z" />
    <glyph glyph-name="nine.numerator" horiz-adv-x="373" 
d="M77 270q-23 9 -12 31l2 4q8 18 27 14q25 -9 47 -9q54 0 88 44t44 109h-2q-16 -17 -43.5 -28.5t-53.5 -11.5q-62 0 -101.5 39.5t-39.5 101.5q0 69 40.5 109t101.5 40q71 0 114.5 -56t43.5 -144q0 -44 -11 -87.5t-33 -82t-60.5 -62t-87.5 -23.5q-30 0 -64 12zM181 469
q37 0 65.5 21.5t28.5 46.5q0 43 -28.5 84t-71.5 41q-40 0 -63 -28t-23 -70t25.5 -68.5t66.5 -26.5z" />
    <glyph glyph-name="zero.denominator" horiz-adv-x="390" 
d="M195 -10q-152 0 -152 228q0 227 152 227q153 0 153 -227q0 -228 -153 -228zM195 42q96 0 96 176t-96 176t-96 -176t96 -176z" />
    <glyph glyph-name="one.denominator" horiz-adv-x="289" 
d="M57 0q-25 0 -25 24v3q0 23 23 23h72v289l1 24h-1q-4 -7 -20 -24l-27 -26q-14 -13 -28 1l-6 6q-15 17 3 34l68 69q13 12 31 12h10q24 0 24 -24v-361h68q24 0 24 -23v-3q0 -24 -24 -24h-193z" />
    <glyph glyph-name="two.denominator" horiz-adv-x="348" 
d="M57 0q-25 0 -25 30q0 40 16 72t40 52t52 40t52 36t40 38.5t16 48.5q0 32 -23 54.5t-59 22.5q-38 0 -72 -32q-18 -15 -34 -1l-2 2q-19 19 -2 34q48 48 112 48q62 0 99.5 -36t37.5 -91q0 -41 -21.5 -73t-52.5 -53t-62 -40t-54 -45t-24 -57h197q24 0 24 -23v-3
q0 -24 -24 -24h-231z" />
    <glyph glyph-name="three.denominator" horiz-adv-x="353" 
d="M180 -10q-77 0 -126 49q-18 15 -2 33l4 4q13 16 33 2q38 -36 90 -36q36 0 64.5 25.5t28.5 63.5t-29 61t-67 23h-16q-19 0 -25 15q-7 15 6 31l86 100l24 25v2q-18 -3 -37 -3h-129q-24 0 -24 24v3q0 23 24 23h214q25 0 25 -18v-4q0 -13 -12 -27l-107 -125q50 -6 87 -38
t37 -92q0 -58 -43 -99.5t-106 -41.5z" />
    <glyph glyph-name="four.denominator" horiz-adv-x="372" 
d="M253 0q-24 0 -24 25v89h-187q-25 0 -25 19v7q0 12 10 25l191 255q11 15 30 15h11q25 0 25 -24v-247h43q23 0 23 -23v-3q0 -24 -23 -24h-43v-89q0 -25 -25 -25h-6zM85 164h144v136l3 62h-2q-15 -27 -32 -49l-113 -147v-2z" />
    <glyph glyph-name="five.denominator" horiz-adv-x="351" 
d="M179 -10q-65 0 -119 51q-17 15 1 35l3 2q15 15 33 0q34 -36 80 -36q42 0 71.5 27.5t29.5 67.5t-29.5 68t-72.5 28q-29 0 -61 -16q-22 -7 -33 -2q-16 7 -15 28l20 169q1 23 26 23h170q24 0 24 -23v-3q0 -24 -24 -24h-148l-8 -78l-6 -38h2q25 12 60 12q65 0 108.5 -42
t43.5 -102q0 -61 -45 -104t-111 -43z" />
    <glyph glyph-name="six.denominator" horiz-adv-x="373" 
d="M198 -10q-71 0 -114.5 56t-43.5 145q0 44 11 87t33 81.5t61 62t88 23.5q35 0 63 -12q23 -8 13 -31l-2 -4q-9 -19 -27 -13q-27 9 -48 9q-54 0 -88 -44.5t-43 -108.5h2q15 17 42 28t54 11q62 0 101.5 -39t39.5 -102q0 -69 -40.5 -109t-101.5 -40zM198 42q40 0 63 27.5
t23 70.5q0 42 -25 68t-67 26q-37 0 -65.5 -21t-28.5 -47q0 -43 28.5 -83.5t71.5 -40.5z" />
    <glyph glyph-name="seven.denominator" horiz-adv-x="327" 
d="M73 0q-15 0 -20 8t3 21l158 299l33 57v2q-19 -2 -50 -2h-150q-25 0 -25 24v3q0 23 25 23h241q24 0 24 -18v-4q0 -18 -7 -30l-195 -366q-8 -17 -28 -17h-9z" />
    <glyph glyph-name="eight.denominator" horiz-adv-x="381" 
d="M191 -10q-61 0 -106.5 36t-45.5 98q0 29 15.5 56t29.5 39.5t28 21.5q-54 37 -54 92q0 53 40 82.5t95 29.5t96 -30.5t41 -84.5q0 -59 -57 -116q67 -37 67 -99q0 -53 -43.5 -89t-105.5 -36zM231 235q44 44 44 93q0 32 -24.5 49.5t-58.5 17.5q-32 0 -55.5 -16.5t-23.5 -47.5
q0 -13 5.5 -24t11.5 -18t21 -16t23 -13t29 -13zM191 40q35 0 63.5 22t28.5 54q0 16 -7 28.5t-22.5 23t-28.5 17.5t-37.5 17.5t-36.5 16.5q-57 -44 -57 -93q0 -39 29.5 -62.5t67.5 -23.5z" />
    <glyph glyph-name="nine.denominator" horiz-adv-x="373" 
d="M77 2q-23 9 -12 31l2 4q8 18 27 14q25 -9 47 -9q54 0 88 44t44 109h-2q-16 -17 -43.5 -28.5t-53.5 -11.5q-62 0 -101.5 39.5t-39.5 101.5q0 69 40.5 109t101.5 40q71 0 114.5 -56t43.5 -144q0 -44 -11 -87.5t-33 -82t-60.5 -62t-87.5 -23.5q-30 0 -64 12zM181 201
q37 0 65.5 21.5t28.5 46.5q0 43 -28.5 84t-71.5 41q-40 0 -63 -28t-23 -70t25.5 -68.5t66.5 -26.5z" />
  </font>
</defs>
</svg>
