<?xml version="1.0" standalone="no"?>
<!DOCTYPE svg PUBLIC "-//W3C//DTD SVG 1.1//EN" "http://www.w3.org/Graphics/SVG/1.1/DTD/svg11.dtd" >
<svg xmlns="http://www.w3.org/2000/svg" xmlns:xlink="http://www.w3.org/1999/xlink" version="1.1">
<metadata>
Created by FontForge 20150824 at Fri May 13 06:13:13 2016
 By Everything Fonts
Copyright (c) 2011 by Jos Buivenga. All rights reserved.
</metadata>
<defs>
<font id="bnmType500" horiz-adv-x="574" >
  <font-face 
    font-family="bnmType500"
    font-weight="400"
    font-stretch="normal"
    units-per-em="1000"
    panose-1="2 0 0 0 0 0 0 0 0 0"
    ascent="772"
    descent="-228"
    x-height="506"
    cap-height="706"
    bbox="-102.923 -214 1088 892"
    underline-thickness="50"
    underline-position="-150"
    unicode-range="U+0020-FB04"
  />
<missing-glyph horiz-adv-x="549" 
d="M25 33v634q0 33 33 33h434q33 0 33 -33v-634q0 -33 -33 -33h-434q-33 0 -33 33zM275 395l170 255h-340zM305 350l170 -255v510zM75 95l170 255l-170 255v-510zM105 50h340l-170 255z" />
    <glyph glyph-name=".notdef" horiz-adv-x="549" 
d="M25 33v634q0 33 33 33h434q33 0 33 -33v-634q0 -33 -33 -33h-434q-33 0 -33 33zM275 395l170 255h-340zM305 350l170 -255v510zM75 95l170 255l-170 255v-510zM105 50h340l-170 255z" />
    <glyph glyph-name=".null" horiz-adv-x="0" 
 />
    <glyph glyph-name="nonmarkingreturn" horiz-adv-x="333" 
 />
    <glyph glyph-name="space" unicode=" " horiz-adv-x="250" 
 />
    <glyph glyph-name="exclam" unicode="!" horiz-adv-x="259" 
d="M118 194q-33 0 -33 33l-5 446q0 33 32 33h34q33 0 33 -33l-5 -446q-2 -33 -34 -33h-22zM80 33v32q0 33 33 33h34q33 0 33 -33v-32q0 -33 -33 -33h-34q-33 0 -33 33z" />
    <glyph glyph-name="quotedbl" unicode="&#x22;" horiz-adv-x="329" 
d="M230 506q-33 0 -33 33v146q0 33 33 33h10q33 0 33 -33v-146q0 -33 -33 -33h-10zM89 506q-33 0 -33 33v146q0 33 33 33h10q33 0 33 -33v-146q0 -33 -33 -33h-10z" />
    <glyph glyph-name="numbersign" unicode="#" horiz-adv-x="702" 
d="M143 35l27 156h-94q-36 0 -31 35l2 9q4 30 36 30h100l29 168h-93q-36 0 -31 35l2 9q5 29 35 29h100l29 171q6 29 36 29h15q36 0 30 -35l-29 -165h155l29 171q6 29 37 29h14q36 0 30 -35l-29 -165h94q36 0 31 -35l-2 -9q-5 -29 -35 -29h-100l-30 -168h93q36 0 31 -36
l-2 -8q-5 -30 -36 -30h-99l-27 -161q-6 -30 -37 -30h-14q-36 0 -30 35l27 156h-155l-28 -161q-4 -30 -36 -30h-14q-36 0 -30 35zM264 265h155l30 168h-156z" />
    <glyph glyph-name="dollar" unicode="$" horiz-adv-x="536" 
d="M76 60q-26 20 -5 46l16 23q18 25 47 6q73 -55 153 -55q52 0 87.5 28t35.5 76q0 40 -35.5 69.5t-86.5 51t-102 46.5t-86.5 68t-35.5 102q0 73 51 127.5t134 66.5v61q0 33 32 33h8q31 0 31 -29v-64q81 -4 148 -51q24 -15 9 -45l-13 -25q-16 -28 -46 -9q-63 40 -127 40
q-55 0 -91.5 -30t-36.5 -73q0 -28 19 -50.5t49.5 -38.5t67.5 -31t74 -33.5t67.5 -41.5t49.5 -59t19 -82q0 -77 -51 -132t-138 -65v-59q0 -33 -31 -33h-8q-32 0 -32 29v63q-95 9 -173 70z" />
    <glyph glyph-name="percent" unicode="%" horiz-adv-x="755" 
d="M196 422q-63 0 -107.5 43.5t-44.5 104.5t44.5 104.5t107.5 43.5q62 0 107 -43.5t45 -104.5t-45 -104.5t-107 -43.5zM91 40l494 647q15 19 40 19h18q21 0 27 -12t-7 -28l-494 -646q-16 -20 -40 -20h-18q-21 0 -27 12t7 28zM196 496q31 0 52.5 21.5t21.5 52.5t-21.5 53
t-52.5 22t-52.5 -22t-21.5 -53q0 -32 21 -53t53 -21zM407 136q0 61 44 104.5t107 43.5t107.5 -43.5t44.5 -104.5t-44.5 -104.5t-107.5 -43.5t-107 43t-44 105zM485 136q0 -31 21 -52.5t52 -21.5q32 0 53 21t21 53q0 31 -21.5 53t-52.5 22t-52 -22t-21 -53z" />
    <glyph glyph-name="ampersand" unicode="&#x26;" horiz-adv-x="644" 
d="M45 198q0 60 33.5 111t91.5 70v2q-4 1 -10 4t-22.5 15t-29 28t-22.5 45t-10 63q0 86 60.5 134t156.5 48h46q33 0 33 -33v-18q0 -33 -33 -33h-41q-55 0 -88.5 -30t-33.5 -78q0 -43 29 -77t101 -34h131v63q0 33 33 33h31q33 0 33 -28v-68h61q33 0 33 -33v-20q0 -33 -33 -33
h-61v-94q0 -117 -65 -182t-179 -65q-109 0 -177 60t-68 150zM146 203q0 -52 40 -88t104 -36q70 0 108.5 39.5t38.5 120.5v90h-135q-75 0 -115.5 -33t-40.5 -93z" />
    <glyph glyph-name="quotesingle" unicode="'" horiz-adv-x="188" 
d="M88 530q-33 0 -33 32v123q0 33 33 33h12q32 0 32 -33v-123q0 -32 -32 -32h-12z" />
    <glyph glyph-name="parenleft" unicode="(" horiz-adv-x="275" 
d="M154 -75q-105 189 -105 415q0 197 103 373q12 22 39 22h15q19 0 25.5 -10.5t-2.5 -27.5q-92 -175 -92 -358q0 -208 94 -395q8 -17 2 -28t-25 -11h-17q-26 0 -37 20z" />
    <glyph glyph-name="parenright" unicode=")" horiz-adv-x="275" 
d="M50 -54q92 184 92 393q0 185 -91 358q-9 17 -3.5 27.5t24.5 10.5h17q27 0 39 -22q102 -175 102 -373q0 -227 -102 -413q-12 -22 -40 -22h-15q-19 0 -25.5 11.5t2.5 29.5z" />
    <glyph glyph-name="asterisk" unicode="*" horiz-adv-x="473" 
d="M141 349l-17 12q-27 19 -5 45l66 85v2l-103 29q-34 8 -23 40l6 19q11 34 41 21l102 -38l-4 108q-3 34 31 34h23q34 0 31 -33l-5 -109l102 37q32 13 42 -19l7 -19q9 -33 -22 -40l-105 -30v-2l66 -84q23 -26 -5 -46l-16 -12q-28 -20 -45 8l-60 90h-2l-59 -88
q-19 -30 -46 -10z" />
    <glyph glyph-name="plus" unicode="+" horiz-adv-x="613" 
d="M75 246q-33 0 -33 33v12q0 33 33 33h191v213q0 33 33 33h16q33 0 33 -33v-213h190q33 0 33 -33v-12q0 -33 -33 -33h-190v-213q0 -33 -33 -33h-16q-33 0 -33 33v213h-191z" />
    <glyph glyph-name="comma" unicode="," horiz-adv-x="237" 
d="M35 -87l52 164q7 28 37 28h31q19 0 26 -10.5t0 -27.5l-68 -166q-10 -25 -39 -25h-11q-38 0 -28 37z" />
    <glyph glyph-name="hyphen" unicode="-" horiz-adv-x="420" 
d="M97 242q-33 0 -33 33v20q0 33 33 33h226q33 0 33 -33v-20q0 -33 -33 -33h-226z" />
    <glyph glyph-name="period" unicode="." horiz-adv-x="228" 
d="M62 33v39q0 33 33 33h38q33 0 33 -33v-39q0 -33 -33 -33h-38q-33 0 -33 33z" />
    <glyph glyph-name="slash" unicode="/" horiz-adv-x="395" 
d="M46 -5l233 722q9 27 38 27h18q17 0 25 -10.5t2 -26.5l-233 -722q-10 -27 -38 -27h-18q-18 0 -25.5 10.5t-1.5 26.5z" />
    <glyph glyph-name="zero" unicode="0" horiz-adv-x="622" 
d="M311 -12q-68 0 -118 28t-78 79t-41 115t-13 144t13 143.5t41 114t78 78.5t118 28q250 0 250 -364q0 -366 -250 -366zM311 79q148 0 148 275q0 273 -148 273t-148 -273q0 -275 148 -275z" />
    <glyph glyph-name="one" unicode="1" horiz-adv-x="469" 
d="M50 33v20q0 33 33 33h123v456l1 43h-2q-9 -16 -31 -38l-45 -44q-25 -23 -46 1l-14 14q-24 24 0 47l128 125q17 16 40 16h32q33 0 33 -33v-587h122q33 0 33 -33v-20q0 -33 -33 -33h-341q-33 0 -33 33z" />
    <glyph glyph-name="two" unicode="2" horiz-adv-x="559" 
d="M48 33v21q0 59 25.5 109.5t64 83.5t83.5 66t83.5 59.5t64 62t25.5 73.5q0 52 -35.5 84.5t-91.5 32.5q-74 0 -125 -65q-24 -26 -47 -7l-18 14q-26 20 -9 45q29 41 80 73.5t126 32.5q98 0 160.5 -56t62.5 -147q0 -47 -18.5 -88t-48.5 -70.5t-66 -56.5t-72.5 -51t-66.5 -48
t-49 -53.5t-20 -61.5h319q33 0 33 -33v-20q0 -33 -33 -33h-392q-35 0 -35 33z" />
    <glyph glyph-name="three" unicode="3" horiz-adv-x="556" 
d="M72 63q-24 19 -5 46l16 23q19 24 46 6q69 -56 145 -56q60 0 102 36.5t42 92.5q0 62 -47 96t-117 34h-22q-26 0 -37 24l-3 6q-11 23 8 43l136 161l44 46v2q-21 -3 -60 -3h-206q-33 0 -33 33v20q0 33 33 33h356q33 0 33 -31v-9q0 -24 -15 -40l-177 -204q82 -9 144.5 -61
t62.5 -146t-67 -160.5t-173 -66.5q-111 0 -206 75z" />
    <glyph glyph-name="four" unicode="4" horiz-adv-x="597" 
d="M56 189q-33 0 -33 33v6q0 22 13 41l300 416q14 21 39 21h55q33 0 33 -33v-400h63q33 0 33 -33v-18q0 -33 -28 -33h-68v-156q0 -33 -33 -33h-32q-33 0 -33 33v156h-309zM133 273h232v257l5 70h-2q-17 -33 -35 -58l-200 -267v-2z" />
    <glyph glyph-name="five" unicode="5" horiz-adv-x="553" 
d="M85 65q-25 20 -3 45l16 22q19 24 45 4q57 -54 130 -54q64 0 109.5 40t45.5 103t-46 104t-115 41q-47 0 -97 -25q-24 -9 -44 -2l-9 3q-27 11 -24 39l30 290q3 31 34 31h292q33 0 33 -33v-20q0 -33 -33 -33h-237l-17 -149l-5 -37h2q39 22 91 22q109 0 177.5 -66.5
t68.5 -163.5q0 -102 -71.5 -170t-178.5 -68q-114 0 -194 77z" />
    <glyph glyph-name="six" unicode="6" horiz-adv-x="592" 
d="M55 319q0 72 19.5 141t57 127.5t100.5 94.5t141 36q59 0 106 -17q31 -11 19 -42l-9 -25q-10 -28 -40 -20q-37 13 -72 13q-92 0 -146.5 -70.5t-67.5 -170.5h2q23 31 66 51t97 20q96 0 157 -65t61 -162q0 -105 -64 -173.5t-164 -68.5q-114 0 -188.5 92t-74.5 239zM158 270
q0 -66 47 -128.5t113 -62.5q59 0 94 40.5t35 105.5q0 66 -39.5 107t-108.5 41q-59 0 -100 -30.5t-41 -72.5z" />
    <glyph glyph-name="seven" unicode="7" horiz-adv-x="515" 
d="M97 39l256 517l39 65v2q-14 -3 -49 -3h-283q-33 0 -33 33v20q0 33 33 33h406q33 0 33 -31v-16q0 -23 -9 -40l-298 -595q-11 -24 -38 -24h-33q-19 0 -25.5 11t1.5 28z" />
    <glyph glyph-name="eight" unicode="8" horiz-adv-x="599" 
d="M54 199q0 113 113 192q-85 56 -85 142q0 76 57 130.5t163 54.5q100 0 162 -51t62 -135q0 -94 -84 -185q100 -60 100 -153q0 -84 -67.5 -145t-174.5 -61q-106 0 -176 60t-70 151zM367 383q62 67 62 138q0 52 -35 81.5t-92 29.5t-90 -28.5t-33 -71.5q0 -17 5 -31.5
t16.5 -26.5t22.5 -21t31.5 -19.5t33.5 -16.5t39.5 -17t39.5 -17zM153 209q0 -59 43.5 -96.5t103.5 -37.5q56 0 98.5 34t42.5 85q0 20 -8.5 37t-19 28.5t-33.5 24.5t-39.5 20.5t-50.5 22t-52 22.5q-85 -64 -85 -140z" />
    <glyph glyph-name="nine" unicode="9" horiz-adv-x="592" 
d="M94 47l9 26q10 27 40 19q47 -13 72 -13q92 0 146.5 70.5t67.5 170.5h-2q-23 -31 -67.5 -50.5t-96.5 -19.5q-95 0 -156 65.5t-61 163.5q0 105 64 172t163 67q115 0 189.5 -91.5t74.5 -238.5q0 -72 -19.5 -141t-57 -128t-100 -95t-141.5 -36q-62 0 -106 18q-31 9 -19 41z
M293 333q58 0 99.5 31t41.5 72q0 66 -47 128.5t-113 62.5q-59 0 -94 -40.5t-35 -105.5q0 -66 39.5 -107t108.5 -41z" />
    <glyph glyph-name="colon" unicode=":" horiz-adv-x="232" 
d="M98 403q-32 0 -32 33v37q0 33 32 33h36q33 0 33 -33v-37q0 -33 -33 -33h-36zM66 33v37q0 33 32 33h36q33 0 33 -33v-37q0 -33 -33 -33h-36q-32 0 -32 33z" />
    <glyph glyph-name="semicolon" unicode=";" horiz-adv-x="273" 
d="M139 401q-33 0 -33 33v39q0 33 33 33h35q33 0 33 -33v-39q0 -33 -33 -33h-35zM56 -88l44 165q7 28 37 28h31q19 0 26 -10.5t0 -27.5l-60 -165q-9 -26 -38 -26h-12q-36 0 -28 36z" />
    <glyph glyph-name="less" unicode="&#x3c;" horiz-adv-x="613" 
d="M84 241q-25 10 -25 38v11q0 28 25 39l402 179q17 7 28 0.5t11 -24.5v-20q0 -26 -26 -38l-332 -140v-2l332 -141q26 -10 26 -38v-19q0 -19 -11 -26t-28 1z" />
    <glyph glyph-name="equal" unicode="=" horiz-adv-x="613" 
d="M101 340q-33 0 -33 33v12q0 33 33 33h411q33 0 33 -33v-12q0 -33 -33 -33h-411zM101 151q-33 0 -33 33v12q0 33 33 33h411q33 0 33 -33v-12q0 -33 -33 -33h-411z" />
    <glyph glyph-name="greater" unicode="&#x3e;" horiz-adv-x="613" 
d="M88 86v19q0 28 25 38l332 141v2l-332 140q-25 12 -25 38v20q0 19 10.5 25.5t27.5 -0.5l403 -180q25 -12 25 -39v-11q0 -28 -25 -38l-403 -180q-17 -7 -27.5 -0.5t-10.5 25.5z" />
    <glyph glyph-name="question" unicode="?" horiz-adv-x="456" 
d="M190 194q-33 0 -33 33v20q0 39 17.5 71.5t42.5 55.5t50 45.5t42.5 50.5t17.5 60q0 42 -32.5 70.5t-82.5 28.5q-44 0 -87 -25q-31 -16 -47 9l-13 18q-19 28 6 45q68 44 148 44q88 0 148.5 -51t60.5 -132q0 -44 -17.5 -80.5t-42.5 -60.5t-50.5 -46.5t-44.5 -50t-21 -59.5
l-1 -21q-4 -25 -32 -25h-29zM154 33v32q0 33 33 33h35q33 0 33 -33v-32q0 -33 -33 -33h-35q-33 0 -33 33z" />
    <glyph glyph-name="at" unicode="@" horiz-adv-x="794" 
d="M52 241q0 155 106.5 262.5t259.5 107.5q134 0 196.5 -57.5t62.5 -145.5v-283h39q33 0 33 -33v-7q0 -33 -33 -33h-240q-91 0 -149 55.5t-58 133.5q0 77 57.5 132t149.5 55h108q-2 45 -44.5 74t-117.5 29q-115 0 -194 -85.5t-79 -204.5q0 -112 70 -193.5t182 -92.5
q32 -3 32 -34v-13q0 -35 -34 -32q-152 11 -249.5 115t-97.5 250zM367 242q0 -49 33.5 -83t83.5 -34h100v236h-98q-52 0 -85.5 -34.5t-33.5 -84.5z" />
    <glyph glyph-name="A" unicode="A" horiz-adv-x="621" 
d="M24 38l232 641q9 27 37 27h48q28 0 37 -27l232 -641q6 -17 -1.5 -27.5t-25.5 -10.5h-34q-28 0 -37 27l-63 176h-266l-62 -176q-7 -27 -36 -27h-34q-19 0 -26 10.5t-1 27.5zM209 285h214l-78 224l-27 100h-2q-16 -64 -28 -100z" />
    <glyph glyph-name="B" unicode="B" horiz-adv-x="617" 
d="M90 33v640q0 33 33 33h214q91 0 147.5 -48t56.5 -132q0 -51 -23 -91t-64 -61v-2q54 -16 85 -63t31 -108q0 -96 -64.5 -148.5t-163.5 -52.5h-219q-33 0 -33 33zM188 409h149q47 0 75.5 30t28.5 77t-28 75.5t-78 28.5h-147v-211zM188 86h159q57 0 89.5 33t32.5 87
t-33.5 87.5t-88.5 33.5h-159v-241z" />
    <glyph glyph-name="C" unicode="C" horiz-adv-x="707" 
d="M46 357q0 155 101 258t258 103q136 0 234 -73q23 -18 6 -46l-13 -20q-17 -26 -46 -8q-84 56 -177 56q-120 0 -190.5 -77t-70.5 -192q0 -117 72 -198t190 -81q103 0 192 69q27 21 46 -4l15 -20q19 -25 -5 -46q-108 -90 -251 -90q-161 0 -261 105.5t-100 263.5z" />
    <glyph glyph-name="D" unicode="D" horiz-adv-x="729" 
d="M90 33v640q0 33 33 33h201q163 0 260.5 -93.5t97.5 -258.5q0 -166 -97.5 -260t-260.5 -94h-201q-33 0 -33 33zM188 86h129q121 0 192 70t71 198q0 127 -71 196.5t-192 69.5h-129v-534z" />
    <glyph glyph-name="E" unicode="E" horiz-adv-x="555" 
d="M90 33v640q0 33 33 33h344q33 0 33 -33v-20q0 -33 -33 -33h-279v-221h221q33 0 33 -33v-20q0 -33 -33 -33h-221v-227h296q33 0 33 -33v-20q0 -33 -33 -33h-361q-33 0 -33 33z" />
    <glyph glyph-name="F" unicode="F" horiz-adv-x="505" 
d="M90 33v640q0 33 33 33h323q33 0 33 -33v-20q0 -33 -33 -33h-258v-232h214q33 0 33 -33v-20q0 -33 -33 -33h-214v-269q0 -33 -33 -33h-32q-33 0 -33 33z" />
    <glyph glyph-name="G" unicode="G" horiz-adv-x="751" 
d="M46 351q0 157 102.5 262t257.5 105q78 0 138 -21t94 -45q25 -19 7 -45l-14 -21q-16 -25 -46 -9q-82 50 -174 50q-119 0 -191 -78t-72 -194q0 -120 74 -198t184 -78q36 0 70.5 9.5t57 22.5t40 26.5t25.5 22.5l8 10v99h-82q-33 0 -33 33v20q0 33 33 33h139q33 0 33 -33
v-289q0 -33 -33 -33h-19q-33 0 -33 28v26l1 22h-2q-3 -4 -9 -9.5t-26.5 -21t-44 -27t-61 -21t-77.5 -9.5q-145 0 -246 103t-101 260z" />
    <glyph glyph-name="H" unicode="H" horiz-adv-x="743" 
d="M90 33v640q0 33 33 33h32q33 0 33 -33v-278h367v278q0 33 33 33h33q32 0 32 -33v-640q0 -33 -32 -33h-33q-33 0 -33 33v277h-367v-277q0 -33 -33 -33h-32q-33 0 -33 33z" />
    <glyph glyph-name="I" unicode="I" horiz-adv-x="278" 
d="M90 33v640q0 33 33 33h32q33 0 33 -33v-640q0 -33 -33 -33h-32q-33 0 -33 33z" />
    <glyph glyph-name="J" unicode="J" horiz-adv-x="522" 
d="M22 205q0 33 33 33h34q16 0 23 -7.5t9 -26.5q3 -57 30 -91t80 -34q48 0 79.5 30.5t31.5 94.5v416h-145q-32 0 -32 33v20q0 33 32 33h210q33 0 33 -33v-470q0 -107 -61.5 -161t-146.5 -54q-87 0 -148.5 55t-61.5 162z" />
    <glyph glyph-name="K" unicode="K" horiz-adv-x="605" 
d="M90 33v640q0 33 33 33h32q33 0 33 -33v-264h106l165 275q12 22 39 22h37q20 0 26.5 -11.5t-3.5 -28.5l-183 -295v-2l196 -330q10 -17 4 -28t-26 -11h-41q-26 0 -39 23l-175 301h-106v-291q0 -33 -33 -33h-32q-33 0 -33 33z" />
    <glyph glyph-name="L" unicode="L" horiz-adv-x="510" 
d="M90 33v640q0 33 33 33h32q33 0 33 -33v-587h284q33 0 33 -33v-20q0 -33 -33 -33h-349q-33 0 -33 33z" />
    <glyph glyph-name="M" unicode="M" horiz-adv-x="845" 
d="M68 34l52 641q3 31 34 31h45q28 0 37 -26l153 -356l35 -95h2q18 56 34 95l153 356q9 26 37 26h45q31 0 34 -31l52 -641q2 -34 -32 -34h-32q-31 0 -34 32l-32 413l-2 104h-2q-22 -65 -38 -104l-130 -292q-10 -26 -38 -26h-33q-28 0 -38 26l-130 292l-38 106h-2
q2 -63 -2 -106l-32 -413q-3 -32 -33 -32h-33q-34 0 -32 34z" />
    <glyph glyph-name="N" unicode="N" horiz-adv-x="744" 
d="M90 33v640q0 33 33 33h38q26 0 40 -22l301 -437q11 -17 25.5 -42.5t23.5 -42.5l9 -17h2q-6 63 -6 102v426q0 33 33 33h32q33 0 33 -33v-640q0 -33 -33 -33h-38q-27 0 -39 22l-302 436l-58 103h-2q6 -63 6 -103v-425q0 -33 -33 -33h-32q-33 0 -33 33z" />
    <glyph glyph-name="O" unicode="O" horiz-adv-x="815" 
d="M45 358q0 153 103 256.5t260 103.5q156 0 259 -103.5t103 -256.5q0 -157 -103 -263.5t-259 -106.5t-259.5 106.5t-103.5 263.5zM147 358q0 -119 74.5 -199t186.5 -80t186 80t74 199q0 115 -74 192t-186 77t-186.5 -77t-74.5 -192z" />
    <glyph glyph-name="P" unicode="P" horiz-adv-x="596" 
d="M90 33v640q0 33 33 33h225q98 0 159.5 -60.5t61.5 -160.5t-62 -162t-159 -62h-160v-228q0 -33 -33 -33h-32q-33 0 -33 33zM188 347h144q64 0 100.5 37t36.5 101q0 63 -36.5 99t-99.5 36h-145v-273z" />
    <glyph glyph-name="Q" unicode="Q" horiz-adv-x="816" 
d="M46 357q0 154 103 257.5t258 103.5q158 0 261 -103.5t103 -257.5q0 -132 -83 -233l58 -58q24 -21 3 -46l-13 -14q-24 -24 -45 -2l-60 60q-95 -76 -224 -76q-156 0 -258.5 106.5t-102.5 262.5zM148 357q0 -118 74 -198t185 -80q91 0 154 52l-59 59q-24 21 -2 46l13 13
q22 26 44 4l60 -61q52 72 52 165q0 116 -75 193t-187 77q-111 0 -185 -77t-74 -193z" />
    <glyph glyph-name="R" unicode="R" horiz-adv-x="617" 
d="M90 33v640q0 33 33 33h190q90 0 132 -19q52 -23 81.5 -71t29.5 -114q0 -68 -34 -121.5t-92 -72.5v-2q9 -10 21 -32l127 -235q10 -17 3.5 -28t-25.5 -11h-40q-28 0 -39 23l-138 258h-151v-248q0 -33 -33 -33h-32q-33 0 -33 33zM188 367h142q58 0 92 36t34 95q0 82 -66 110
q-27 12 -84 12h-118v-253z" />
    <glyph glyph-name="S" unicode="S" horiz-adv-x="537" 
d="M77 61q-23 21 -4 46l17 24q18 23 45 6q79 -57 154 -57q56 0 90 27.5t34 73.5q0 43 -35 73.5t-85 51.5t-100 45t-85 67t-35 104q0 88 65 142t164 54q56 0 103.5 -17t73.5 -37q24 -17 10 -45l-14 -25q-15 -27 -45 -9q-69 41 -130 41q-56 0 -91.5 -27t-35.5 -72
q0 -35 25 -62t63 -42.5t82 -36.5t82 -42.5t63 -61.5t25 -93q0 -86 -60.5 -143.5t-163.5 -57.5q-68 0 -123.5 23t-88.5 50z" />
    <glyph glyph-name="T" unicode="T" horiz-adv-x="595" 
d="M249 33v587h-210q-33 0 -33 33v20q0 33 33 33h518q32 0 32 -33v-20q0 -33 -32 -33h-210v-587q0 -33 -33 -33h-33q-32 0 -32 33z" />
    <glyph glyph-name="U" unicode="U" horiz-adv-x="717" 
d="M81 250v423q0 33 33 33h33q32 0 32 -33v-422q0 -80 48.5 -126t130.5 -46t130.5 46t48.5 127v421q0 33 33 33h33q33 0 33 -33v-423q0 -118 -76.5 -190t-200.5 -72q-125 0 -201.5 72t-76.5 190z" />
    <glyph glyph-name="V" unicode="V" horiz-adv-x="623" 
d="M256 27l-235 641q-6 17 1 27.5t26 10.5h38q28 0 37 -27l166 -472l27 -97h2q15 59 27 97l168 472q9 27 37 27h37q19 0 26 -10.5t1 -27.5l-235 -641q-9 -27 -37 -27h-48q-28 0 -38 27z" />
    <glyph glyph-name="W" unicode="W" horiz-adv-x="945" 
d="M210 29l-163 641q-8 36 29 36h35q30 0 37 -29l117 -489l13 -75h2q6 36 17 75l131 490q7 28 37 28h28q30 0 36 -28l131 -490l16 -75h2q5 37 14 75l123 489q7 29 37 29h34q37 0 29 -36l-169 -642q-7 -28 -37 -28h-55q-28 0 -36 28l-116 430l-22 100h-3q-10 -55 -22 -100
l-116 -430q-8 -28 -37 -28h-55q-29 0 -37 29z" />
    <glyph glyph-name="X" unicode="X" horiz-adv-x="587" 
d="M41 39l198 325l-184 303q-10 17 -4 28t26 11h42q24 0 39 -22l97 -169l45 -84h2q21 45 44 84l99 169q12 22 38 22h42q20 0 26 -11t-4 -28l-186 -303l199 -325q11 -17 4.5 -28t-26.5 -11h-39q-26 0 -39 23l-115 194l-45 81h-2q-20 -42 -43 -81l-114 -194q-13 -23 -39 -23
h-38q-20 0 -27 11t4 28z" />
    <glyph glyph-name="Y" unicode="Y" horiz-adv-x="567" 
d="M241 33v266l-214 368q-10 17 -3 28t26 11h40q27 0 38 -23l119 -209l43 -89h2q21 49 43 89l118 209q12 23 38 23h40q19 0 26 -11t-3 -28l-214 -368v-266q0 -33 -33 -33h-33q-33 0 -33 33z" />
    <glyph glyph-name="Z" unicode="Z" horiz-adv-x="588" 
d="M32 33v10q0 22 14 42l326 471q12 18 24.5 34t19.5 24l7 7v2q-19 -3 -53 -3h-287q-33 0 -33 33v20q0 33 33 33h430q33 0 33 -32v-10q0 -22 -13 -42l-327 -472q-12 -17 -25 -33t-19 -23l-7 -8v-2q19 2 53 2h309q33 0 33 -33v-20q0 -33 -33 -33h-452q-33 0 -33 33z" />
    <glyph glyph-name="bracketleft" unicode="[" horiz-adv-x="285" 
d="M80 -62v765q0 32 33 32h100q32 0 32 -32v-8q0 -33 -31 -33h-49v-683h48q32 0 32 -33v-8q0 -33 -32 -33h-100q-33 0 -33 33z" />
    <glyph glyph-name="backslash" unicode="\" horiz-adv-x="395" 
d="M277 -15l-233 722q-5 17 2.5 27t25.5 10h17q29 0 38 -27l234 -722q5 -17 -2.5 -27t-25.5 -10h-18q-28 0 -38 27z" />
    <glyph glyph-name="bracketright" unicode="]" horiz-adv-x="285" 
d="M40 -54q0 33 32 33h48v683h-48q-32 0 -32 33v8q0 32 32 32h100q33 0 33 -32v-765q0 -33 -33 -33h-100q-32 0 -32 33v8z" />
    <glyph glyph-name="asciicircum" unicode="^" horiz-adv-x="613" 
d="M118 247q-19 0 -26 11t1 28l172 395q10 25 38 25h9q28 0 38 -25l172 -395q8 -17 0.5 -28t-26.5 -11h-17q-27 0 -38 26l-134 326l-133 -326q-11 -26 -38 -26h-18z" />
    <glyph glyph-name="underscore" unicode="_" horiz-adv-x="550" 
d="M6 -33q0 33 33 33h472q33 0 33 -33v-12q0 -33 -33 -33h-472q-33 0 -33 33v12z" />
    <glyph glyph-name="grave" unicode="`" horiz-adv-x="499" 
d="M285 755q-24 0 -40 20l-49 67q-13 16 -8.5 28t25.5 12h30q26 0 39 -23l39 -68q9 -14 5 -25t-21 -11h-20z" />
    <glyph glyph-name="a" unicode="a" horiz-adv-x="517" 
d="M29 138q0 45 22 78.5t53.5 51t75.5 28t78.5 13.5t72.5 3h26v13q0 111 -110 111q-57 0 -114 -32q-29 -14 -45 12l-8 14q-16 30 11 45q76 43 164 43q95 0 147 -51t52 -147v-287q0 -33 -33 -33h-25q-33 0 -33 33v30l3 31h-2q-2 -4 -6 -11.5t-18.5 -25.5t-31.5 -32
t-46.5 -25.5t-62.5 -11.5q-70 0 -120 41t-50 109zM127 146q0 -33 25 -57t69 -24q60 0 98.5 50t38.5 111v22h-26q-205 0 -205 -102z" />
    <glyph glyph-name="b" unicode="b" horiz-adv-x="592" 
d="M71 33v640q0 33 33 33h31q32 0 32 -33v-205l-3 -43h2q2 4 5.5 10t18 22t31.5 28.5t46.5 22.5t63.5 10q100 0 160.5 -73t60.5 -191q0 -120 -64.5 -193t-164.5 -73q-33 0 -62 10t-46.5 24t-30.5 28t-18 24l-5 10h-2q3 -12 3 -30v-25q0 -29 -33 -29h-25q-33 0 -33 33z
M165 253q0 -75 37 -128t105 -53q63 0 105 48t42 132q0 82 -39.5 131.5t-103.5 49.5q-62 0 -104 -45.5t-42 -134.5z" />
    <glyph glyph-name="c" unicode="c" horiz-adv-x="531" 
d="M37 253q0 113 76 189t194 76q98 0 167 -54q26 -17 6 -45l-10 -15q-16 -25 -45 -8q-53 38 -113 38q-76 0 -126 -51t-50 -129t50.5 -130t127.5 -52q68 0 129 46q28 18 45 -9l8 -15q16 -27 -9 -44q-75 -62 -180 -62q-119 0 -194.5 75t-75.5 190z" />
    <glyph glyph-name="d" unicode="d" horiz-adv-x="592" 
d="M39 253q0 120 64 192.5t165 72.5q32 0 60.5 -9t45.5 -22t29 -25.5t17 -21.5l5 -9h2q-3 15 -3 34v208q0 33 33 33h31q33 0 33 -33v-640q0 -33 -33 -33h-26q-33 0 -33 31v29l2 25h-2q-2 -4 -5.5 -10.5t-17.5 -23t-31.5 -29.5t-47.5 -23.5t-65 -10.5q-102 0 -162.5 73
t-60.5 192zM138 253q0 -82 39.5 -131.5t103.5 -49.5q62 0 104 45.5t42 136.5q0 73 -37.5 126t-106.5 53q-62 0 -103.5 -48.5t-41.5 -131.5z" />
    <glyph glyph-name="e" unicode="e" horiz-adv-x="545" 
d="M38 253q0 119 71.5 192t181.5 73q103 0 160.5 -66.5t57.5 -174.5q0 -14 -9.5 -24t-24.5 -10h-338q4 -80 54 -125.5t121 -45.5q67 0 121 40q30 16 45 -11l9 -15q17 -28 -10 -44q-77 -54 -171 -54q-118 0 -193 75.5t-75 189.5zM141 307h271q-2 65 -36.5 100t-86.5 35
q-56 0 -97 -36t-51 -99z" />
    <glyph glyph-name="f" unicode="f" horiz-adv-x="322" 
d="M92 33v389h-32q-33 0 -33 33v13q0 33 33 33h32v24q0 45 14.5 80.5t35 54.5t47 31.5t47 16t39.5 3.5h12q33 0 33 -33v-19q0 -30 -35 -33q-18 -1 -31.5 -4.5t-30 -13t-25.5 -32t-9 -55.5v-20h87q33 0 33 -33v-13q0 -33 -33 -33h-87v-389q0 -33 -33 -33h-31q-33 0 -33 33z
" />
    <glyph glyph-name="g" unicode="g" horiz-adv-x="585" 
d="M106 -121q13 28 42 17q59 -22 110 -22q70 0 114.5 34.5t44.5 107.5v44l3 32h-2q-47 -86 -150 -86q-104 0 -166 73t-62 187q0 111 59.5 181.5t166.5 70.5q35 0 64 -9t46 -21t28.5 -24.5t15.5 -21.5l4 -9h2q-2 6 -2 16v29q0 28 33 28h24q33 0 33 -33v-452
q0 -116 -73.5 -173.5t-177.5 -57.5q-83 0 -147 28q-30 13 -17 44zM285 90q59 0 96.5 41t37.5 132q0 171 -140 171q-67 0 -103.5 -44t-36.5 -120q0 -82 39 -131t107 -49z" />
    <glyph glyph-name="h" unicode="h" horiz-adv-x="592" 
d="M71 33v640q0 33 33 33h31q32 0 32 -33v-229l-3 -42h2q20 44 70 80t119 36q174 0 174 -194v-291q0 -33 -33 -33h-31q-33 0 -33 33v269q0 61 -20 94t-76 33q-73 0 -121 -53.5t-48 -135.5v-207q0 -33 -32 -33h-31q-33 0 -33 33z" />
    <glyph glyph-name="i" unicode="i" horiz-adv-x="237" 
d="M102 607q-33 0 -33 33v33q0 33 33 33h34q33 0 33 -33v-33q0 -33 -33 -33h-34zM70 33v440q0 33 33 33h31q33 0 33 -33v-440q0 -33 -33 -33h-31q-33 0 -33 33z" />
    <glyph glyph-name="j" unicode="j" horiz-adv-x="238" 
d="M102 607q-33 0 -33 33v33q0 33 33 33h34q33 0 33 -33v-33q0 -33 -33 -33h-34zM71 -11v484q0 33 33 33h31q32 0 32 -33v-488q0 -47 -14.5 -83.5t-35 -56t-47.5 -32t-47 -16t-38 -3.5h-12q-33 0 -33 33v18q0 29 33 33q18 1 32.5 5.5t31 15t25.5 33.5t9 57z" />
    <glyph glyph-name="k" unicode="k" horiz-adv-x="509" 
d="M71 33v640q0 33 33 33h31q32 0 32 -33v-352h73l123 164q13 21 39 21h37q20 0 26 -12t-6 -28l-140 -183v-2l162 -241q11 -17 4.5 -28.5t-26.5 -11.5h-40q-26 0 -39 23l-138 214h-75v-204q0 -33 -32 -33h-31q-33 0 -33 33z" />
    <glyph glyph-name="l" unicode="l" horiz-adv-x="262" 
d="M70 138v535q0 33 33 33h31q33 0 33 -33v-523q0 -63 46 -67q26 -3 26 -29v-24q0 -34 -34 -34q-135 0 -135 142z" />
    <glyph glyph-name="m" unicode="m" horiz-adv-x="902" 
d="M70 33v440q0 33 33 33h28q33 0 33 -33v-45l-3 -29h2q20 47 69.5 83t106.5 36q125 0 152 -115h2q22 47 71 81t108 34q86 0 126.5 -48t40.5 -146v-291q0 -33 -33 -33h-31q-33 0 -33 33v270q0 61 -18.5 94t-70.5 33q-67 0 -108.5 -58.5t-41.5 -135.5v-203q0 -33 -32 -33h-32
q-32 0 -32 33v270q0 60 -17.5 93.5t-70.5 33.5q-68 0 -110 -59t-42 -135v-203q0 -33 -33 -33h-31q-33 0 -33 33z" />
    <glyph glyph-name="n" unicode="n" horiz-adv-x="591" 
d="M70 33v440q0 33 33 33h28q33 0 33 -33v-45l-3 -29h2q20 44 69 81.5t123 37.5q173 0 173 -194v-291q0 -33 -33 -33h-31q-33 0 -33 33v269q0 61 -19.5 94t-75.5 33q-73 0 -121 -54t-48 -133v-209q0 -33 -33 -33h-31q-33 0 -33 33z" />
    <glyph glyph-name="o" unicode="o" horiz-adv-x="619" 
d="M37 254q0 114 79 189t193 75q115 0 194 -75t79 -189t-79.5 -190t-193.5 -76t-193 76t-79 190zM135 254q0 -78 51 -130t123 -52q73 0 123.5 51.5t50.5 130.5q0 78 -50.5 129t-123.5 51q-72 0 -123 -51t-51 -129z" />
    <glyph glyph-name="p" unicode="p" horiz-adv-x="592" 
d="M71 -167v640q0 33 33 33h23q33 0 33 -28v-30l-2 -27h2q2 4 5.5 10.5t18 23t32 29.5t48 23.5t66.5 10.5q101 0 161.5 -73t60.5 -192t-64.5 -192t-164.5 -73q-32 0 -60 9.5t-45 22.5t-29.5 26t-17.5 22l-5 10h-2q3 -18 3 -44v-201q0 -33 -32 -33h-31q-33 0 -33 33zM165 251
q0 -72 38.5 -125.5t104.5 -53.5q62 0 104 48.5t42 131.5q0 82 -39.5 131.5t-103.5 49.5q-62 0 -104 -45.5t-42 -136.5z" />
    <glyph glyph-name="q" unicode="q" horiz-adv-x="592" 
d="M39 253q0 120 64 192.5t166 72.5q34 0 63 -9.5t46.5 -23.5t30 -28t17.5 -23l5 -10h2q-2 12 -2 28v26q0 28 33 28h24q33 0 33 -33v-640q0 -33 -33 -33h-31q-33 0 -33 33v205l3 44h-2q-2 -4 -5.5 -10t-17 -22.5t-30.5 -29t-47 -22.5t-65 -10q-99 0 -160 73.5t-61 191.5z
M138 253q0 -82 39.5 -131.5t103.5 -49.5q62 0 104 45.5t42 136.5q0 73 -37.5 126t-106.5 53q-62 0 -103.5 -48.5t-41.5 -131.5z" />
    <glyph glyph-name="r" unicode="r" horiz-adv-x="356" 
d="M70 33v440q0 33 33 33h28q33 0 33 -33v-58l-3 -38h2q18 55 59.5 94t95.5 39q32 0 32 -33v-28q0 -33 -36 -33q-70 0 -108.5 -62.5t-38.5 -144.5v-176q0 -33 -33 -33h-31q-33 0 -33 33z" />
    <glyph glyph-name="s" unicode="s" horiz-adv-x="439" 
d="M68 43q-25 16 -7 45l10 14q17 23 46 7q63 -41 124 -41q38 0 62 17.5t24 49.5q0 27 -27 45.5t-65.5 32t-76.5 30t-65 49.5t-27 80q0 69 52.5 107.5t130.5 38.5t140 -39q28 -14 11 -44l-9 -15q-14 -25 -44 -11q-51 29 -103 29q-38 0 -61.5 -16.5t-23.5 -47.5q0 -27 27 -46
t65.5 -32t76.5 -29.5t65 -49t27 -80.5q0 -65 -50.5 -107t-131.5 -42q-97 0 -170 55z" />
    <glyph glyph-name="t" unicode="t" horiz-adv-x="342" 
d="M94 182v240h-35q-32 0 -32 33v13q0 33 33 33h36v111q0 33 33 33h29q33 0 33 -33v-111h88q33 0 33 -33v-13q0 -33 -32 -33h-89v-225q0 -106 96 -114q20 -2 27.5 -9t7.5 -24v-21q0 -33 -40 -33q-81 0 -134.5 47.5t-53.5 138.5z" />
    <glyph glyph-name="u" unicode="u" horiz-adv-x="587" 
d="M64 182v291q0 33 33 33h31q32 0 32 -33v-269q0 -60 20 -93t75 -33q75 0 120 56t45 135v204q0 33 33 33h31q33 0 33 -33v-440q0 -33 -33 -33h-28q-33 0 -33 33v45l3 29h-2q-20 -45 -70 -82t-118 -37q-86 0 -129 47.5t-43 146.5z" />
    <glyph glyph-name="v" unicode="v" horiz-adv-x="499" 
d="M191 26l-166 442q-6 17 1 27.5t25 10.5h34q28 0 37 -27l114 -315l18 -69h2q9 41 18 69l114 315q9 27 37 27h34q18 0 25.5 -10.5t0.5 -27.5l-164 -442q-9 -26 -37 -26h-56q-28 0 -37 26z" />
    <glyph glyph-name="w" unicode="w" horiz-adv-x="803" 
d="M171 28l-143 441q-5 17 2.5 27t25.5 10h33q30 0 37 -28l99 -327l12 -54h2q6 28 14 54l102 326q6 28 36 28h31q30 0 37 -28l102 -326l13 -54h2q5 28 13 54l99 327q6 28 36 28h33q18 0 25.5 -10t2.5 -27l-143 -441q-7 -28 -37 -28h-49q-30 0 -37 28l-97 297l-14 55h-2
q-6 -29 -15 -55l-96 -297q-7 -28 -37 -28h-50q-30 0 -37 28z" />
    <glyph glyph-name="x" unicode="x" horiz-adv-x="483" 
d="M41 40l147 220l-138 206q-11 17 -4.5 28.5t26.5 11.5h38q26 0 38 -23l82 -131l16 -30h2q10 17 17 30l81 131q13 23 39 23h37q20 0 26.5 -11.5t-4.5 -28.5l-137 -206l147 -220q11 -17 4.5 -28.5t-26.5 -11.5h-36q-26 0 -39 23l-93 146l-16 28h-2q-7 -16 -15 -28l-93 -146
q-13 -23 -39 -23h-36q-20 0 -26.5 11.5t4.5 28.5z" />
    <glyph glyph-name="y" unicode="y" horiz-adv-x="502" 
d="M35 -134q11 24 37 17q28 -11 40 -11q29 0 51.5 21.5t35.5 54.5l25 58l-196 462q-7 17 0 27.5t25 10.5h39q28 0 37 -26l119 -305l18 -61h2q8 34 17 60l115 305q9 27 37 27h36q18 0 25.5 -10.5t0.5 -27.5l-223 -557q-22 -58 -66 -89.5t-98 -31.5q-31 0 -70 16
q-29 12 -15 43z" />
    <glyph glyph-name="z" unicode="z" horiz-adv-x="500" 
d="M31 28v8q0 20 14 38l241 302l42 47v2q-16 -2 -49 -2h-204q-33 0 -33 33v17q0 33 33 33h351q33 0 33 -28v-8q0 -20 -14 -38l-241 -303l-43 -46v-2q16 2 49 2h224q33 0 33 -32v-18q0 -33 -33 -33h-370q-33 0 -33 28z" />
    <glyph glyph-name="braceleft" unicode="{" horiz-adv-x="325" 
d="M112 77v96q0 76 -58 101q-27 14 -27 37v29q0 22 27 36q58 28 58 103v83q0 53 16.5 91t41.5 54.5t45.5 23t38.5 6.5h11q33 0 33 -33v-12q0 -33 -33 -33q-68 0 -68 -105v-100q0 -28 -8.5 -51t-20.5 -36.5t-23.5 -23t-20.5 -13.5l-8 -3v-2q3 -1 8.5 -3t19.5 -12t24.5 -23
t19.5 -36.5t9 -52.5v-113q0 -34 7.5 -56.5t19.5 -32t21.5 -13t19.5 -3.5q33 0 33 -33v-12q0 -33 -33 -33h-11q-18 0 -38.5 6.5t-45.5 23t-41.5 54.5t-16.5 91z" />
    <glyph glyph-name="bar" unicode="|" horiz-adv-x="243" 
d="M79 -126v885q0 33 33 33h19q33 0 33 -33v-885q0 -33 -33 -33h-19q-33 0 -33 33z" />
    <glyph glyph-name="braceright" unicode="}" horiz-adv-x="326" 
d="M27 -53q0 33 33 33q10 0 19.5 3.5t21.5 13t19.5 32t7.5 56.5v113q0 29 8.5 52.5t20 37t23.5 22.5t20 12l9 3v2q-3 1 -8.5 3.5t-19.5 12.5t-24.5 23t-19.5 36.5t-9 51.5v100q0 105 -68 105q-33 0 -33 33v12q0 33 33 33h11q14 0 29.5 -3.5t36.5 -14.5t37 -29.5t27.5 -51.5
t11.5 -76v-83q0 -75 58 -103q27 -14 27 -36v-29q0 -23 -27 -37q-58 -25 -58 -101v-96q0 -43 -11.5 -76t-27.5 -51.5t-37 -29.5t-36.5 -14.5t-29.5 -3.5h-11q-33 0 -33 33v12z" />
    <glyph glyph-name="asciitilde" unicode="~" horiz-adv-x="589" 
d="M96 204q-37 0 -31 43q17 126 137 126q35 0 63.5 -15.5t43.5 -33.5t37.5 -33.5t47.5 -15.5q48 0 62 63q11 31 35 31h15q16 0 24.5 -9.5t6.5 -25.5q-13 -134 -137 -134q-35 0 -63.5 15t-43.5 33.5t-37.5 33.5t-47.5 15q-49 0 -62 -63q-11 -30 -35 -30h-15z" />
    <glyph glyph-name="uni00A0" unicode="&#xa0;" horiz-adv-x="250" 
 />
    <glyph glyph-name="exclamdown" unicode="&#xa1;" horiz-adv-x="253" 
d="M138 312q33 0 33 -33l5 -446q0 -33 -32 -33h-34q-33 0 -33 33l5 446q2 33 34 33h22zM176 473v-32q0 -33 -33 -33h-34q-33 0 -33 33v32q0 33 33 33h34q33 0 33 -33z" />
    <glyph glyph-name="cent" unicode="&#xa2;" horiz-adv-x="559" 
d="M258 20v53q-96 13 -153 91.5t-57 188.5q0 111 57 189.5t153 91.5v51q0 33 32 33h8q31 0 31 -28v-56q56 -7 102.5 -41.5t71.5 -82.5q15 -29 -17 -43l-28 -11q-26 -9 -43 16q-44 72 -117 72q-72 0 -111.5 -53t-39.5 -139q0 -85 39 -137t112 -52t117 72q18 25 43 16l28 -11
q32 -14 17 -43q-25 -48 -71.5 -83.5t-102.5 -40.5v-53q0 -33 -31 -33h-8q-32 0 -32 33z" />
    <glyph glyph-name="sterling" unicode="&#xa3;" horiz-adv-x="578" 
d="M53 33v20q0 33 33 33h30v233h-21q-30 0 -30 32v6q0 32 30 32h21v136q0 83 61.5 138t155.5 55q74 0 141 -43q27 -20 4 -46l-15 -20q-18 -22 -46 -5q-41 24 -83 24q-54 0 -86 -30.5t-32 -76.5v-132h151q33 0 33 -32v-6q0 -32 -33 -32h-151v-233h292q33 0 33 -33v-20
q0 -33 -33 -33h-422q-33 0 -33 33z" />
    <glyph glyph-name="yen" unicode="&#xa5;" horiz-adv-x="590" 
d="M121 199q-33 0 -33 29v6q0 28 33 28h130v37l-27 48h-103q-33 0 -33 29v6q0 28 29 28h74l-145 257q-9 17 -2.5 28t26.5 11h41q28 0 38 -25l108 -195l43 -102h2q21 55 43 102l108 195q10 25 38 25h41q20 0 26.5 -11t-2.5 -28l-145 -257h69q33 0 33 -28v-6q0 -29 -33 -29
h-103l-26 -48v-37h129q33 0 33 -28v-6q0 -29 -33 -29h-129v-166q0 -33 -33 -33h-34q-33 0 -33 33v166h-130z" />
    <glyph glyph-name="section" unicode="&#xa7;" horiz-adv-x="439" 
d="M151 140l-65 361q-5 25 -5 46q0 75 51 123t138 48q63 0 114 -32q27 -17 8 -46l-9 -12q-17 -21 -45 -8q-36 17 -68 17q-47 0 -77 -26t-30 -75q0 -18 6 -40l59 -349q4 -17 -4 -26.5t-25 -9.5h-12q-30 0 -36 29zM84 16l8 13q16 24 45 9q32 -19 70 -19q46 0 76 27.5t30 77.5
q0 20 -6 45l-58 340q-4 17 4 26.5t25 9.5h12q30 0 36 -29l64 -361q5 -27 5 -45q0 -76 -51 -124t-138 -48q-61 0 -114 33q-28 17 -8 45z" />
    <glyph glyph-name="dieresis" unicode="&#xa8;" horiz-adv-x="499" 
d="M326 781q-33 0 -33 33v35q0 33 33 33h14q33 0 33 -33v-35q0 -33 -33 -33h-14zM159 781q-33 0 -33 33v35q0 33 33 33h14q33 0 33 -33v-35q0 -33 -33 -33h-14z" />
    <glyph glyph-name="copyright" unicode="&#xa9;" horiz-adv-x="816" 
d="M51 353q0 152 103.5 258.5t251.5 106.5q149 0 254 -106.5t105 -258.5t-105 -258.5t-254 -106.5q-148 0 -251.5 106.5t-103.5 258.5zM124 353q0 -125 81.5 -211t200.5 -86q121 0 203.5 86t82.5 211t-82.5 211t-203.5 86q-119 0 -200.5 -86t-81.5 -211zM217 352
q0 82 54.5 141t143.5 59q49 0 86.5 -22t57.5 -48q16 -22 -3 -37l-13 -11q-19 -17 -40 7q-37 42 -86 42q-58 0 -91.5 -38t-33.5 -94q0 -55 33 -92.5t92 -37.5q54 0 90 44q18 21 36 4l12 -9q20 -17 4 -39q-58 -69 -144 -69q-90 0 -144 58.5t-54 141.5z" />
    <glyph glyph-name="ordfeminine" unicode="&#xaa;" horiz-adv-x="400" 
d="M172 382q-44 0 -77 26t-33 72q0 109 189 109h10v6q0 63 -63 63q-30 0 -60 -15q-26 -11 -37 9l-3 6q-14 24 16 37q42 21 92 21q62 0 94.5 -32.5t32.5 -93.5v-168q0 -33 -30 -33h-4q-31 0 -31 31v21h-2q-3 -7 -9.5 -16.5t-30.5 -26t-54 -16.5zM186 441q33 0 54 27.5
t21 61.5v8h-12q-114 0 -114 -54q0 -18 13.5 -30.5t37.5 -12.5zM95 265q-33 0 -33 27v4q0 26 33 26h209q33 0 33 -26v-4q0 -27 -33 -27h-209z" />
    <glyph glyph-name="guillemotleft" unicode="&#xab;" horiz-adv-x="523" 
d="M271 259q-18 23 0 46l130 164q16 19 40 19h21q21 0 26.5 -12t-7.5 -28l-131 -166l131 -165q14 -17 9 -28.5t-25 -11.5h-24q-24 0 -40 19zM199 96l-129 163q-20 23 0 46l129 164q16 19 41 19h20q21 0 26.5 -12t-7.5 -28l-131 -166l131 -165q13 -17 9 -28.5t-24 -11.5h-24
q-25 0 -41 19z" />
    <glyph glyph-name="logicalnot" unicode="&#xac;" horiz-adv-x="617" 
d="M99 340q-33 0 -33 33v12q0 33 33 33h411q33 0 33 -33v-201q0 -33 -33 -33h-15q-33 0 -33 33v156h-363z" />
    <glyph glyph-name="uni00AD" unicode="&#xad;" horiz-adv-x="420" 
d="M97 242q-33 0 -33 33v20q0 33 33 33h226q33 0 33 -33v-20q0 -33 -33 -33h-226z" />
    <glyph glyph-name="registered" unicode="&#xae;" horiz-adv-x="816" 
d="M51 353q0 152 104 258.5t251 106.5q150 0 254.5 -106.5t104.5 -258.5t-104.5 -258.5t-254.5 -106.5q-147 0 -251 106.5t-104 258.5zM124 353q0 -125 81.5 -211t200.5 -86q121 0 203.5 86t82.5 211t-82.5 211t-203.5 86q-119 0 -200.5 -86t-81.5 -211zM284 198v312
q0 33 33 33h113q53 0 85.5 -31.5t32.5 -83.5q0 -40 -21 -66.5t-48 -33.5v-2q4 -4 13 -21l52 -101q9 -17 4 -27.5t-22 -10.5h-12q-28 0 -39 24l-58 122h-62v-114q0 -32 -31 -32h-9q-31 0 -31 32zM355 364h60q29 0 45 17t16 47q0 29 -16 45t-44 16h-61v-125z" />
    <glyph glyph-name="macron" unicode="&#xaf;" horiz-adv-x="499" 
d="M155 784q-33 0 -33 32v7q0 32 33 32h189q33 0 33 -32v-7q0 -32 -33 -32h-189z" />
    <glyph glyph-name="degree" unicode="&#xb0;" horiz-adv-x="382" 
d="M191 422q-64 0 -108 43t-44 105q0 61 44.5 104.5t107.5 43.5q62 0 107 -43.5t45 -104.5t-45 -104.5t-107 -43.5zM191 496q31 0 52.5 21.5t21.5 52.5t-21.5 53t-52.5 22t-52.5 -22t-21.5 -53t21.5 -52.5t52.5 -21.5z" />
    <glyph glyph-name="plusminus" unicode="&#xb1;" horiz-adv-x="613" 
d="M75 246q-33 0 -33 33v12q0 33 33 33h191v213q0 33 33 33h16q33 0 33 -33v-213h190q33 0 33 -33v-12q0 -33 -33 -33h-190v-213q0 -33 -33 -33h-16q-33 0 -33 33v213h-191zM91 -95h431q33 0 33 -33v-12q0 -33 -33 -33h-431q-33 0 -33 33v12q0 33 33 33z" />
    <glyph glyph-name="twosuperior" unicode="&#xb2;" horiz-adv-x="357" 
d="M62 423q-33 0 -33 36q0 47 22 83.5t53 59t62 42t53 42.5t22 50q0 28 -20.5 46.5t-51.5 18.5t-62 -26q-26 -19 -45 -1l-4 3q-25 23 -2 45q53 48 117 48q62 0 103 -36.5t41 -94.5q0 -40 -20.5 -72t-50.5 -52.5t-60 -38.5t-51.5 -39.5t-23.5 -47.5h180q33 0 33 -31v-4
q0 -31 -33 -31h-229z" />
    <glyph glyph-name="threesuperior" unicode="&#xb3;" horiz-adv-x="357" 
d="M184 413q-75 0 -125 45q-24 17 -5 43l4 5q16 21 44 6q35 -30 79 -30q33 0 57.5 22t24.5 54t-25.5 51.5t-59.5 19.5h-13q-25 0 -32 19t9 40l71 82l25 24v2q-19 -3 -36 -3h-109q-33 0 -33 32v4q0 31 33 31h206q33 0 33 -24v-5q0 -18 -16 -37l-93 -108q49 -8 82.5 -40
t33.5 -88q0 -59 -44 -102t-111 -43z" />
    <glyph glyph-name="acute" unicode="&#xb4;" horiz-adv-x="499" 
d="M207 755q-17 0 -23 11t3 26l40 67q13 23 39 23h29q21 0 26 -12t-8 -28l-49 -67q-16 -20 -40 -20h-17z" />
    <glyph glyph-name="mu" unicode="&#xb5;" horiz-adv-x="630" 
d="M85 -167v640q0 33 33 33h31q32 0 32 -33v-269q0 -60 19.5 -93t74.5 -33q76 0 121 56t45 135v204q0 33 33 33h31q33 0 33 -33v-440q0 -33 -33 -33h-28q-33 0 -33 33v42l2 29h-2q-7 -14 -18.5 -29t-34 -37t-58 -36t-77.5 -14q-29 0 -51.5 8t-30.5 16l-8 7h-2q7 -49 7 -78
v-108q0 -33 -33 -33h-20q-33 0 -33 33z" />
    <glyph glyph-name="paragraph" unicode="&#xb6;" horiz-adv-x="591" 
d="M273 -17v258q-97 0 -167 67.5t-70 165.5q0 97 69.5 164.5t167.5 67.5h238q33 0 33 -33v-20q0 -33 -33 -33h-163v-637q0 -33 -33 -33h-9q-33 0 -33 33zM410 -17v547q0 33 33 33h9q33 0 33 -33v-547q0 -33 -33 -33h-9q-33 0 -33 33z" />
    <glyph glyph-name="periodcentered" unicode="&#xb7;" horiz-adv-x="231" 
d="M97 237q-32 0 -32 33v40q0 33 32 33h36q33 0 33 -33v-40q0 -33 -33 -33h-36z" />
    <glyph glyph-name="cedilla" unicode="&#xb8;" horiz-adv-x="499" 
d="M198 -59l19 78h53l-14 -69q32 -4 52 -23t20 -50q0 -43 -29.5 -63.5t-72.5 -20.5q-52 0 -52 29q0 30 18 30q4 0 12 -1.5t14 -1.5q43 0 43 32q0 27 -47 32q-24 2 -16 28z" />
    <glyph glyph-name="onesuperior" unicode="&#xb9;" horiz-adv-x="303" 
d="M68 423q-33 0 -33 31v4q0 31 29 31h64v249l2 26h-2q-3 -7 -17 -20l-21 -21q-17 -13 -32 2l-8 9q-20 22 3 45l65 64q17 17 41 17h11q33 0 33 -33v-338h59q33 0 33 -31v-4q0 -31 -33 -31h-194z" />
    <glyph glyph-name="ordmasculine" unicode="&#xba;" horiz-adv-x="453" 
d="M226 384q-72 0 -121.5 47.5t-49.5 120.5q0 71 50 118t121 47q72 0 121.5 -47t49.5 -118q0 -73 -49.5 -120.5t-121.5 -47.5zM226 449q41 0 69.5 29t28.5 74q0 44 -28.5 72.5t-69.5 28.5t-69.5 -28.5t-28.5 -72.5q0 -45 28.5 -74t69.5 -29zM104 265q-33 0 -33 27v4
q0 26 33 26h246q33 0 33 -26v-4q0 -27 -33 -27h-246z" />
    <glyph glyph-name="guillemotright" unicode="&#xbb;" horiz-adv-x="523" 
d="M268 117l131 165l-131 166q-14 16 -9 28t25 12h24q24 0 40 -19l130 -164q18 -23 0 -46l-130 -163q-16 -19 -40 -19h-21q-21 0 -26.5 11.5t7.5 28.5zM85 77q-21 0 -26.5 11.5t7.5 28.5l131 165l-131 166q-13 16 -8.5 28t24.5 12h24q24 0 40 -19l130 -164q20 -23 0 -46
l-130 -163q-16 -19 -40 -19h-21z" />
    <glyph glyph-name="onequarter" unicode="&#xbc;" horiz-adv-x="941" 
d="M806 0q-33 0 -33 33v74h-174q-33 0 -33 25v9q0 18 12 34l174 241q14 21 40 21h22q33 0 33 -33v-231h35q29 0 29 -31v-4q0 -31 -29 -31h-35v-74q0 -33 -33 -33h-8zM647 173h126v123l4 58h-2q-14 -27 -30 -48l-98 -131v-2zM344 25q-12 -25 -39 -25h-12q-16 0 -21 11t3 28
l306 643q11 24 39 24h11q17 0 21.5 -10.5t-3.5 -28.5zM87 270q-33 0 -33 31v4q0 31 29 31h64v249l2 26h-2q-3 -7 -17 -20l-21 -21q-17 -13 -32 2l-8 9q-20 22 3 45l65 64q17 17 41 17h11q33 0 33 -33v-338h59q33 0 33 -31v-4q0 -31 -33 -31h-194z" />
    <glyph glyph-name="onehalf" unicode="&#xbd;" horiz-adv-x="926" 
d="M626 0q-33 0 -33 36q0 47 22 83.5t53 59t62 42t53 42.5t22 50q0 28 -20.5 46.5t-51.5 18.5t-62 -26q-26 -19 -45 -1l-4 3q-25 23 -2 45q53 48 117 48q62 0 103 -36.5t41 -94.5q0 -40 -20.5 -72t-50.5 -52.5t-60 -38.5t-51.5 -39.5t-23.5 -47.5h180q33 0 33 -31v-4
q0 -31 -33 -31h-229zM343 25q-12 -25 -39 -25h-12q-16 0 -21 11t3 28l306 643q11 24 39 24h11q17 0 21.5 -10.5t-3.5 -28.5zM85 270q-33 0 -33 31v4q0 31 29 31h64v249l2 26h-2q-3 -7 -17 -20l-21 -21q-17 -13 -32 2l-8 9q-20 22 3 45l65 64q17 17 41 17h11q33 0 33 -33
v-338h59q33 0 33 -31v-4q0 -31 -33 -31h-194z" />
    <glyph glyph-name="threequarters" unicode="&#xbe;" horiz-adv-x="956" 
d="M836 0q-33 0 -33 33v74h-174q-33 0 -33 25v9q0 18 12 34l174 241q14 21 40 21h22q33 0 33 -33v-231h35q29 0 29 -31v-4q0 -31 -29 -31h-35v-74q0 -33 -33 -33h-8zM677 173h126v123l4 58h-2q-14 -27 -30 -48l-98 -131v-2zM200 260q-75 0 -125 45q-24 17 -5 43l4 5
q16 21 44 6q35 -30 79 -30q33 0 57.5 22t24.5 54t-25.5 51.5t-59.5 19.5h-13q-25 0 -32 19t9 40l71 82l25 24v2q-19 -3 -36 -3h-109q-33 0 -33 32v4q0 31 33 31h206q33 0 33 -24v-5q0 -18 -16 -37l-93 -108q49 -8 82.5 -40t33.5 -88q0 -59 -44 -102t-111 -43zM373 25
q-12 -25 -39 -25h-12q-16 0 -21 11t3 28l306 643q11 24 39 24h11q17 0 21.5 -10.5t-3.5 -28.5z" />
    <glyph glyph-name="questiondown" unicode="&#xbf;" horiz-adv-x="460" 
d="M297 312q33 0 33 -33v-20q0 -39 -17.5 -71.5t-42.5 -55.5t-50 -45.5t-42.5 -50.5t-17.5 -60q0 -42 32.5 -70.5t82.5 -28.5q44 0 87 25q31 16 47 -9l13 -18q19 -28 -6 -45q-68 -44 -148 -44q-88 0 -148.5 51t-60.5 132q0 44 17.5 80.5t42.5 60.5t50.5 46.5t44.5 50
t21 59.5l1 21q4 25 32 25h29zM333 473v-32q0 -33 -33 -33h-35q-33 0 -33 33v32q0 33 33 33h35q33 0 33 -33z" />
    <glyph glyph-name="Agrave" unicode="&#xc0;" horiz-adv-x="621" 
d="M24 38l232 641q9 27 37 27h48q28 0 37 -27l232 -641q6 -17 -1.5 -27.5t-25.5 -10.5h-34q-28 0 -37 27l-63 176h-266l-62 -176q-7 -27 -36 -27h-34q-19 0 -26 10.5t-1 27.5zM209 285h214l-78 224l-27 100h-2q-16 -64 -28 -100zM302 755q-24 0 -40 20l-49 67
q-13 16 -8.5 28t25.5 12h30q26 0 39 -23l39 -68q9 -14 5 -25t-21 -11h-20z" />
    <glyph glyph-name="Aacute" unicode="&#xc1;" horiz-adv-x="621" 
d="M24 38l232 641q9 27 37 27h48q28 0 37 -27l232 -641q6 -17 -1.5 -27.5t-25.5 -10.5h-34q-28 0 -37 27l-63 176h-266l-62 -176q-7 -27 -36 -27h-34q-19 0 -26 10.5t-1 27.5zM209 285h214l-78 224l-27 100h-2q-16 -64 -28 -100zM313 755q-17 0 -23 11t3 26l40 67
q13 23 39 23h29q21 0 26 -12t-8 -28l-49 -67q-16 -20 -40 -20h-17z" />
    <glyph glyph-name="Acircumflex" unicode="&#xc2;" horiz-adv-x="621" 
d="M24 38l232 641q9 27 37 27h48q28 0 37 -27l232 -641q6 -17 -1.5 -27.5t-25.5 -10.5h-34q-28 0 -37 27l-63 176h-266l-62 -176q-7 -27 -36 -27h-34q-19 0 -26 10.5t-1 27.5zM209 285h214l-78 224l-27 100h-2q-16 -64 -28 -100zM221 755q-18 0 -22.5 11.5t6.5 28.5l46 65
q15 22 41 22h49q26 0 40 -22l47 -65q11 -17 6.5 -28.5t-21.5 -11.5h-22q-21 0 -35 22l-39 58h-2l-39 -58q-12 -22 -35 -22h-20z" />
    <glyph glyph-name="Atilde" unicode="&#xc3;" horiz-adv-x="621" 
d="M24 38l232 641q9 27 37 27h48q28 0 37 -27l232 -641q6 -17 -1.5 -27.5t-25.5 -10.5h-34q-28 0 -37 27l-63 176h-266l-62 -176q-7 -27 -36 -27h-34q-19 0 -26 10.5t-1 27.5zM209 285h214l-78 224l-27 100h-2q-16 -64 -28 -100zM180 756q-29 0 -29 32q0 41 26 68t68 27
q31 0 55 -17t42 -34t36 -17q17 0 26.5 13t10.5 32q2 20 30 20h8q29 0 29 -28q0 -45 -25.5 -72t-68.5 -27q-31 0 -55 17t-42 34t-36 17q-36 0 -38 -45q-3 -20 -29 -20h-8z" />
    <glyph glyph-name="Adieresis" unicode="&#xc4;" horiz-adv-x="621" 
d="M24 38l232 641q9 27 37 27h48q28 0 37 -27l232 -641q6 -17 -1.5 -27.5t-25.5 -10.5h-34q-28 0 -37 27l-63 176h-266l-62 -176q-7 -27 -36 -27h-34q-19 0 -26 10.5t-1 27.5zM209 285h214l-78 224l-27 100h-2q-16 -64 -28 -100zM393 781q-33 0 -33 33v35q0 33 33 33h14
q33 0 33 -33v-35q0 -33 -33 -33h-14zM226 781q-33 0 -33 33v35q0 33 33 33h14q33 0 33 -33v-35q0 -33 -33 -33h-14z" />
    <glyph glyph-name="Aring" unicode="&#xc5;" horiz-adv-x="621" 
d="M24 38l232 641q9 27 37 27h48q28 0 37 -27l232 -641q6 -17 -1.5 -27.5t-25.5 -10.5h-34q-28 0 -37 27l-63 176h-266l-62 -176q-7 -27 -36 -27h-34q-19 0 -26 10.5t-1 27.5zM209 285h214l-78 224l-27 100h-2q-16 -64 -28 -100zM317 743q-35 0 -60 20.5t-25 53.5
q0 34 25 54.5t60 20.5t60 -20.5t25 -54.5q0 -33 -25 -53.5t-60 -20.5zM317 784q14 0 23.5 9.5t9.5 23.5q0 16 -9.5 25.5t-23.5 9.5q-15 0 -24 -9.5t-9 -25.5q0 -14 9 -23.5t24 -9.5z" />
    <glyph glyph-name="AE" unicode="&#xc6;" horiz-adv-x="859" 
d="M20 38l265 643q10 25 38 25h456q33 0 33 -33v-20q0 -33 -33 -33h-279v-221h221q33 0 33 -33v-20q0 -33 -33 -33h-221v-227h296q33 0 33 -33v-20q0 -33 -33 -33h-361q-33 0 -33 33v281h-170l-115 -288q-10 -26 -38 -26h-34q-18 0 -25 11t0 27zM265 396h137v224h-47z" />
    <glyph glyph-name="Ccedilla" unicode="&#xc7;" horiz-adv-x="709" 
d="M356 -59l12 49q-145 13 -233 116t-88 251q0 155 101 258t258 103q136 0 234 -73q23 -18 6 -46l-13 -20q-17 -26 -46 -8q-84 56 -177 56q-120 0 -190.5 -77t-70.5 -192q0 -117 72 -198t190 -81q103 0 192 69q27 21 46 -4l15 -20q19 -25 -5 -46q-103 -86 -237 -90l-8 -38
q32 -4 52 -23t20 -50q0 -43 -29.5 -63.5t-72.5 -20.5q-52 0 -52 29q0 30 18 30q4 0 12 -1.5t14 -1.5q43 0 43 32q0 27 -47 32q-24 2 -16 28z" />
    <glyph glyph-name="Egrave" unicode="&#xc8;" horiz-adv-x="555" 
d="M90 33v640q0 33 33 33h344q33 0 33 -33v-20q0 -33 -33 -33h-279v-221h221q33 0 33 -33v-20q0 -33 -33 -33h-221v-227h296q33 0 33 -33v-20q0 -33 -33 -33h-361q-33 0 -33 33zM291 755q-24 0 -40 20l-49 67q-13 16 -8.5 28t25.5 12h30q26 0 39 -23l39 -68q9 -14 5 -25
t-21 -11h-20z" />
    <glyph glyph-name="Eacute" unicode="&#xc9;" horiz-adv-x="555" 
d="M302 755q-17 0 -23 11t3 26l40 67q13 23 39 23h29q21 0 26 -12t-8 -28l-49 -67q-16 -20 -40 -20h-17zM90 33v640q0 33 33 33h344q33 0 33 -33v-20q0 -33 -33 -33h-279v-221h221q33 0 33 -33v-20q0 -33 -33 -33h-221v-227h296q33 0 33 -33v-20q0 -33 -33 -33h-361
q-33 0 -33 33z" />
    <glyph glyph-name="Ecircumflex" unicode="&#xca;" horiz-adv-x="555" 
d="M210 755q-18 0 -22.5 11.5t6.5 28.5l46 65q15 22 41 22h49q26 0 40 -22l47 -65q11 -17 6.5 -28.5t-21.5 -11.5h-22q-21 0 -35 22l-39 58h-2l-39 -58q-12 -22 -35 -22h-20zM90 33v640q0 33 33 33h344q33 0 33 -33v-20q0 -33 -33 -33h-279v-221h221q33 0 33 -33v-20
q0 -33 -33 -33h-221v-227h296q33 0 33 -33v-20q0 -33 -33 -33h-361q-33 0 -33 33z" />
    <glyph glyph-name="Edieresis" unicode="&#xcb;" horiz-adv-x="555" 
d="M382 781q-33 0 -33 33v35q0 33 33 33h14q33 0 33 -33v-35q0 -33 -33 -33h-14zM215 781q-33 0 -33 33v35q0 33 33 33h14q33 0 33 -33v-35q0 -33 -33 -33h-14zM90 33v640q0 33 33 33h344q33 0 33 -33v-20q0 -33 -33 -33h-279v-221h221q33 0 33 -33v-20q0 -33 -33 -33h-221
v-227h296q33 0 33 -33v-20q0 -33 -33 -33h-361q-33 0 -33 33z" />
    <glyph glyph-name="Igrave" unicode="&#xcc;" horiz-adv-x="278" 
d="M94 33v640q0 33 33 33h32q33 0 33 -33v-640q0 -33 -33 -33h-32q-33 0 -33 33zM130 755q-24 0 -40 20l-49 67q-13 16 -8.5 28t25.5 12h30q26 0 39 -23l39 -68q9 -14 5 -25t-21 -11h-20z" />
    <glyph glyph-name="Iacute" unicode="&#xcd;" horiz-adv-x="278" 
d="M90 33v640q0 33 33 33h32q33 0 33 -33v-640q0 -33 -33 -33h-32q-33 0 -33 33zM137 755q-17 0 -23 11t3 26l40 67q13 23 39 23h29q21 0 26 -12t-8 -28l-49 -67q-16 -20 -40 -20h-17z" />
    <glyph glyph-name="Icircumflex" unicode="&#xce;" horiz-adv-x="278" 
d="M94 33v640q0 33 33 33h32q33 0 33 -33v-640q0 -33 -33 -33h-32q-33 0 -33 33zM49 755q-18 0 -22.5 11.5t6.5 28.5l46 65q15 22 41 22h49q26 0 40 -22l47 -65q11 -17 6.5 -28.5t-21.5 -11.5h-22q-21 0 -35 22l-39 58h-2l-39 -58q-12 -22 -35 -22h-20z" />
    <glyph glyph-name="Idieresis" unicode="&#xcf;" horiz-adv-x="278" 
d="M90 33v640q0 33 33 33h32q33 0 33 -33v-640q0 -33 -33 -33h-32q-33 0 -33 33zM217 781q-33 0 -33 33v35q0 33 33 33h14q33 0 33 -33v-35q0 -33 -33 -33h-14zM50 781q-33 0 -33 33v35q0 33 33 33h14q33 0 33 -33v-35q0 -33 -33 -33h-14z" />
    <glyph glyph-name="Eth" unicode="&#xd0;" horiz-adv-x="730" 
d="M91 33v279h-26q-33 0 -33 33v16q0 33 22 33h37v279q0 33 33 33h201q163 0 260 -93.5t97 -258.5q0 -166 -97 -260t-260 -94h-201q-33 0 -33 33zM189 86h129q121 0 191.5 70t70.5 198q0 127 -70.5 196.5t-191.5 69.5h-129v-226h117q33 0 33 -33v-16q0 -33 -32 -33h-118
v-226z" />
    <glyph glyph-name="Ntilde" unicode="&#xd1;" horiz-adv-x="744" 
d="M90 33v640q0 33 33 33h38q26 0 40 -22l301 -437q11 -17 25.5 -42.5t23.5 -42.5l9 -17h2q-6 63 -6 102v426q0 33 33 33h32q33 0 33 -33v-640q0 -33 -33 -33h-38q-27 0 -39 22l-302 436l-58 103h-2q6 -63 6 -103v-425q0 -33 -33 -33h-32q-33 0 -33 33zM236 756
q-29 0 -29 32q0 41 26 68t68 27q31 0 55 -17t42 -34t36 -17q17 0 26.5 13t10.5 32q2 20 30 20h8q29 0 29 -28q0 -45 -25.5 -72t-68.5 -27q-31 0 -55 17t-42 34t-36 17q-36 0 -38 -45q-3 -20 -29 -20h-8z" />
    <glyph glyph-name="Ograve" unicode="&#xd2;" horiz-adv-x="815" 
d="M45 358q0 153 103 256.5t260 103.5q156 0 259 -103.5t103 -256.5q0 -157 -103 -263.5t-259 -106.5t-259.5 106.5t-103.5 263.5zM147 358q0 -119 74.5 -199t186.5 -80t186 80t74 199q0 115 -74 192t-186 77t-186.5 -77t-74.5 -192zM393 755q-24 0 -40 20l-49 67
q-13 16 -8.5 28t25.5 12h30q26 0 39 -23l39 -68q9 -14 5 -25t-21 -11h-20z" />
    <glyph glyph-name="Oacute" unicode="&#xd3;" horiz-adv-x="815" 
d="M404 755q-17 0 -23 11t3 26l40 67q13 23 39 23h29q21 0 26 -12t-8 -28l-49 -67q-16 -20 -40 -20h-17zM45 358q0 153 103 256.5t260 103.5q156 0 259 -103.5t103 -256.5q0 -157 -103 -263.5t-259 -106.5t-259.5 106.5t-103.5 263.5zM147 358q0 -119 74.5 -199t186.5 -80
t186 80t74 199q0 115 -74 192t-186 77t-186.5 -77t-74.5 -192z" />
    <glyph glyph-name="Ocircumflex" unicode="&#xd4;" horiz-adv-x="815" 
d="M312 755q-18 0 -22.5 11.5t6.5 28.5l46 65q15 22 41 22h49q26 0 40 -22l47 -65q11 -17 6.5 -28.5t-21.5 -11.5h-22q-21 0 -35 22l-39 58h-2l-39 -58q-12 -22 -35 -22h-20zM45 358q0 153 103 256.5t260 103.5q156 0 259 -103.5t103 -256.5q0 -157 -103 -263.5t-259 -106.5
t-259.5 106.5t-103.5 263.5zM147 358q0 -119 74.5 -199t186.5 -80t186 80t74 199q0 115 -74 192t-186 77t-186.5 -77t-74.5 -192z" />
    <glyph glyph-name="Otilde" unicode="&#xd5;" horiz-adv-x="815" 
d="M45 358q0 153 103 256.5t260 103.5q156 0 259 -103.5t103 -256.5q0 -157 -103 -263.5t-259 -106.5t-259.5 106.5t-103.5 263.5zM147 358q0 -119 74.5 -199t186.5 -80t186 80t74 199q0 115 -74 192t-186 77t-186.5 -77t-74.5 -192zM271 756q-29 0 -29 32q0 41 26 68t68 27
q31 0 55 -17t42 -34t36 -17q17 0 26.5 13t10.5 32q2 20 30 20h8q29 0 29 -28q0 -45 -25.5 -72t-68.5 -27q-31 0 -55 17t-42 34t-36 17q-36 0 -38 -45q-3 -20 -29 -20h-8z" />
    <glyph glyph-name="Odieresis" unicode="&#xd6;" horiz-adv-x="815" 
d="M484 781q-33 0 -33 33v35q0 33 33 33h14q33 0 33 -33v-35q0 -33 -33 -33h-14zM317 781q-33 0 -33 33v35q0 33 33 33h14q33 0 33 -33v-35q0 -33 -33 -33h-14zM45 358q0 153 103 256.5t260 103.5q156 0 259 -103.5t103 -256.5q0 -157 -103 -263.5t-259 -106.5t-259.5 106.5
t-103.5 263.5zM147 358q0 -119 74.5 -199t186.5 -80t186 80t74 199q0 115 -74 192t-186 77t-186.5 -77t-74.5 -192z" />
    <glyph glyph-name="multiply" unicode="&#xd7;" horiz-adv-x="613" 
d="M91 33q-23 21 -1 46l184 206l-184 206q-22 25 1 46l9 9q24 24 46 -1l182 -202l182 202q22 25 47 1l8 -9q23 -21 1 -46l-185 -206l185 -206q22 -25 -1 -46l-8 -9q-25 -24 -47 1l-182 202l-182 -202q-22 -25 -46 -1z" />
    <glyph glyph-name="Oslash" unicode="&#xd8;" horiz-adv-x="814" 
d="M135 31l33 46q-58 52 -90.5 124.5t-32.5 155.5q0 153 105 257t258 104q101 0 185 -50l26 38q20 26 45 9q23 -18 10 -37l-31 -43q60 -51 93.5 -122.5t33.5 -155.5q0 -155 -104.5 -262t-257.5 -107q-106 0 -191 54l-29 -41q-20 -26 -44 -9q-25 17 -9 39zM226 158l311 433
q-58 36 -129 36q-109 0 -185 -77.5t-76 -192.5q0 -118 79 -199zM272 119q60 -40 135 -40q109 0 185 80t76 198q0 122 -83 198z" />
    <glyph glyph-name="Ugrave" unicode="&#xd9;" horiz-adv-x="717" 
d="M81 250v423q0 33 33 33h33q32 0 32 -33v-422q0 -80 48.5 -126t130.5 -46t130.5 46t48.5 127v421q0 33 33 33h33q33 0 33 -33v-423q0 -118 -76.5 -190t-200.5 -72q-125 0 -201.5 72t-76.5 190zM344 755q-24 0 -40 20l-49 67q-13 16 -8.5 28t25.5 12h30q26 0 39 -23l39 -68
q9 -14 5 -25t-21 -11h-20z" />
    <glyph glyph-name="Uacute" unicode="&#xda;" horiz-adv-x="717" 
d="M354 755q-17 0 -23 11t3 26l40 67q13 23 39 23h29q21 0 26 -12t-8 -28l-49 -67q-16 -20 -40 -20h-17zM81 250v423q0 33 33 33h33q32 0 32 -33v-422q0 -80 48.5 -126t130.5 -46t130.5 46t48.5 127v421q0 33 33 33h33q33 0 33 -33v-423q0 -118 -76.5 -190t-200.5 -72
q-125 0 -201.5 72t-76.5 190z" />
    <glyph glyph-name="Ucircumflex" unicode="&#xdb;" horiz-adv-x="717" 
d="M262 755q-18 0 -22.5 11.5t6.5 28.5l46 65q15 22 41 22h49q26 0 40 -22l47 -65q11 -17 6.5 -28.5t-21.5 -11.5h-22q-21 0 -35 22l-39 58h-2l-39 -58q-12 -22 -35 -22h-20zM81 250v423q0 33 33 33h33q32 0 32 -33v-422q0 -80 48.5 -126t130.5 -46t130.5 46t48.5 127v421
q0 33 33 33h33q33 0 33 -33v-423q0 -118 -76.5 -190t-200.5 -72q-125 0 -201.5 72t-76.5 190z" />
    <glyph glyph-name="Udieresis" unicode="&#xdc;" horiz-adv-x="717" 
d="M435 781q-33 0 -33 33v35q0 33 33 33h14q33 0 33 -33v-35q0 -33 -33 -33h-14zM268 781q-33 0 -33 33v35q0 33 33 33h14q33 0 33 -33v-35q0 -33 -33 -33h-14zM81 250v423q0 33 33 33h33q32 0 32 -33v-422q0 -80 48.5 -126t130.5 -46t130.5 46t48.5 127v421q0 33 33 33h33
q33 0 33 -33v-423q0 -118 -76.5 -190t-200.5 -72q-125 0 -201.5 72t-76.5 190z" />
    <glyph glyph-name="Yacute" unicode="&#xdd;" horiz-adv-x="567" 
d="M241 33v266l-214 368q-10 17 -3 28t26 11h40q27 0 38 -23l119 -209l43 -89h2q21 49 43 89l118 209q12 23 38 23h40q19 0 26 -11t-3 -28l-214 -368v-266q0 -33 -33 -33h-33q-33 0 -33 33zM287 755q-17 0 -23 11t3 26l40 67q13 23 39 23h29q21 0 26 -12t-8 -28l-49 -67
q-16 -20 -40 -20h-17z" />
    <glyph glyph-name="Thorn" unicode="&#xde;" horiz-adv-x="598" 
d="M90 33v640q0 33 33 33h32q33 0 33 -32v-88h160q98 0 159.5 -60.5t61.5 -160.5t-62 -162t-160 -62h-159v-108q0 -33 -33 -33h-32q-33 0 -33 33zM188 227h144q64 0 100.5 37t36.5 101q0 63 -36.5 99t-99.5 36h-145v-273z" />
    <glyph glyph-name="germandbls" unicode="&#xdf;" horiz-adv-x="582" 
d="M71 33v497q0 88 64 138t152 50q82 0 136 -46.5t54 -114.5q0 -33 -15.5 -61.5t-34.5 -45.5t-34.5 -38t-15.5 -41q0 -17 18.5 -35t44.5 -36t52 -38.5t44.5 -51t18.5 -65.5q0 -73 -49.5 -112.5t-120.5 -39.5q-63 0 -116 20q-26 7 -26 37v19q0 36 31 28q47 -20 99 -20
q36 0 60 18t24 54q0 27 -28 53.5t-61.5 46t-61.5 51.5t-28 68q0 28 16 54t34.5 43.5t34.5 42t16 48.5q0 32 -25.5 55t-70.5 23q-47 0 -81.5 -29t-34.5 -82v-490q0 -33 -32 -33h-31q-33 0 -33 33z" />
    <glyph glyph-name="agrave" unicode="&#xe0;" horiz-adv-x="517" 
d="M29 138q0 45 22 78.5t53.5 51t75.5 28t78.5 13.5t72.5 3h26v13q0 111 -110 111q-57 0 -114 -32q-29 -14 -45 12l-8 14q-16 30 11 45q76 43 164 43q95 0 147 -51t52 -147v-287q0 -33 -33 -33h-25q-33 0 -33 33v30l3 31h-2q-2 -4 -6 -11.5t-18.5 -25.5t-31.5 -32
t-46.5 -25.5t-62.5 -11.5q-70 0 -120 41t-50 109zM127 146q0 -33 25 -57t69 -24q60 0 98.5 50t38.5 111v22h-26q-205 0 -205 -102zM244 580q-24 0 -40 20l-49 67q-13 17 -8.5 28.5t25.5 11.5h30q26 0 39 -23l39 -68q9 -14 5 -25t-21 -11h-20z" />
    <glyph glyph-name="aacute" unicode="&#xe1;" horiz-adv-x="517" 
d="M29 138q0 45 22 78.5t53.5 51t75.5 28t78.5 13.5t72.5 3h26v13q0 111 -110 111q-57 0 -114 -32q-29 -14 -45 12l-8 14q-16 30 11 45q76 43 164 43q95 0 147 -51t52 -147v-287q0 -33 -33 -33h-25q-33 0 -33 33v30l3 31h-2q-2 -4 -6 -11.5t-18.5 -25.5t-31.5 -32
t-46.5 -25.5t-62.5 -11.5q-70 0 -120 41t-50 109zM127 146q0 -33 25 -57t69 -24q60 0 98.5 50t38.5 111v22h-26q-205 0 -205 -102zM252 580q-17 0 -23 11t3 26l40 67q13 23 39 23h29q21 0 26 -11.5t-8 -28.5l-49 -67q-16 -20 -40 -20h-17z" />
    <glyph glyph-name="acircumflex" unicode="&#xe2;" horiz-adv-x="517" 
d="M29 138q0 45 22 78.5t53.5 51t75.5 28t78.5 13.5t72.5 3h26v13q0 111 -110 111q-57 0 -114 -32q-29 -14 -45 12l-8 14q-16 30 11 45q76 43 164 43q95 0 147 -51t52 -147v-287q0 -33 -33 -33h-25q-33 0 -33 33v30l3 31h-2q-2 -4 -6 -11.5t-18.5 -25.5t-31.5 -32
t-46.5 -25.5t-62.5 -11.5q-70 0 -120 41t-50 109zM127 146q0 -33 25 -57t69 -24q60 0 98.5 50t38.5 111v22h-26q-205 0 -205 -102zM161 580q-18 0 -22.5 11.5t6.5 28.5l46 65q15 22 41 22h49q26 0 40 -22l47 -65q11 -17 6.5 -28.5t-21.5 -11.5h-22q-21 0 -35 22l-39 58h-2
l-39 -58q-12 -22 -35 -22h-20z" />
    <glyph glyph-name="atilde" unicode="&#xe3;" horiz-adv-x="517" 
d="M29 138q0 45 22 78.5t53.5 51t75.5 28t78.5 13.5t72.5 3h26v13q0 111 -110 111q-57 0 -114 -32q-29 -14 -45 12l-8 14q-16 30 11 45q76 43 164 43q95 0 147 -51t52 -147v-287q0 -33 -33 -33h-25q-33 0 -33 33v30l3 31h-2q-2 -4 -6 -11.5t-18.5 -25.5t-31.5 -32
t-46.5 -25.5t-62.5 -11.5q-70 0 -120 41t-50 109zM127 146q0 -33 25 -57t69 -24q60 0 98.5 50t38.5 111v22h-26q-205 0 -205 -102zM120 581q-29 0 -29 32q0 41 26 68t68 27q31 0 55 -17t42 -34t36 -17q17 0 26.5 13t10.5 32q2 20 30 20h8q29 0 29 -28q0 -45 -25.5 -72
t-68.5 -27q-31 0 -55 17t-42 34t-36 17q-36 0 -38 -45q-3 -20 -29 -20h-8z" />
    <glyph glyph-name="adieresis" unicode="&#xe4;" horiz-adv-x="517" 
d="M29 138q0 45 22 78.5t53.5 51t75.5 28t78.5 13.5t72.5 3h26v13q0 111 -110 111q-57 0 -114 -32q-29 -14 -45 12l-8 14q-16 30 11 45q76 43 164 43q95 0 147 -51t52 -147v-287q0 -33 -33 -33h-25q-33 0 -33 33v30l3 31h-2q-2 -4 -6 -11.5t-18.5 -25.5t-31.5 -32
t-46.5 -25.5t-62.5 -11.5q-70 0 -120 41t-50 109zM127 146q0 -33 25 -57t69 -24q60 0 98.5 50t38.5 111v22h-26q-205 0 -205 -102zM333 606q-33 0 -33 33v35q0 33 33 33h14q33 0 33 -33v-35q0 -33 -33 -33h-14zM166 606q-33 0 -33 33v35q0 33 33 33h14q33 0 33 -33v-35
q0 -33 -33 -33h-14z" />
    <glyph glyph-name="aring" unicode="&#xe5;" horiz-adv-x="517" 
d="M29 138q0 45 22 78.5t53.5 51t75.5 28t78.5 13.5t72.5 3h26v13q0 111 -110 111q-57 0 -114 -32q-29 -14 -45 12l-8 14q-16 30 11 45q76 43 164 43q95 0 147 -51t52 -147v-287q0 -33 -33 -33h-25q-33 0 -33 33v30l3 31h-2q-2 -4 -6 -11.5t-18.5 -25.5t-31.5 -32
t-46.5 -25.5t-62.5 -11.5q-70 0 -120 41t-50 109zM127 146q0 -33 25 -57t69 -24q60 0 98.5 50t38.5 111v22h-26q-205 0 -205 -102zM257 568q-35 0 -60 20.5t-25 53.5q0 34 25 54.5t60 20.5t60 -20.5t25 -54.5q0 -33 -25 -53.5t-60 -20.5zM257 609q14 0 23.5 9.5t9.5 23.5
q0 16 -9.5 25.5t-23.5 9.5q-15 0 -24 -9.5t-9 -25.5q0 -14 9 -23.5t24 -9.5z" />
    <glyph glyph-name="ae" unicode="&#xe6;" horiz-adv-x="853" 
d="M31 142q0 33 11.5 59.5t29.5 44t45.5 30t52.5 19t58 10t55 4.5t50 1h25v15q0 111 -114 111q-54 0 -111 -32q-29 -15 -45 12l-8 14q-15 30 12 45q73 43 159 43q127 0 168 -89h2q60 89 179 89q102 0 159.5 -66t57.5 -173q0 -13 -9.5 -23.5t-24.5 -10.5h-332q4 -83 51 -128
t118 -45q65 0 121 39q30 18 45 -10l8 -15q17 -28 -9 -44q-77 -54 -171 -54q-75 0 -131 33.5t-86 93.5h-2q-5 -14 -16 -31.5t-33 -41t-59 -39t-83 -15.5q-73 0 -123 41.5t-50 112.5zM455 310h264q-2 62 -36.5 96.5t-83.5 34.5q-57 0 -95 -34t-49 -97zM129 147q0 -34 25 -57.5
t71 -23.5q59 0 96.5 50.5t37.5 111.5v17h-47q-183 0 -183 -98z" />
    <glyph glyph-name="ccedilla" unicode="&#xe7;" horiz-adv-x="534" 
d="M254 -59l12 50q-102 13 -165 85.5t-63 176.5q0 113 76 189t194 76q98 0 167 -54q26 -17 6 -45l-10 -15q-16 -25 -45 -8q-53 38 -113 38q-76 0 -126 -51t-50 -129t50.5 -130t127.5 -52q68 0 129 46q28 18 45 -9l8 -15q16 -27 -9 -44q-72 -59 -169 -62l-7 -38q32 -4 52 -23
t20 -50q0 -43 -29.5 -63.5t-72.5 -20.5q-52 0 -52 29q0 30 18 30q4 0 12 -1.5t14 -1.5q43 0 43 32q0 27 -47 32q-24 2 -16 28z" />
    <glyph glyph-name="egrave" unicode="&#xe8;" horiz-adv-x="545" 
d="M38 253q0 119 71.5 192t181.5 73q103 0 160.5 -66.5t57.5 -174.5q0 -14 -9.5 -24t-24.5 -10h-338q4 -80 54 -125.5t121 -45.5q67 0 121 40q30 16 45 -11l9 -15q17 -28 -10 -44q-77 -54 -171 -54q-118 0 -193 75.5t-75 189.5zM141 307h271q-2 65 -36.5 100t-86.5 35
q-56 0 -97 -36t-51 -99zM278 580q-24 0 -40 20l-49 67q-13 17 -8.5 28.5t25.5 11.5h30q26 0 39 -23l39 -68q9 -14 5 -25t-21 -11h-20z" />
    <glyph glyph-name="eacute" unicode="&#xe9;" horiz-adv-x="545" 
d="M287 580q-17 0 -23 11t3 26l40 67q13 23 39 23h29q21 0 26 -11.5t-8 -28.5l-49 -67q-16 -20 -40 -20h-17zM38 253q0 119 71.5 192t181.5 73q103 0 160.5 -66.5t57.5 -174.5q0 -14 -9.5 -24t-24.5 -10h-338q4 -80 54 -125.5t121 -45.5q67 0 121 40q30 16 45 -11l9 -15
q17 -28 -10 -44q-77 -54 -171 -54q-118 0 -193 75.5t-75 189.5zM141 307h271q-2 65 -36.5 100t-86.5 35q-56 0 -97 -36t-51 -99z" />
    <glyph glyph-name="ecircumflex" unicode="&#xea;" horiz-adv-x="545" 
d="M195 580q-18 0 -22.5 11.5t6.5 28.5l46 65q15 22 41 22h49q26 0 40 -22l47 -65q11 -17 6.5 -28.5t-21.5 -11.5h-22q-21 0 -35 22l-39 58h-2l-39 -58q-12 -22 -35 -22h-20zM38 253q0 119 71.5 192t181.5 73q103 0 160.5 -66.5t57.5 -174.5q0 -14 -9.5 -24t-24.5 -10h-338
q4 -80 54 -125.5t121 -45.5q67 0 121 40q30 16 45 -11l9 -15q17 -28 -10 -44q-77 -54 -171 -54q-118 0 -193 75.5t-75 189.5zM141 307h271q-2 65 -36.5 100t-86.5 35q-56 0 -97 -36t-51 -99z" />
    <glyph glyph-name="edieresis" unicode="&#xeb;" horiz-adv-x="545" 
d="M367 606q-33 0 -33 33v35q0 33 33 33h14q33 0 33 -33v-35q0 -33 -33 -33h-14zM200 606q-33 0 -33 33v35q0 33 33 33h14q33 0 33 -33v-35q0 -33 -33 -33h-14zM38 253q0 119 71.5 192t181.5 73q103 0 160.5 -66.5t57.5 -174.5q0 -14 -9.5 -24t-24.5 -10h-338
q4 -80 54 -125.5t121 -45.5q67 0 121 40q30 16 45 -11l9 -15q17 -28 -10 -44q-77 -54 -171 -54q-118 0 -193 75.5t-75 189.5zM141 307h271q-2 65 -36.5 100t-86.5 35q-56 0 -97 -36t-51 -99z" />
    <glyph glyph-name="igrave" unicode="&#xec;" horiz-adv-x="237" 
d="M74 33v440q0 33 33 33h31q33 0 33 -33v-440q0 -33 -33 -33h-31q-33 0 -33 33zM110 580q-24 0 -40 20l-49 67q-13 17 -8.5 28.5t25.5 11.5h30q26 0 39 -23l39 -68q9 -14 5 -25t-21 -11h-20z" />
    <glyph glyph-name="iacute" unicode="&#xed;" horiz-adv-x="237" 
d="M116 580q-17 0 -23 11t3 26l40 67q13 23 39 23h29q21 0 26 -11.5t-8 -28.5l-49 -67q-16 -20 -40 -20h-17zM70 33v440q0 33 33 33h31q33 0 33 -33v-440q0 -33 -33 -33h-31q-33 0 -33 33z" />
    <glyph glyph-name="icircumflex" unicode="&#xee;" horiz-adv-x="237" 
d="M28 580q-18 0 -22.5 11.5t6.5 28.5l46 65q15 22 41 22h49q26 0 40 -22l47 -65q11 -17 6.5 -28.5t-21.5 -11.5h-22q-21 0 -35 22l-39 58h-2l-39 -58q-12 -22 -35 -22h-20zM74 33v440q0 33 33 33h31q33 0 33 -33v-440q0 -33 -33 -33h-31q-33 0 -33 33z" />
    <glyph glyph-name="idieresis" unicode="&#xef;" horiz-adv-x="237" 
d="M197 606q-33 0 -33 33v35q0 33 33 33h14q33 0 33 -33v-35q0 -33 -33 -33h-14zM30 606q-33 0 -33 33v35q0 33 33 33h14q33 0 33 -33v-35q0 -33 -33 -33h-14zM70 33v440q0 33 33 33h31q33 0 33 -33v-440q0 -33 -33 -33h-31q-33 0 -33 33z" />
    <glyph glyph-name="eth" unicode="&#xf0;" horiz-adv-x="578" 
d="M39 235q0 94 63.5 162.5t173.5 68.5q37 0 68.5 -11.5t44.5 -22.5l13 -12h2q-30 83 -112 137l-145 -65q-16 -6 -24 -4t-14 15l-4 10q-10 23 18 36l102 45q-38 21 -96 38q-31 9 -22 41l6 16q11 31 41 22q101 -27 176 -72l103 46q28 11 37 -10l6 -12q10 -21 -18 -33l-72 -33
q144 -120 144 -322q0 -53 -14.5 -102t-43.5 -91.5t-80 -68t-116 -25.5q-108 0 -172.5 73.5t-64.5 173.5zM138 233q0 -66 37.5 -113.5t103.5 -47.5q75 0 114 56.5t39 129.5q0 57 -39 93.5t-103 36.5q-73 0 -112.5 -45.5t-39.5 -109.5z" />
    <glyph glyph-name="ntilde" unicode="&#xf1;" horiz-adv-x="591" 
d="M70 33v440q0 33 33 33h28q33 0 33 -33v-45l-3 -29h2q20 44 69 81.5t123 37.5q173 0 173 -194v-291q0 -33 -33 -33h-31q-33 0 -33 33v269q0 61 -19.5 94t-75.5 33q-73 0 -121 -54t-48 -133v-209q0 -33 -33 -33h-31q-33 0 -33 33zM171 581q-29 0 -29 32q0 41 26 68t68 27
q31 0 55 -17t42 -34t36 -17q17 0 26.5 13t10.5 32q2 20 30 20h8q29 0 29 -28q0 -45 -25.5 -72t-68.5 -27q-31 0 -55 17t-42 34t-36 17q-36 0 -38 -45q-3 -20 -29 -20h-8z" />
    <glyph glyph-name="ograve" unicode="&#xf2;" horiz-adv-x="619" 
d="M37 254q0 114 79 189t193 75q115 0 194 -75t79 -189t-79.5 -190t-193.5 -76t-193 76t-79 190zM135 254q0 -78 51 -130t123 -52q73 0 123.5 51.5t50.5 130.5q0 78 -50.5 129t-123.5 51q-72 0 -123 -51t-51 -129zM295 580q-24 0 -40 20l-49 67q-13 17 -8.5 28.5t25.5 11.5
h30q26 0 39 -23l39 -68q9 -14 5 -25t-21 -11h-20z" />
    <glyph glyph-name="oacute" unicode="&#xf3;" horiz-adv-x="619" 
d="M306 580q-17 0 -23 11t3 26l40 67q13 23 39 23h29q21 0 26 -11.5t-8 -28.5l-49 -67q-16 -20 -40 -20h-17zM37 254q0 114 79 189t193 75q115 0 194 -75t79 -189t-79.5 -190t-193.5 -76t-193 76t-79 190zM135 254q0 -78 51 -130t123 -52q73 0 123.5 51.5t50.5 130.5
q0 78 -50.5 129t-123.5 51q-72 0 -123 -51t-51 -129z" />
    <glyph glyph-name="ocircumflex" unicode="&#xf4;" horiz-adv-x="619" 
d="M213 580q-18 0 -22.5 11.5t6.5 28.5l46 65q15 22 41 22h49q26 0 40 -22l47 -65q11 -17 6.5 -28.5t-21.5 -11.5h-22q-21 0 -35 22l-39 58h-2l-39 -58q-12 -22 -35 -22h-20zM37 254q0 114 79 189t193 75q115 0 194 -75t79 -189t-79.5 -190t-193.5 -76t-193 76t-79 190z
M135 254q0 -78 51 -130t123 -52q73 0 123.5 51.5t50.5 130.5q0 78 -50.5 129t-123.5 51q-72 0 -123 -51t-51 -129z" />
    <glyph glyph-name="otilde" unicode="&#xf5;" horiz-adv-x="619" 
d="M37 254q0 114 79 189t193 75q115 0 194 -75t79 -189t-79.5 -190t-193.5 -76t-193 76t-79 190zM135 254q0 -78 51 -130t123 -52q73 0 123.5 51.5t50.5 130.5q0 78 -50.5 129t-123.5 51q-72 0 -123 -51t-51 -129zM173 581q-29 0 -29 32q0 41 26 68t68 27q31 0 55 -17
t42 -34t36 -17q17 0 26.5 13t10.5 32q2 20 30 20h8q29 0 29 -28q0 -45 -25.5 -72t-68.5 -27q-31 0 -55 17t-42 34t-36 17q-36 0 -38 -45q-3 -20 -29 -20h-8z" />
    <glyph glyph-name="odieresis" unicode="&#xf6;" horiz-adv-x="619" 
d="M386 606q-33 0 -33 33v35q0 33 33 33h14q33 0 33 -33v-35q0 -33 -33 -33h-14zM219 606q-33 0 -33 33v35q0 33 33 33h14q33 0 33 -33v-35q0 -33 -33 -33h-14zM37 254q0 114 79 189t193 75q115 0 194 -75t79 -189t-79.5 -190t-193.5 -76t-193 76t-79 190zM135 254
q0 -78 51 -130t123 -52q73 0 123.5 51.5t50.5 130.5q0 78 -50.5 129t-123.5 51q-72 0 -123 -51t-51 -129z" />
    <glyph glyph-name="divide" unicode="&#xf7;" horiz-adv-x="613" 
d="M292 435q-33 0 -33 33v25q0 33 33 33h28q33 0 33 -33v-25q0 -33 -33 -33h-28zM87 246q-33 0 -33 33v12q0 33 33 33h439q33 0 33 -33v-12q0 -33 -33 -33h-439zM259 77v25q0 33 33 33h28q33 0 33 -33v-25q0 -33 -33 -33h-28q-33 0 -33 33z" />
    <glyph glyph-name="oslash" unicode="&#xf8;" horiz-adv-x="620" 
d="M110 16l23 33q-95 77 -95 205q0 114 79 189t193 75q72 0 135 -33l20 28q19 26 44 10q24 -16 9 -36l-25 -35q90 -77 90 -198q0 -114 -79.5 -190t-193.5 -76q-72 0 -127 30l-21 -29q-18 -27 -43 -10q-25 18 -9 37zM187 125l206 288q-39 21 -83 21q-72 0 -123 -51t-51 -129
q0 -76 51 -129zM235 90q33 -18 75 -18q73 0 123.5 51.5t50.5 130.5q0 72 -46 121z" />
    <glyph glyph-name="ugrave" unicode="&#xf9;" horiz-adv-x="587" 
d="M64 182v291q0 33 33 33h31q32 0 32 -33v-269q0 -60 20 -93t75 -33q75 0 120 56t45 135v204q0 33 33 33h31q33 0 33 -33v-440q0 -33 -33 -33h-28q-33 0 -33 33v45l3 29h-2q-20 -45 -70 -82t-118 -37q-86 0 -129 47.5t-43 146.5zM277 580q-24 0 -40 20l-49 67
q-13 17 -8.5 28.5t25.5 11.5h30q26 0 39 -23l39 -68q9 -14 5 -25t-21 -11h-20z" />
    <glyph glyph-name="uacute" unicode="&#xfa;" horiz-adv-x="587" 
d="M286 580q-17 0 -23 11t3 26l40 67q13 23 39 23h29q21 0 26 -11.5t-8 -28.5l-49 -67q-16 -20 -40 -20h-17zM64 182v291q0 33 33 33h31q32 0 32 -33v-269q0 -60 20 -93t75 -33q75 0 120 56t45 135v204q0 33 33 33h31q33 0 33 -33v-440q0 -33 -33 -33h-28q-33 0 -33 33v45
l3 29h-2q-20 -45 -70 -82t-118 -37q-86 0 -129 47.5t-43 146.5z" />
    <glyph glyph-name="ucircumflex" unicode="&#xfb;" horiz-adv-x="587" 
d="M194 580q-18 0 -22.5 11.5t6.5 28.5l46 65q15 22 41 22h49q26 0 40 -22l47 -65q11 -17 6.5 -28.5t-21.5 -11.5h-22q-21 0 -35 22l-39 58h-2l-39 -58q-12 -22 -35 -22h-20zM64 182v291q0 33 33 33h31q32 0 32 -33v-269q0 -60 20 -93t75 -33q75 0 120 56t45 135v204
q0 33 33 33h31q33 0 33 -33v-440q0 -33 -33 -33h-28q-33 0 -33 33v45l3 29h-2q-20 -45 -70 -82t-118 -37q-86 0 -129 47.5t-43 146.5z" />
    <glyph glyph-name="udieresis" unicode="&#xfc;" horiz-adv-x="587" 
d="M367 606q-33 0 -33 33v35q0 33 33 33h14q33 0 33 -33v-35q0 -33 -33 -33h-14zM200 606q-33 0 -33 33v35q0 33 33 33h14q33 0 33 -33v-35q0 -33 -33 -33h-14zM64 182v291q0 33 33 33h31q32 0 32 -33v-269q0 -60 20 -93t75 -33q75 0 120 56t45 135v204q0 33 33 33h31
q33 0 33 -33v-440q0 -33 -33 -33h-28q-33 0 -33 33v45l3 29h-2q-20 -45 -70 -82t-118 -37q-86 0 -129 47.5t-43 146.5z" />
    <glyph glyph-name="yacute" unicode="&#xfd;" horiz-adv-x="502" 
d="M35 -134q11 24 37 17q28 -11 40 -11q29 0 51.5 21.5t35.5 54.5l25 58l-196 462q-7 17 0 27.5t25 10.5h39q28 0 37 -26l119 -305l18 -61h2q8 34 17 60l115 305q9 27 37 27h36q18 0 25.5 -10.5t0.5 -27.5l-223 -557q-22 -58 -66 -89.5t-98 -31.5q-31 0 -70 16
q-29 12 -15 43zM263 579q-17 0 -23 11t3 26l40 67q13 23 39 23h29q21 0 26 -12t-8 -28l-49 -67q-16 -20 -40 -20h-17z" />
    <glyph glyph-name="thorn" unicode="&#xfe;" horiz-adv-x="592" 
d="M72 -167v840q0 33 33 33h31q32 0 32 -33v-197l-1 -42h2q1 1 9 11t14.5 17.5t21 18.5t29.5 18.5t38 13t48 5.5q102 0 163 -74t61 -191t-63.5 -191t-164.5 -74q-32 0 -60.5 8.5t-45.5 21t-29 24.5t-17 20l-5 9h-2q2 -18 2 -44v-194q0 -33 -32 -33h-31q-33 0 -33 33z
M166 252q0 -79 39 -129.5t105 -50.5q63 0 104 50t41 131q0 80 -39.5 130.5t-102.5 50.5q-64 0 -105.5 -45t-41.5 -137z" />
    <glyph glyph-name="ydieresis" unicode="&#xff;" horiz-adv-x="502" 
d="M35 -134q11 24 37 17q28 -11 40 -11q29 0 51.5 21.5t35.5 54.5l25 58l-196 462q-7 17 0 27.5t25 10.5h39q28 0 37 -26l119 -305l18 -61h2q8 34 17 60l115 305q9 27 37 27h36q18 0 25.5 -10.5t0.5 -27.5l-223 -557q-22 -58 -66 -89.5t-98 -31.5q-31 0 -70 16
q-29 12 -15 43zM344 605q-33 0 -33 33v35q0 33 33 33h14q33 0 33 -33v-35q0 -33 -33 -33h-14zM177 605q-33 0 -33 33v35q0 33 33 33h14q33 0 33 -33v-35q0 -33 -33 -33h-14z" />
    <glyph glyph-name="Amacron" unicode="&#x100;" horiz-adv-x="621" 
d="M24 38l232 641q9 27 37 27h48q28 0 37 -27l232 -641q6 -17 -1.5 -27.5t-25.5 -10.5h-34q-28 0 -37 27l-63 176h-266l-62 -176q-7 -27 -36 -27h-34q-19 0 -26 10.5t-1 27.5zM209 285h214l-78 224l-27 100h-2q-16 -64 -28 -100zM222 784q-33 0 -33 32v7q0 32 33 32h189
q33 0 33 -32v-7q0 -32 -33 -32h-189z" />
    <glyph glyph-name="amacron" unicode="&#x101;" horiz-adv-x="517" 
d="M29 138q0 45 22 78.5t53.5 51t75.5 28t78.5 13.5t72.5 3h26v13q0 111 -110 111q-57 0 -114 -32q-29 -14 -45 12l-8 14q-16 30 11 45q76 43 164 43q95 0 147 -51t52 -147v-287q0 -33 -33 -33h-25q-33 0 -33 33v30l3 31h-2q-2 -4 -6 -11.5t-18.5 -25.5t-31.5 -32
t-46.5 -25.5t-62.5 -11.5q-70 0 -120 41t-50 109zM127 146q0 -33 25 -57t69 -24q60 0 98.5 50t38.5 111v22h-26q-205 0 -205 -102zM162 609q-33 0 -33 32v7q0 32 33 32h189q33 0 33 -32v-7q0 -32 -33 -32h-189z" />
    <glyph glyph-name="Abreve" unicode="&#x102;" horiz-adv-x="621" 
d="M24 38l232 641q9 27 37 27h48q28 0 37 -27l232 -641q6 -17 -1.5 -27.5t-25.5 -10.5h-34q-28 0 -37 27l-63 176h-266l-62 -176q-7 -27 -36 -27h-34q-19 0 -26 10.5t-1 27.5zM209 285h214l-78 224l-27 100h-2q-16 -64 -28 -100zM317 751q-51 0 -91 31t-40 78q0 22 29 22h14
q25 0 29 -23q8 -50 59 -50q50 0 58 50q4 23 29 23h14q29 0 29 -22q0 -47 -39 -78t-91 -31z" />
    <glyph glyph-name="abreve" unicode="&#x103;" horiz-adv-x="517" 
d="M29 138q0 45 22 78.5t53.5 51t75.5 28t78.5 13.5t72.5 3h26v13q0 111 -110 111q-57 0 -114 -32q-29 -14 -45 12l-8 14q-16 30 11 45q76 43 164 43q95 0 147 -51t52 -147v-287q0 -33 -33 -33h-25q-33 0 -33 33v30l3 31h-2q-2 -4 -6 -11.5t-18.5 -25.5t-31.5 -32
t-46.5 -25.5t-62.5 -11.5q-70 0 -120 41t-50 109zM127 146q0 -33 25 -57t69 -24q60 0 98.5 50t38.5 111v22h-26q-205 0 -205 -102zM257 576q-51 0 -91 31t-40 78q0 22 29 22h14q25 0 29 -23q8 -50 59 -50q50 0 58 50q4 23 29 23h14q29 0 29 -22q0 -47 -39 -78t-91 -31z" />
    <glyph glyph-name="Aogonek" unicode="&#x104;" horiz-adv-x="621" 
d="M24 38l232 641q9 27 37 27h48q27 0 37 -27l232 -641q11 -34 -4 -49q-20 -16 -28 -23.5t-19.5 -24t-11.5 -31.5q0 -26 40 -41q19 -8 15 -33l-2 -16q-4 -25 -32 -22q-37 5 -69 27.5t-32 64.5q0 61 71 116q-22 4 -29 29l-60 168h-266l-62 -176q-7 -27 -36 -27h-34
q-19 0 -26 10.5t-1 27.5zM209 285h214l-78 224l-27 100h-2q-16 -64 -28 -100z" />
    <glyph glyph-name="aogonek" unicode="&#x105;" horiz-adv-x="518" 
d="M29 138q0 45 22 78.5t53.5 51t75.5 28t78.5 13.5t72.5 3h26v13q0 111 -110 111q-57 0 -114 -32q-29 -14 -45 12l-8 14q-16 30 11 45q76 43 164 43q95 0 147 -51t52 -147v-287q0 -18 -18 -36.5t-36.5 -40t-18.5 -46.5q0 -26 40 -41q19 -8 15 -33l-2 -16q-4 -25 -32 -22
q-37 5 -69 27.5t-32 64.5q0 62 71 118q-9 8 -9 25v30l3 31h-2q-2 -4 -6 -11.5t-18.5 -25.5t-31.5 -32t-46.5 -25.5t-62.5 -11.5q-70 0 -120 41t-50 109zM127 146q0 -33 25 -57t69 -24q60 0 98.5 50t38.5 111v22h-26q-205 0 -205 -102z" />
    <glyph glyph-name="Cacute" unicode="&#x106;" horiz-adv-x="707" 
d="M394 755q-17 0 -23 11t3 26l40 67q13 23 39 23h29q21 0 26 -12t-8 -28l-49 -67q-16 -20 -40 -20h-17zM46 357q0 155 101 258t258 103q136 0 234 -73q23 -18 6 -46l-13 -20q-17 -26 -46 -8q-84 56 -177 56q-120 0 -190.5 -77t-70.5 -192q0 -117 72 -198t190 -81
q103 0 192 69q27 21 46 -4l15 -20q19 -25 -5 -46q-108 -90 -251 -90q-161 0 -261 105.5t-100 263.5z" />
    <glyph glyph-name="cacute" unicode="&#x107;" horiz-adv-x="531" 
d="M285 580q-17 0 -23 11t3 26l40 67q13 23 39 23h29q21 0 26 -11.5t-8 -28.5l-49 -67q-16 -20 -40 -20h-17zM37 253q0 113 76 189t194 76q98 0 167 -54q26 -17 6 -45l-10 -15q-16 -25 -45 -8q-53 38 -113 38q-76 0 -126 -51t-50 -129t50.5 -130t127.5 -52q68 0 129 46
q28 18 45 -9l8 -15q16 -27 -9 -44q-75 -62 -180 -62q-119 0 -194.5 75t-75.5 190z" />
    <glyph glyph-name="Ccircumflex" unicode="&#x108;" horiz-adv-x="707" 
d="M302 755q-18 0 -22.5 11.5t6.5 28.5l46 65q15 22 41 22h49q26 0 40 -22l47 -65q11 -17 6.5 -28.5t-21.5 -11.5h-22q-21 0 -35 22l-39 58h-2l-39 -58q-12 -22 -35 -22h-20zM46 357q0 155 101 258t258 103q136 0 234 -73q23 -18 6 -46l-13 -20q-17 -26 -46 -8
q-84 56 -177 56q-120 0 -190.5 -77t-70.5 -192q0 -117 72 -198t190 -81q103 0 192 69q27 21 46 -4l15 -20q19 -25 -5 -46q-108 -90 -251 -90q-161 0 -261 105.5t-100 263.5z" />
    <glyph glyph-name="ccircumflex" unicode="&#x109;" horiz-adv-x="531" 
d="M193 580q-18 0 -22.5 11.5t6.5 28.5l46 65q15 22 41 22h49q26 0 40 -22l47 -65q11 -17 6.5 -28.5t-21.5 -11.5h-22q-21 0 -35 22l-39 58h-2l-39 -58q-12 -22 -35 -22h-20zM37 253q0 113 76 189t194 76q98 0 167 -54q26 -17 6 -45l-10 -15q-16 -25 -45 -8q-53 38 -113 38
q-76 0 -126 -51t-50 -129t50.5 -130t127.5 -52q68 0 129 46q28 18 45 -9l8 -15q16 -27 -9 -44q-75 -62 -180 -62q-119 0 -194.5 75t-75.5 190z" />
    <glyph glyph-name="Cdotaccent" unicode="&#x10a;" horiz-adv-x="707" 
d="M46 357q0 155 101 258t258 103q136 0 234 -73q23 -18 6 -46l-13 -20q-17 -26 -46 -8q-84 56 -177 56q-120 0 -190.5 -77t-70.5 -192q0 -117 72 -198t190 -81q103 0 192 69q27 21 46 -4l15 -20q19 -25 -5 -46q-108 -90 -251 -90q-161 0 -261 105.5t-100 263.5zM387 784
q-33 0 -33 33v32q0 33 33 33h21q33 0 33 -33v-32q0 -33 -33 -33h-21z" />
    <glyph glyph-name="cdotaccent" unicode="&#x10b;" horiz-adv-x="531" 
d="M37 253q0 113 76 189t194 76q98 0 167 -54q26 -17 6 -45l-10 -15q-16 -25 -45 -8q-53 38 -113 38q-76 0 -126 -51t-50 -129t50.5 -130t127.5 -52q68 0 129 46q28 18 45 -9l8 -15q16 -27 -9 -44q-75 -62 -180 -62q-119 0 -194.5 75t-75.5 190zM277 609q-33 0 -33 33v32
q0 33 33 33h21q33 0 33 -33v-32q0 -33 -33 -33h-21z" />
    <glyph glyph-name="Ccaron" unicode="&#x10c;" horiz-adv-x="707" 
d="M373 755q-26 0 -41 21l-46 66q-11 17 -6.5 28.5t22.5 11.5h20q22 0 35 -22l39 -59h2l39 59q15 22 35 22h21q18 0 22.5 -11.5t-6.5 -28.5l-47 -66q-14 -21 -40 -21h-49zM46 357q0 155 101 258t258 103q136 0 234 -73q23 -18 6 -46l-13 -20q-17 -26 -46 -8q-84 56 -177 56
q-120 0 -190.5 -77t-70.5 -192q0 -117 72 -198t190 -81q103 0 192 69q27 21 46 -4l15 -20q19 -25 -5 -46q-108 -90 -251 -90q-161 0 -261 105.5t-100 263.5z" />
    <glyph glyph-name="ccaron" unicode="&#x10d;" horiz-adv-x="531" 
d="M264 580q-26 0 -41 21l-46 66q-11 17 -6.5 28.5t22.5 11.5h20q22 0 35 -22l39 -59h2l39 59q15 22 35 22h21q18 0 22.5 -11.5t-6.5 -28.5l-47 -66q-14 -21 -40 -21h-49zM37 253q0 113 76 189t194 76q98 0 167 -54q26 -17 6 -45l-10 -15q-16 -25 -45 -8q-53 38 -113 38
q-76 0 -126 -51t-50 -129t50.5 -130t127.5 -52q68 0 129 46q28 18 45 -9l8 -15q16 -27 -9 -44q-75 -62 -180 -62q-119 0 -194.5 75t-75.5 190z" />
    <glyph glyph-name="Dcaron" unicode="&#x10e;" horiz-adv-x="729" 
d="M312 755q-26 0 -41 21l-46 66q-11 17 -6.5 28.5t22.5 11.5h20q22 0 35 -22l39 -59h2l39 59q15 22 35 22h21q18 0 22.5 -11.5t-6.5 -28.5l-47 -66q-14 -21 -40 -21h-49zM90 33v640q0 33 33 33h201q163 0 260.5 -93.5t97.5 -258.5q0 -166 -97.5 -260t-260.5 -94h-201
q-33 0 -33 33zM188 86h129q121 0 192 70t71 198q0 127 -71 196.5t-192 69.5h-129v-534z" />
    <glyph glyph-name="dcaron" unicode="&#x10f;" horiz-adv-x="592" 
d="M582 685q0 21 29 21h17q39 0 39 -56q0 -36 -15.5 -67t-38.5 -31h-8q-29 0 -29 20q0 4 5 23t5 42q0 14 -2 27t-2 21zM39 253q0 120 64 192.5t165 72.5q32 0 60.5 -9t45.5 -22t29 -25.5t17 -21.5l5 -9h2q-3 15 -3 34v208q0 33 33 33h31q33 0 33 -33v-640q0 -33 -33 -33h-26
q-33 0 -33 31v29l2 25h-2q-2 -4 -5.5 -10.5t-17.5 -23t-31.5 -29.5t-47.5 -23.5t-65 -10.5q-102 0 -162.5 73t-60.5 192zM138 253q0 -82 39.5 -131.5t103.5 -49.5q62 0 104 45.5t42 136.5q0 73 -37.5 126t-106.5 53q-62 0 -103.5 -48.5t-41.5 -131.5z" />
    <glyph glyph-name="Dcroat" unicode="&#x110;" horiz-adv-x="730" 
d="M91 33v279h-26q-33 0 -33 33v16q0 33 22 33h37v279q0 33 33 33h201q163 0 260 -93.5t97 -258.5q0 -166 -97 -260t-260 -94h-201q-33 0 -33 33zM189 86h129q121 0 191.5 70t70.5 198q0 127 -70.5 196.5t-191.5 69.5h-129v-226h117q33 0 33 -33v-16q0 -33 -32 -33h-118
v-226z" />
    <glyph glyph-name="dcroat" unicode="&#x111;" horiz-adv-x="592" 
d="M39 253q0 120 64 192.5t165 72.5q32 0 60.5 -8.5t45 -21t28.5 -25t17 -21.5l5 -8h2q-2 15 -2 34v95h-97q-33 0 -33 28v6q0 29 33 29h97v47q0 33 33 33h31q33 0 33 -33v-47h43q33 0 33 -29v-6q0 -28 -24 -28h-52v-530q0 -33 -33 -33h-26q-33 0 -33 31v26l1 25h-2
q-2 -4 -5.5 -10t-17.5 -22.5t-31 -29t-47 -22.5t-65 -10q-102 0 -162.5 73t-60.5 192zM138 253q0 -82 39.5 -131.5t103.5 -49.5q62 0 104 45.5t42 136.5q0 73 -37.5 126.5t-106.5 53.5q-62 0 -103.5 -49t-41.5 -132z" />
    <glyph glyph-name="Emacron" unicode="&#x112;" horiz-adv-x="555" 
d="M90 33v640q0 33 33 33h344q33 0 33 -33v-20q0 -33 -33 -33h-279v-221h221q33 0 33 -33v-20q0 -33 -33 -33h-221v-227h296q33 0 33 -33v-20q0 -33 -33 -33h-361q-33 0 -33 33zM211 784q-33 0 -33 32v7q0 32 33 32h189q33 0 33 -32v-7q0 -32 -33 -32h-189z" />
    <glyph glyph-name="emacron" unicode="&#x113;" horiz-adv-x="545" 
d="M38 253q0 119 71.5 192t181.5 73q103 0 160.5 -66.5t57.5 -174.5q0 -14 -9.5 -24t-24.5 -10h-338q4 -80 54 -125.5t121 -45.5q67 0 121 40q30 16 45 -11l9 -15q17 -28 -10 -44q-77 -54 -171 -54q-118 0 -193 75.5t-75 189.5zM141 307h271q-2 65 -36.5 100t-86.5 35
q-56 0 -97 -36t-51 -99zM196 609q-33 0 -33 32v7q0 32 33 32h189q33 0 33 -32v-7q0 -32 -33 -32h-189z" />
    <glyph glyph-name="Ebreve" unicode="&#x114;" horiz-adv-x="555" 
d="M90 33v640q0 33 33 33h344q33 0 33 -33v-20q0 -33 -33 -33h-279v-221h221q33 0 33 -33v-20q0 -33 -33 -33h-221v-227h296q33 0 33 -33v-20q0 -33 -33 -33h-361q-33 0 -33 33zM306 751q-51 0 -91 31t-40 78q0 22 29 22h14q25 0 29 -23q8 -50 59 -50q50 0 58 50q4 23 29 23
h14q29 0 29 -22q0 -47 -39 -78t-91 -31z" />
    <glyph glyph-name="ebreve" unicode="&#x115;" horiz-adv-x="545" 
d="M38 253q0 119 71.5 192t181.5 73q103 0 160.5 -66.5t57.5 -174.5q0 -14 -9.5 -24t-24.5 -10h-338q4 -80 54 -125.5t121 -45.5q67 0 121 40q30 16 45 -11l9 -15q17 -28 -10 -44q-77 -54 -171 -54q-118 0 -193 75.5t-75 189.5zM141 307h271q-2 65 -36.5 100t-86.5 35
q-56 0 -97 -36t-51 -99zM291 576q-51 0 -91 31t-40 78q0 22 29 22h14q25 0 29 -23q8 -50 59 -50q50 0 58 50q4 23 29 23h14q29 0 29 -22q0 -47 -39 -78t-91 -31z" />
    <glyph glyph-name="Edotaccent" unicode="&#x116;" horiz-adv-x="555" 
d="M90 33v640q0 33 33 33h344q33 0 33 -33v-20q0 -33 -33 -33h-279v-221h221q33 0 33 -33v-20q0 -33 -33 -33h-221v-227h296q33 0 33 -33v-20q0 -33 -33 -33h-361q-33 0 -33 33zM295 784q-33 0 -33 33v32q0 33 33 33h21q33 0 33 -33v-32q0 -33 -33 -33h-21z" />
    <glyph glyph-name="edotaccent" unicode="&#x117;" horiz-adv-x="545" 
d="M38 253q0 119 71.5 192t181.5 73q103 0 160.5 -66.5t57.5 -174.5q0 -14 -9.5 -24t-24.5 -10h-338q4 -80 54 -125.5t121 -45.5q67 0 121 40q30 16 45 -11l9 -15q17 -28 -10 -44q-77 -54 -171 -54q-118 0 -193 75.5t-75 189.5zM141 307h271q-2 65 -36.5 100t-86.5 35
q-56 0 -97 -36t-51 -99zM280 609q-33 0 -33 33v32q0 33 33 33h21q33 0 33 -33v-32q0 -33 -33 -33h-21z" />
    <glyph glyph-name="Eogonek" unicode="&#x118;" horiz-adv-x="555" 
d="M90 33v640q0 33 33 33h344q33 0 33 -33v-20q0 -33 -33 -33h-279v-221h221q33 0 33 -33v-20q0 -33 -33 -33h-221v-227h296q33 0 33 -33v-21q0 -16 -18.5 -34.5t-37.5 -41t-19 -46.5q0 -27 40 -41q18 -8 15 -33l-3 -16q-3 -26 -32 -22q-37 5 -69 27.5t-32 64.5q0 55 62 110
h-300q-33 0 -33 33z" />
    <glyph glyph-name="eogonek" unicode="&#x119;" horiz-adv-x="546" 
d="M38 253q0 119 71.5 192t181.5 73q103 0 160.5 -68t57.5 -175q0 -13 -9.5 -22.5t-24.5 -9.5h-338q4 -80 54 -125.5t121 -45.5q67 0 121 40q31 16 45 -11l8 -15q14 -26 -8 -45q-7 -6 -32 -26.5t-39.5 -33.5t-28 -33t-13.5 -38q0 -27 40 -41q18 -8 14 -33l-2 -16
q-4 -25 -32 -22q-35 4 -68.5 27.5t-33.5 62.5q0 53 57 104q-22 -4 -34 -4q-118 0 -193 75.5t-75 189.5zM141 307h270q-2 64 -36.5 99t-85.5 35q-56 0 -97 -36t-51 -98z" />
    <glyph glyph-name="Ecaron" unicode="&#x11a;" horiz-adv-x="555" 
d="M281 755q-26 0 -41 21l-46 66q-11 17 -6.5 28.5t22.5 11.5h20q22 0 35 -22l39 -59h2l39 59q15 22 35 22h21q18 0 22.5 -11.5t-6.5 -28.5l-47 -66q-14 -21 -40 -21h-49zM90 33v640q0 33 33 33h344q33 0 33 -33v-20q0 -33 -33 -33h-279v-221h221q33 0 33 -33v-20
q0 -33 -33 -33h-221v-227h296q33 0 33 -33v-20q0 -33 -33 -33h-361q-33 0 -33 33z" />
    <glyph glyph-name="ecaron" unicode="&#x11b;" horiz-adv-x="545" 
d="M266 580q-26 0 -41 21l-46 66q-11 17 -6.5 28.5t22.5 11.5h20q22 0 35 -22l39 -59h2l39 59q15 22 35 22h21q18 0 22.5 -11.5t-6.5 -28.5l-47 -66q-14 -21 -40 -21h-49zM38 253q0 119 71.5 192t181.5 73q103 0 160.5 -66.5t57.5 -174.5q0 -14 -9.5 -24t-24.5 -10h-338
q4 -80 54 -125.5t121 -45.5q67 0 121 40q30 16 45 -11l9 -15q17 -28 -10 -44q-77 -54 -171 -54q-118 0 -193 75.5t-75 189.5zM141 307h271q-2 65 -36.5 100t-86.5 35q-56 0 -97 -36t-51 -99z" />
    <glyph glyph-name="Gcircumflex" unicode="&#x11c;" horiz-adv-x="751" 
d="M299 755q-18 0 -22.5 11.5t6.5 28.5l46 65q15 22 41 22h49q26 0 40 -22l47 -65q11 -17 6.5 -28.5t-21.5 -11.5h-22q-21 0 -35 22l-39 58h-2l-39 -58q-12 -22 -35 -22h-20zM46 351q0 157 102.5 262t257.5 105q78 0 138 -21t94 -45q25 -19 7 -45l-14 -21q-16 -25 -46 -9
q-82 50 -174 50q-119 0 -191 -78t-72 -194q0 -120 74 -198t184 -78q36 0 70.5 9.5t57 22.5t40 26.5t25.5 22.5l8 10v99h-82q-33 0 -33 33v20q0 33 33 33h139q33 0 33 -33v-289q0 -33 -33 -33h-19q-33 0 -33 28v26l1 22h-2q-3 -4 -9 -9.5t-26.5 -21t-44 -27t-61 -21
t-77.5 -9.5q-145 0 -246 103t-101 260z" />
    <glyph glyph-name="gcircumflex" unicode="&#x11d;" horiz-adv-x="585" 
d="M189 580q-18 0 -22.5 11.5t6.5 28.5l46 65q15 22 41 22h49q26 0 40 -22l47 -65q11 -17 6.5 -28.5t-21.5 -11.5h-22q-21 0 -35 22l-39 58h-2l-39 -58q-12 -22 -35 -22h-20zM106 -121q13 28 42 17q59 -22 110 -22q70 0 114.5 34.5t44.5 107.5v44l3 32h-2q-47 -86 -150 -86
q-104 0 -166 73t-62 187q0 111 59.5 181.5t166.5 70.5q35 0 64 -9t46 -21t28.5 -24.5t15.5 -21.5l4 -9h2q-2 6 -2 16v29q0 28 33 28h24q33 0 33 -33v-452q0 -116 -73.5 -173.5t-177.5 -57.5q-83 0 -147 28q-30 13 -17 44zM285 90q59 0 96.5 41t37.5 132q0 171 -140 171
q-67 0 -103.5 -44t-36.5 -120q0 -82 39 -131t107 -49z" />
    <glyph glyph-name="Gbreve" unicode="&#x11e;" horiz-adv-x="751" 
d="M46 351q0 157 102.5 262t257.5 105q78 0 138 -21t94 -45q25 -19 7 -45l-14 -21q-16 -25 -46 -9q-82 50 -174 50q-119 0 -191 -78t-72 -194q0 -120 74 -198t184 -78q36 0 70.5 9.5t57 22.5t40 26.5t25.5 22.5l8 10v99h-82q-33 0 -33 33v20q0 33 33 33h139q33 0 33 -33
v-289q0 -33 -33 -33h-19q-33 0 -33 28v26l1 22h-2q-3 -4 -9 -9.5t-26.5 -21t-44 -27t-61 -21t-77.5 -9.5q-145 0 -246 103t-101 260zM395 751q-51 0 -91 31t-40 78q0 22 29 22h14q25 0 29 -23q8 -50 59 -50q50 0 58 50q4 23 29 23h14q29 0 29 -22q0 -47 -39 -78t-91 -31z
" />
    <glyph glyph-name="gbreve" unicode="&#x11f;" horiz-adv-x="585" 
d="M106 -121q13 28 42 17q59 -22 110 -22q70 0 114.5 34.5t44.5 107.5v44l3 32h-2q-47 -86 -150 -86q-104 0 -166 73t-62 187q0 111 59.5 181.5t166.5 70.5q35 0 64 -9t46 -21t28.5 -24.5t15.5 -21.5l4 -9h2q-2 6 -2 16v29q0 28 33 28h24q33 0 33 -33v-452
q0 -116 -73.5 -173.5t-177.5 -57.5q-83 0 -147 28q-30 13 -17 44zM285 90q59 0 96.5 41t37.5 132q0 171 -140 171q-67 0 -103.5 -44t-36.5 -120q0 -82 39 -131t107 -49zM285 576q-51 0 -91 31t-40 78q0 22 29 22h14q25 0 29 -23q8 -50 59 -50q50 0 58 50q4 23 29 23h14
q29 0 29 -22q0 -47 -39 -78t-91 -31z" />
    <glyph glyph-name="Gdotaccent" unicode="&#x120;" horiz-adv-x="751" 
d="M46 351q0 157 102.5 262t257.5 105q78 0 138 -21t94 -45q25 -19 7 -45l-14 -21q-16 -25 -46 -9q-82 50 -174 50q-119 0 -191 -78t-72 -194q0 -120 74 -198t184 -78q36 0 70.5 9.5t57 22.5t40 26.5t25.5 22.5l8 10v99h-82q-33 0 -33 33v20q0 33 33 33h139q33 0 33 -33
v-289q0 -33 -33 -33h-19q-33 0 -33 28v26l1 22h-2q-3 -4 -9 -9.5t-26.5 -21t-44 -27t-61 -21t-77.5 -9.5q-145 0 -246 103t-101 260zM384 784q-33 0 -33 33v32q0 33 33 33h21q33 0 33 -33v-32q0 -33 -33 -33h-21z" />
    <glyph glyph-name="gdotaccent" unicode="&#x121;" horiz-adv-x="585" 
d="M106 -121q13 28 42 17q59 -22 110 -22q70 0 114.5 34.5t44.5 107.5v44l3 32h-2q-47 -86 -150 -86q-104 0 -166 73t-62 187q0 111 59.5 181.5t166.5 70.5q35 0 64 -9t46 -21t28.5 -24.5t15.5 -21.5l4 -9h2q-2 6 -2 16v29q0 28 33 28h24q33 0 33 -33v-452
q0 -116 -73.5 -173.5t-177.5 -57.5q-83 0 -147 28q-30 13 -17 44zM285 90q59 0 96.5 41t37.5 132q0 171 -140 171q-67 0 -103.5 -44t-36.5 -120q0 -82 39 -131t107 -49zM274 609q-33 0 -33 33v32q0 33 33 33h21q33 0 33 -33v-32q0 -33 -33 -33h-21z" />
    <glyph glyph-name="Gcommaaccent" unicode="&#x122;" horiz-adv-x="751" 
d="M352 -80q0 21 29 21h17q39 0 39 -56q0 -36 -15.5 -67t-38.5 -31h-8q-29 0 -29 20q0 5 5 24t5 41q0 14 -2 27t-2 21zM46 351q0 157 102.5 262t257.5 105q78 0 138 -21t94 -45q25 -19 7 -45l-14 -21q-16 -25 -46 -9q-82 50 -174 50q-119 0 -191 -78t-72 -194
q0 -120 74 -198t184 -78q36 0 70.5 9.5t57 22.5t40 26.5t25.5 22.5l8 10v99h-82q-33 0 -33 33v20q0 33 33 33h139q33 0 33 -33v-289q0 -33 -33 -33h-19q-33 0 -33 28v26l1 22h-2q-3 -4 -9 -9.5t-26.5 -21t-44 -27t-61 -21t-77.5 -9.5q-145 0 -246 103t-101 260z" />
    <glyph glyph-name="gcommaaccent" unicode="&#x123;" horiz-adv-x="585" 
d="M326 588q0 -21 -29 -21h-17q-39 0 -39 56q0 36 15.5 67t38.5 31h8q29 0 29 -20q0 -5 -5 -24t-5 -41q0 -14 2 -27t2 -21zM106 -121q13 28 42 17q59 -22 110 -22q70 0 114.5 34.5t44.5 107.5v44l3 32h-2q-47 -86 -150 -86q-104 0 -166 73t-62 187q0 111 59.5 181.5
t166.5 70.5q35 0 64 -9t46 -21t28.5 -24.5t15.5 -21.5l4 -9h2q-2 6 -2 16v29q0 28 33 28h24q33 0 33 -33v-452q0 -116 -73.5 -173.5t-177.5 -57.5q-83 0 -147 28q-30 13 -17 44zM285 90q59 0 96.5 41t37.5 132q0 171 -140 171q-67 0 -103.5 -44t-36.5 -120q0 -82 39 -131
t107 -49z" />
    <glyph glyph-name="Hcircumflex" unicode="&#x124;" horiz-adv-x="743" 
d="M276 755q-18 0 -22.5 11.5t6.5 28.5l46 65q15 22 41 22h49q26 0 40 -22l47 -65q11 -17 6.5 -28.5t-21.5 -11.5h-22q-21 0 -35 22l-39 58h-2l-39 -58q-12 -22 -35 -22h-20zM90 33v640q0 33 33 33h32q33 0 33 -33v-278h367v278q0 33 33 33h33q32 0 32 -33v-640
q0 -33 -32 -33h-33q-33 0 -33 33v277h-367v-277q0 -33 -33 -33h-32q-33 0 -33 33z" />
    <glyph glyph-name="hcircumflex" unicode="&#x125;" horiz-adv-x="592" 
d="M29 755q-18 0 -22.5 11.5t6.5 28.5l46 65q15 22 41 22h49q26 0 40 -22l47 -65q11 -17 6.5 -28.5t-21.5 -11.5h-22q-21 0 -35 22l-39 58h-2l-39 -58q-12 -22 -35 -22h-20zM75 33v640q0 33 33 33h31q32 0 32 -33v-229l-3 -42h2q20 44 70 80t119 36q174 0 174 -194v-291
q0 -33 -33 -33h-31q-33 0 -33 33v269q0 61 -20 94t-76 33q-73 0 -121 -53.5t-48 -135.5v-207q0 -33 -32 -33h-31q-33 0 -33 33z" />
    <glyph glyph-name="Hbar" unicode="&#x126;" horiz-adv-x="742" 
d="M92 33v481h-33q-33 0 -33 31v6q0 31 33 31h33v91q0 33 33 33h34q33 0 33 -28v-96h359v91q0 33 33 33h34q33 0 33 -28v-96h32q33 0 33 -31v-6q0 -31 -33 -31h-32v-481q0 -33 -33 -33h-34q-33 0 -33 33v277h-359v-277q0 -33 -33 -33h-34q-33 0 -33 33zM192 395h359v119
h-359v-119z" />
    <glyph glyph-name="hbar" unicode="&#x127;" horiz-adv-x="592" 
d="M71 33v530h-39q-33 0 -33 28v6q0 29 33 29h39v47q0 33 33 33h31q32 0 32 -23v-57h101q33 0 33 -29v-6q0 -28 -33 -28h-101v-116l-2 -42h2q21 44 70 78.5t118 34.5q174 0 174 -194v-291q0 -33 -33 -33h-31q-33 0 -33 33v269q0 61 -20 94t-76 33q-74 0 -121.5 -54.5
t-47.5 -132.5v-209q0 -33 -32 -33h-31q-33 0 -33 33z" />
    <glyph glyph-name="Itilde" unicode="&#x128;" horiz-adv-x="278" 
d="M90 33v640q0 33 33 33h32q33 0 33 -33v-640q0 -33 -33 -33h-32q-33 0 -33 33zM4 756q-29 0 -29 32q0 41 26 68t68 27q31 0 55 -17t42 -34t36 -17q17 0 26.5 13t10.5 32q2 20 30 20h8q29 0 29 -28q0 -45 -25.5 -72t-68.5 -27q-31 0 -55 17t-42 34t-36 17q-36 0 -38 -45
q-3 -20 -29 -20h-8z" />
    <glyph glyph-name="itilde" unicode="&#x129;" horiz-adv-x="237" 
d="M70 33v440q0 33 33 33h31q33 0 33 -33v-440q0 -33 -33 -33h-31q-33 0 -33 33zM-16 581q-29 0 -29 32q0 41 26 68t68 27q31 0 55 -17t42 -34t36 -17q17 0 26.5 13t10.5 32q2 20 30 20h8q29 0 29 -28q0 -45 -25.5 -72t-68.5 -27q-31 0 -55 17t-42 34t-36 17q-36 0 -38 -45
q-3 -20 -29 -20h-8z" />
    <glyph glyph-name="Imacron" unicode="&#x12a;" horiz-adv-x="278" 
d="M90 33v640q0 33 33 33h32q33 0 33 -33v-640q0 -33 -33 -33h-32q-33 0 -33 33zM46 784q-33 0 -33 32v7q0 32 33 32h189q33 0 33 -32v-7q0 -32 -33 -32h-189z" />
    <glyph glyph-name="imacron" unicode="&#x12b;" horiz-adv-x="237" 
d="M70 33v440q0 33 33 33h31q33 0 33 -33v-440q0 -33 -33 -33h-31q-33 0 -33 33zM26 609q-33 0 -33 32v7q0 32 33 32h189q33 0 33 -32v-7q0 -32 -33 -32h-189z" />
    <glyph glyph-name="Ibreve" unicode="&#x12c;" horiz-adv-x="278" 
d="M90 33v640q0 33 33 33h32q33 0 33 -33v-640q0 -33 -33 -33h-32q-33 0 -33 33zM141 751q-51 0 -91 31t-40 78q0 22 29 22h14q25 0 29 -23q8 -50 59 -50q50 0 58 50q4 23 29 23h14q29 0 29 -22q0 -47 -39 -78t-91 -31z" />
    <glyph glyph-name="ibreve" unicode="&#x12d;" horiz-adv-x="237" 
d="M70 33v440q0 33 33 33h31q33 0 33 -33v-440q0 -33 -33 -33h-31q-33 0 -33 33zM120 576q-51 0 -91 31t-40 78q0 22 29 22h14q25 0 29 -23q8 -50 59 -50q50 0 58 50q4 23 29 23h14q29 0 29 -22q0 -47 -39 -78t-91 -31z" />
    <glyph glyph-name="Iogonek" unicode="&#x12e;" horiz-adv-x="278" 
d="M90 33v640q0 33 33 33h32q33 0 33 -33v-640q0 -19 -36.5 -56t-36.5 -67q0 -26 40 -41q19 -8 15 -33l-2 -16q-4 -25 -32 -22q-37 5 -69 27.5t-32 64.5q0 33 22 64t49 51q-16 7 -16 28z" />
    <glyph glyph-name="iogonek" unicode="&#x12f;" horiz-adv-x="238" 
d="M102 607q-33 0 -33 33v33q0 33 33 33h34q33 0 33 -33v-33q0 -33 -33 -33h-34zM71 33v440q0 33 33 33h31q33 0 33 -33v-440q0 -19 -36.5 -56t-36.5 -67q0 -27 40 -41q19 -9 15 -33l-3 -16q-4 -25 -32 -22q-37 5 -69 27.5t-32 64.5q0 33 22.5 64t49.5 51q-15 7 -15 28z" />
    <glyph glyph-name="Idotaccent" unicode="&#x130;" horiz-adv-x="278" 
d="M90 33v640q0 33 33 33h32q33 0 33 -33v-640q0 -33 -33 -33h-32q-33 0 -33 33zM130 784q-33 0 -33 33v32q0 33 33 33h21q33 0 33 -33v-32q0 -33 -33 -33h-21z" />
    <glyph glyph-name="dotlessi" unicode="&#x131;" horiz-adv-x="237" 
d="M70 33v440q0 33 33 33h31q33 0 33 -33v-440q0 -33 -33 -33h-31q-33 0 -33 33z" />
    <glyph glyph-name="IJ" unicode="&#x132;" horiz-adv-x="600" 
d="M280 29v27q0 26 30 34q108 19 108 150v433q0 33 33 33h34q33 0 33 -33v-438q0 -65 -19.5 -114t-51.5 -74.5t-65.5 -37t-68.5 -11.5q-33 0 -33 31zM90 33v640q0 33 33 33h32q33 0 33 -33v-640q0 -33 -33 -33h-32q-33 0 -33 33z" />
    <glyph glyph-name="ij" unicode="&#x133;" horiz-adv-x="489" 
d="M102 607q-33 0 -33 33v33q0 33 33 33h34q33 0 33 -33v-33q0 -33 -33 -33h-34zM70 33v440q0 33 33 33h31q33 0 33 -33v-440q0 -33 -33 -33h-31q-33 0 -33 33zM352 607q-33 0 -33 33v33q0 33 33 33h34q33 0 33 -33v-33q0 -33 -33 -33h-34zM321 -11v484q0 33 33 33h31
q32 0 32 -33v-488q0 -47 -14.5 -83.5t-35 -56t-47.5 -32t-47 -16t-38 -3.5h-12q-33 0 -33 33v18q0 29 33 33q18 1 32.5 5.5t31 15t25.5 33.5t9 57z" />
    <glyph glyph-name="Jcircumflex" unicode="&#x134;" horiz-adv-x="523" 
d="M205 755q-18 0 -22.5 11.5t6.5 28.5l46 65q15 22 41 22h49q26 0 40 -22l47 -65q11 -17 6.5 -28.5t-21.5 -11.5h-22q-21 0 -35 22l-39 58h-2l-39 -58q-12 -22 -35 -22h-20zM22 205q0 33 33 33h34q16 0 23 -7.5t9 -26.5q3 -57 30 -91t80 -34q48 0 79.5 30.5t31.5 94.5v416
h-145q-32 0 -32 33v20q0 33 32 33h210q33 0 33 -33v-470q0 -107 -61.5 -161t-146.5 -54q-87 0 -148.5 55t-61.5 162z" />
    <glyph glyph-name="jcircumflex" unicode="&#x135;" horiz-adv-x="238" 
d="M21 579q-18 0 -22 11.5t7 28.5l46 66q15 21 40 21h50q25 0 40 -21l46 -66q11 -17 7 -28.5t-22 -11.5h-21q-22 0 -35 22l-39 59h-2l-39 -59q-13 -22 -35 -22h-21zM71 -11v484q0 33 33 33h31q32 0 32 -33v-488q0 -47 -14.5 -83.5t-35 -56t-47.5 -32t-47 -16t-38 -3.5h-12
q-33 0 -33 33v18q0 30 33 33q98 7 98 111z" />
    <glyph glyph-name="Kcommaaccent" unicode="&#x136;" horiz-adv-x="605" 
d="M273 -80q0 21 29 21h17q39 0 39 -56q0 -36 -15.5 -67t-38.5 -31h-8q-29 0 -29 20q0 5 5 24t5 41q0 14 -2 27t-2 21zM90 33v640q0 33 33 33h32q33 0 33 -33v-264h106l165 275q12 22 39 22h37q20 0 26.5 -11.5t-3.5 -28.5l-183 -295v-2l196 -330q10 -17 4 -28t-26 -11h-41
q-26 0 -39 23l-175 301h-106v-291q0 -33 -33 -33h-32q-33 0 -33 33z" />
    <glyph glyph-name="kcommaaccent" unicode="&#x137;" horiz-adv-x="510" 
d="M227 -80q0 21 29 21h17q39 0 39 -56q0 -36 -15.5 -67t-38.5 -31h-8q-29 0 -29 20q0 5 5 24t5 41q0 14 -2 27t-2 21zM71 33v640q0 33 33 33h31q32 0 32 -33v-352h73l123 164q13 21 39 21h37q20 0 26 -12t-6 -28l-140 -183v-2l162 -241q11 -17 4.5 -28.5t-26.5 -11.5h-40
q-26 0 -39 23l-138 214h-75v-204q0 -33 -32 -33h-31q-33 0 -33 33z" />
    <glyph glyph-name="kgreenlandic" unicode="&#x138;" horiz-adv-x="508" 
d="M70 33v440q0 33 33 33h31q33 0 33 -33v-166h71l130 178q14 21 40 21h38q20 0 26 -12t-6 -28l-148 -196v-2l154 -228q11 -17 4.5 -28.5t-26.5 -11.5h-43q-25 0 -38 23l-129 202h-73v-192q0 -33 -33 -33h-31q-33 0 -33 33z" />
    <glyph glyph-name="Lacute" unicode="&#x139;" horiz-adv-x="510" 
d="M137 755q-17 0 -23 11t3 26l40 67q13 23 39 23h29q21 0 26 -12t-8 -28l-49 -67q-16 -20 -40 -20h-17zM90 33v640q0 33 33 33h32q33 0 33 -33v-587h284q33 0 33 -33v-20q0 -33 -33 -33h-349q-33 0 -33 33z" />
    <glyph glyph-name="lacute" unicode="&#x13a;" horiz-adv-x="262" 
d="M117 755q-17 0 -23 11t3 26l40 67q13 23 39 23h29q21 0 26 -12t-8 -28l-49 -67q-16 -20 -40 -20h-17zM70 138v535q0 33 33 33h31q33 0 33 -33v-523q0 -63 46 -67q26 -3 26 -29v-24q0 -34 -34 -34q-135 0 -135 142z" />
    <glyph glyph-name="Lcommaaccent" unicode="&#x13b;" horiz-adv-x="510" 
d="M262 -80q0 21 29 21h17q39 0 39 -56q0 -36 -15.5 -67t-38.5 -31h-8q-29 0 -29 20q0 5 5 24t5 41q0 14 -2 27t-2 21zM90 33v640q0 33 33 33h32q33 0 33 -33v-587h284q33 0 33 -33v-20q0 -33 -33 -33h-349q-33 0 -33 33z" />
    <glyph glyph-name="lcommaaccent" unicode="&#x13c;" horiz-adv-x="261" 
d="M114 -80q0 21 29 21h17q39 0 39 -56q0 -36 -15.5 -67t-38.5 -31h-8q-29 0 -29 20q0 5 5 24t5 41q0 14 -2 27t-2 21zM70 138v535q0 33 33 33h31q33 0 33 -33v-523q0 -63 46 -67q26 -3 26 -29v-24q0 -34 -34 -34q-135 0 -135 142z" />
    <glyph glyph-name="Lcaron" unicode="&#x13d;" horiz-adv-x="510" 
d="M277 685q0 21 29 21h17q39 0 39 -56q0 -36 -15.5 -67t-38.5 -31h-8q-29 0 -29 20q0 4 5 23t5 42q0 14 -2 27t-2 21zM90 33v640q0 33 33 33h32q33 0 33 -33v-587h284q33 0 33 -33v-20q0 -33 -33 -33h-349q-33 0 -33 33z" />
    <glyph glyph-name="lcaron" unicode="&#x13e;" horiz-adv-x="262" 
d="M229 685q0 21 29 21h17q39 0 39 -56q0 -36 -15.5 -67t-38.5 -31h-8q-29 0 -29 20q0 4 5 23t5 42q0 14 -2 27t-2 21zM70 138v535q0 33 33 33h31q33 0 33 -33v-523q0 -63 46 -67q26 -3 26 -29v-24q0 -34 -34 -34q-135 0 -135 142z" />
    <glyph glyph-name="Ldot" unicode="&#x13f;" horiz-adv-x="511" 
d="M90 33v640q0 33 33 33h32q33 0 33 -33v-587h284q33 0 33 -33v-20q0 -33 -33 -33h-349q-33 0 -33 33zM336 325q-32 0 -32 33v40q0 33 32 33h36q33 0 33 -33v-40q0 -33 -33 -33h-36z" />
    <glyph glyph-name="ldot" unicode="&#x140;" horiz-adv-x="326" 
d="M70 138v535q0 33 33 33h31q33 0 33 -33v-523q0 -63 46 -67q26 -3 26 -29v-24q0 -34 -34 -34q-135 0 -135 142zM263 325q-32 0 -32 33v40q0 33 32 33h36q33 0 33 -33v-40q0 -33 -33 -33h-36z" />
    <glyph glyph-name="Lslash" unicode="&#x141;" horiz-adv-x="511" 
d="M91 33v268l-29 -16q-12 -7 -21.5 0.5t-9.5 26.5v25q0 27 18 37l42 24v275q0 33 33 33h32q33 0 33 -33v-219l70 40q17 10 28 4t11 -26v-25q0 -27 -23 -40l-86 -50v-271h284q32 0 32 -33v-20q0 -33 -32 -33h-349q-33 0 -33 33z" />
    <glyph glyph-name="lslash" unicode="&#x142;" horiz-adv-x="271" 
d="M78 138v179l-41 -23q-13 -8 -22.5 -0.5t-9.5 26.5v25q0 27 18 37l55 32v259q0 33 33 33h31q33 0 33 -33v-203l43 24q16 10 27.5 4t11.5 -26v-25q0 -27 -21 -40l-61 -35v-223q0 -62 46 -66q26 -3 26 -29v-24q0 -34 -34 -34q-135 0 -135 142z" />
    <glyph glyph-name="Nacute" unicode="&#x143;" horiz-adv-x="744" 
d="M368 755q-17 0 -23 11t3 26l40 67q13 23 39 23h29q21 0 26 -12t-8 -28l-49 -67q-16 -20 -40 -20h-17zM90 33v640q0 33 33 33h38q26 0 40 -22l301 -437q11 -17 25.5 -42.5t23.5 -42.5l9 -17h2q-6 63 -6 102v426q0 33 33 33h32q33 0 33 -33v-640q0 -33 -33 -33h-38
q-27 0 -39 22l-302 436l-58 103h-2q6 -63 6 -103v-425q0 -33 -33 -33h-32q-33 0 -33 33z" />
    <glyph glyph-name="nacute" unicode="&#x144;" horiz-adv-x="591" 
d="M304 580q-17 0 -23 11t3 26l40 67q13 23 39 23h29q21 0 26 -11.5t-8 -28.5l-49 -67q-16 -20 -40 -20h-17zM70 33v440q0 33 33 33h28q33 0 33 -33v-45l-3 -29h2q20 44 69 81.5t123 37.5q173 0 173 -194v-291q0 -33 -33 -33h-31q-33 0 -33 33v269q0 61 -19.5 94t-75.5 33
q-73 0 -121 -54t-48 -133v-209q0 -33 -33 -33h-31q-33 0 -33 33z" />
    <glyph glyph-name="Ncommaaccent" unicode="&#x145;" horiz-adv-x="744" 
d="M331 -80q0 21 29 21h17q39 0 39 -56q0 -36 -15.5 -67t-38.5 -31h-8q-29 0 -29 20q0 5 5 24t5 41q0 14 -2 27t-2 21zM90 33v640q0 33 33 33h38q26 0 40 -22l301 -437q11 -17 25.5 -42.5t23.5 -42.5l9 -17h2q-6 63 -6 102v426q0 33 33 33h32q33 0 33 -33v-640
q0 -33 -33 -33h-38q-27 0 -39 22l-302 436l-58 103h-2q6 -63 6 -103v-425q0 -33 -33 -33h-32q-33 0 -33 33z" />
    <glyph glyph-name="ncommaaccent" unicode="&#x146;" horiz-adv-x="591" 
d="M257 -80q0 21 29 21h17q39 0 39 -56q0 -36 -15.5 -67t-38.5 -31h-8q-29 0 -29 20q0 5 5 24t5 41q0 14 -2 27t-2 21zM70 33v440q0 33 33 33h28q33 0 33 -33v-45l-3 -29h2q20 44 69 81.5t123 37.5q173 0 173 -194v-291q0 -33 -33 -33h-31q-33 0 -33 33v269q0 61 -19.5 94
t-75.5 33q-73 0 -121 -54t-48 -133v-209q0 -33 -33 -33h-31q-33 0 -33 33z" />
    <glyph glyph-name="Ncaron" unicode="&#x147;" horiz-adv-x="744" 
d="M347 755q-26 0 -41 21l-46 66q-11 17 -6.5 28.5t22.5 11.5h20q22 0 35 -22l39 -59h2l39 59q15 22 35 22h21q18 0 22.5 -11.5t-6.5 -28.5l-47 -66q-14 -21 -40 -21h-49zM90 33v640q0 33 33 33h38q26 0 40 -22l301 -437q11 -17 25.5 -42.5t23.5 -42.5l9 -17h2q-6 63 -6 102
v426q0 33 33 33h32q33 0 33 -33v-640q0 -33 -33 -33h-38q-27 0 -39 22l-302 436l-58 103h-2q6 -63 6 -103v-425q0 -33 -33 -33h-32q-33 0 -33 33z" />
    <glyph glyph-name="ncaron" unicode="&#x148;" horiz-adv-x="591" 
d="M282 580q-26 0 -41 21l-46 66q-11 17 -6.5 28.5t22.5 11.5h20q22 0 35 -22l39 -59h2l39 59q15 22 35 22h21q18 0 22.5 -11.5t-6.5 -28.5l-47 -66q-14 -21 -40 -21h-49zM70 33v440q0 33 33 33h28q33 0 33 -33v-45l-3 -29h2q20 44 69 81.5t123 37.5q173 0 173 -194v-291
q0 -33 -33 -33h-31q-33 0 -33 33v269q0 61 -19.5 94t-75.5 33q-73 0 -121 -54t-48 -133v-209q0 -33 -33 -33h-31q-33 0 -33 33z" />
    <glyph glyph-name="napostrophe" unicode="&#x149;" horiz-adv-x="591" 
d="M2 685q0 21 29 21h17q39 0 39 -56q0 -36 -15.5 -67t-38.5 -31h-8q-29 0 -29 20q0 4 5 23t5 42q0 14 -2 27t-2 21zM70 33v440q0 33 33 33h28q33 0 33 -33v-45l-3 -29h2q20 44 69 81.5t123 37.5q173 0 173 -194v-291q0 -33 -33 -33h-31q-33 0 -33 33v269q0 61 -19.5 94
t-75.5 33q-73 0 -121 -54t-48 -133v-209q0 -33 -33 -33h-31q-33 0 -33 33z" />
    <glyph glyph-name="Eng" unicode="&#x14a;" horiz-adv-x="745" 
d="M90 33v640q0 33 33 33h38q26 0 40 -22l301 -437q11 -17 25.5 -42.5t23.5 -42.5l9 -17h2q-6 63 -6 102v426q0 33 33 33h32q33 0 33 -33v-678q0 -54 -18 -94.5t-48 -62t-61.5 -32t-66.5 -12.5q-35 0 -35 33v20q0 29 32 34q102 7 102 121l-317 456l-58 103h-2q6 -63 6 -103
v-425q0 -33 -33 -33h-32q-33 0 -33 33z" />
    <glyph glyph-name="eng" unicode="&#x14b;" horiz-adv-x="594" 
d="M70 33v440q0 33 33 33h28q33 0 33 -33v-45l-3 -29h2q20 44 69 81.5t123 37.5q173 0 173 -194v-339q0 -47 -14.5 -83.5t-35 -56t-47.5 -32t-47 -16t-38 -3.5h-12q-33 0 -33 33v18q0 30 33 33q97 7 97 111v313q0 61 -19.5 94t-75.5 33q-73 0 -121 -54t-48 -133v-209
q0 -33 -33 -33h-31q-33 0 -33 33z" />
    <glyph glyph-name="Omacron" unicode="&#x14c;" horiz-adv-x="815" 
d="M313 784q-33 0 -33 32v7q0 32 33 32h189q33 0 33 -32v-7q0 -32 -33 -32h-189zM45 358q0 153 103 256.5t260 103.5q156 0 259 -103.5t103 -256.5q0 -157 -103 -263.5t-259 -106.5t-259.5 106.5t-103.5 263.5zM147 358q0 -119 74.5 -199t186.5 -80t186 80t74 199
q0 115 -74 192t-186 77t-186.5 -77t-74.5 -192z" />
    <glyph glyph-name="omacron" unicode="&#x14d;" horiz-adv-x="619" 
d="M215 609q-33 0 -33 32v7q0 32 33 32h189q33 0 33 -32v-7q0 -32 -33 -32h-189zM37 254q0 114 79 189t193 75q115 0 194 -75t79 -189t-79.5 -190t-193.5 -76t-193 76t-79 190zM135 254q0 -78 51 -130t123 -52q73 0 123.5 51.5t50.5 130.5q0 78 -50.5 129t-123.5 51
q-72 0 -123 -51t-51 -129z" />
    <glyph glyph-name="Obreve" unicode="&#x14e;" horiz-adv-x="815" 
d="M45 358q0 153 103 256.5t260 103.5q156 0 259 -103.5t103 -256.5q0 -157 -103 -263.5t-259 -106.5t-259.5 106.5t-103.5 263.5zM147 358q0 -119 74.5 -199t186.5 -80t186 80t74 199q0 115 -74 192t-186 77t-186.5 -77t-74.5 -192zM408 751q-51 0 -91 31t-40 78
q0 22 29 22h14q25 0 29 -23q8 -50 59 -50q50 0 58 50q4 23 29 23h14q29 0 29 -22q0 -47 -39 -78t-91 -31z" />
    <glyph glyph-name="obreve" unicode="&#x14f;" horiz-adv-x="619" 
d="M37 254q0 114 79 189t193 75q115 0 194 -75t79 -189t-79.5 -190t-193.5 -76t-193 76t-79 190zM135 254q0 -78 51 -130t123 -52q73 0 123.5 51.5t50.5 130.5q0 78 -50.5 129t-123.5 51q-72 0 -123 -51t-51 -129zM309 576q-51 0 -91 31t-40 78q0 22 29 22h14q25 0 29 -23
q8 -50 59 -50q50 0 58 50q4 23 29 23h14q29 0 29 -22q0 -47 -39 -78t-91 -31z" />
    <glyph glyph-name="Ohungarumlaut" unicode="&#x150;" horiz-adv-x="815" 
d="M473 755q-20 0 -25.5 11t4.5 28l38 65q13 23 39 23h26q21 0 26 -12t-8 -28l-49 -67q-16 -20 -40 -20h-11zM318 755q-19 0 -24.5 10.5t2.5 27.5l36 65q11 24 39 24h17q20 0 26 -11t-4 -28l-37 -65q-13 -23 -39 -23h-16zM45 358q0 153 103 256.5t260 103.5
q156 0 259 -103.5t103 -256.5q0 -157 -103 -263.5t-259 -106.5t-259.5 106.5t-103.5 263.5zM147 358q0 -119 74.5 -199t186.5 -80t186 80t74 199q0 115 -74 192t-186 77t-186.5 -77t-74.5 -192z" />
    <glyph glyph-name="ohungarumlaut" unicode="&#x151;" horiz-adv-x="619" 
d="M374 580q-20 0 -25.5 11t4.5 28l38 65q13 23 39 23h26q21 0 26 -11.5t-8 -28.5l-49 -67q-16 -20 -40 -20h-11zM219 580q-19 0 -24.5 11t2.5 27l36 65q11 24 39 24h17q20 0 26 -11.5t-4 -27.5l-37 -65q-13 -23 -39 -23h-16zM37 254q0 114 79 189t193 75q115 0 194 -75
t79 -189t-79.5 -190t-193.5 -76t-193 76t-79 190zM135 254q0 -78 51 -130t123 -52q73 0 123.5 51.5t50.5 130.5q0 78 -50.5 129t-123.5 51q-72 0 -123 -51t-51 -129z" />
    <glyph glyph-name="OE" unicode="&#x152;" horiz-adv-x="946" 
d="M44 354q0 153 105 257t261 104q26 0 66 -4.5t56 -4.5h326q33 0 33 -33v-20q0 -33 -33 -33h-279v-221h220q33 0 33 -33v-20q0 -33 -33 -33h-220v-227h296q33 0 33 -33v-20q0 -33 -33 -33h-342q-16 0 -56.5 -4.5t-66.5 -4.5q-156 0 -261 104.5t-105 258.5zM146 354
q0 -118 74 -197.5t190 -79.5q18 0 35.5 2t26.5 4l9 2v537q-31 7 -71 7q-116 0 -190 -79t-74 -196z" />
    <glyph glyph-name="oe" unicode="&#x153;" horiz-adv-x="990" 
d="M37 252q0 117 78 191.5t191 74.5q148 0 220 -120h2q64 120 208 120q103 0 161 -66.5t58 -174.5q0 -14 -10 -24t-25 -10h-337q6 -81 55.5 -126t118.5 -45q66 0 122 40q30 16 44 -11l9 -15q16 -29 -10 -44q-75 -54 -171 -54q-153 0 -221 123h-2q-72 -123 -221 -123
q-114 0 -192 73.5t-78 190.5zM586 307h270q-2 63 -36 98.5t-85 35.5q-57 0 -98 -36t-51 -98zM136 252q0 -80 50 -130t123 -50t123.5 50.5t50.5 132.5q0 79 -51 129t-123 50t-122.5 -50.5t-50.5 -131.5z" />
    <glyph glyph-name="Racute" unicode="&#x154;" horiz-adv-x="617" 
d="M298 755q-17 0 -23 11t3 26l40 67q13 23 39 23h29q21 0 26 -12t-8 -28l-49 -67q-16 -20 -40 -20h-17zM90 33v640q0 33 33 33h190q90 0 132 -19q52 -23 81.5 -71t29.5 -114q0 -68 -34 -121.5t-92 -72.5v-2q9 -10 21 -32l127 -235q10 -17 3.5 -28t-25.5 -11h-40
q-28 0 -39 23l-138 258h-151v-248q0 -33 -33 -33h-32q-33 0 -33 33zM188 367h142q58 0 92 36t34 95q0 82 -66 110q-27 12 -84 12h-118v-253z" />
    <glyph glyph-name="racute" unicode="&#x155;" horiz-adv-x="356" 
d="M215 579q-17 0 -23 11t3 26l40 67q13 23 39 23h29q21 0 26 -12t-8 -28l-49 -67q-16 -20 -40 -20h-17zM70 33v440q0 33 33 33h28q33 0 33 -33v-58l-3 -38h2q18 55 59.5 94t95.5 39q32 0 32 -33v-28q0 -33 -36 -33q-70 0 -108.5 -62.5t-38.5 -144.5v-176q0 -33 -33 -33h-31
q-33 0 -33 33z" />
    <glyph glyph-name="Rcommaaccent" unicode="&#x156;" horiz-adv-x="617" 
d="M281 -80q0 21 29 21h17q39 0 39 -56q0 -36 -15.5 -67t-38.5 -31h-8q-29 0 -29 20q0 5 5 24t5 41q0 14 -2 27t-2 21zM90 33v640q0 33 33 33h190q90 0 132 -19q52 -23 81.5 -71t29.5 -114q0 -68 -34 -121.5t-92 -72.5v-2q9 -10 21 -32l127 -235q10 -17 3.5 -28t-25.5 -11
h-40q-28 0 -39 23l-138 258h-151v-248q0 -33 -33 -33h-32q-33 0 -33 33zM188 367h142q58 0 92 36t34 95q0 82 -66 110q-27 12 -84 12h-118v-253z" />
    <glyph glyph-name="rcommaaccent" unicode="&#x157;" horiz-adv-x="356" 
d="M80 -80q0 21 29 21h17q39 0 39 -56q0 -36 -15.5 -67t-38.5 -31h-8q-29 0 -29 20q0 5 5 24t5 41q0 14 -2 27t-2 21zM70 33v440q0 33 33 33h28q33 0 33 -33v-58l-3 -38h2q18 55 59.5 94t95.5 39q32 0 32 -33v-28q0 -33 -36 -33q-70 0 -108.5 -62.5t-38.5 -144.5v-176
q0 -33 -33 -33h-31q-33 0 -33 33z" />
    <glyph glyph-name="Rcaron" unicode="&#x158;" horiz-adv-x="617" 
d="M277 755q-26 0 -41 21l-46 66q-11 17 -6.5 28.5t22.5 11.5h20q22 0 35 -22l39 -59h2l39 59q15 22 35 22h21q18 0 22.5 -11.5t-6.5 -28.5l-47 -66q-14 -21 -40 -21h-49zM90 33v640q0 33 33 33h190q90 0 132 -19q52 -23 81.5 -71t29.5 -114q0 -68 -34 -121.5t-92 -72.5v-2
q9 -10 21 -32l127 -235q10 -17 3.5 -28t-25.5 -11h-40q-28 0 -39 23l-138 258h-151v-248q0 -33 -33 -33h-32q-33 0 -33 33zM188 367h142q58 0 92 36t34 95q0 82 -66 110q-27 12 -84 12h-118v-253z" />
    <glyph glyph-name="rcaron" unicode="&#x159;" horiz-adv-x="356" 
d="M195 579q-26 0 -41 21l-46 66q-11 17 -6.5 28.5t22.5 11.5h20q22 0 35 -22l39 -59h2l39 59q15 22 35 22h21q18 0 22.5 -11.5t-6.5 -28.5l-47 -66q-14 -21 -40 -21h-49zM70 33v440q0 33 33 33h28q33 0 33 -33v-58l-3 -38h2q18 55 59.5 94t95.5 39q32 0 32 -33v-28
q0 -33 -36 -33q-70 0 -108.5 -62.5t-38.5 -144.5v-176q0 -33 -33 -33h-31q-33 0 -33 33z" />
    <glyph glyph-name="Sacute" unicode="&#x15a;" horiz-adv-x="537" 
d="M285 755q-17 0 -23 11t3 26l40 67q13 23 39 23h29q21 0 26 -12t-8 -28l-49 -67q-16 -20 -40 -20h-17zM77 61q-23 21 -4 46l17 24q18 23 45 6q79 -57 154 -57q56 0 90 27.5t34 73.5q0 43 -35 73.5t-85 51.5t-100 45t-85 67t-35 104q0 88 65 142t164 54q56 0 103.5 -17
t73.5 -37q24 -17 10 -45l-14 -25q-15 -27 -45 -9q-69 41 -130 41q-56 0 -91.5 -27t-35.5 -72q0 -35 25 -62t63 -42.5t82 -36.5t82 -42.5t63 -61.5t25 -93q0 -86 -60.5 -143.5t-163.5 -57.5q-68 0 -123.5 23t-88.5 50z" />
    <glyph glyph-name="sacute" unicode="&#x15b;" horiz-adv-x="439" 
d="M233 580q-17 0 -23 11t3 26l40 67q13 23 39 23h29q21 0 26 -11.5t-8 -28.5l-49 -67q-16 -20 -40 -20h-17zM68 43q-25 16 -7 45l10 14q17 23 46 7q63 -41 124 -41q38 0 62 17.5t24 49.5q0 27 -27 45.5t-65.5 32t-76.5 30t-65 49.5t-27 80q0 69 52.5 107.5t130.5 38.5
t140 -39q28 -14 11 -44l-9 -15q-14 -25 -44 -11q-51 29 -103 29q-38 0 -61.5 -16.5t-23.5 -47.5q0 -27 27 -46t65.5 -32t76.5 -29.5t65 -49t27 -80.5q0 -65 -50.5 -107t-131.5 -42q-97 0 -170 55z" />
    <glyph glyph-name="Scircumflex" unicode="&#x15c;" horiz-adv-x="537" 
d="M193 755q-18 0 -22.5 11.5t6.5 28.5l46 65q15 22 41 22h49q26 0 40 -22l47 -65q11 -17 6.5 -28.5t-21.5 -11.5h-22q-21 0 -35 22l-39 58h-2l-39 -58q-12 -22 -35 -22h-20zM77 61q-23 21 -4 46l17 24q18 23 45 6q79 -57 154 -57q56 0 90 27.5t34 73.5q0 43 -35 73.5
t-85 51.5t-100 45t-85 67t-35 104q0 88 65 142t164 54q56 0 103.5 -17t73.5 -37q24 -17 10 -45l-14 -25q-15 -27 -45 -9q-69 41 -130 41q-56 0 -91.5 -27t-35.5 -72q0 -35 25 -62t63 -42.5t82 -36.5t82 -42.5t63 -61.5t25 -93q0 -86 -60.5 -143.5t-163.5 -57.5
q-68 0 -123.5 23t-88.5 50z" />
    <glyph glyph-name="scircumflex" unicode="&#x15d;" horiz-adv-x="439" 
d="M143 580q-18 0 -22.5 11.5t6.5 28.5l46 65q15 22 41 22h49q26 0 40 -22l47 -65q11 -17 6.5 -28.5t-21.5 -11.5h-22q-21 0 -35 22l-39 58h-2l-39 -58q-12 -22 -35 -22h-20zM68 43q-25 16 -7 45l10 14q17 23 46 7q63 -41 124 -41q38 0 62 17.5t24 49.5q0 27 -27 45.5
t-65.5 32t-76.5 30t-65 49.5t-27 80q0 69 52.5 107.5t130.5 38.5t140 -39q28 -14 11 -44l-9 -15q-14 -25 -44 -11q-51 29 -103 29q-38 0 -61.5 -16.5t-23.5 -47.5q0 -27 27 -46t65.5 -32t76.5 -29.5t65 -49t27 -80.5q0 -65 -50.5 -107t-131.5 -42q-97 0 -170 55z" />
    <glyph glyph-name="Scedilla" unicode="&#x15e;" horiz-adv-x="539" 
d="M249 -59l12 49q-109 9 -184 71q-23 21 -4 46l17 24q18 23 45 6q79 -57 154 -57q56 0 90 27.5t34 73.5q0 43 -35 73.5t-85 51.5t-100 45t-85 67t-35 104q0 88 65 142t164 54q56 0 103.5 -17t73.5 -37q24 -17 10 -45l-14 -25q-15 -27 -45 -9q-69 41 -130 41
q-56 0 -91.5 -27t-35.5 -72q0 -35 25 -62t63 -42.5t82 -36.5t82 -42.5t63 -61.5t25 -93q0 -80 -53 -136t-145 -64l-8 -39q32 -4 52 -23t20 -50q0 -43 -29.5 -63.5t-72.5 -20.5q-52 0 -52 29q0 30 18 30q4 0 12 -1.5t14 -1.5q43 0 43 32q0 27 -47 32q-24 2 -16 28z" />
    <glyph glyph-name="scedilla" unicode="&#x15f;" horiz-adv-x="441" 
d="M194 -59l12 49q-78 8 -138 53q-25 16 -7 45l10 14q17 23 46 7q63 -41 124 -41q38 0 62 17.5t24 49.5q0 27 -27 45.5t-65.5 32t-76.5 30t-65 49.5t-27 80q0 69 52.5 107.5t130.5 38.5t140 -39q28 -14 11 -44l-9 -15q-14 -25 -44 -11q-51 29 -103 29q-38 0 -61.5 -16.5
t-23.5 -47.5q0 -27 27 -46t65.5 -32t76.5 -29.5t65 -49t27 -80.5q0 -60 -44 -101t-116 -47l-8 -39q32 -4 52 -23t20 -50q0 -43 -29.5 -63.5t-72.5 -20.5q-52 0 -52 29q0 30 18 30q4 0 12 -1.5t14 -1.5q43 0 43 32q0 27 -47 32q-24 2 -16 28z" />
    <glyph glyph-name="Scaron" unicode="&#x160;" horiz-adv-x="537" 
d="M264 755q-26 0 -41 21l-46 66q-11 17 -6.5 28.5t22.5 11.5h20q22 0 35 -22l39 -59h2l39 59q15 22 35 22h21q18 0 22.5 -11.5t-6.5 -28.5l-47 -66q-14 -21 -40 -21h-49zM77 61q-23 21 -4 46l17 24q18 23 45 6q79 -57 154 -57q56 0 90 27.5t34 73.5q0 43 -35 73.5t-85 51.5
t-100 45t-85 67t-35 104q0 88 65 142t164 54q56 0 103.5 -17t73.5 -37q24 -17 10 -45l-14 -25q-15 -27 -45 -9q-69 41 -130 41q-56 0 -91.5 -27t-35.5 -72q0 -35 25 -62t63 -42.5t82 -36.5t82 -42.5t63 -61.5t25 -93q0 -86 -60.5 -143.5t-163.5 -57.5q-68 0 -123.5 23
t-88.5 50z" />
    <glyph glyph-name="scaron" unicode="&#x161;" horiz-adv-x="439" 
d="M214 580q-26 0 -41 21l-46 66q-11 17 -6.5 28.5t22.5 11.5h20q22 0 35 -22l39 -59h2l39 59q15 22 35 22h21q18 0 22.5 -11.5t-6.5 -28.5l-47 -66q-14 -21 -40 -21h-49zM68 43q-25 16 -7 45l10 14q17 23 46 7q63 -41 124 -41q38 0 62 17.5t24 49.5q0 27 -27 45.5t-65.5 32
t-76.5 30t-65 49.5t-27 80q0 69 52.5 107.5t130.5 38.5t140 -39q28 -14 11 -44l-9 -15q-14 -25 -44 -11q-51 29 -103 29q-38 0 -61.5 -16.5t-23.5 -47.5q0 -27 27 -46t65.5 -32t76.5 -29.5t65 -49t27 -80.5q0 -65 -50.5 -107t-131.5 -42q-97 0 -170 55z" />
    <glyph glyph-name="Tcommaaccent" unicode="&#x162;" horiz-adv-x="595" 
d="M254 -59l14 60q-19 6 -19 32v587h-210q-33 0 -33 33v20q0 33 33 33h518q32 0 32 -33v-20q0 -33 -32 -33h-210v-587q0 -28 -25 -33l-10 -50q32 -4 52 -23t20 -50q0 -43 -29.5 -63.5t-72.5 -20.5q-52 0 -52 29q0 30 18 30q4 0 12 -1.5t14 -1.5q43 0 43 32q0 27 -47 32
q-24 2 -16 28z" />
    <glyph glyph-name="tcommaaccent" unicode="&#x163;" horiz-adv-x="343" 
d="M161 -59l19 79q-85 47 -85 162v240h-35q-32 0 -32 33v13q0 33 33 33h36v111q0 33 33 33h29q33 0 33 -33v-111h88q33 0 33 -33v-13q0 -33 -32 -33h-89v-225q0 -106 96 -114q20 -2 27.5 -9t7.5 -24v-21q0 -33 -40 -33q-29 0 -54 6l-10 -52q32 -4 52 -23t20 -50
q0 -43 -29.5 -63.5t-72.5 -20.5q-52 0 -52 29q0 30 18 30q4 0 12 -1.5t14 -1.5q43 0 43 32q0 27 -47 32q-24 2 -16 28z" />
    <glyph glyph-name="Tcaron" unicode="&#x164;" horiz-adv-x="595" 
d="M272 755q-26 0 -41 21l-46 66q-11 17 -6.5 28.5t22.5 11.5h20q22 0 35 -22l39 -59h2l39 59q15 22 35 22h21q18 0 22.5 -11.5t-6.5 -28.5l-47 -66q-14 -21 -40 -21h-49zM249 33v587h-210q-33 0 -33 33v20q0 33 33 33h518q32 0 32 -33v-20q0 -33 -32 -33h-210v-587
q0 -33 -33 -33h-33q-32 0 -32 33z" />
    <glyph glyph-name="tcaron" unicode="&#x165;" horiz-adv-x="342" 
d="M254 683q0 21 29 21h17q39 0 39 -56q0 -36 -15.5 -67t-38.5 -31h-8q-29 0 -29 20q0 4 5 23t5 42q0 14 -2 27t-2 21zM94 182v240h-35q-32 0 -32 33v13q0 33 33 33h36v111q0 33 33 33h29q33 0 33 -33v-111h88q33 0 33 -33v-13q0 -33 -32 -33h-89v-225q0 -106 96 -114
q20 -2 27.5 -9t7.5 -24v-21q0 -33 -40 -33q-81 0 -134.5 47.5t-53.5 138.5z" />
    <glyph glyph-name="Tbar" unicode="&#x166;" horiz-adv-x="597" 
d="M249 33v277h-123q-33 0 -33 33v10q0 33 33 33h123v234h-209q-33 0 -33 33v20q0 33 33 33h517q33 0 33 -33v-20q0 -33 -33 -33h-210v-234h128q33 0 33 -33v-10q0 -33 -33 -33h-128v-277q0 -33 -32 -33h-33q-33 0 -33 33z" />
    <glyph glyph-name="tbar" unicode="&#x167;" horiz-adv-x="344" 
d="M95 182v79h-35q-33 0 -33 33v10q0 33 33 33h35v89h-35q-33 0 -33 33v9q0 33 33 33h37v111q0 33 33 33h29q32 0 32 -33v-111h89q33 0 33 -33v-9q0 -33 -33 -33h-89v-89h89q33 0 33 -33v-10q0 -33 -33 -33h-89v-68q0 -102 96 -110q20 -2 27.5 -9t7.5 -24v-21q0 -33 -39 -33
q-81 0 -134.5 47.5t-53.5 138.5z" />
    <glyph glyph-name="Utilde" unicode="&#x168;" horiz-adv-x="717" 
d="M81 250v423q0 33 33 33h33q32 0 32 -33v-422q0 -80 48.5 -126t130.5 -46t130.5 46t48.5 127v421q0 33 33 33h33q33 0 33 -33v-423q0 -118 -76.5 -190t-200.5 -72q-125 0 -201.5 72t-76.5 190zM222 756q-29 0 -29 32q0 41 26 68t68 27q31 0 55 -17t42 -34t36 -17
q17 0 26.5 13t10.5 32q2 20 30 20h8q29 0 29 -28q0 -45 -25.5 -72t-68.5 -27q-31 0 -55 17t-42 34t-36 17q-36 0 -38 -45q-3 -20 -29 -20h-8z" />
    <glyph glyph-name="utilde" unicode="&#x169;" horiz-adv-x="587" 
d="M64 182v291q0 33 33 33h31q32 0 32 -33v-269q0 -60 20 -93t75 -33q75 0 120 56t45 135v204q0 33 33 33h31q33 0 33 -33v-440q0 -33 -33 -33h-28q-33 0 -33 33v45l3 29h-2q-20 -45 -70 -82t-118 -37q-86 0 -129 47.5t-43 146.5zM154 581q-29 0 -29 32q0 41 26 68t68 27
q31 0 55 -17t42 -34t36 -17q17 0 26.5 13t10.5 32q2 20 30 20h8q29 0 29 -28q0 -45 -25.5 -72t-68.5 -27q-31 0 -55 17t-42 34t-36 17q-36 0 -38 -45q-3 -20 -29 -20h-8z" />
    <glyph glyph-name="Umacron" unicode="&#x16a;" horiz-adv-x="717" 
d="M81 250v423q0 33 33 33h33q32 0 32 -33v-422q0 -80 48.5 -126t130.5 -46t130.5 46t48.5 127v421q0 33 33 33h33q33 0 33 -33v-423q0 -118 -76.5 -190t-200.5 -72q-125 0 -201.5 72t-76.5 190zM264 784q-33 0 -33 32v7q0 32 33 32h189q33 0 33 -32v-7q0 -32 -33 -32h-189z
" />
    <glyph glyph-name="umacron" unicode="&#x16b;" horiz-adv-x="587" 
d="M64 182v291q0 33 33 33h31q32 0 32 -33v-269q0 -60 20 -93t75 -33q75 0 120 56t45 135v204q0 33 33 33h31q33 0 33 -33v-440q0 -33 -33 -33h-28q-33 0 -33 33v45l3 29h-2q-20 -45 -70 -82t-118 -37q-86 0 -129 47.5t-43 146.5zM196 609q-33 0 -33 32v7q0 32 33 32h189
q33 0 33 -32v-7q0 -32 -33 -32h-189z" />
    <glyph glyph-name="Ubreve" unicode="&#x16c;" horiz-adv-x="717" 
d="M81 250v423q0 33 33 33h33q32 0 32 -33v-422q0 -80 48.5 -126t130.5 -46t130.5 46t48.5 127v421q0 33 33 33h33q33 0 33 -33v-423q0 -118 -76.5 -190t-200.5 -72q-125 0 -201.5 72t-76.5 190zM358 751q-51 0 -91 31t-40 78q0 22 29 22h14q25 0 29 -23q8 -50 59 -50
q50 0 58 50q4 23 29 23h14q29 0 29 -22q0 -47 -39 -78t-91 -31z" />
    <glyph glyph-name="ubreve" unicode="&#x16d;" horiz-adv-x="587" 
d="M64 182v291q0 33 33 33h31q32 0 32 -33v-269q0 -60 20 -93t75 -33q75 0 120 56t45 135v204q0 33 33 33h31q33 0 33 -33v-440q0 -33 -33 -33h-28q-33 0 -33 33v45l3 29h-2q-20 -45 -70 -82t-118 -37q-86 0 -129 47.5t-43 146.5zM290 576q-51 0 -91 31t-40 78q0 22 29 22
h14q25 0 29 -23q8 -50 59 -50q50 0 58 50q4 23 29 23h14q29 0 29 -22q0 -47 -39 -78t-91 -31z" />
    <glyph glyph-name="Uring" unicode="&#x16e;" horiz-adv-x="717" 
d="M358 743q-35 0 -60 20.5t-25 53.5q0 34 25 54.5t60 20.5t60 -20.5t25 -54.5q0 -33 -25 -53.5t-60 -20.5zM358 784q14 0 23.5 9.5t9.5 23.5q0 16 -9.5 25.5t-23.5 9.5q-15 0 -24 -9.5t-9 -25.5q0 -14 9 -23.5t24 -9.5zM81 250v423q0 33 33 33h33q32 0 32 -33v-422
q0 -80 48.5 -126t130.5 -46t130.5 46t48.5 127v421q0 33 33 33h33q33 0 33 -33v-423q0 -118 -76.5 -190t-200.5 -72q-125 0 -201.5 72t-76.5 190z" />
    <glyph glyph-name="uring" unicode="&#x16f;" horiz-adv-x="587" 
d="M290 568q-35 0 -60 20.5t-25 53.5q0 34 25 54.5t60 20.5t60 -20.5t25 -54.5q0 -33 -25 -53.5t-60 -20.5zM290 609q14 0 23.5 9.5t9.5 23.5q0 16 -9.5 25.5t-23.5 9.5q-15 0 -24 -9.5t-9 -25.5q0 -14 9 -23.5t24 -9.5zM64 182v291q0 33 33 33h31q32 0 32 -33v-269
q0 -60 20 -93t75 -33q75 0 120 56t45 135v204q0 33 33 33h31q33 0 33 -33v-440q0 -33 -33 -33h-28q-33 0 -33 33v45l3 29h-2q-20 -45 -70 -82t-118 -37q-86 0 -129 47.5t-43 146.5z" />
    <glyph glyph-name="Uhungarumlaut" unicode="&#x170;" horiz-adv-x="717" 
d="M81 250v423q0 33 33 33h33q32 0 32 -33v-422q0 -80 48.5 -126t130.5 -46t130.5 46t48.5 127v421q0 33 33 33h33q33 0 33 -33v-423q0 -118 -76.5 -190t-200.5 -72q-125 0 -201.5 72t-76.5 190zM423 755q-20 0 -25.5 11t4.5 28l38 65q13 23 39 23h26q21 0 26 -12t-8 -28
l-49 -67q-16 -20 -40 -20h-11zM268 755q-19 0 -24.5 10.5t2.5 27.5l36 65q11 24 39 24h17q20 0 26 -11t-4 -28l-37 -65q-13 -23 -39 -23h-16z" />
    <glyph glyph-name="uhungarumlaut" unicode="&#x171;" horiz-adv-x="587" 
d="M64 182v291q0 33 33 33h31q32 0 32 -33v-269q0 -60 20 -93t75 -33q75 0 120 56t45 135v204q0 33 33 33h31q33 0 33 -33v-440q0 -33 -33 -33h-28q-33 0 -33 33v45l3 29h-2q-20 -45 -70 -82t-118 -37q-86 0 -129 47.5t-43 146.5zM355 580q-20 0 -25.5 11t4.5 28l38 65
q13 23 39 23h26q21 0 26 -11.5t-8 -28.5l-49 -67q-16 -20 -40 -20h-11zM200 580q-19 0 -24.5 11t2.5 27l36 65q11 24 39 24h17q20 0 26 -11.5t-4 -27.5l-37 -65q-13 -23 -39 -23h-16z" />
    <glyph glyph-name="Uogonek" unicode="&#x172;" horiz-adv-x="717" 
d="M81 250v423q0 33 33 33h33q32 0 32 -33v-422q0 -80 48.5 -126t130.5 -46t130.5 46t48.5 127v421q0 33 33 33h33q33 0 33 -33v-423q0 -84 -34 -135t-94 -91q-40 -25 -73 -56t-33 -58t40 -41q18 -8 14 -33l-2 -16q-4 -25 -32 -22q-37 5 -69 27.5t-32 64.5q0 50 53 99
q-129 -5 -211 67t-82 194z" />
    <glyph glyph-name="uogonek" unicode="&#x173;" horiz-adv-x="587" 
d="M64 182v291q0 33 33 33h31q32 0 32 -33v-269q0 -60 20 -93t75 -33q75 0 120 56t45 135v204q0 33 33 33h31q33 0 33 -33v-440q0 -15 -11.5 -30t-25 -26.5t-25 -29.5t-11.5 -37q0 -26 40 -41q19 -9 15 -33l-2 -16q-5 -26 -32 -22q-37 5 -69 27.5t-32 64.5q0 63 71 117
q-12 7 -12 26v45l3 29h-2q-20 -45 -70 -82t-118 -37q-86 0 -129 47.5t-43 146.5z" />
    <glyph glyph-name="Wcircumflex" unicode="&#x174;" horiz-adv-x="945" 
d="M388 755q-18 0 -22.5 11.5t6.5 28.5l46 65q15 22 41 22h49q26 0 40 -22l47 -65q11 -17 6.5 -28.5t-21.5 -11.5h-22q-21 0 -35 22l-39 58h-2l-39 -58q-12 -22 -35 -22h-20zM210 29l-163 641q-8 36 29 36h35q30 0 37 -29l117 -489l13 -75h2q6 36 17 75l131 490q7 28 37 28
h28q30 0 36 -28l131 -490l16 -75h2q5 37 14 75l123 489q7 29 37 29h34q37 0 29 -36l-169 -642q-7 -28 -37 -28h-55q-28 0 -36 28l-116 430l-22 100h-3q-10 -55 -22 -100l-116 -430q-8 -28 -37 -28h-55q-29 0 -37 29z" />
    <glyph glyph-name="wcircumflex" unicode="&#x175;" horiz-adv-x="803" 
d="M311 580q-18 0 -22.5 11.5t6.5 28.5l46 65q15 22 41 22h49q26 0 40 -22l47 -65q11 -17 6.5 -28.5t-21.5 -11.5h-22q-21 0 -35 22l-39 58h-2l-39 -58q-12 -22 -35 -22h-20zM171 28l-143 441q-5 17 2.5 27t25.5 10h33q30 0 37 -28l99 -327l12 -54h2q6 28 14 54l102 326
q6 28 36 28h31q30 0 37 -28l102 -326l13 -54h2q5 28 13 54l99 327q6 28 36 28h33q18 0 25.5 -10t2.5 -27l-143 -441q-7 -28 -37 -28h-49q-30 0 -37 28l-97 297l-14 55h-2q-6 -29 -15 -55l-96 -297q-7 -28 -37 -28h-50q-30 0 -37 28z" />
    <glyph glyph-name="Ycircumflex" unicode="&#x176;" horiz-adv-x="567" 
d="M241 33v266l-214 368q-10 17 -3 28t26 11h40q27 0 38 -23l119 -209l43 -89h2q21 49 43 89l118 209q12 23 38 23h40q19 0 26 -11t-3 -28l-214 -368v-266q0 -33 -33 -33h-33q-33 0 -33 33zM195 755q-18 0 -22.5 11.5t6.5 28.5l46 65q15 22 41 22h49q26 0 40 -22l47 -65
q11 -17 6.5 -28.5t-21.5 -11.5h-22q-21 0 -35 22l-39 58h-2l-39 -58q-12 -22 -35 -22h-20z" />
    <glyph glyph-name="ycircumflex" unicode="&#x177;" horiz-adv-x="502" 
d="M35 -134q11 24 37 17q28 -11 40 -11q29 0 51.5 21.5t35.5 54.5l25 58l-196 462q-7 17 0 27.5t25 10.5h39q28 0 37 -26l119 -305l18 -61h2q8 34 17 60l115 305q9 27 37 27h36q18 0 25.5 -10.5t0.5 -27.5l-223 -557q-22 -58 -66 -89.5t-98 -31.5q-31 0 -70 16
q-29 12 -15 43zM172 579q-18 0 -22.5 11.5t6.5 28.5l46 65q15 22 41 22h49q26 0 40 -22l47 -65q11 -17 6.5 -28.5t-21.5 -11.5h-22q-21 0 -35 22l-39 58h-2l-39 -58q-12 -22 -35 -22h-20z" />
    <glyph glyph-name="Ydieresis" unicode="&#x178;" horiz-adv-x="567" 
d="M241 33v266l-214 368q-10 17 -3 28t26 11h40q27 0 38 -23l119 -209l43 -89h2q21 49 43 89l118 209q12 23 38 23h40q19 0 26 -11t-3 -28l-214 -368v-266q0 -33 -33 -33h-33q-33 0 -33 33zM364 781q-33 0 -33 33v35q0 33 33 33h14q33 0 33 -33v-35q0 -33 -33 -33h-14z
M197 781q-33 0 -33 33v35q0 33 33 33h14q33 0 33 -33v-35q0 -33 -33 -33h-14z" />
    <glyph glyph-name="Zacute" unicode="&#x179;" horiz-adv-x="588" 
d="M301 755q-17 0 -23 11t3 26l40 67q13 23 39 23h29q21 0 26 -12t-8 -28l-49 -67q-16 -20 -40 -20h-17zM32 33v10q0 22 14 42l326 471q12 18 24.5 34t19.5 24l7 7v2q-19 -3 -53 -3h-287q-33 0 -33 33v20q0 33 33 33h430q33 0 33 -32v-10q0 -22 -13 -42l-327 -472
q-12 -17 -25 -33t-19 -23l-7 -8v-2q19 2 53 2h309q33 0 33 -33v-20q0 -33 -33 -33h-452q-33 0 -33 33z" />
    <glyph glyph-name="zacute" unicode="&#x17a;" horiz-adv-x="500" 
d="M243 580q-17 0 -23 11t3 26l40 67q13 23 39 23h29q21 0 26 -11.5t-8 -28.5l-49 -67q-16 -20 -40 -20h-17zM31 28v8q0 20 14 38l241 302l42 47v2q-16 -2 -49 -2h-204q-33 0 -33 33v17q0 33 33 33h351q33 0 33 -28v-8q0 -20 -14 -38l-241 -303l-43 -46v-2q16 2 49 2h224
q33 0 33 -32v-18q0 -33 -33 -33h-370q-33 0 -33 28z" />
    <glyph glyph-name="Zdotaccent" unicode="&#x17b;" horiz-adv-x="588" 
d="M32 33v10q0 22 14 42l326 471q12 18 24.5 34t19.5 24l7 7v2q-19 -3 -53 -3h-287q-33 0 -33 33v20q0 33 33 33h430q33 0 33 -32v-10q0 -22 -13 -42l-327 -472q-12 -17 -25 -33t-19 -23l-7 -8v-2q19 2 53 2h309q33 0 33 -33v-20q0 -33 -33 -33h-452q-33 0 -33 33zM294 784
q-33 0 -33 33v32q0 33 33 33h21q33 0 33 -33v-32q0 -33 -33 -33h-21z" />
    <glyph glyph-name="zdotaccent" unicode="&#x17c;" horiz-adv-x="500" 
d="M31 28v8q0 20 14 38l241 302l42 47v2q-16 -2 -49 -2h-204q-33 0 -33 33v17q0 33 33 33h351q33 0 33 -28v-8q0 -20 -14 -38l-241 -303l-43 -46v-2q16 2 49 2h224q33 0 33 -32v-18q0 -33 -33 -33h-370q-33 0 -33 28zM237 609q-33 0 -33 33v32q0 33 33 33h21q33 0 33 -33
v-32q0 -33 -33 -33h-21z" />
    <glyph glyph-name="Zcaron" unicode="&#x17d;" horiz-adv-x="588" 
d="M280 755q-26 0 -41 21l-46 66q-11 17 -6.5 28.5t22.5 11.5h20q22 0 35 -22l39 -59h2l39 59q15 22 35 22h21q18 0 22.5 -11.5t-6.5 -28.5l-47 -66q-14 -21 -40 -21h-49zM32 33v10q0 22 14 42l326 471q12 18 24.5 34t19.5 24l7 7v2q-19 -3 -53 -3h-287q-33 0 -33 33v20
q0 33 33 33h430q33 0 33 -32v-10q0 -22 -13 -42l-327 -472q-12 -17 -25 -33t-19 -23l-7 -8v-2q19 2 53 2h309q33 0 33 -33v-20q0 -33 -33 -33h-452q-33 0 -33 33z" />
    <glyph glyph-name="zcaron" unicode="&#x17e;" horiz-adv-x="500" 
d="M223 580q-26 0 -41 21l-46 66q-11 17 -6.5 28.5t22.5 11.5h20q22 0 35 -22l39 -59h2l39 59q15 22 35 22h21q18 0 22.5 -11.5t-6.5 -28.5l-47 -66q-14 -21 -40 -21h-49zM31 28v8q0 20 14 38l241 302l42 47v2q-16 -2 -49 -2h-204q-33 0 -33 33v17q0 33 33 33h351
q33 0 33 -28v-8q0 -20 -14 -38l-241 -303l-43 -46v-2q16 2 49 2h224q33 0 33 -32v-18q0 -33 -33 -33h-370q-33 0 -33 28z" />
    <glyph glyph-name="longs" unicode="&#x17f;" horiz-adv-x="260" 
d="M92 33v389h-32q-33 0 -33 33v13q0 33 33 33h32v24q0 45 14.5 80.5t35 54.5t47 31.5t47 16t39.5 3.5h12q33 0 33 -33v-19q0 -30 -35 -33q-18 -1 -31.5 -4.5t-30 -13t-25.5 -32t-9 -55.5v-488q0 -33 -33 -33h-31q-33 0 -33 33z" />
    <glyph glyph-name="florin" unicode="&#x192;" horiz-adv-x="376" 
d="M-30 -25q16 -2 34 -2q17 0 32.5 4t34 14.5t31.5 34t16 58.5l23 266h-49q-33 0 -33 32v13q0 33 33 33h56l9 102q4 48 21.5 83.5t39.5 55t51 31t51 15t45 3.5q11 0 53 -3q31 -3 31 -35v-18q0 -35 -26 -32q-32 4 -53 4q-17 0 -33 -4t-34.5 -14.5t-31.5 -34t-16 -58.5
l-10 -95h84q33 0 33 -33v-13q0 -32 -32 -32h-92l-23 -274q-5 -59 -28.5 -99t-57.5 -57.5t-62.5 -24t-58.5 -6.5q-17 0 -39 2q-31 3 -31 35v18q0 34 32 31z" />
    <glyph glyph-name="Scommaaccent" unicode="&#x218;" horiz-adv-x="537" 
d="M243 -80q0 21 29 21h17q39 0 39 -56q0 -36 -15.5 -67t-38.5 -31h-8q-29 0 -29 20q0 5 5 24t5 41q0 14 -2 27t-2 21zM77 61q-23 21 -4 46l17 24q18 23 45 6q79 -57 154 -57q56 0 90 27.5t34 73.5q0 43 -35 73.5t-85 51.5t-100 45t-85 67t-35 104q0 88 65 142t164 54
q56 0 103.5 -17t73.5 -37q24 -17 10 -45l-14 -25q-15 -27 -45 -9q-69 41 -130 41q-56 0 -91.5 -27t-35.5 -72q0 -35 25 -62t63 -42.5t82 -36.5t82 -42.5t63 -61.5t25 -93q0 -86 -60.5 -143.5t-163.5 -57.5q-68 0 -123.5 23t-88.5 50z" />
    <glyph glyph-name="scommaaccent" unicode="&#x219;" horiz-adv-x="439" 
d="M194 -80q0 21 29 21h17q39 0 39 -56q0 -36 -15.5 -67t-38.5 -31h-8q-29 0 -29 20q0 5 5 24t5 41q0 14 -2 27t-2 21zM68 43q-25 16 -7 45l10 14q17 23 46 7q63 -41 124 -41q38 0 62 17.5t24 49.5q0 27 -27 45.5t-65.5 32t-76.5 30t-65 49.5t-27 80q0 69 52.5 107.5
t130.5 38.5t140 -39q28 -14 11 -44l-9 -15q-14 -25 -44 -11q-51 29 -103 29q-38 0 -61.5 -16.5t-23.5 -47.5q0 -27 27 -46t65.5 -32t76.5 -29.5t65 -49t27 -80.5q0 -65 -50.5 -107t-131.5 -42q-97 0 -170 55z" />
    <glyph glyph-name="uni021A" unicode="&#x21a;" horiz-adv-x="597" 
d="M257 -80q0 21 29 21h17q39 0 39 -56q0 -36 -15.5 -67t-38.5 -31h-8q-29 0 -29 20q0 5 5 24t5 41q0 14 -2 27t-2 21zM249 33v587h-210q-33 0 -33 33v20q0 33 33 33h518q32 0 32 -33v-20q0 -33 -32 -33h-210v-587q0 -33 -33 -33h-33q-32 0 -32 33z" />
    <glyph glyph-name="uni021B" unicode="&#x21b;" horiz-adv-x="341" 
d="M145 -80q0 21 29 21h17q39 0 39 -56q0 -36 -15.5 -67t-38.5 -31h-8q-29 0 -29 20q0 5 5 24t5 41q0 14 -2 27t-2 21zM94 182v240h-35q-32 0 -32 33v13q0 33 33 33h36v111q0 33 33 33h29q33 0 33 -33v-111h88q33 0 33 -33v-13q0 -33 -32 -33h-89v-225q0 -106 96 -114
q20 -2 27.5 -9t7.5 -24v-21q0 -33 -40 -33q-81 0 -134.5 47.5t-53.5 138.5z" />
    <glyph glyph-name="circumflex" unicode="&#x2c6;" horiz-adv-x="499" 
d="M158 755q-18 0 -22.5 11.5t6.5 28.5l46 65q15 22 41 22h49q26 0 40 -22l47 -65q11 -17 6.5 -28.5t-21.5 -11.5h-22q-21 0 -35 22l-39 58h-2l-39 -58q-12 -22 -35 -22h-20z" />
    <glyph glyph-name="caron" unicode="&#x2c7;" horiz-adv-x="499" 
d="M229 755q-26 0 -41 21l-46 66q-11 17 -6.5 28.5t22.5 11.5h20q22 0 35 -22l39 -59h2l39 59q15 22 35 22h21q18 0 22.5 -11.5t-6.5 -28.5l-47 -66q-14 -21 -40 -21h-49z" />
    <glyph glyph-name="breve" unicode="&#x2d8;" horiz-adv-x="499" 
d="M250 751q-51 0 -91 31t-40 78q0 22 29 22h14q25 0 29 -23q8 -50 59 -50q50 0 58 50q4 23 29 23h14q29 0 29 -22q0 -47 -39 -78t-91 -31z" />
    <glyph glyph-name="dotaccent" unicode="&#x2d9;" horiz-adv-x="500" 
d="M239 784q-33 0 -33 33v32q0 33 33 33h21q33 0 33 -33v-32q0 -33 -33 -33h-21z" />
    <glyph glyph-name="ring" unicode="&#x2da;" horiz-adv-x="500" 
d="M250 743q-35 0 -60 20.5t-25 53.5q0 34 25 54.5t60 20.5t60 -20.5t25 -54.5q0 -33 -25 -53.5t-60 -20.5zM250 784q14 0 23.5 9.5t9.5 23.5q0 16 -9.5 25.5t-23.5 9.5q-15 0 -24 -9.5t-9 -25.5q0 -14 9 -23.5t24 -9.5z" />
    <glyph glyph-name="ogonek" unicode="&#x2db;" horiz-adv-x="499" 
d="M168 -110q0 38 26.5 70t55.5 52q21 15 45 8q33 -8 10 -31q-57 -47 -57 -79q0 -26 40 -41q19 -8 15 -33l-2 -16q-4 -25 -32 -22q-37 5 -69 27.5t-32 64.5z" />
    <glyph glyph-name="tilde" unicode="&#x2dc;" horiz-adv-x="499" 
d="M113 756q-29 0 -29 32q0 41 26 68t68 27q31 0 55 -17t42 -34t36 -17q17 0 26.5 13t10.5 32q2 20 30 20h8q29 0 29 -28q0 -45 -25.5 -72t-68.5 -27q-31 0 -55 17t-42 34t-36 17q-36 0 -38 -45q-3 -20 -29 -20h-8z" />
    <glyph glyph-name="hungarumlaut" unicode="&#x2dd;" horiz-adv-x="499" 
d="M288 755q-20 0 -25.5 11t4.5 28l38 65q13 23 39 23h26q21 0 26 -12t-8 -28l-49 -67q-16 -20 -40 -20h-11zM133 755q-19 0 -24.5 10.5t2.5 27.5l36 65q11 24 39 24h17q20 0 26 -11t-4 -28l-37 -65q-13 -23 -39 -23h-16z" />
    <glyph glyph-name="uni1E9E" unicode="&#x1e9e;" horiz-adv-x="671" 
d="M82 33v473q0 87 57.5 143.5t145.5 56.5h277q33 0 33 -31v-15q0 -23 -12 -40l-127 -184l-24 -33v-2l25 -1q73 -6 120.5 -63.5t47.5 -131.5q0 -85 -61.5 -145t-147.5 -60h-116q-33 0 -33 33v20q0 33 32 33h110q50 0 82 35t32 84t-31.5 83t-81.5 34h-54q-33 0 -33 33v17
q0 20 11 38l102 150q13 20 24 35.5t16 20.5l4 5v2q-11 -3 -43 -3h-148q-47 0 -77 -32t-30 -80v-475q0 -33 -33 -33h-34q-33 0 -33 33z" />
    <glyph glyph-name="thinspace" unicode="&#x2009;" horiz-adv-x="20" 
 />
    <glyph glyph-name="endash" unicode="&#x2013;" horiz-adv-x="655" 
d="M97 246q-32 0 -32 33v12q0 33 32 33h461q33 0 33 -33v-12q0 -33 -33 -33h-461z" />
    <glyph glyph-name="emdash" unicode="&#x2014;" horiz-adv-x="855" 
d="M97 246q-32 0 -32 33v12q0 33 32 33h661q33 0 33 -33v-12q0 -33 -33 -33h-661z" />
    <glyph glyph-name="quoteleft" unicode="&#x2018;" horiz-adv-x="209" 
d="M79 499q-18 0 -25.5 10.5t-1.5 27.5l50 154q9 26 37 26h9q35 0 27 -36l-36 -152q-6 -30 -35 -30h-25z" />
    <glyph glyph-name="quoteright" unicode="&#x2019;" horiz-adv-x="207" 
d="M85 499q-37 0 -27 37l35 152q6 29 36 29h24q18 0 25.5 -10t1.5 -27l-50 -154q-9 -27 -37 -27h-8z" />
    <glyph glyph-name="quotesinglbase" unicode="&#x201a;" horiz-adv-x="226" 
d="M45 -77l36 153q6 29 36 29h24q18 0 25.5 -10.5t1.5 -26.5l-50 -154q-9 -27 -37 -27h-8q-35 0 -28 36z" />
    <glyph glyph-name="quotedblleft" unicode="&#x201c;" horiz-adv-x="356" 
d="M226 499q-18 0 -25.5 10.5t-1.5 27.5l50 154q9 26 37 26h9q35 0 27 -36l-35 -152q-7 -30 -36 -30h-25zM79 499q-18 0 -25.5 10.5t-1.5 27.5l50 154q9 26 37 26h9q35 0 27 -36l-35 -152q-6 -30 -36 -30h-25z" />
    <glyph glyph-name="quotedblright" unicode="&#x201d;" horiz-adv-x="354" 
d="M232 499q-36 0 -28 37l36 152q6 29 36 29h25q38 0 27 -37l-50 -154q-10 -27 -38 -27h-8zM85 499q-37 0 -27 37l35 152q6 29 36 29h25q18 0 25.5 -10t1.5 -27l-50 -154q-9 -27 -38 -27h-8z" />
    <glyph glyph-name="quotedblbase" unicode="&#x201e;" horiz-adv-x="373" 
d="M193 -77l36 153q6 29 35 29h25q19 0 26 -10t1 -27l-49 -154q-11 -27 -38 -27h-9q-35 0 -27 36zM46 -77l36 153q6 29 36 29h25q18 0 25 -10t2 -27l-50 -154q-11 -27 -38 -27h-8q-36 0 -28 36z" />
    <glyph glyph-name="dagger" unicode="&#x2020;" horiz-adv-x="423" 
d="M164 -17v446h-88q-33 0 -33 32v12q0 33 33 33h88v167q0 33 33 33h27q33 0 33 -33v-167h91q33 0 33 -33v-12q0 -32 -33 -32h-91v-446q0 -33 -33 -33h-27q-33 0 -33 33z" />
    <glyph glyph-name="daggerdbl" unicode="&#x2021;" horiz-adv-x="435" 
d="M169 -17v188h-87q-33 0 -33 33v12q0 33 33 33h87v180h-87q-33 0 -33 32v12q0 33 33 33h87v167q0 33 33 33h28q33 0 33 -33v-167h91q33 0 33 -33v-12q0 -32 -33 -32h-91v-180h91q33 0 33 -33v-12q0 -33 -33 -33h-91v-188q0 -33 -33 -33h-28q-33 0 -33 33z" />
    <glyph glyph-name="bullet" unicode="&#x2022;" horiz-adv-x="411" 
d="M205 136q-64 0 -109 45.5t-45 109.5t45 109.5t109 45.5q65 0 110 -45t45 -110t-45 -110t-110 -45z" />
    <glyph glyph-name="ellipsis" unicode="&#x2026;" horiz-adv-x="745" 
d="M581 33v39q0 33 33 33h36q33 0 33 -33v-39q0 -33 -33 -33h-36q-33 0 -33 33zM322 33v39q0 33 32 33h36q33 0 33 -33v-39q0 -33 -33 -33h-36q-32 0 -32 33zM62 33v39q0 33 33 33h36q33 0 33 -33v-39q0 -33 -33 -33h-36q-33 0 -33 33z" />
    <glyph glyph-name="perthousand" unicode="&#x2030;" horiz-adv-x="1100" 
d="M199 422q-63 0 -107.5 43.5t-44.5 104.5t44.5 104.5t107.5 43.5q62 0 107 -43.5t45 -104.5t-45 -104.5t-107 -43.5zM94 40l494 647q15 19 40 19h18q21 0 27 -12t-7 -28l-494 -646q-16 -20 -40 -20h-18q-21 0 -27 12t7 28zM199 496q31 0 52.5 21.5t21.5 52.5t-21.5 53
t-52.5 22t-52.5 -22t-21.5 -53q0 -32 21.5 -53t52.5 -21zM764 136q0 61 44.5 104.5t107.5 43.5q62 0 107 -43.5t45 -104.5t-45 -104.5t-107 -43.5q-64 0 -108 43t-44 105zM410 136q0 61 44 104.5t107 43.5t107.5 -43.5t44.5 -104.5t-44.5 -104.5t-107.5 -43.5t-107 43
t-44 105zM842 136q0 -32 21 -53t53 -21q31 0 52.5 21.5t21.5 52.5t-21.5 53t-52.5 22t-52.5 -22t-21.5 -53zM488 136q0 -31 21 -52.5t52 -21.5t52.5 21t21.5 53q0 31 -21.5 53t-52.5 22t-52 -22t-21 -53z" />
    <glyph glyph-name="guilsinglleft" unicode="&#x2039;" horiz-adv-x="321" 
d="M199 96l-129 163q-20 23 0 46l129 164q16 19 41 19h20q21 0 26.5 -12t-7.5 -28l-131 -166l131 -165q13 -17 9 -28.5t-24 -11.5h-24q-25 0 -41 19z" />
    <glyph glyph-name="guilsinglright" unicode="&#x203a;" horiz-adv-x="321" 
d="M85 77q-21 0 -26.5 11.5t7.5 28.5l131 165l-131 166q-13 16 -8.5 28t24.5 12h24q24 0 40 -19l130 -164q20 -23 0 -46l-130 -163q-16 -19 -40 -19h-21z" />
    <glyph glyph-name="fraction" unicode="&#x2044;" horiz-adv-x="168" 
d="M-29 25q-12 -25 -39 -25h-12q-16 0 -21 11t3 28l306 643q11 24 39 24h11q17 0 21.5 -10.5t-3.5 -28.5z" />
    <glyph glyph-name="zerosuperior" unicode="&#x2070;" horiz-adv-x="393" 
d="M197 413q-158 0 -158 229q0 228 158 228q157 0 157 -228q0 -229 -157 -229zM197 482q81 0 81 160q0 158 -81 158q-82 0 -82 -158q0 -160 82 -160z" />
    <glyph glyph-name="foursuperior" unicode="&#x2074;" horiz-adv-x="383" 
d="M256 423q-33 0 -33 33v74h-174q-33 0 -33 25v9q0 18 12 34l174 241q14 21 40 21h22q33 0 33 -33v-231h35q29 0 29 -31v-4q0 -31 -29 -31h-35v-74q0 -33 -33 -33h-8zM97 596h126v123l4 58h-2q-14 -27 -30 -48l-98 -131v-2z" />
    <glyph glyph-name="fivesuperior" unicode="&#x2075;" horiz-adv-x="356" 
d="M186 413q-61 0 -120 46q-23 19 -2 46l3 3q16 20 44 4q30 -30 71 -30q36 0 62.5 23.5t26.5 58.5t-26.5 59t-64.5 24q-21 0 -52 -13q-29 -7 -42 -1q-22 9 -19 37l17 159q3 31 35 31h166q33 0 33 -31v-3q0 -32 -33 -32h-136l-7 -64l-5 -32l2 -1q22 10 55 10
q66 0 109.5 -41.5t43.5 -101.5q0 -62 -45 -106.5t-116 -44.5z" />
    <glyph glyph-name="sixsuperior" unicode="&#x2076;" horiz-adv-x="378" 
d="M202 413q-72 0 -119 55.5t-47 147.5q0 62 19.5 117.5t67 96t114.5 40.5q32 0 61 -11q29 -10 17 -41l-2 -4q-7 -15 -14 -20t-19 -1q-23 7 -43 7q-47 0 -77 -35.5t-40 -89.5h2q33 31 81 31q65 0 105 -40t40 -102q0 -67 -41 -109t-105 -42zM201 482q33 0 52.5 23.5
t19.5 58.5q0 36 -22 60t-61 24q-30 0 -53 -17t-23 -39q0 -38 24.5 -74t62.5 -36z" />
    <glyph glyph-name="sevensuperior" unicode="&#x2077;" horiz-adv-x="336" 
d="M78 423q-20 0 -26.5 11t3.5 28l153 284l28 47v2q-19 -2 -44 -2h-138q-33 0 -33 32v4q0 31 33 31h236q33 0 33 -25v-6q0 -20 -11 -39l-184 -344q-12 -23 -39 -23h-11z" />
    <glyph glyph-name="eightsuperior" unicode="&#x2078;" horiz-adv-x="386" 
d="M194 413q-64 0 -111.5 36t-47.5 100t71 114q-51 37 -51 90q0 55 41.5 86t99.5 31q57 0 99.5 -31.5t42.5 -87.5q0 -52 -54 -112q64 -37 64 -99q0 -56 -45 -91.5t-109 -35.5zM230 665q37 37 37 82q0 27 -21.5 42.5t-50.5 15.5q-28 0 -47.5 -14.5t-19.5 -40.5
q0 -8 2.5 -15.5t6 -13.5t11 -12t12 -9.5t16 -9.5t17 -8.5t19 -8.5t18.5 -8zM194 478q30 0 54.5 18.5t24.5 46.5q0 13 -6 24t-20 21t-24.5 15.5t-34 15.5t-32.5 15q-47 -38 -47 -82q0 -34 25.5 -54t59.5 -20z" />
    <glyph glyph-name="ninesuperior" unicode="&#x2079;" horiz-adv-x="378" 
d="M80 424q-29 10 -17 41l2 4q7 15 14 20t19 1q23 -7 43 -7q47 0 77 35.5t40 89.5h-2q-33 -31 -82 -31q-64 0 -104 40t-40 102q0 67 41 109t105 42q72 0 119 -55.5t47 -147.5q0 -62 -19.5 -117.5t-67 -96t-114.5 -40.5q-32 0 -61 11zM188 635q30 0 53 17t23 39
q0 38 -24.5 74t-62.5 36q-33 0 -52.5 -23.5t-19.5 -58.5q0 -36 22 -60t61 -24z" />
    <glyph glyph-name="zeroinferior" unicode="&#x2080;" horiz-adv-x="393" 
d="M197 -167q-158 0 -158 229q0 228 158 228q157 0 157 -228q0 -229 -157 -229zM197 -98q81 0 81 160q0 158 -81 158q-82 0 -82 -158q0 -160 82 -160z" />
    <glyph glyph-name="oneinferior" unicode="&#x2081;" horiz-adv-x="303" 
d="M68 -157q-33 0 -33 31v4q0 31 29 31h64v249l2 26h-2q-3 -7 -17 -20l-21 -21q-17 -13 -32 2l-8 9q-20 22 3 45l65 64q17 17 41 17h11q33 0 33 -33v-338h59q33 0 33 -31v-4q0 -31 -33 -31h-194z" />
    <glyph glyph-name="twoinferior" unicode="&#x2082;" horiz-adv-x="357" 
d="M62 -157q-33 0 -33 36q0 47 22 83.5t53 59t62 42t53 42.5t22 50q0 28 -20.5 46.5t-51.5 18.5t-62 -26q-26 -19 -45 -1l-4 3q-25 23 -2 45q53 48 117 48q62 0 103 -36.5t41 -94.5q0 -40 -20.5 -72t-50.5 -52.5t-60 -38.5t-51.5 -39.5t-23.5 -47.5h180q33 0 33 -31v-4
q0 -31 -33 -31h-229z" />
    <glyph glyph-name="threeinferior" unicode="&#x2083;" horiz-adv-x="357" 
d="M184 -167q-75 0 -125 45q-24 17 -5 43l4 5q16 21 44 6q35 -30 79 -30q33 0 57.5 22t24.5 54t-25.5 51.5t-59.5 19.5h-13q-25 0 -32 19t9 40l71 82l25 24v2q-19 -3 -36 -3h-109q-33 0 -33 32v4q0 31 33 31h206q33 0 33 -24v-5q0 -18 -16 -37l-93 -108q49 -8 82.5 -40
t33.5 -88q0 -59 -44 -102t-111 -43z" />
    <glyph glyph-name="fourinferior" unicode="&#x2084;" horiz-adv-x="383" 
d="M256 -157q-33 0 -33 33v74h-174q-33 0 -33 25v9q0 18 12 34l174 241q14 21 40 21h22q33 0 33 -33v-231h35q29 0 29 -31v-4q0 -31 -29 -31h-35v-74q0 -33 -33 -33h-8zM97 16h126v123l4 58h-2q-14 -27 -30 -48l-98 -131v-2z" />
    <glyph glyph-name="fiveinferior" unicode="&#x2085;" horiz-adv-x="356" 
d="M186 -167q-61 0 -120 46q-23 19 -2 46l3 3q16 20 44 4q30 -30 71 -30q36 0 62.5 23.5t26.5 58.5t-26.5 59t-64.5 24q-21 0 -52 -13q-29 -7 -42 -1q-22 9 -19 37l17 159q3 31 35 31h166q33 0 33 -31v-3q0 -32 -33 -32h-136l-7 -64l-5 -32l2 -1q22 10 55 10
q66 0 109.5 -41.5t43.5 -101.5q0 -62 -45 -106.5t-116 -44.5z" />
    <glyph glyph-name="sixinferior" unicode="&#x2086;" horiz-adv-x="378" 
d="M202 -167q-72 0 -119 55.5t-47 147.5q0 62 19.5 117.5t67 96t114.5 40.5q32 0 61 -11q29 -10 17 -41l-2 -4q-7 -15 -14 -20t-19 -1q-23 7 -43 7q-47 0 -77 -35.5t-40 -89.5h2q33 31 81 31q65 0 105 -40t40 -102q0 -67 -41 -109t-105 -42zM201 -98q33 0 52.5 23.5
t19.5 58.5q0 36 -22 60t-61 24q-30 0 -53 -17t-23 -39q0 -38 24.5 -74t62.5 -36z" />
    <glyph glyph-name="seveninferior" unicode="&#x2087;" horiz-adv-x="336" 
d="M78 -157q-20 0 -26.5 11t3.5 28l153 284l28 47v2q-19 -2 -44 -2h-138q-33 0 -33 32v4q0 31 33 31h236q33 0 33 -25v-6q0 -20 -11 -39l-184 -344q-12 -23 -39 -23h-11z" />
    <glyph glyph-name="eightinferior" unicode="&#x2088;" horiz-adv-x="386" 
d="M194 -166q-64 0 -111.5 36t-47.5 100t71 114q-51 37 -51 90q0 55 41.5 86t99.5 31q57 0 99.5 -31.5t42.5 -87.5q0 -52 -54 -112q64 -37 64 -99q0 -56 -45 -91.5t-109 -35.5zM230 86q37 37 37 82q0 27 -21.5 42.5t-50.5 15.5q-28 0 -47.5 -14.5t-19.5 -40.5
q0 -8 2.5 -15.5t6 -13.5t11 -12t12 -9.5t16 -9.5t17 -8.5t19 -8.5t18.5 -8zM194 -101q30 0 54.5 18.5t24.5 46.5q0 13 -6 24t-20 21t-24.5 15.5t-34 15.5t-32.5 15q-47 -38 -47 -82q0 -34 25.5 -54t59.5 -20z" />
    <glyph glyph-name="nineinferior" unicode="&#x2089;" horiz-adv-x="378" 
d="M80 -156q-29 10 -17 41l2 4q7 15 14 20t19 1q23 -7 43 -7q47 0 77 35.5t40 89.5h-2q-33 -31 -82 -31q-64 0 -104 40t-40 102q0 67 41 109t105 42q72 0 119 -55.5t47 -147.5q0 -62 -19.5 -117.5t-67 -96t-114.5 -40.5q-32 0 -61 11zM188 55q30 0 53 17t23 39
q0 38 -24.5 74t-62.5 36q-33 0 -52.5 -23.5t-19.5 -58.5q0 -36 22 -60t61 -24z" />
    <glyph glyph-name="Euro" unicode="&#x20ac;" horiz-adv-x="599" 
d="M70 258q-30 0 -30 32q0 31 30 31h25q-5 32 0 72h-24q-31 0 -31 32t31 32h35q31 116 124 188.5t215 72.5q27 0 67 -5q35 -6 25 -40l-7 -27q-7 -30 -34 -25q-33 5 -53 5q-83 0 -144.5 -46t-86.5 -123h244q36 0 30 -33q-6 -31 -37 -31h-252q-5 -35 0 -72h233q38 0 30 -33
q-5 -30 -36 -30h-210q23 -80 86 -128t146 -48q36 0 59 5q33 6 39 -24l6 -27q7 -33 -25 -39q-43 -9 -80 -9q-127 0 -219 74.5t-121 195.5h-35z" />
    <glyph glyph-name="trademark" unicode="&#x2122;" horiz-adv-x="965" 
d="M454 300l31 375q2 31 33 31h11q28 0 39 -25l92 -205l14 -42h2q6 24 14 42l92 205q11 25 39 25h11q31 0 33 -31l30 -375q2 -34 -32 -34h-10q-30 0 -33 31l-18 232l1 30h-2l-85 -186q-10 -26 -38 -26h-6q-28 0 -38 26l-85 186h-2l1 -30l-19 -232q-2 -31 -33 -31h-10
q-34 0 -32 34zM225 266q-33 0 -33 33v340h-119q-33 0 -33 31v5q0 31 33 31h314q33 0 33 -31v-5q0 -31 -33 -31h-119v-340q0 -33 -33 -33h-10z" />
    <glyph glyph-name="minus" unicode="&#x2212;" horiz-adv-x="613" 
d="M81 246q-33 0 -33 33v12q0 33 33 33h451q33 0 33 -33v-12q0 -33 -33 -33h-451z" />
    <glyph glyph-name="infinity" unicode="&#x221e;" horiz-adv-x="479" 
d="M240 167q-75 0 -128.5 53.5t-53.5 128.5t53.5 128t128.5 53t128 -52.5t53 -128.5q0 -75 -53 -128.5t-128 -53.5z" />
    <glyph glyph-name="approxequal" unicode="&#x2248;" horiz-adv-x="613" 
d="M96 349l-4 6q-19 27 5 46q64 52 128 52q50 0 107.5 -35t90.5 -35q40 0 85 32q28 20 45 -5l4 -6q18 -28 -5 -45q-61 -52 -129 -52q-50 0 -107.5 35t-90.5 35q-39 0 -84 -34q-28 -19 -45 6zM96 160l-4 6q-19 27 5 46q64 52 128 52q50 0 107.5 -35t90.5 -35q40 0 85 32
q28 20 45 -5l4 -5q18 -29 -5 -46q-61 -52 -129 -52q-50 0 -107.5 35t-90.5 35q-40 0 -84 -33q-27 -20 -45 5z" />
    <glyph glyph-name="notequal" unicode="&#x2260;" horiz-adv-x="613" 
d="M149 57q-28 16 -7 43l37 51h-78q-33 0 -33 33v12q0 33 33 33h130l79 111h-209q-33 0 -33 33v12q0 33 33 33h262l63 87q19 28 44 10t12 -37l-44 -60h75q32 0 32 -33v-12q0 -33 -32 -33h-127l-80 -111h207q32 0 32 -33v-12q0 -33 -32 -33h-259l-61 -85q-18 -27 -44 -9z" />
    <glyph glyph-name="lessequal" unicode="&#x2264;" horiz-adv-x="613" 
d="M85 241q-25 10 -25 38v11q0 28 25 39l403 179q16 8 27 1t11 -25v-20q0 -26 -26 -38l-331 -140v-2l331 -141q26 -10 26 -38v-19q0 -19 -11 -26t-27 1zM94 -95h399q33 0 33 -33v-12q0 -33 -33 -33h-399q-33 0 -33 33v12q0 33 33 33z" />
    <glyph glyph-name="greaterequal" unicode="&#x2265;" horiz-adv-x="613" 
d="M87 86v19q0 28 25 38l332 141v2l-332 140q-25 12 -25 38v20q0 19 10.5 25.5t27.5 -0.5l403 -180q25 -12 25 -39v-11q0 -28 -25 -38l-403 -180q-17 -7 -27.5 -0.5t-10.5 25.5zM119 -95h400q32 0 32 -33v-12q0 -33 -32 -33h-400q-33 0 -33 33v12q0 33 33 33z" />
    <glyph glyph-name="commaaccent" unicode="&#xf6c3;" horiz-adv-x="335" 
d="M130 -80q0 21 29 21h17q39 0 39 -56q0 -36 -15.5 -67t-38.5 -31h-8q-29 0 -29 20q0 5 5 24t5 41q0 14 -2 27t-2 21z" />
    <glyph glyph-name="apple" unicode="&#xf8ff;" horiz-adv-x="1130" 
d="M168 -5v152l-126 72v278l126 71v151l265 142l134 -71l132 71l265 -142v-151l124 -71v-278l-124 -72v-152l-265 -141l-132 71l-134 -71zM208 30l238 -126l121 66l118 -66l238 126v139l114 64v249l-114 66v136l-238 126l-118 -64l-121 64l-238 -126v-136l-114 -66v-249
l114 -64v-139zM242 64v121l-99 60v225l99 58v123l215 114l110 -59l107 59l214 -114v-123l100 -58v-225l-100 -60v-121l-214 -114l-107 58l-110 -58zM438 91h79v204h206v69h-206v165h151q14 0 19 -6t5 -20v-33h73v74q0 28 -12 40.5t-42 12.5h-331v-68h58v-438z" />
    <glyph glyph-name="f_f" unicode="&#xfb00;" horiz-adv-x="643" 
d="M93 33v395h-32q-33 0 -33 33v12q0 33 33 33h32v19q0 45 14.5 80.5t35 54.5t47 31.5t47 16t38.5 3.5h13q33 0 33 -33v-19q0 -30 -36 -33q-18 -1 -31 -4.5t-29.5 -13t-25.5 -32t-9 -55.5v-15h225v19q0 45 14 80.5t34.5 54.5t47 31.5t47 16t39.5 3.5h12q33 0 33 -33v-19
q0 -30 -35 -33q-18 -1 -31.5 -4.5t-30 -13t-25.5 -32t-9 -55.5v-15h87q33 0 33 -33v-12q0 -33 -30 -33h-90v-395q0 -33 -32 -33h-32q-32 0 -32 33v395h-225v-395q0 -33 -33 -33h-31q-33 0 -33 33z" />
    <glyph glyph-name="fi" unicode="&#xfb01;" horiz-adv-x="559" 
d="M92 33v395h-32q-33 0 -33 33v12q0 33 33 33h32v19q0 45 14.5 80.5t35 54.5t47 31.5t47 16t39.5 3.5h12q33 0 33 -33v-19q0 -30 -35 -33q-18 -1 -31.5 -4.5t-30 -13t-25.5 -32t-9 -55.5v-15h267q33 0 33 -33v-440q0 -33 -33 -33h-31q-33 0 -33 33v395h-203v-395
q0 -33 -33 -33h-31q-33 0 -33 33zM423 607q-33 0 -33 33v33q0 33 33 33h34q33 0 33 -33v-33q0 -33 -33 -33h-34z" />
    <glyph glyph-name="fl" unicode="&#xfb02;" horiz-adv-x="583" 
d="M391 138v535q0 33 33 33h31q33 0 33 -33v-523q0 -63 46 -67q26 -3 26 -29v-24q0 -34 -34 -34q-135 0 -135 142zM92 33v389h-32q-33 0 -33 33v13q0 33 33 33h32v24q0 45 14.5 80.5t35 54.5t47 31.5t47 16t39.5 3.5h12q33 0 33 -33v-19q0 -30 -35 -33q-18 -1 -31.5 -4.5
t-30 -13t-25.5 -32t-9 -55.5v-20h87q33 0 33 -33v-13q0 -33 -33 -33h-87v-389q0 -33 -33 -33h-31q-33 0 -33 33z" />
    <glyph glyph-name="f_f_i" unicode="&#xfb03;" horiz-adv-x="880" 
d="M92 33l-2 395h-30q-33 0 -33 33v12q0 33 33 33h30l2 19q0 45 14.5 80.5t35 54.5t47 31.5t47 16t39.5 3.5h12q33 0 33 -33v-19q0 -30 -35 -33q-18 -1 -31.5 -4.5t-30 -13t-25.5 -32t-9 -55.5v-15h225v19q0 45 14.5 80.5t35 54.5t47 31.5t47 16t38.5 3.5h13q33 0 33 -33
v-19q0 -30 -36 -33q-18 -1 -31 -4.5t-29.5 -13t-25.5 -32t-9 -55.5v-15h266q33 0 33 -33v-440q0 -33 -33 -33h-31q-33 0 -33 33v395h-202v-395q0 -33 -33 -33h-31q-33 0 -33 33v395h-225v-395q0 -33 -33 -33h-31q-33 0 -33 33zM712 640v33q0 33 33 33h34q33 0 33 -33v-33
q0 -33 -33 -33h-34q-33 0 -33 33z" />
    <glyph glyph-name="f_f_l" unicode="&#xfb04;" horiz-adv-x="905" 
d="M93 33l-2 395h-30q-33 0 -33 33v12q0 33 33 33h30l2 19q0 45 14.5 80.5t35 54.5t47 31.5t47 16t38.5 3.5h13q33 0 33 -33v-19q0 -30 -36 -33q-18 -1 -31 -4.5t-29.5 -13t-25.5 -32t-9 -55.5v-15h225v19q0 45 14 80.5t34.5 54.5t47 31.5t47 16t39.5 3.5h12q33 0 33 -33
v-19q0 -30 -35 -33q-18 -1 -31.5 -4.5t-30 -13t-25.5 -32t-9 -55.5v-15h87q33 0 33 -33v-12q0 -33 -30 -33h-90v-395q0 -33 -32 -33h-32q-32 0 -32 33v395h-225v-395q0 -33 -33 -33h-31q-33 0 -33 33zM714 138v535q0 33 33 33h31q33 0 33 -33v-523q0 -20 4 -34t11.5 -20.5
t14 -9t15.5 -3.5q26 -3 26 -29v-24q0 -34 -33 -34q-135 0 -135 142z" />
    <glyph glyph-name="f_j" horiz-adv-x="561" 
d="M93 33v395h-32q-33 0 -33 33v12q0 33 33 33h32v19q0 45 14.5 80.5t35 54.5t47 31.5t47 16t38.5 3.5h13q33 0 33 -33v-19q0 -30 -36 -33q-18 -1 -31 -4.5t-29.5 -13t-25.5 -32t-9 -55.5v-15h267q33 0 33 -33v-488q0 -47 -14.5 -83.5t-35 -56t-47.5 -32t-47 -16t-38 -3.5
h-13q-32 0 -32 33v18q0 30 32 33q98 7 98 111v439h-203v-395q0 -33 -33 -33h-31q-33 0 -33 33zM425 607q-33 0 -33 33v33q0 33 33 33h34q33 0 33 -33v-33q0 -33 -33 -33h-34z" />
    <glyph glyph-name="zero.tnum" 
d="M288 -12q-68 0 -118 28t-78 79t-41 115t-13 144t13 143.5t41 114t78 78.5t118 28q250 0 250 -364q0 -366 -250 -366zM288 79q148 0 148 275q0 273 -148 273t-148 -273q0 -275 148 -275z" />
    <glyph glyph-name="one.tnum" 
d="M102 33v20q0 33 33 33h123v456l1 43h-2q-9 -16 -31 -38l-45 -44q-25 -23 -46 1l-14 14q-24 24 0 47l128 125q17 16 40 16h32q33 0 33 -33v-587h122q33 0 33 -33v-20q0 -33 -33 -33h-341q-33 0 -33 33z" />
    <glyph glyph-name="two.tnum" 
d="M55 33v21q0 59 25.5 109.5t64 83.5t83.5 66t83.5 59.5t64 62t25.5 73.5q0 52 -35.5 84.5t-91.5 32.5q-74 0 -125 -65q-24 -26 -47 -7l-18 14q-26 20 -9 45q29 41 80 73.5t126 32.5q98 0 160.5 -56t62.5 -147q0 -47 -18.5 -88t-48.5 -70.5t-66 -56.5t-72.5 -51t-66.5 -48
t-49 -53.5t-20 -61.5h319q33 0 33 -33v-20q0 -33 -33 -33h-392q-35 0 -35 33z" />
    <glyph glyph-name="three.tnum" 
d="M81 63q-24 19 -5 46l16 23q19 24 46 6q69 -56 145 -56q60 0 102 36.5t42 92.5q0 62 -47 96t-117 34h-22q-26 0 -37 24l-3 6q-11 23 8 43l136 161l44 46v2q-21 -3 -60 -3h-206q-33 0 -33 33v20q0 33 33 33h356q33 0 33 -31v-9q0 -24 -15 -40l-177 -204q82 -9 144.5 -61
t62.5 -146t-67 -160.5t-173 -66.5q-111 0 -206 75z" />
    <glyph glyph-name="four.tnum" 
d="M44 189q-33 0 -33 33v6q0 22 13 41l300 416q14 21 39 21h55q33 0 33 -33v-400h63q33 0 33 -33v-18q0 -33 -28 -33h-68v-156q0 -33 -33 -33h-32q-33 0 -33 33v156h-309zM121 273h232v257l5 70h-2q-17 -33 -35 -58l-200 -267v-2z" />
    <glyph glyph-name="five.tnum" 
d="M95 65q-25 20 -3 45l16 22q19 24 45 4q57 -54 130 -54q64 0 109.5 40t45.5 103t-46 104t-115 41q-47 0 -97 -25q-24 -9 -44 -2l-9 3q-27 11 -24 39l30 290q3 31 34 31h292q33 0 33 -33v-20q0 -33 -33 -33h-237l-17 -149l-5 -37h2q39 22 91 22q109 0 177.5 -66.5
t68.5 -163.5q0 -102 -71.5 -170t-178.5 -68q-114 0 -194 77z" />
    <glyph glyph-name="six.tnum" 
d="M46 319q0 72 19.5 141t57 127.5t100.5 94.5t141 36q59 0 106 -17q31 -11 19 -42l-9 -25q-10 -28 -40 -20q-37 13 -72 13q-92 0 -146.5 -70.5t-67.5 -170.5h2q23 31 66 51t97 20q96 0 157 -65t61 -162q0 -105 -64 -173.5t-164 -68.5q-114 0 -188.5 92t-74.5 239zM149 270
q0 -66 47 -128.5t113 -62.5q59 0 94 40.5t35 105.5q0 66 -39.5 107t-108.5 41q-59 0 -100 -30.5t-41 -72.5z" />
    <glyph glyph-name="seven.tnum" 
d="M126 39l256 517l39 65v2q-14 -3 -49 -3h-283q-33 0 -33 33v20q0 33 33 33h406q33 0 33 -31v-16q0 -23 -9 -40l-298 -595q-11 -24 -38 -24h-33q-19 0 -25.5 11t1.5 28z" />
    <glyph glyph-name="eight.tnum" 
d="M42 199q0 113 113 192q-85 56 -85 142q0 76 57 130.5t163 54.5q100 0 162 -51t62 -135q0 -94 -84 -185q100 -60 100 -153q0 -84 -67.5 -145t-174.5 -61q-106 0 -176 60t-70 151zM355 383q62 67 62 138q0 52 -35 81.5t-92 29.5t-90 -28.5t-33 -71.5q0 -17 5 -31.5
t16.5 -26.5t22.5 -21t31.5 -19.5t33.5 -16.5t39.5 -17t39.5 -17zM141 209q0 -59 43.5 -96.5t103.5 -37.5q56 0 98.5 34t42.5 85q0 20 -8.5 37t-19 28.5t-33.5 24.5t-39.5 20.5t-50.5 22t-52 22.5q-85 -64 -85 -140z" />
    <glyph glyph-name="nine.tnum" 
d="M85 47l9 26q10 27 40 19q47 -13 72 -13q92 0 146.5 70.5t67.5 170.5h-2q-23 -31 -67.5 -50.5t-96.5 -19.5q-95 0 -156 65.5t-61 163.5q0 105 64 172t163 67q115 0 189.5 -91.5t74.5 -238.5q0 -72 -19.5 -141t-57 -128t-100 -95t-141.5 -36q-62 0 -106 18q-31 9 -19 41z
M284 333q58 0 99.5 31t41.5 72q0 66 -47 128.5t-113 62.5q-59 0 -94 -40.5t-35 -105.5q0 -66 39.5 -107t108.5 -41z" />
    <glyph glyph-name="hyphen.case" horiz-adv-x="420" 
d="M97 305q-33 0 -33 33v20q0 33 33 33h226q33 0 33 -33v-20q0 -33 -33 -33h-226z" />
    <glyph glyph-name="parenleft.case" horiz-adv-x="275" 
d="M154 -45q-105 189 -105 415q0 197 103 373q12 22 39 22h15q19 0 25.5 -10.5t-2.5 -27.5q-92 -175 -92 -358q0 -208 94 -395q8 -17 2 -28t-25 -11h-17q-26 0 -37 20z" />
    <glyph glyph-name="parenright.case" horiz-adv-x="275" 
d="M50 -24q92 184 92 393q0 185 -91 358q-9 17 -3.5 27.5t24.5 10.5h17q27 0 39 -22q102 -175 102 -373q0 -227 -102 -413q-12 -22 -40 -22h-15q-19 0 -25.5 11.5t2.5 29.5z" />
    <glyph glyph-name="bracketleft.case" horiz-adv-x="285" 
d="M80 -32v765q0 32 33 32h100q32 0 32 -32v-8q0 -33 -31 -33h-49v-683h48q32 0 32 -33v-8q0 -33 -32 -33h-100q-33 0 -33 33z" />
    <glyph glyph-name="bracketright.case" horiz-adv-x="285" 
d="M40 -24q0 33 32 33h48v683h-48q-32 0 -32 33v8q0 32 32 32h100q33 0 33 -32v-765q0 -33 -33 -33h-100q-32 0 -32 33v8z" />
    <glyph glyph-name="braceleft.case" horiz-adv-x="325" 
d="M112 107v96q0 76 -58 101q-27 14 -27 37v29q0 22 27 36q58 28 58 103v83q0 53 16.5 91t41.5 54.5t45.5 23t38.5 6.5h11q33 0 33 -33v-12q0 -33 -33 -33q-68 0 -68 -105v-100q0 -28 -8.5 -51t-20.5 -36.5t-23.5 -23t-20.5 -13.5l-8 -3v-2q3 -1 8.5 -3t19.5 -12t24.5 -23
t19.5 -36.5t9 -52.5v-113q0 -34 7.5 -56.5t19.5 -32t21.5 -13t19.5 -3.5q33 0 33 -33v-12q0 -33 -33 -33h-11q-18 0 -38.5 6.5t-45.5 23t-41.5 54.5t-16.5 91z" />
    <glyph glyph-name="braceright.case" horiz-adv-x="326" 
d="M27 -23q0 33 33 33q10 0 19.5 3.5t21.5 13t19.5 32t7.5 56.5v113q0 29 8.5 52.5t20 37t23.5 22.5t20 12l9 3v2q-3 1 -8.5 3.5t-19.5 12.5t-24.5 23t-19.5 36.5t-9 51.5v100q0 105 -68 105q-33 0 -33 33v12q0 33 33 33h11q14 0 29.5 -3.5t36.5 -14.5t37 -29.5t27.5 -51.5
t11.5 -76v-83q0 -75 58 -103q27 -14 27 -36v-29q0 -23 -27 -37q-58 -25 -58 -101v-96q0 -43 -11.5 -76t-27.5 -51.5t-37 -29.5t-36.5 -14.5t-29.5 -3.5h-11q-33 0 -33 33v12z" />
    <glyph glyph-name="at.case" horiz-adv-x="756" 
d="M36 351q0 155 106.5 262.5t259.5 107.5q134 0 196.5 -57.5t62.5 -145.5v-283h39q33 0 33 -33v-7q0 -33 -33 -33h-240q-91 0 -149 55.5t-58 133.5q0 77 57.5 132t149.5 55h108q-2 45 -44.5 74t-117.5 29q-115 0 -194 -85.5t-79 -204.5q0 -112 70 -193.5t182 -92.5
q32 -3 32 -34v-13q0 -35 -34 -32q-152 11 -249.5 115t-97.5 250zM351 352q0 -49 33.5 -83t83.5 -34h100v236h-98q-52 0 -85.5 -34.5t-33.5 -84.5z" />
    <glyph glyph-name="guillemotleft.case" horiz-adv-x="517" 
d="M265 319q-20 23 0 46l130 164q16 19 40 19h21q21 0 26.5 -12t-7.5 -28l-132 -166l132 -165q13 -17 8 -28.5t-24 -11.5h-24q-24 0 -40 19zM193 156l-130 163q-20 23 0 46l130 164q16 19 40 19h21q21 0 26.5 -12t-7.5 -28l-132 -166l132 -165q13 -17 8 -28.5t-24 -11.5h-24
q-24 0 -40 19z" />
    <glyph glyph-name="guillemotright.case" horiz-adv-x="517" 
d="M268 177l132 165l-132 166q-13 16 -8.5 28t24.5 12h24q24 0 40 -19l130 -164q20 -23 0 -46l-130 -163q-16 -19 -40 -19h-21q-21 0 -26.5 11.5t7.5 28.5zM85 137q-21 0 -26.5 11.5t7.5 28.5l132 165l-132 166q-13 16 -8.5 28t24.5 12h24q24 0 40 -19l130 -164
q20 -23 0 -46l-130 -163q-16 -19 -40 -19h-21z" />
    <glyph glyph-name="guilsinglleft.case" horiz-adv-x="315" 
d="M193 156l-130 163q-20 23 0 46l130 164q16 19 40 19h21q21 0 26.5 -12t-7.5 -28l-132 -166l132 -165q13 -17 8 -28.5t-24 -11.5h-24q-24 0 -40 19z" />
    <glyph glyph-name="guilsinglright.case" horiz-adv-x="315" 
d="M85 137q-21 0 -26.5 11.5t7.5 28.5l132 165l-132 166q-13 16 -8.5 28t24.5 12h24q24 0 40 -19l130 -164q20 -23 0 -46l-130 -163q-16 -19 -40 -19h-21z" />
    <glyph glyph-name="endash.case" horiz-adv-x="653" 
d="M96 306q-33 0 -33 33v12q0 33 33 33h461q33 0 33 -33v-12q0 -33 -33 -33h-461z" />
    <glyph glyph-name="emdash.case" horiz-adv-x="853" 
d="M96 306q-33 0 -33 33v12q0 33 33 33h661q33 0 33 -33v-12q0 -33 -33 -33h-661z" />
    <glyph glyph-name="periodcentered.case" horiz-adv-x="228" 
d="M97 294q-33 0 -33 33v37q0 33 33 33h33q33 0 33 -33v-37q0 -33 -33 -33h-33z" />
    <glyph glyph-name="questiondown.case" horiz-adv-x="419" 
d="M265 512q33 0 33 -33v-20q0 -39 -17.5 -71.5t-42.5 -55.5t-50 -45.5t-42.5 -50.5t-17.5 -60q0 -42 32.5 -70.5t82.5 -28.5q44 0 87 25q31 16 47 -9l13 -18q19 -28 -6 -45q-68 -44 -148 -44q-88 0 -148.5 51t-60.5 132q0 44 17.5 80.5t42.5 60.5t50.5 46.5t44.5 50
t21 59.5l1 21q4 25 32 25h29zM301 673v-32q0 -33 -33 -33h-35q-33 0 -33 33v32q0 33 33 33h35q33 0 33 -33z" />
    <glyph glyph-name="exclamdown.case" horiz-adv-x="259" 
d="M140 512q33 0 33 -33l5 -446q0 -33 -32 -33h-34q-33 0 -33 33l5 446q2 33 34 33h22zM178 673v-32q0 -33 -33 -33h-34q-33 0 -33 33v32q0 33 33 33h34q33 0 33 -33z" />
    <glyph glyph-name="bullet.case" horiz-adv-x="409" 
d="M205 198q-64 0 -109 45.5t-45 109.5t45 109.5t109 45.5q65 0 110 -45t45 -110t-45 -110t-110 -45z" />
    <glyph glyph-name="zero.p_osf" horiz-adv-x="606" 
d="M63 272q0 117 62 201.5t178 84.5q117 0 179 -84.5t62 -202.5q0 -75 -24.5 -137t-80.5 -104t-136 -42q-60 0 -107 24t-75.5 65t-43 90.5t-14.5 104.5zM161 273q0 -83 36 -142t106 -59t106.5 59t36.5 142q0 82 -36.5 141.5t-106.5 59.5t-106 -59t-36 -142z" />
    <glyph glyph-name="one.p_osf" horiz-adv-x="468" 
d="M79 33v18q0 32 33 32h119v306l1 59h-2q-16 -15 -39 -29l-63 -38q-27 -15 -45 11l-9 13q-19 26 11 45l136 85q18 11 40 11h32q32 0 32 -33v-430h105q33 0 33 -32v-18q0 -33 -33 -33h-318q-33 0 -33 33z" />
    <glyph glyph-name="two.p_osf" horiz-adv-x="545" 
d="M73 33v8q0 25 22 40q144 96 214.5 164.5t70.5 129.5q0 49 -33 73t-82 24q-65 0 -126 -53q-26 -20 -46 4l-11 14q-22 25 2 46q89 75 193 75q90 0 146 -48.5t56 -121.5q0 -84 -63.5 -154t-196.5 -152v-2q21 3 60 3h193q33 0 33 -32v-18q0 -33 -33 -33h-366q-33 0 -33 33z
" />
    <glyph glyph-name="three.p_osf" horiz-adv-x="518" 
d="M66 2q19 25 45 6q62 -52 135 -52q60 0 102 34t42 89q0 61 -48.5 93t-114.5 32h-25q-27 0 -38 26q-10 27 6 46l128 144q10 12 21 23t17 16l6 5v1q-21 -3 -60 -3h-173q-33 0 -33 33v18q0 33 33 33h330q33 0 33 -28v-6q0 -24 -15 -40l-178 -195q37 -3 72 -15t67 -33.5
t51.5 -59t19.5 -84.5q0 -92 -67 -152.5t-174 -60.5q-106 0 -189 69q-25 18 -5 46z" />
    <glyph glyph-name="four.p_osf" horiz-adv-x="587" 
d="M26 65v11q0 20 12 37l284 412q13 21 39 21h57q33 0 33 -33v-396h68q33 0 33 -33v-18q0 -33 -27 -33h-74v-116q0 -33 -33 -33h-31q-33 0 -33 33v116h-296q-32 0 -32 32zM134 117h220v256l4 71h-2q-16 -37 -35 -63z" />
    <glyph glyph-name="five.p_osf" horiz-adv-x="527" 
d="M69 -7l12 15q17 23 44 4q59 -49 127 -49q63 0 109.5 35.5t46.5 98.5t-45.5 98.5t-109.5 35.5q-47 0 -99 -22q-25 -8 -44 -1l-7 2q-26 10 -23 39l30 266q3 31 34 31h279q33 0 33 -33v-18q0 -33 -33 -33h-227l-16 -136l-6 -35h2q40 19 94 19q103 0 169.5 -57t66.5 -152
q0 -101 -70 -162t-178 -61q-105 0 -185 69q-26 20 -4 46z" />
    <glyph glyph-name="six.p_osf" horiz-adv-x="590" 
d="M56 292q0 69 19 134.5t55.5 122t98.5 91t140 34.5q63 0 106 -16q31 -9 18 -42l-7 -19q-11 -25 -41 -19q-38 12 -71 12q-93 0 -147.5 -68.5t-66.5 -163.5h2q22 32 67 50.5t98 18.5q94 0 154.5 -60.5t60.5 -152.5q0 -98 -63.5 -162t-162.5 -64q-113 0 -186.5 84t-73.5 220z
M158 250q0 -62 45.5 -120t112.5 -58q60 0 94 38.5t34 99.5q0 62 -38.5 99.5t-108.5 37.5q-58 0 -98.5 -29t-40.5 -68z" />
    <glyph glyph-name="seven.p_osf" horiz-adv-x="517" 
d="M106 -77l243 480q8 17 17 32t14 21l4 7v2q-19 -2 -49 -2h-269q-32 0 -32 33v17q0 33 32 33h394q33 0 33 -31v-13q0 -20 -10 -39l-282 -555q-13 -24 -39 -24h-32q-20 0 -26.5 11t2.5 28z" />
    <glyph glyph-name="eight.p_osf" horiz-adv-x="591" 
d="M55 191q0 97 115 175q-85 53 -85 134q0 72 56 123t158 51q96 0 156.5 -48.5t60.5 -129.5q0 -16 -3.5 -33t-8.5 -31t-12.5 -28t-14.5 -24.5t-15 -21t-13.5 -16.5t-10.5 -12l-5 -5q100 -54 100 -142q0 -80 -66.5 -137.5t-171.5 -57.5q-104 0 -172 57t-68 146zM360 361
q62 69 62 130q0 46 -34.5 73t-89.5 27t-87 -26.5t-32 -66.5q0 -14 4.5 -26t11 -21.5t19 -19t22.5 -16t28.5 -15t29.5 -13t33.5 -13.5zM152 197q0 -55 42.5 -90t100.5 -35q57 0 98 31.5t41 81.5q0 21 -9.5 38t-34 32.5t-41 24t-56 24t-54.5 22.5q-87 -60 -87 -129z" />
    <glyph glyph-name="nine.p_osf" horiz-adv-x="587" 
d="M100 -51q11 27 32 22q2 0 15 -4.5t30 -7.5t35 -3q93 0 147.5 68.5t66.5 163.5h-2q-23 -32 -68 -50.5t-97 -18.5q-94 0 -154.5 61t-60.5 152q0 98 63.5 162t162.5 64q113 0 186.5 -84t73.5 -220q0 -54 -11.5 -107t-36.5 -103t-61 -88t-88.5 -61t-115.5 -23q-55 0 -106 16
q-30 10 -18 42zM289 199q58 0 98.5 29t40.5 68q0 62 -45.5 120t-112.5 58q-60 0 -94 -38.5t-34 -99.5q0 -62 38.5 -99.5t108.5 -37.5z" />
    <glyph glyph-name="zero.t_osf" 
d="M47 272q0 117 62 201.5t178 84.5q117 0 179 -84.5t62 -202.5q0 -75 -24.5 -137t-80.5 -104t-136 -42q-60 0 -107 24t-75.5 65t-43 90.5t-14.5 104.5zM145 273q0 -83 36 -142t106 -59t106.5 59t36.5 142q0 82 -36.5 141.5t-106.5 59.5t-106 -59t-36 -142z" />
    <glyph glyph-name="one.t_osf" 
d="M130 33v18q0 32 33 32h119v306l1 59h-2q-16 -15 -39 -29l-63 -38q-27 -15 -45 11l-9 13q-19 26 11 45l136 85q18 11 40 11h32q32 0 32 -33v-430h105q33 0 33 -32v-18q0 -33 -33 -33h-318q-33 0 -33 33z" />
    <glyph glyph-name="two.t_osf" 
d="M86 33v8q0 25 22 40q144 96 214.5 164.5t70.5 129.5q0 49 -33 73t-82 24q-65 0 -126 -53q-26 -20 -46 4l-11 14q-22 25 2 46q89 75 193 75q90 0 146 -48.5t56 -121.5q0 -84 -63.5 -154t-196.5 -152v-2q21 3 60 3h193q33 0 33 -32v-18q0 -33 -33 -33h-366q-33 0 -33 33z
" />
    <glyph glyph-name="three.t_osf" 
d="M92 2q19 25 45 6q62 -52 135 -52q60 0 102 34t42 89q0 61 -48.5 93t-114.5 32h-25q-27 0 -38 26q-10 27 6 46l128 144q10 12 21 23t17 16l6 5v1q-21 -3 -60 -3h-173q-33 0 -33 33v18q0 33 33 33h330q33 0 33 -28v-6q0 -24 -15 -40l-178 -195q37 -3 72 -15t67 -33.5
t51.5 -59t19.5 -84.5q0 -92 -67 -152.5t-174 -60.5q-106 0 -189 69q-24 18 -5 46z" />
    <glyph glyph-name="four.t_osf" 
d="M20 65v11q0 20 12 37l284 412q13 21 39 21h57q33 0 33 -33v-396h68q33 0 33 -33v-18q0 -33 -27 -33h-74v-116q0 -33 -33 -33h-31q-33 0 -33 33v116h-296q-32 0 -32 32zM128 117h220v256l4 71h-2q-16 -37 -35 -63z" />
    <glyph glyph-name="five.t_osf" 
d="M92 -7l12 15q17 23 44 4q59 -49 127 -49q63 0 109.5 35.5t46.5 98.5t-45.5 98.5t-109.5 35.5q-47 0 -99 -22q-25 -8 -44 -1l-7 2q-26 10 -23 39l30 266q3 31 34 31h279q33 0 33 -33v-18q0 -33 -33 -33h-227l-16 -136l-6 -35h2q40 19 94 19q103 0 169.5 -57t66.5 -152
q0 -101 -70 -162t-178 -61q-105 0 -185 69q-26 20 -4 46z" />
    <glyph glyph-name="six.t_osf" 
d="M49 292q0 69 19 134.5t55.5 122t98.5 91t140 34.5q63 0 106 -16q31 -9 18 -42l-7 -19q-11 -25 -41 -19q-38 12 -71 12q-93 0 -147.5 -68.5t-66.5 -163.5h2q22 32 67 50.5t98 18.5q94 0 154.5 -60.5t60.5 -152.5q0 -98 -63.5 -162t-162.5 -64q-113 0 -186.5 84t-73.5 220z
M151 250q0 -62 45.5 -120t112.5 -58q60 0 94 38.5t34 99.5q0 62 -38.5 99.5t-108.5 37.5q-58 0 -98.5 -29t-40.5 -68z" />
    <glyph glyph-name="seven.t_osf" 
d="M133 -77l243 480q8 17 17 32t13 21l5 7v2q-19 -2 -49 -2h-269q-32 0 -32 33v17q0 33 32 33h394q33 0 33 -31v-13q0 -20 -10 -39l-282 -555q-13 -24 -39 -24h-32q-20 0 -26.5 11t2.5 28z" />
    <glyph glyph-name="eight.t_osf" 
d="M47 191q0 97 115 175q-85 53 -85 134q0 72 56 123t158 51q96 0 156.5 -48.5t60.5 -129.5q0 -16 -3.5 -33t-8.5 -31t-12.5 -28t-14.5 -24.5t-15 -21t-13.5 -16.5t-10.5 -12l-5 -5q100 -54 100 -142q0 -80 -66.5 -137.5t-171.5 -57.5q-104 0 -172 57t-68 146zM352 361
q62 69 62 130q0 46 -34.5 73t-89.5 27t-87 -26.5t-32 -66.5q0 -14 4.5 -26t11 -21.5t19 -19t22.5 -16t28.5 -15t29.5 -13t33.5 -13.5zM144 197q0 -55 42.5 -90t100.5 -35q57 0 98 31.5t41 81.5q0 21 -9.5 38t-34 32.5t-41 24t-56 24t-54.5 22.5q-87 -60 -87 -129z" />
    <glyph glyph-name="nine.t_osf" 
d="M93 -51q11 27 32 22q2 0 15 -4.5t30 -7.5t35 -3q93 0 147.5 68.5t66.5 163.5h-2q-23 -32 -68 -50.5t-97 -18.5q-94 0 -154.5 61t-60.5 152q0 98 63.5 162t162.5 64q113 0 186.5 -84t73.5 -220q0 -54 -11.5 -107t-36.5 -103t-61 -88t-88.5 -61t-115.5 -23q-55 0 -106 16
q-30 10 -18 42zM282 199q58 0 98.5 29t40.5 68q0 62 -45.5 120t-112.5 58q-60 0 -94 -38.5t-34 -99.5q0 -62 38.5 -99.5t108.5 -37.5z" />
    <glyph glyph-name="dollar.osf" horiz-adv-x="504" 
d="M75 63q-23 19 -5 46l14 19q19 26 46 5q68 -57 139 -57q47 0 77 21t30 58q0 29 -31 51.5t-75 39t-88 36.5t-75 57t-31 87q0 67 46.5 109.5t119.5 51.5v55q0 33 32 33h8q31 0 31 -29v-58q71 -7 126 -43q24 -17 10 -45l-11 -20q-13 -27 -45 -11q-51 34 -110 34
q-47 0 -76.5 -19.5t-29.5 -59.5q0 -29 31 -50.5t75 -38t88 -36t75 -56t31 -88.5q0 -65 -47 -110.5t-124 -53.5v-60q0 -33 -31 -33h-8q-32 0 -32 28v64q-89 10 -160 73z" />
    <glyph glyph-name="cent.osf" horiz-adv-x="543" 
d="M254 6v50q-94 15 -152.5 81.5t-58.5 161.5q0 93 58.5 160t152.5 82v52q0 33 33 33h6q33 0 33 -26v-56q80 -7 146 -57q27 -20 7 -46l-12 -17q-18 -25 -44 -7q-51 41 -113 41q-74 0 -121.5 -45t-47.5 -113q0 -70 47.5 -115.5t121.5 -45.5q61 0 113 42q27 18 44 -7l12 -18
q17 -27 -7 -45q-66 -52 -146 -58v-47q0 -33 -33 -33h-6q-33 0 -33 33z" />
    <glyph glyph-name="sterling.osf" horiz-adv-x="588" 
d="M56 33v18q0 32 31 32h30v158h-19q-28 0 -28 31v6q0 31 28 31h19v88q0 83 64 138t160 55q77 0 144 -38q30 -14 11 -45l-12 -18q-16 -24 -45 -12q-47 26 -97 26q-57 0 -92 -31.5t-35 -77.5v-85h184q33 0 33 -31v-6q0 -31 -33 -31h-184v-158h292q33 0 33 -32v-18
q0 -33 -33 -33h-418q-33 0 -33 33z" />
    <glyph glyph-name="yen.osf" horiz-adv-x="594" 
d="M122 141q-33 0 -33 28v6q0 29 33 29h132v22l-34 57h-98q-33 0 -33 29v6q0 29 33 29h61l-117 193q-10 16 -3 27.5t26 11.5h40q26 0 38 -23l92 -161l43 -90h2q22 50 43 90l92 161q13 23 39 23h40q20 0 26 -11.5t-4 -27.5l-116 -193h63q33 0 33 -29v-6q0 -29 -33 -29h-100
l-34 -57v-22h134q33 0 33 -29v-6q0 -28 -33 -28h-134v-108q0 -33 -33 -33h-33q-33 0 -33 33v108h-132z" />
    <glyph glyph-name="florin.osf" horiz-adv-x="377" 
d="M-30 -41q16 -2 36 -2q17 0 33 4t35 14.5t31.5 34t15.5 58.5l21 236h-50q-33 0 -33 33v12q0 33 33 33h56l10 105q4 48 21 83.5t39 55t50.5 31t50.5 15t45 3.5q25 0 53 -4q31 -3 31 -35v-18q0 -34 -26 -31q-32 4 -53 4q-17 0 -33 -4t-35 -14.5t-32 -34t-16 -58.5l-9 -98h85
q33 0 33 -33v-12q0 -33 -33 -33h-92l-21 -244q-4 -48 -21.5 -83.5t-39 -55t-50 -31t-50.5 -15t-45 -3.5q-22 0 -39 3q-30 3 -30 35v18q0 34 29 31z" />
    <glyph glyph-name="Euro.osf" horiz-adv-x="582" 
d="M76 198q-33 0 -33 26v7q0 26 33 26h32q-4 34 -1 61h-31q-33 0 -33 26v8q0 26 33 26h41q26 92 104.5 152t202.5 60q17 0 62 -6q34 -5 26 -39l-5 -17q-7 -30 -33 -25q-33 5 -52 5q-78 0 -129 -36t-73 -94h215q18 0 25.5 -7.5t5.5 -21.5l-1 -5q-6 -26 -35 -26h-225
q-5 -29 1 -61h207q18 0 25.5 -7t5.5 -21l-1 -6q-6 -25 -35 -25h-182q22 -57 72.5 -92t126.5 -35q16 0 55 6q32 6 40 -24l3 -18q7 -33 -25 -39q-34 -8 -74 -8q-120 0 -198.5 59t-106.5 151h-43z" />
    <glyph glyph-name="zero.numerator" horiz-adv-x="393" 
d="M197 260q-158 0 -158 229q0 228 158 228q157 0 157 -228q0 -229 -157 -229zM197 329q81 0 81 160q0 158 -81 158q-82 0 -82 -158q0 -160 82 -160z" />
    <glyph glyph-name="one.numerator" horiz-adv-x="303" 
d="M68 270q-33 0 -33 31v4q0 31 29 31h64v249l2 26h-2q-3 -7 -17 -20l-21 -21q-17 -13 -32 2l-8 9q-20 22 3 45l65 64q17 17 41 17h11q33 0 33 -33v-338h59q33 0 33 -31v-4q0 -31 -33 -31h-194z" />
    <glyph glyph-name="two.numerator" horiz-adv-x="358" 
d="M62 270q-33 0 -33 36q0 47 22 83.5t53 59t62 42t53 42.5t22 50q0 28 -20.5 46.5t-51.5 18.5t-62 -26q-26 -19 -45 -1l-4 3q-25 23 -2 45q53 48 117 48q62 0 103 -36.5t41 -94.5q0 -40 -20.5 -72t-50.5 -52.5t-60 -38.5t-51.5 -39.5t-23.5 -47.5h180q33 0 33 -31v-4
q0 -31 -33 -31h-229z" />
    <glyph glyph-name="three.numerator" horiz-adv-x="357" 
d="M184 260q-75 0 -125 45q-24 17 -5 43l4 5q16 21 44 6q35 -30 79 -30q33 0 57.5 22t24.5 54t-25.5 51.5t-59.5 19.5h-13q-25 0 -32 19t9 40l71 82l25 24v2q-19 -3 -36 -3h-109q-33 0 -33 32v4q0 31 33 31h206q33 0 33 -24v-5q0 -18 -16 -37l-93 -108q49 -8 82.5 -40
t33.5 -88q0 -59 -44 -102t-111 -43z" />
    <glyph glyph-name="four.numerator" horiz-adv-x="383" 
d="M256 270q-33 0 -33 33v74h-174q-33 0 -33 25v9q0 18 12 34l174 241q14 21 40 21h22q33 0 33 -33v-231h35q29 0 29 -31v-4q0 -31 -29 -31h-35v-74q0 -33 -33 -33h-8zM97 443h126v123l4 58h-2q-14 -27 -30 -48l-98 -131v-2z" />
    <glyph glyph-name="five.numerator" horiz-adv-x="356" 
d="M186 260q-61 0 -120 46q-23 19 -2 46l3 3q16 20 44 4q30 -30 71 -30q36 0 62.5 23.5t26.5 58.5t-26.5 59t-64.5 24q-21 0 -52 -13q-29 -7 -42 -1q-22 9 -19 37l17 159q3 31 35 31h166q33 0 33 -31v-3q0 -32 -33 -32h-136l-7 -64l-5 -32l2 -1q22 10 55 10
q66 0 109.5 -41.5t43.5 -101.5q0 -62 -45 -106.5t-116 -44.5z" />
    <glyph glyph-name="six.numerator" horiz-adv-x="377" 
d="M202 260q-72 0 -119 55.5t-47 147.5q0 62 19.5 117.5t67 96t114.5 40.5q32 0 61 -11q29 -10 17 -41l-2 -4q-7 -15 -14 -20t-19 -1q-23 7 -43 7q-47 0 -77 -35.5t-40 -89.5h2q33 31 81 31q65 0 105 -40t40 -102q0 -67 -41 -109t-105 -42zM201 329q33 0 52.5 23.5
t19.5 58.5q0 36 -22 60t-61 24q-30 0 -53 -17t-23 -39q0 -38 24.5 -74t62.5 -36z" />
    <glyph glyph-name="seven.numerator" horiz-adv-x="336" 
d="M78 270q-20 0 -26.5 11t3.5 28l153 284l28 47v2q-19 -2 -44 -2h-138q-33 0 -33 32v4q0 31 33 31h236q33 0 33 -25v-6q0 -20 -11 -39l-184 -344q-12 -23 -39 -23h-11z" />
    <glyph glyph-name="eight.numerator" horiz-adv-x="386" 
d="M194 259q-64 0 -111.5 36t-47.5 100t71 114q-51 37 -51 90q0 55 41.5 86t99.5 31q57 0 99.5 -31.5t42.5 -87.5q0 -52 -54 -112q64 -37 64 -99q0 -56 -45 -91.5t-109 -35.5zM230 511q37 37 37 82q0 27 -21.5 42.5t-50.5 15.5q-28 0 -47.5 -14.5t-19.5 -40.5
q0 -8 2.5 -15.5t6 -13.5t11 -12t12 -9.5t16 -9.5t17 -8.5t19 -8.5t18.5 -8zM194 324q30 0 54.5 18.5t24.5 46.5q0 13 -6 24t-20 21t-24.5 15.5t-34 15.5t-32.5 15q-47 -38 -47 -82q0 -34 25.5 -54t59.5 -20z" />
    <glyph glyph-name="nine.numerator" horiz-adv-x="377" 
d="M80 271q-29 10 -17 41l2 4q7 15 14 20t19 1q23 -7 43 -7q47 0 77 35.5t40 89.5h-2q-33 -31 -82 -31q-64 0 -104 40t-40 102q0 67 41 109t105 42q72 0 119 -55.5t47 -147.5q0 -62 -19.5 -117.5t-67 -96t-114.5 -40.5q-32 0 -61 11zM188 482q30 0 53 17t23 39
q0 38 -24.5 74t-62.5 36q-33 0 -52.5 -23.5t-19.5 -58.5q0 -36 22 -60t61 -24z" />
    <glyph glyph-name="zero.denominator" horiz-adv-x="393" 
d="M197 -10q-158 0 -158 229q0 228 158 228q157 0 157 -228q0 -229 -157 -229zM197 59q81 0 81 160q0 158 -81 158q-82 0 -82 -158q0 -160 82 -160z" />
    <glyph glyph-name="one.denominator" horiz-adv-x="303" 
d="M68 0q-33 0 -33 31v4q0 31 29 31h64v249l2 26h-2q-3 -7 -17 -20l-21 -21q-17 -13 -32 2l-8 9q-20 22 3 45l65 64q17 17 41 17h11q33 0 33 -33v-338h59q33 0 33 -31v-4q0 -31 -33 -31h-194z" />
    <glyph glyph-name="two.denominator" horiz-adv-x="357" 
d="M62 0q-33 0 -33 36q0 47 22 83.5t53 59t62 42t53 42.5t22 50q0 28 -20.5 46.5t-51.5 18.5t-62 -26q-26 -19 -45 -1l-4 3q-25 23 -2 45q53 48 117 48q62 0 103 -36.5t41 -94.5q0 -40 -20.5 -72t-50.5 -52.5t-60 -38.5t-51.5 -39.5t-23.5 -47.5h180q33 0 33 -31v-4
q0 -31 -33 -31h-229z" />
    <glyph glyph-name="three.denominator" horiz-adv-x="357" 
d="M184 -10q-75 0 -125 45q-24 17 -5 43l4 5q16 21 44 6q35 -30 79 -30q33 0 57.5 22t24.5 54t-25.5 51.5t-59.5 19.5h-13q-25 0 -32 19t9 40l71 82l25 24v2q-19 -3 -36 -3h-109q-33 0 -33 32v4q0 31 33 31h206q33 0 33 -24v-5q0 -18 -16 -37l-93 -108q49 -8 82.5 -40
t33.5 -88q0 -59 -44 -102t-111 -43z" />
    <glyph glyph-name="four.denominator" horiz-adv-x="383" 
d="M256 0q-33 0 -33 33v74h-174q-33 0 -33 25v9q0 18 12 34l174 241q14 21 40 21h22q33 0 33 -33v-231h35q29 0 29 -31v-4q0 -31 -29 -31h-35v-74q0 -33 -33 -33h-8zM97 173h126v123l4 58h-2q-14 -27 -30 -48l-98 -131v-2z" />
    <glyph glyph-name="five.denominator" horiz-adv-x="356" 
d="M186 -10q-61 0 -120 46q-23 19 -2 46l3 3q16 20 44 4q30 -30 71 -30q36 0 62.5 23.5t26.5 58.5t-26.5 59t-64.5 24q-21 0 -52 -13q-29 -7 -42 -1q-22 9 -19 37l17 159q3 31 35 31h166q33 0 33 -31v-3q0 -32 -33 -32h-136l-7 -64l-5 -32l2 -1q22 10 55 10
q66 0 109.5 -41.5t43.5 -101.5q0 -62 -45 -106.5t-116 -44.5z" />
    <glyph glyph-name="six.denominator" horiz-adv-x="378" 
d="M202 -10q-72 0 -119 55.5t-47 147.5q0 62 19.5 117.5t67 96t114.5 40.5q32 0 61 -11q29 -10 17 -41l-2 -4q-7 -15 -14 -20t-19 -1q-23 7 -43 7q-47 0 -77 -35.5t-40 -89.5h2q33 31 81 31q65 0 105 -40t40 -102q0 -67 -41 -109t-105 -42zM201 59q33 0 52.5 23.5t19.5 58.5
q0 36 -22 60t-61 24q-30 0 -53 -17t-23 -39q0 -38 24.5 -74t62.5 -36z" />
    <glyph glyph-name="seven.denominator" horiz-adv-x="336" 
d="M78 0q-20 0 -26.5 11t3.5 28l153 284l28 47v2q-19 -2 -44 -2h-138q-33 0 -33 32v4q0 31 33 31h236q33 0 33 -25v-6q0 -20 -11 -39l-184 -344q-12 -23 -39 -23h-11z" />
    <glyph glyph-name="eight.denominator" horiz-adv-x="386" 
d="M194 -10q-64 0 -111.5 36t-47.5 100t71 114q-51 37 -51 90q0 55 41.5 86t99.5 31q57 0 99.5 -31.5t42.5 -87.5q0 -52 -54 -112q64 -37 64 -99q0 -56 -45 -91.5t-109 -35.5zM230 242q37 37 37 82q0 27 -21.5 42.5t-50.5 15.5q-28 0 -47.5 -14.5t-19.5 -40.5
q0 -8 2.5 -15.5t6 -13.5t11 -12t12 -9.5t16 -9.5t17 -8.5t19 -8.5t18.5 -8zM194 55q30 0 54.5 18.5t24.5 46.5q0 13 -6 24t-20 21t-24.5 15.5t-34 15.5t-32.5 15q-47 -38 -47 -82q0 -34 25.5 -54t59.5 -20z" />
    <glyph glyph-name="nine.denominator" horiz-adv-x="378" 
d="M80 1q-29 10 -17 41l2 4q7 15 14 20t19 1q23 -7 43 -7q47 0 77 35.5t40 89.5h-2q-33 -31 -82 -31q-64 0 -104 40t-40 102q0 67 41 109t105 42q72 0 119 -55.5t47 -147.5q0 -62 -19.5 -117.5t-67 -96t-114.5 -40.5q-32 0 -61 11zM188 212q30 0 53 17t23 39q0 38 -24.5 74
t-62.5 36q-33 0 -52.5 -23.5t-19.5 -58.5q0 -36 22 -60t61 -24z" />
  </font>
</defs>
</svg>
